M48
; DRILL file {KiCad 5.1.5+dfsg1-2build2} date Sun Dec 10 12:38:17 2023
; FORMAT={-:-/ absolute / metric / decimal}
; #@! TF.CreationDate,2023-12-10T12:38:17-06:00
; #@! TF.GenerationSoftware,Kicad,Pcbnew,5.1.5+dfsg1-2build2
; #@! TF.FileFunction,Plated,1,4,PTH
FMAT,2
METRIC
T1C0.300
T2C0.508
T3C1.000
%
G90
G05
T1
X90.805Y-45.72
X90.805Y-48.26
X90.805Y-50.8
X90.805Y-53.34
X90.805Y-55.88
X90.805Y-58.42
X90.805Y-60.96
X90.805Y-63.5
X90.805Y-66.04
X90.805Y-68.58
X90.805Y-71.12
X90.805Y-73.66
X90.805Y-76.2
X90.805Y-78.74
X90.805Y-81.28
X90.805Y-83.82
X90.805Y-86.36
X90.805Y-88.9
X90.805Y-91.44
X90.805Y-93.98
X90.805Y-96.52
X90.805Y-99.06
X90.805Y-101.6
X90.805Y-104.14
X90.805Y-106.68
X90.805Y-109.22
X90.805Y-111.76
X96.3Y-99.12
X96.37Y-73.72
X96.38Y-52.12
X96.39Y-57.54
X96.52Y-76.44
X96.53Y-79.11
X96.53Y-104.48
X96.56Y-93.5
X96.6Y-95.98
X96.62Y-84.05
X96.62Y-111.67
X96.66Y-81.51
X96.9Y-48.1
X96.92Y-90.88
X97.06Y-97.51
X97.96Y-108.48
X98.49Y-105.62
X98.72Y-65.37
X99.06Y-86.53
X99.06Y-116.84
X102.87Y-116.84
X103.9Y-60.61
X106.68Y-41.91
X106.68Y-116.84
X107.0Y-67.78
X107.117Y-66.832
X107.13Y-66.01
X107.58Y-72.42
X107.59Y-73.31
X107.6Y-71.56
X110.0Y-79.09
X110.49Y-41.91
X110.49Y-116.84
X110.98Y-72.41
X111.04Y-71.59
X111.2Y-77.16
X111.28Y-68.08
X111.33Y-70.3
X111.46Y-73.25
X111.74Y-65.46
X111.82Y-59.41
X113.03Y-61.595
X113.26Y-78.4
X113.97Y-56.85
X114.05Y-54.75
X114.19Y-76.205
X114.2Y-58.37
X114.21Y-52.4
X114.3Y-41.91
X114.3Y-116.84
X114.94Y-75.735
X114.99Y-65.29
X115.02Y-53.4
X115.63Y-105.46
X115.79Y-74.96
X115.8Y-51.41
X116.18Y-97.58
X116.19Y-98.39
X116.69Y-74.2
X117.02Y-56.11
X117.45Y-78.51
X118.11Y-41.91
X118.11Y-116.84
X118.33Y-65.32
X118.62Y-97.59
X118.64Y-98.39
X118.83Y-51.454
X118.96Y-78.57
X119.11Y-105.28
X120.37Y-78.92
X120.65Y-61.595
X121.0Y-70.04
X121.01Y-83.64
X121.21Y-51.494
X121.66Y-69.21
X121.66Y-84.19
X121.72Y-65.38
X121.92Y-41.91
X121.92Y-116.84
X122.28Y-68.43
X122.29Y-61.595
X122.3Y-84.7
X122.97Y-67.76
X122.99Y-85.22
X123.9Y-78.58
X125.12Y-65.41
X125.6Y-78.56
X125.73Y-41.91
X125.73Y-116.84
X126.8Y-51.904
X126.95Y-106.26
X127.22Y-97.58
X127.23Y-98.4
X127.39Y-78.59
X127.4Y-103.98
X127.42Y-103.18
X127.433Y-102.379
X127.79Y-60.325
X127.79Y-61.32
X128.14Y-88.27
X128.87Y-65.49
X129.15Y-78.61
X129.33Y-51.854
X129.54Y-41.91
X129.54Y-116.84
X129.69Y-104.8
X129.72Y-101.6
X129.73Y-100.0
X129.73Y-100.8
X129.75Y-99.2
X129.78Y-95.99
X129.78Y-91.991
X129.789Y-97.59
X129.79Y-92.79
X129.79Y-94.39
X129.79Y-98.39
X129.79Y-95.19
X129.8Y-93.59
X129.8Y-96.79
X129.96Y-71.47
X130.01Y-75.66
X130.06Y-66.78
X130.1Y-90.33
X130.2Y-65.12
X130.3Y-73.45
X130.36Y-106.54
X130.56Y-77.85
X130.61Y-74.78
X130.65Y-103.43
X130.77Y-76.4
X130.92Y-71.59
X130.937Y-72.435
X131.032Y-70.783
X131.32Y-81.14
X131.45Y-64.15
X131.83Y-51.844
X132.05Y-96.14
X133.35Y-41.91
X133.35Y-116.84
X133.36Y-94.9
X134.3Y-70.82
X134.32Y-72.39
X134.36Y-52.084
X134.509Y-77.202
X134.52Y-65.98
X134.54Y-66.8
X134.56Y-75.56
X134.57Y-78.0
X134.58Y-78.94
X135.31Y-94.92
X135.43Y-68.86
X135.88Y-102.64
X136.15Y-74.78
X136.33Y-51.744
X136.59Y-96.06
X136.82Y-75.54
X137.16Y-41.91
X137.16Y-116.84
X137.28Y-68.8
X137.45Y-76.39
X138.19Y-62.72
X138.87Y-89.78
X139.31Y-65.13
X140.05Y-65.98
X140.85Y-66.82
X140.97Y-41.91
X140.97Y-116.84
X141.57Y-77.3
X142.42Y-78.01
X142.83Y-71.58
X144.78Y-41.91
X144.78Y-116.84
X147.32Y-49.53
X147.32Y-53.34
X147.32Y-57.15
X147.32Y-60.96
X147.32Y-64.77
X147.32Y-68.58
X147.32Y-72.39
X147.32Y-76.2
X147.32Y-80.01
X147.32Y-83.82
X147.32Y-87.63
X147.32Y-91.44
X147.32Y-95.25
X147.32Y-99.06
X147.32Y-102.87
X147.32Y-106.68
T2
X135.78Y-73.58
X136.83Y-98.21
X137.36Y-73.58
T3
X92.0Y-42.0
X92.0Y-44.54
X92.0Y-47.08
X92.0Y-49.62
X92.0Y-52.16
X92.0Y-54.7
X92.0Y-57.24
X92.0Y-59.78
X92.0Y-62.32
X92.0Y-64.86
X92.0Y-67.4
X92.0Y-69.94
X92.0Y-72.48
X92.0Y-75.02
X92.0Y-77.56
X92.0Y-80.1
X92.0Y-82.64
X92.0Y-85.18
X92.0Y-87.72
X92.0Y-90.26
X92.0Y-92.8
X92.0Y-95.34
X92.0Y-97.88
X92.0Y-100.42
X92.0Y-102.96
X92.0Y-105.5
X92.0Y-108.04
X92.0Y-110.58
X92.0Y-113.12
X92.0Y-115.66
X94.54Y-42.0
X94.54Y-44.54
X94.54Y-47.08
X94.54Y-49.62
X94.54Y-52.16
X94.54Y-54.7
X94.54Y-57.24
X94.54Y-59.78
X94.54Y-62.32
X94.54Y-64.86
X94.54Y-67.4
X94.54Y-69.94
X94.54Y-72.48
X94.54Y-75.02
X94.54Y-77.56
X94.54Y-80.1
X94.54Y-82.64
X94.54Y-85.18
X94.54Y-87.72
X94.54Y-90.26
X94.54Y-92.8
X94.54Y-95.34
X94.54Y-97.88
X94.54Y-100.42
X94.54Y-102.96
X94.54Y-105.5
X94.54Y-108.04
X94.54Y-110.58
X94.54Y-113.12
X94.54Y-115.66
X114.7Y-46.834
X114.7Y-49.374
X117.24Y-46.834
X117.24Y-49.374
X119.78Y-46.834
X119.78Y-49.374
X122.32Y-46.834
X122.32Y-49.374
X124.86Y-46.834
X124.86Y-49.374
X127.4Y-46.834
X127.4Y-49.374
X129.94Y-46.834
X129.94Y-49.374
X132.48Y-46.834
X132.48Y-49.374
X135.02Y-46.834
X135.02Y-49.374
X137.56Y-46.834
X137.56Y-49.374
X140.1Y-46.834
X140.1Y-49.374
X142.64Y-46.834
X142.64Y-49.374
T0
M30
