%TF.GenerationSoftware,KiCad,Pcbnew,5.1.5+dfsg1-2build2*%
%TF.CreationDate,2023-12-10T12:38:11-06:00*%
%TF.ProjectId,2067-Z8S180,32303637-2d5a-4385-9331-38302e6b6963,rev?*%
%TF.SameCoordinates,Original*%
%TF.FileFunction,Legend,Bot*%
%TF.FilePolarity,Positive*%
%FSLAX46Y46*%
G04 Gerber Fmt 4.6, Leading zero omitted, Abs format (unit mm)*
G04 Created by KiCad (PCBNEW 5.1.5+dfsg1-2build2) date 2023-12-10 12:38:11*
%MOMM*%
%LPD*%
G04 APERTURE LIST*
%ADD10C,6.700000*%
%ADD11O,1.802000X1.802000*%
%ADD12R,1.802000X1.802000*%
G04 APERTURE END LIST*
%LPC*%
D10*
X101000000Y-113000000D03*
X150000000Y-113000000D03*
X150000000Y-45000000D03*
X101000000Y-45000000D03*
D11*
X142640000Y-46834000D03*
X142640000Y-49374000D03*
X140100000Y-46834000D03*
X140100000Y-49374000D03*
X137560000Y-46834000D03*
X137560000Y-49374000D03*
X135020000Y-46834000D03*
X135020000Y-49374000D03*
X132480000Y-46834000D03*
X132480000Y-49374000D03*
X129940000Y-46834000D03*
X129940000Y-49374000D03*
X127400000Y-46834000D03*
X127400000Y-49374000D03*
X124860000Y-46834000D03*
X124860000Y-49374000D03*
X122320000Y-46834000D03*
X122320000Y-49374000D03*
X119780000Y-46834000D03*
X119780000Y-49374000D03*
X117240000Y-46834000D03*
X117240000Y-49374000D03*
X114700000Y-46834000D03*
D12*
X114700000Y-49374000D03*
D11*
X94540000Y-115660000D03*
X92000000Y-115660000D03*
X94540000Y-113120000D03*
X92000000Y-113120000D03*
X94540000Y-110580000D03*
X92000000Y-110580000D03*
X94540000Y-108040000D03*
X92000000Y-108040000D03*
X94540000Y-105500000D03*
X92000000Y-105500000D03*
X94540000Y-102960000D03*
X92000000Y-102960000D03*
X94540000Y-100420000D03*
X92000000Y-100420000D03*
X94540000Y-97880000D03*
X92000000Y-97880000D03*
X94540000Y-95340000D03*
X92000000Y-95340000D03*
X94540000Y-92800000D03*
X92000000Y-92800000D03*
X94540000Y-90260000D03*
X92000000Y-90260000D03*
X94540000Y-87720000D03*
X92000000Y-87720000D03*
X94540000Y-85180000D03*
X92000000Y-85180000D03*
X94540000Y-82640000D03*
X92000000Y-82640000D03*
X94540000Y-80100000D03*
X92000000Y-80100000D03*
X94540000Y-77560000D03*
X92000000Y-77560000D03*
X94540000Y-75020000D03*
X92000000Y-75020000D03*
X94540000Y-72480000D03*
X92000000Y-72480000D03*
X94540000Y-69940000D03*
X92000000Y-69940000D03*
X94540000Y-67400000D03*
X92000000Y-67400000D03*
X94540000Y-64860000D03*
X92000000Y-64860000D03*
X94540000Y-62320000D03*
X92000000Y-62320000D03*
X94540000Y-59780000D03*
X92000000Y-59780000D03*
X94540000Y-57240000D03*
X92000000Y-57240000D03*
X94540000Y-54700000D03*
X92000000Y-54700000D03*
X94540000Y-52160000D03*
X92000000Y-52160000D03*
X94540000Y-49620000D03*
X92000000Y-49620000D03*
X94540000Y-47080000D03*
X92000000Y-47080000D03*
X94540000Y-44540000D03*
X92000000Y-44540000D03*
X94540000Y-42000000D03*
D12*
X92000000Y-42000000D03*
M02*
