%TF.GenerationSoftware,KiCad,Pcbnew,5.1.5+dfsg1-2build2*%
%TF.CreationDate,2023-06-17T11:27:21-05:00*%
%TF.ProjectId,2067-Z8S180,32303637-2d5a-4385-9331-38302e6b6963,rev?*%
%TF.SameCoordinates,Original*%
%TF.FileFunction,Soldermask,Bot*%
%TF.FilePolarity,Negative*%
%FSLAX46Y46*%
G04 Gerber Fmt 4.6, Leading zero omitted, Abs format (unit mm)*
G04 Created by KiCad (PCBNEW 5.1.5+dfsg1-2build2) date 2023-06-17 11:27:21*
%MOMM*%
%LPD*%
G04 APERTURE LIST*
%ADD10C,0.100000*%
G04 APERTURE END LIST*
D10*
G36*
X94653512Y-114763927D02*
G01*
X94802812Y-114793624D01*
X94966784Y-114861544D01*
X95114354Y-114960147D01*
X95239853Y-115085646D01*
X95338456Y-115233216D01*
X95406376Y-115397188D01*
X95441000Y-115571259D01*
X95441000Y-115748741D01*
X95406376Y-115922812D01*
X95338456Y-116086784D01*
X95239853Y-116234354D01*
X95114354Y-116359853D01*
X94966784Y-116458456D01*
X94802812Y-116526376D01*
X94653512Y-116556073D01*
X94628742Y-116561000D01*
X94451258Y-116561000D01*
X94426488Y-116556073D01*
X94277188Y-116526376D01*
X94113216Y-116458456D01*
X93965646Y-116359853D01*
X93840147Y-116234354D01*
X93741544Y-116086784D01*
X93673624Y-115922812D01*
X93639000Y-115748741D01*
X93639000Y-115571259D01*
X93673624Y-115397188D01*
X93741544Y-115233216D01*
X93840147Y-115085646D01*
X93965646Y-114960147D01*
X94113216Y-114861544D01*
X94277188Y-114793624D01*
X94426488Y-114763927D01*
X94451258Y-114759000D01*
X94628742Y-114759000D01*
X94653512Y-114763927D01*
G37*
G36*
X92113512Y-114763927D02*
G01*
X92262812Y-114793624D01*
X92426784Y-114861544D01*
X92574354Y-114960147D01*
X92699853Y-115085646D01*
X92798456Y-115233216D01*
X92866376Y-115397188D01*
X92901000Y-115571259D01*
X92901000Y-115748741D01*
X92866376Y-115922812D01*
X92798456Y-116086784D01*
X92699853Y-116234354D01*
X92574354Y-116359853D01*
X92426784Y-116458456D01*
X92262812Y-116526376D01*
X92113512Y-116556073D01*
X92088742Y-116561000D01*
X91911258Y-116561000D01*
X91886488Y-116556073D01*
X91737188Y-116526376D01*
X91573216Y-116458456D01*
X91425646Y-116359853D01*
X91300147Y-116234354D01*
X91201544Y-116086784D01*
X91133624Y-115922812D01*
X91099000Y-115748741D01*
X91099000Y-115571259D01*
X91133624Y-115397188D01*
X91201544Y-115233216D01*
X91300147Y-115085646D01*
X91425646Y-114960147D01*
X91573216Y-114861544D01*
X91737188Y-114793624D01*
X91886488Y-114763927D01*
X91911258Y-114759000D01*
X92088742Y-114759000D01*
X92113512Y-114763927D01*
G37*
G36*
X94653512Y-112223927D02*
G01*
X94802812Y-112253624D01*
X94966784Y-112321544D01*
X95114354Y-112420147D01*
X95239853Y-112545646D01*
X95338456Y-112693216D01*
X95406376Y-112857188D01*
X95441000Y-113031259D01*
X95441000Y-113208741D01*
X95406376Y-113382812D01*
X95338456Y-113546784D01*
X95239853Y-113694354D01*
X95114354Y-113819853D01*
X94966784Y-113918456D01*
X94802812Y-113986376D01*
X94653512Y-114016073D01*
X94628742Y-114021000D01*
X94451258Y-114021000D01*
X94426488Y-114016073D01*
X94277188Y-113986376D01*
X94113216Y-113918456D01*
X93965646Y-113819853D01*
X93840147Y-113694354D01*
X93741544Y-113546784D01*
X93673624Y-113382812D01*
X93639000Y-113208741D01*
X93639000Y-113031259D01*
X93673624Y-112857188D01*
X93741544Y-112693216D01*
X93840147Y-112545646D01*
X93965646Y-112420147D01*
X94113216Y-112321544D01*
X94277188Y-112253624D01*
X94426488Y-112223927D01*
X94451258Y-112219000D01*
X94628742Y-112219000D01*
X94653512Y-112223927D01*
G37*
G36*
X92113512Y-112223927D02*
G01*
X92262812Y-112253624D01*
X92426784Y-112321544D01*
X92574354Y-112420147D01*
X92699853Y-112545646D01*
X92798456Y-112693216D01*
X92866376Y-112857188D01*
X92901000Y-113031259D01*
X92901000Y-113208741D01*
X92866376Y-113382812D01*
X92798456Y-113546784D01*
X92699853Y-113694354D01*
X92574354Y-113819853D01*
X92426784Y-113918456D01*
X92262812Y-113986376D01*
X92113512Y-114016073D01*
X92088742Y-114021000D01*
X91911258Y-114021000D01*
X91886488Y-114016073D01*
X91737188Y-113986376D01*
X91573216Y-113918456D01*
X91425646Y-113819853D01*
X91300147Y-113694354D01*
X91201544Y-113546784D01*
X91133624Y-113382812D01*
X91099000Y-113208741D01*
X91099000Y-113031259D01*
X91133624Y-112857188D01*
X91201544Y-112693216D01*
X91300147Y-112545646D01*
X91425646Y-112420147D01*
X91573216Y-112321544D01*
X91737188Y-112253624D01*
X91886488Y-112223927D01*
X91911258Y-112219000D01*
X92088742Y-112219000D01*
X92113512Y-112223927D01*
G37*
G36*
X94653512Y-109683927D02*
G01*
X94802812Y-109713624D01*
X94966784Y-109781544D01*
X95114354Y-109880147D01*
X95239853Y-110005646D01*
X95338456Y-110153216D01*
X95406376Y-110317188D01*
X95441000Y-110491259D01*
X95441000Y-110668741D01*
X95406376Y-110842812D01*
X95338456Y-111006784D01*
X95239853Y-111154354D01*
X95114354Y-111279853D01*
X94966784Y-111378456D01*
X94802812Y-111446376D01*
X94653512Y-111476073D01*
X94628742Y-111481000D01*
X94451258Y-111481000D01*
X94426488Y-111476073D01*
X94277188Y-111446376D01*
X94113216Y-111378456D01*
X93965646Y-111279853D01*
X93840147Y-111154354D01*
X93741544Y-111006784D01*
X93673624Y-110842812D01*
X93639000Y-110668741D01*
X93639000Y-110491259D01*
X93673624Y-110317188D01*
X93741544Y-110153216D01*
X93840147Y-110005646D01*
X93965646Y-109880147D01*
X94113216Y-109781544D01*
X94277188Y-109713624D01*
X94426488Y-109683927D01*
X94451258Y-109679000D01*
X94628742Y-109679000D01*
X94653512Y-109683927D01*
G37*
G36*
X92113512Y-109683927D02*
G01*
X92262812Y-109713624D01*
X92426784Y-109781544D01*
X92574354Y-109880147D01*
X92699853Y-110005646D01*
X92798456Y-110153216D01*
X92866376Y-110317188D01*
X92901000Y-110491259D01*
X92901000Y-110668741D01*
X92866376Y-110842812D01*
X92798456Y-111006784D01*
X92699853Y-111154354D01*
X92574354Y-111279853D01*
X92426784Y-111378456D01*
X92262812Y-111446376D01*
X92113512Y-111476073D01*
X92088742Y-111481000D01*
X91911258Y-111481000D01*
X91886488Y-111476073D01*
X91737188Y-111446376D01*
X91573216Y-111378456D01*
X91425646Y-111279853D01*
X91300147Y-111154354D01*
X91201544Y-111006784D01*
X91133624Y-110842812D01*
X91099000Y-110668741D01*
X91099000Y-110491259D01*
X91133624Y-110317188D01*
X91201544Y-110153216D01*
X91300147Y-110005646D01*
X91425646Y-109880147D01*
X91573216Y-109781544D01*
X91737188Y-109713624D01*
X91886488Y-109683927D01*
X91911258Y-109679000D01*
X92088742Y-109679000D01*
X92113512Y-109683927D01*
G37*
G36*
X94653512Y-107143927D02*
G01*
X94802812Y-107173624D01*
X94966784Y-107241544D01*
X95114354Y-107340147D01*
X95239853Y-107465646D01*
X95338456Y-107613216D01*
X95406376Y-107777188D01*
X95441000Y-107951259D01*
X95441000Y-108128741D01*
X95406376Y-108302812D01*
X95338456Y-108466784D01*
X95239853Y-108614354D01*
X95114354Y-108739853D01*
X94966784Y-108838456D01*
X94802812Y-108906376D01*
X94653512Y-108936073D01*
X94628742Y-108941000D01*
X94451258Y-108941000D01*
X94426488Y-108936073D01*
X94277188Y-108906376D01*
X94113216Y-108838456D01*
X93965646Y-108739853D01*
X93840147Y-108614354D01*
X93741544Y-108466784D01*
X93673624Y-108302812D01*
X93639000Y-108128741D01*
X93639000Y-107951259D01*
X93673624Y-107777188D01*
X93741544Y-107613216D01*
X93840147Y-107465646D01*
X93965646Y-107340147D01*
X94113216Y-107241544D01*
X94277188Y-107173624D01*
X94426488Y-107143927D01*
X94451258Y-107139000D01*
X94628742Y-107139000D01*
X94653512Y-107143927D01*
G37*
G36*
X92113512Y-107143927D02*
G01*
X92262812Y-107173624D01*
X92426784Y-107241544D01*
X92574354Y-107340147D01*
X92699853Y-107465646D01*
X92798456Y-107613216D01*
X92866376Y-107777188D01*
X92901000Y-107951259D01*
X92901000Y-108128741D01*
X92866376Y-108302812D01*
X92798456Y-108466784D01*
X92699853Y-108614354D01*
X92574354Y-108739853D01*
X92426784Y-108838456D01*
X92262812Y-108906376D01*
X92113512Y-108936073D01*
X92088742Y-108941000D01*
X91911258Y-108941000D01*
X91886488Y-108936073D01*
X91737188Y-108906376D01*
X91573216Y-108838456D01*
X91425646Y-108739853D01*
X91300147Y-108614354D01*
X91201544Y-108466784D01*
X91133624Y-108302812D01*
X91099000Y-108128741D01*
X91099000Y-107951259D01*
X91133624Y-107777188D01*
X91201544Y-107613216D01*
X91300147Y-107465646D01*
X91425646Y-107340147D01*
X91573216Y-107241544D01*
X91737188Y-107173624D01*
X91886488Y-107143927D01*
X91911258Y-107139000D01*
X92088742Y-107139000D01*
X92113512Y-107143927D01*
G37*
G36*
X94653512Y-104603927D02*
G01*
X94802812Y-104633624D01*
X94966784Y-104701544D01*
X95114354Y-104800147D01*
X95239853Y-104925646D01*
X95338456Y-105073216D01*
X95406376Y-105237188D01*
X95441000Y-105411259D01*
X95441000Y-105588741D01*
X95406376Y-105762812D01*
X95338456Y-105926784D01*
X95239853Y-106074354D01*
X95114354Y-106199853D01*
X94966784Y-106298456D01*
X94802812Y-106366376D01*
X94653512Y-106396073D01*
X94628742Y-106401000D01*
X94451258Y-106401000D01*
X94426488Y-106396073D01*
X94277188Y-106366376D01*
X94113216Y-106298456D01*
X93965646Y-106199853D01*
X93840147Y-106074354D01*
X93741544Y-105926784D01*
X93673624Y-105762812D01*
X93639000Y-105588741D01*
X93639000Y-105411259D01*
X93673624Y-105237188D01*
X93741544Y-105073216D01*
X93840147Y-104925646D01*
X93965646Y-104800147D01*
X94113216Y-104701544D01*
X94277188Y-104633624D01*
X94426488Y-104603927D01*
X94451258Y-104599000D01*
X94628742Y-104599000D01*
X94653512Y-104603927D01*
G37*
G36*
X92113512Y-104603927D02*
G01*
X92262812Y-104633624D01*
X92426784Y-104701544D01*
X92574354Y-104800147D01*
X92699853Y-104925646D01*
X92798456Y-105073216D01*
X92866376Y-105237188D01*
X92901000Y-105411259D01*
X92901000Y-105588741D01*
X92866376Y-105762812D01*
X92798456Y-105926784D01*
X92699853Y-106074354D01*
X92574354Y-106199853D01*
X92426784Y-106298456D01*
X92262812Y-106366376D01*
X92113512Y-106396073D01*
X92088742Y-106401000D01*
X91911258Y-106401000D01*
X91886488Y-106396073D01*
X91737188Y-106366376D01*
X91573216Y-106298456D01*
X91425646Y-106199853D01*
X91300147Y-106074354D01*
X91201544Y-105926784D01*
X91133624Y-105762812D01*
X91099000Y-105588741D01*
X91099000Y-105411259D01*
X91133624Y-105237188D01*
X91201544Y-105073216D01*
X91300147Y-104925646D01*
X91425646Y-104800147D01*
X91573216Y-104701544D01*
X91737188Y-104633624D01*
X91886488Y-104603927D01*
X91911258Y-104599000D01*
X92088742Y-104599000D01*
X92113512Y-104603927D01*
G37*
G36*
X94653512Y-102063927D02*
G01*
X94802812Y-102093624D01*
X94966784Y-102161544D01*
X95114354Y-102260147D01*
X95239853Y-102385646D01*
X95338456Y-102533216D01*
X95406376Y-102697188D01*
X95441000Y-102871259D01*
X95441000Y-103048741D01*
X95406376Y-103222812D01*
X95338456Y-103386784D01*
X95239853Y-103534354D01*
X95114354Y-103659853D01*
X94966784Y-103758456D01*
X94802812Y-103826376D01*
X94653512Y-103856073D01*
X94628742Y-103861000D01*
X94451258Y-103861000D01*
X94426488Y-103856073D01*
X94277188Y-103826376D01*
X94113216Y-103758456D01*
X93965646Y-103659853D01*
X93840147Y-103534354D01*
X93741544Y-103386784D01*
X93673624Y-103222812D01*
X93639000Y-103048741D01*
X93639000Y-102871259D01*
X93673624Y-102697188D01*
X93741544Y-102533216D01*
X93840147Y-102385646D01*
X93965646Y-102260147D01*
X94113216Y-102161544D01*
X94277188Y-102093624D01*
X94426488Y-102063927D01*
X94451258Y-102059000D01*
X94628742Y-102059000D01*
X94653512Y-102063927D01*
G37*
G36*
X92113512Y-102063927D02*
G01*
X92262812Y-102093624D01*
X92426784Y-102161544D01*
X92574354Y-102260147D01*
X92699853Y-102385646D01*
X92798456Y-102533216D01*
X92866376Y-102697188D01*
X92901000Y-102871259D01*
X92901000Y-103048741D01*
X92866376Y-103222812D01*
X92798456Y-103386784D01*
X92699853Y-103534354D01*
X92574354Y-103659853D01*
X92426784Y-103758456D01*
X92262812Y-103826376D01*
X92113512Y-103856073D01*
X92088742Y-103861000D01*
X91911258Y-103861000D01*
X91886488Y-103856073D01*
X91737188Y-103826376D01*
X91573216Y-103758456D01*
X91425646Y-103659853D01*
X91300147Y-103534354D01*
X91201544Y-103386784D01*
X91133624Y-103222812D01*
X91099000Y-103048741D01*
X91099000Y-102871259D01*
X91133624Y-102697188D01*
X91201544Y-102533216D01*
X91300147Y-102385646D01*
X91425646Y-102260147D01*
X91573216Y-102161544D01*
X91737188Y-102093624D01*
X91886488Y-102063927D01*
X91911258Y-102059000D01*
X92088742Y-102059000D01*
X92113512Y-102063927D01*
G37*
G36*
X94653512Y-99523927D02*
G01*
X94802812Y-99553624D01*
X94966784Y-99621544D01*
X95114354Y-99720147D01*
X95239853Y-99845646D01*
X95338456Y-99993216D01*
X95406376Y-100157188D01*
X95441000Y-100331259D01*
X95441000Y-100508741D01*
X95406376Y-100682812D01*
X95338456Y-100846784D01*
X95239853Y-100994354D01*
X95114354Y-101119853D01*
X94966784Y-101218456D01*
X94802812Y-101286376D01*
X94653512Y-101316073D01*
X94628742Y-101321000D01*
X94451258Y-101321000D01*
X94426488Y-101316073D01*
X94277188Y-101286376D01*
X94113216Y-101218456D01*
X93965646Y-101119853D01*
X93840147Y-100994354D01*
X93741544Y-100846784D01*
X93673624Y-100682812D01*
X93639000Y-100508741D01*
X93639000Y-100331259D01*
X93673624Y-100157188D01*
X93741544Y-99993216D01*
X93840147Y-99845646D01*
X93965646Y-99720147D01*
X94113216Y-99621544D01*
X94277188Y-99553624D01*
X94426488Y-99523927D01*
X94451258Y-99519000D01*
X94628742Y-99519000D01*
X94653512Y-99523927D01*
G37*
G36*
X92113512Y-99523927D02*
G01*
X92262812Y-99553624D01*
X92426784Y-99621544D01*
X92574354Y-99720147D01*
X92699853Y-99845646D01*
X92798456Y-99993216D01*
X92866376Y-100157188D01*
X92901000Y-100331259D01*
X92901000Y-100508741D01*
X92866376Y-100682812D01*
X92798456Y-100846784D01*
X92699853Y-100994354D01*
X92574354Y-101119853D01*
X92426784Y-101218456D01*
X92262812Y-101286376D01*
X92113512Y-101316073D01*
X92088742Y-101321000D01*
X91911258Y-101321000D01*
X91886488Y-101316073D01*
X91737188Y-101286376D01*
X91573216Y-101218456D01*
X91425646Y-101119853D01*
X91300147Y-100994354D01*
X91201544Y-100846784D01*
X91133624Y-100682812D01*
X91099000Y-100508741D01*
X91099000Y-100331259D01*
X91133624Y-100157188D01*
X91201544Y-99993216D01*
X91300147Y-99845646D01*
X91425646Y-99720147D01*
X91573216Y-99621544D01*
X91737188Y-99553624D01*
X91886488Y-99523927D01*
X91911258Y-99519000D01*
X92088742Y-99519000D01*
X92113512Y-99523927D01*
G37*
G36*
X92113512Y-96983927D02*
G01*
X92262812Y-97013624D01*
X92426784Y-97081544D01*
X92574354Y-97180147D01*
X92699853Y-97305646D01*
X92798456Y-97453216D01*
X92866376Y-97617188D01*
X92901000Y-97791259D01*
X92901000Y-97968741D01*
X92866376Y-98142812D01*
X92798456Y-98306784D01*
X92699853Y-98454354D01*
X92574354Y-98579853D01*
X92426784Y-98678456D01*
X92262812Y-98746376D01*
X92113512Y-98776073D01*
X92088742Y-98781000D01*
X91911258Y-98781000D01*
X91886488Y-98776073D01*
X91737188Y-98746376D01*
X91573216Y-98678456D01*
X91425646Y-98579853D01*
X91300147Y-98454354D01*
X91201544Y-98306784D01*
X91133624Y-98142812D01*
X91099000Y-97968741D01*
X91099000Y-97791259D01*
X91133624Y-97617188D01*
X91201544Y-97453216D01*
X91300147Y-97305646D01*
X91425646Y-97180147D01*
X91573216Y-97081544D01*
X91737188Y-97013624D01*
X91886488Y-96983927D01*
X91911258Y-96979000D01*
X92088742Y-96979000D01*
X92113512Y-96983927D01*
G37*
G36*
X94653512Y-96983927D02*
G01*
X94802812Y-97013624D01*
X94966784Y-97081544D01*
X95114354Y-97180147D01*
X95239853Y-97305646D01*
X95338456Y-97453216D01*
X95406376Y-97617188D01*
X95441000Y-97791259D01*
X95441000Y-97968741D01*
X95406376Y-98142812D01*
X95338456Y-98306784D01*
X95239853Y-98454354D01*
X95114354Y-98579853D01*
X94966784Y-98678456D01*
X94802812Y-98746376D01*
X94653512Y-98776073D01*
X94628742Y-98781000D01*
X94451258Y-98781000D01*
X94426488Y-98776073D01*
X94277188Y-98746376D01*
X94113216Y-98678456D01*
X93965646Y-98579853D01*
X93840147Y-98454354D01*
X93741544Y-98306784D01*
X93673624Y-98142812D01*
X93639000Y-97968741D01*
X93639000Y-97791259D01*
X93673624Y-97617188D01*
X93741544Y-97453216D01*
X93840147Y-97305646D01*
X93965646Y-97180147D01*
X94113216Y-97081544D01*
X94277188Y-97013624D01*
X94426488Y-96983927D01*
X94451258Y-96979000D01*
X94628742Y-96979000D01*
X94653512Y-96983927D01*
G37*
G36*
X92113512Y-94443927D02*
G01*
X92262812Y-94473624D01*
X92426784Y-94541544D01*
X92574354Y-94640147D01*
X92699853Y-94765646D01*
X92798456Y-94913216D01*
X92866376Y-95077188D01*
X92901000Y-95251259D01*
X92901000Y-95428741D01*
X92866376Y-95602812D01*
X92798456Y-95766784D01*
X92699853Y-95914354D01*
X92574354Y-96039853D01*
X92426784Y-96138456D01*
X92262812Y-96206376D01*
X92113512Y-96236073D01*
X92088742Y-96241000D01*
X91911258Y-96241000D01*
X91886488Y-96236073D01*
X91737188Y-96206376D01*
X91573216Y-96138456D01*
X91425646Y-96039853D01*
X91300147Y-95914354D01*
X91201544Y-95766784D01*
X91133624Y-95602812D01*
X91099000Y-95428741D01*
X91099000Y-95251259D01*
X91133624Y-95077188D01*
X91201544Y-94913216D01*
X91300147Y-94765646D01*
X91425646Y-94640147D01*
X91573216Y-94541544D01*
X91737188Y-94473624D01*
X91886488Y-94443927D01*
X91911258Y-94439000D01*
X92088742Y-94439000D01*
X92113512Y-94443927D01*
G37*
G36*
X94653512Y-94443927D02*
G01*
X94802812Y-94473624D01*
X94966784Y-94541544D01*
X95114354Y-94640147D01*
X95239853Y-94765646D01*
X95338456Y-94913216D01*
X95406376Y-95077188D01*
X95441000Y-95251259D01*
X95441000Y-95428741D01*
X95406376Y-95602812D01*
X95338456Y-95766784D01*
X95239853Y-95914354D01*
X95114354Y-96039853D01*
X94966784Y-96138456D01*
X94802812Y-96206376D01*
X94653512Y-96236073D01*
X94628742Y-96241000D01*
X94451258Y-96241000D01*
X94426488Y-96236073D01*
X94277188Y-96206376D01*
X94113216Y-96138456D01*
X93965646Y-96039853D01*
X93840147Y-95914354D01*
X93741544Y-95766784D01*
X93673624Y-95602812D01*
X93639000Y-95428741D01*
X93639000Y-95251259D01*
X93673624Y-95077188D01*
X93741544Y-94913216D01*
X93840147Y-94765646D01*
X93965646Y-94640147D01*
X94113216Y-94541544D01*
X94277188Y-94473624D01*
X94426488Y-94443927D01*
X94451258Y-94439000D01*
X94628742Y-94439000D01*
X94653512Y-94443927D01*
G37*
G36*
X92113512Y-91903927D02*
G01*
X92262812Y-91933624D01*
X92426784Y-92001544D01*
X92574354Y-92100147D01*
X92699853Y-92225646D01*
X92798456Y-92373216D01*
X92866376Y-92537188D01*
X92901000Y-92711259D01*
X92901000Y-92888741D01*
X92866376Y-93062812D01*
X92798456Y-93226784D01*
X92699853Y-93374354D01*
X92574354Y-93499853D01*
X92426784Y-93598456D01*
X92262812Y-93666376D01*
X92113512Y-93696073D01*
X92088742Y-93701000D01*
X91911258Y-93701000D01*
X91886488Y-93696073D01*
X91737188Y-93666376D01*
X91573216Y-93598456D01*
X91425646Y-93499853D01*
X91300147Y-93374354D01*
X91201544Y-93226784D01*
X91133624Y-93062812D01*
X91099000Y-92888741D01*
X91099000Y-92711259D01*
X91133624Y-92537188D01*
X91201544Y-92373216D01*
X91300147Y-92225646D01*
X91425646Y-92100147D01*
X91573216Y-92001544D01*
X91737188Y-91933624D01*
X91886488Y-91903927D01*
X91911258Y-91899000D01*
X92088742Y-91899000D01*
X92113512Y-91903927D01*
G37*
G36*
X94653512Y-91903927D02*
G01*
X94802812Y-91933624D01*
X94966784Y-92001544D01*
X95114354Y-92100147D01*
X95239853Y-92225646D01*
X95338456Y-92373216D01*
X95406376Y-92537188D01*
X95441000Y-92711259D01*
X95441000Y-92888741D01*
X95406376Y-93062812D01*
X95338456Y-93226784D01*
X95239853Y-93374354D01*
X95114354Y-93499853D01*
X94966784Y-93598456D01*
X94802812Y-93666376D01*
X94653512Y-93696073D01*
X94628742Y-93701000D01*
X94451258Y-93701000D01*
X94426488Y-93696073D01*
X94277188Y-93666376D01*
X94113216Y-93598456D01*
X93965646Y-93499853D01*
X93840147Y-93374354D01*
X93741544Y-93226784D01*
X93673624Y-93062812D01*
X93639000Y-92888741D01*
X93639000Y-92711259D01*
X93673624Y-92537188D01*
X93741544Y-92373216D01*
X93840147Y-92225646D01*
X93965646Y-92100147D01*
X94113216Y-92001544D01*
X94277188Y-91933624D01*
X94426488Y-91903927D01*
X94451258Y-91899000D01*
X94628742Y-91899000D01*
X94653512Y-91903927D01*
G37*
G36*
X94653512Y-89363927D02*
G01*
X94802812Y-89393624D01*
X94966784Y-89461544D01*
X95114354Y-89560147D01*
X95239853Y-89685646D01*
X95338456Y-89833216D01*
X95406376Y-89997188D01*
X95441000Y-90171259D01*
X95441000Y-90348741D01*
X95406376Y-90522812D01*
X95338456Y-90686784D01*
X95239853Y-90834354D01*
X95114354Y-90959853D01*
X94966784Y-91058456D01*
X94802812Y-91126376D01*
X94653512Y-91156073D01*
X94628742Y-91161000D01*
X94451258Y-91161000D01*
X94426488Y-91156073D01*
X94277188Y-91126376D01*
X94113216Y-91058456D01*
X93965646Y-90959853D01*
X93840147Y-90834354D01*
X93741544Y-90686784D01*
X93673624Y-90522812D01*
X93639000Y-90348741D01*
X93639000Y-90171259D01*
X93673624Y-89997188D01*
X93741544Y-89833216D01*
X93840147Y-89685646D01*
X93965646Y-89560147D01*
X94113216Y-89461544D01*
X94277188Y-89393624D01*
X94426488Y-89363927D01*
X94451258Y-89359000D01*
X94628742Y-89359000D01*
X94653512Y-89363927D01*
G37*
G36*
X92113512Y-89363927D02*
G01*
X92262812Y-89393624D01*
X92426784Y-89461544D01*
X92574354Y-89560147D01*
X92699853Y-89685646D01*
X92798456Y-89833216D01*
X92866376Y-89997188D01*
X92901000Y-90171259D01*
X92901000Y-90348741D01*
X92866376Y-90522812D01*
X92798456Y-90686784D01*
X92699853Y-90834354D01*
X92574354Y-90959853D01*
X92426784Y-91058456D01*
X92262812Y-91126376D01*
X92113512Y-91156073D01*
X92088742Y-91161000D01*
X91911258Y-91161000D01*
X91886488Y-91156073D01*
X91737188Y-91126376D01*
X91573216Y-91058456D01*
X91425646Y-90959853D01*
X91300147Y-90834354D01*
X91201544Y-90686784D01*
X91133624Y-90522812D01*
X91099000Y-90348741D01*
X91099000Y-90171259D01*
X91133624Y-89997188D01*
X91201544Y-89833216D01*
X91300147Y-89685646D01*
X91425646Y-89560147D01*
X91573216Y-89461544D01*
X91737188Y-89393624D01*
X91886488Y-89363927D01*
X91911258Y-89359000D01*
X92088742Y-89359000D01*
X92113512Y-89363927D01*
G37*
G36*
X94653512Y-86823927D02*
G01*
X94802812Y-86853624D01*
X94966784Y-86921544D01*
X95114354Y-87020147D01*
X95239853Y-87145646D01*
X95338456Y-87293216D01*
X95406376Y-87457188D01*
X95441000Y-87631259D01*
X95441000Y-87808741D01*
X95406376Y-87982812D01*
X95338456Y-88146784D01*
X95239853Y-88294354D01*
X95114354Y-88419853D01*
X94966784Y-88518456D01*
X94802812Y-88586376D01*
X94653512Y-88616073D01*
X94628742Y-88621000D01*
X94451258Y-88621000D01*
X94426488Y-88616073D01*
X94277188Y-88586376D01*
X94113216Y-88518456D01*
X93965646Y-88419853D01*
X93840147Y-88294354D01*
X93741544Y-88146784D01*
X93673624Y-87982812D01*
X93639000Y-87808741D01*
X93639000Y-87631259D01*
X93673624Y-87457188D01*
X93741544Y-87293216D01*
X93840147Y-87145646D01*
X93965646Y-87020147D01*
X94113216Y-86921544D01*
X94277188Y-86853624D01*
X94426488Y-86823927D01*
X94451258Y-86819000D01*
X94628742Y-86819000D01*
X94653512Y-86823927D01*
G37*
G36*
X92113512Y-86823927D02*
G01*
X92262812Y-86853624D01*
X92426784Y-86921544D01*
X92574354Y-87020147D01*
X92699853Y-87145646D01*
X92798456Y-87293216D01*
X92866376Y-87457188D01*
X92901000Y-87631259D01*
X92901000Y-87808741D01*
X92866376Y-87982812D01*
X92798456Y-88146784D01*
X92699853Y-88294354D01*
X92574354Y-88419853D01*
X92426784Y-88518456D01*
X92262812Y-88586376D01*
X92113512Y-88616073D01*
X92088742Y-88621000D01*
X91911258Y-88621000D01*
X91886488Y-88616073D01*
X91737188Y-88586376D01*
X91573216Y-88518456D01*
X91425646Y-88419853D01*
X91300147Y-88294354D01*
X91201544Y-88146784D01*
X91133624Y-87982812D01*
X91099000Y-87808741D01*
X91099000Y-87631259D01*
X91133624Y-87457188D01*
X91201544Y-87293216D01*
X91300147Y-87145646D01*
X91425646Y-87020147D01*
X91573216Y-86921544D01*
X91737188Y-86853624D01*
X91886488Y-86823927D01*
X91911258Y-86819000D01*
X92088742Y-86819000D01*
X92113512Y-86823927D01*
G37*
G36*
X94653512Y-84283927D02*
G01*
X94802812Y-84313624D01*
X94966784Y-84381544D01*
X95114354Y-84480147D01*
X95239853Y-84605646D01*
X95338456Y-84753216D01*
X95406376Y-84917188D01*
X95441000Y-85091259D01*
X95441000Y-85268741D01*
X95406376Y-85442812D01*
X95338456Y-85606784D01*
X95239853Y-85754354D01*
X95114354Y-85879853D01*
X94966784Y-85978456D01*
X94802812Y-86046376D01*
X94653512Y-86076073D01*
X94628742Y-86081000D01*
X94451258Y-86081000D01*
X94426488Y-86076073D01*
X94277188Y-86046376D01*
X94113216Y-85978456D01*
X93965646Y-85879853D01*
X93840147Y-85754354D01*
X93741544Y-85606784D01*
X93673624Y-85442812D01*
X93639000Y-85268741D01*
X93639000Y-85091259D01*
X93673624Y-84917188D01*
X93741544Y-84753216D01*
X93840147Y-84605646D01*
X93965646Y-84480147D01*
X94113216Y-84381544D01*
X94277188Y-84313624D01*
X94426488Y-84283927D01*
X94451258Y-84279000D01*
X94628742Y-84279000D01*
X94653512Y-84283927D01*
G37*
G36*
X92113512Y-84283927D02*
G01*
X92262812Y-84313624D01*
X92426784Y-84381544D01*
X92574354Y-84480147D01*
X92699853Y-84605646D01*
X92798456Y-84753216D01*
X92866376Y-84917188D01*
X92901000Y-85091259D01*
X92901000Y-85268741D01*
X92866376Y-85442812D01*
X92798456Y-85606784D01*
X92699853Y-85754354D01*
X92574354Y-85879853D01*
X92426784Y-85978456D01*
X92262812Y-86046376D01*
X92113512Y-86076073D01*
X92088742Y-86081000D01*
X91911258Y-86081000D01*
X91886488Y-86076073D01*
X91737188Y-86046376D01*
X91573216Y-85978456D01*
X91425646Y-85879853D01*
X91300147Y-85754354D01*
X91201544Y-85606784D01*
X91133624Y-85442812D01*
X91099000Y-85268741D01*
X91099000Y-85091259D01*
X91133624Y-84917188D01*
X91201544Y-84753216D01*
X91300147Y-84605646D01*
X91425646Y-84480147D01*
X91573216Y-84381544D01*
X91737188Y-84313624D01*
X91886488Y-84283927D01*
X91911258Y-84279000D01*
X92088742Y-84279000D01*
X92113512Y-84283927D01*
G37*
G36*
X94653512Y-81743927D02*
G01*
X94802812Y-81773624D01*
X94966784Y-81841544D01*
X95114354Y-81940147D01*
X95239853Y-82065646D01*
X95338456Y-82213216D01*
X95406376Y-82377188D01*
X95441000Y-82551259D01*
X95441000Y-82728741D01*
X95406376Y-82902812D01*
X95338456Y-83066784D01*
X95239853Y-83214354D01*
X95114354Y-83339853D01*
X94966784Y-83438456D01*
X94802812Y-83506376D01*
X94653512Y-83536073D01*
X94628742Y-83541000D01*
X94451258Y-83541000D01*
X94426488Y-83536073D01*
X94277188Y-83506376D01*
X94113216Y-83438456D01*
X93965646Y-83339853D01*
X93840147Y-83214354D01*
X93741544Y-83066784D01*
X93673624Y-82902812D01*
X93639000Y-82728741D01*
X93639000Y-82551259D01*
X93673624Y-82377188D01*
X93741544Y-82213216D01*
X93840147Y-82065646D01*
X93965646Y-81940147D01*
X94113216Y-81841544D01*
X94277188Y-81773624D01*
X94426488Y-81743927D01*
X94451258Y-81739000D01*
X94628742Y-81739000D01*
X94653512Y-81743927D01*
G37*
G36*
X92113512Y-81743927D02*
G01*
X92262812Y-81773624D01*
X92426784Y-81841544D01*
X92574354Y-81940147D01*
X92699853Y-82065646D01*
X92798456Y-82213216D01*
X92866376Y-82377188D01*
X92901000Y-82551259D01*
X92901000Y-82728741D01*
X92866376Y-82902812D01*
X92798456Y-83066784D01*
X92699853Y-83214354D01*
X92574354Y-83339853D01*
X92426784Y-83438456D01*
X92262812Y-83506376D01*
X92113512Y-83536073D01*
X92088742Y-83541000D01*
X91911258Y-83541000D01*
X91886488Y-83536073D01*
X91737188Y-83506376D01*
X91573216Y-83438456D01*
X91425646Y-83339853D01*
X91300147Y-83214354D01*
X91201544Y-83066784D01*
X91133624Y-82902812D01*
X91099000Y-82728741D01*
X91099000Y-82551259D01*
X91133624Y-82377188D01*
X91201544Y-82213216D01*
X91300147Y-82065646D01*
X91425646Y-81940147D01*
X91573216Y-81841544D01*
X91737188Y-81773624D01*
X91886488Y-81743927D01*
X91911258Y-81739000D01*
X92088742Y-81739000D01*
X92113512Y-81743927D01*
G37*
G36*
X92113512Y-79203927D02*
G01*
X92262812Y-79233624D01*
X92426784Y-79301544D01*
X92574354Y-79400147D01*
X92699853Y-79525646D01*
X92798456Y-79673216D01*
X92866376Y-79837188D01*
X92901000Y-80011259D01*
X92901000Y-80188741D01*
X92866376Y-80362812D01*
X92798456Y-80526784D01*
X92699853Y-80674354D01*
X92574354Y-80799853D01*
X92426784Y-80898456D01*
X92262812Y-80966376D01*
X92113512Y-80996073D01*
X92088742Y-81001000D01*
X91911258Y-81001000D01*
X91886488Y-80996073D01*
X91737188Y-80966376D01*
X91573216Y-80898456D01*
X91425646Y-80799853D01*
X91300147Y-80674354D01*
X91201544Y-80526784D01*
X91133624Y-80362812D01*
X91099000Y-80188741D01*
X91099000Y-80011259D01*
X91133624Y-79837188D01*
X91201544Y-79673216D01*
X91300147Y-79525646D01*
X91425646Y-79400147D01*
X91573216Y-79301544D01*
X91737188Y-79233624D01*
X91886488Y-79203927D01*
X91911258Y-79199000D01*
X92088742Y-79199000D01*
X92113512Y-79203927D01*
G37*
G36*
X94653512Y-79203927D02*
G01*
X94802812Y-79233624D01*
X94966784Y-79301544D01*
X95114354Y-79400147D01*
X95239853Y-79525646D01*
X95338456Y-79673216D01*
X95406376Y-79837188D01*
X95441000Y-80011259D01*
X95441000Y-80188741D01*
X95406376Y-80362812D01*
X95338456Y-80526784D01*
X95239853Y-80674354D01*
X95114354Y-80799853D01*
X94966784Y-80898456D01*
X94802812Y-80966376D01*
X94653512Y-80996073D01*
X94628742Y-81001000D01*
X94451258Y-81001000D01*
X94426488Y-80996073D01*
X94277188Y-80966376D01*
X94113216Y-80898456D01*
X93965646Y-80799853D01*
X93840147Y-80674354D01*
X93741544Y-80526784D01*
X93673624Y-80362812D01*
X93639000Y-80188741D01*
X93639000Y-80011259D01*
X93673624Y-79837188D01*
X93741544Y-79673216D01*
X93840147Y-79525646D01*
X93965646Y-79400147D01*
X94113216Y-79301544D01*
X94277188Y-79233624D01*
X94426488Y-79203927D01*
X94451258Y-79199000D01*
X94628742Y-79199000D01*
X94653512Y-79203927D01*
G37*
G36*
X94653512Y-76663927D02*
G01*
X94802812Y-76693624D01*
X94966784Y-76761544D01*
X95114354Y-76860147D01*
X95239853Y-76985646D01*
X95338456Y-77133216D01*
X95406376Y-77297188D01*
X95441000Y-77471259D01*
X95441000Y-77648741D01*
X95406376Y-77822812D01*
X95338456Y-77986784D01*
X95239853Y-78134354D01*
X95114354Y-78259853D01*
X94966784Y-78358456D01*
X94802812Y-78426376D01*
X94653512Y-78456073D01*
X94628742Y-78461000D01*
X94451258Y-78461000D01*
X94426488Y-78456073D01*
X94277188Y-78426376D01*
X94113216Y-78358456D01*
X93965646Y-78259853D01*
X93840147Y-78134354D01*
X93741544Y-77986784D01*
X93673624Y-77822812D01*
X93639000Y-77648741D01*
X93639000Y-77471259D01*
X93673624Y-77297188D01*
X93741544Y-77133216D01*
X93840147Y-76985646D01*
X93965646Y-76860147D01*
X94113216Y-76761544D01*
X94277188Y-76693624D01*
X94426488Y-76663927D01*
X94451258Y-76659000D01*
X94628742Y-76659000D01*
X94653512Y-76663927D01*
G37*
G36*
X92113512Y-76663927D02*
G01*
X92262812Y-76693624D01*
X92426784Y-76761544D01*
X92574354Y-76860147D01*
X92699853Y-76985646D01*
X92798456Y-77133216D01*
X92866376Y-77297188D01*
X92901000Y-77471259D01*
X92901000Y-77648741D01*
X92866376Y-77822812D01*
X92798456Y-77986784D01*
X92699853Y-78134354D01*
X92574354Y-78259853D01*
X92426784Y-78358456D01*
X92262812Y-78426376D01*
X92113512Y-78456073D01*
X92088742Y-78461000D01*
X91911258Y-78461000D01*
X91886488Y-78456073D01*
X91737188Y-78426376D01*
X91573216Y-78358456D01*
X91425646Y-78259853D01*
X91300147Y-78134354D01*
X91201544Y-77986784D01*
X91133624Y-77822812D01*
X91099000Y-77648741D01*
X91099000Y-77471259D01*
X91133624Y-77297188D01*
X91201544Y-77133216D01*
X91300147Y-76985646D01*
X91425646Y-76860147D01*
X91573216Y-76761544D01*
X91737188Y-76693624D01*
X91886488Y-76663927D01*
X91911258Y-76659000D01*
X92088742Y-76659000D01*
X92113512Y-76663927D01*
G37*
G36*
X92113512Y-74123927D02*
G01*
X92262812Y-74153624D01*
X92426784Y-74221544D01*
X92574354Y-74320147D01*
X92699853Y-74445646D01*
X92798456Y-74593216D01*
X92866376Y-74757188D01*
X92901000Y-74931259D01*
X92901000Y-75108741D01*
X92866376Y-75282812D01*
X92798456Y-75446784D01*
X92699853Y-75594354D01*
X92574354Y-75719853D01*
X92426784Y-75818456D01*
X92262812Y-75886376D01*
X92113512Y-75916073D01*
X92088742Y-75921000D01*
X91911258Y-75921000D01*
X91886488Y-75916073D01*
X91737188Y-75886376D01*
X91573216Y-75818456D01*
X91425646Y-75719853D01*
X91300147Y-75594354D01*
X91201544Y-75446784D01*
X91133624Y-75282812D01*
X91099000Y-75108741D01*
X91099000Y-74931259D01*
X91133624Y-74757188D01*
X91201544Y-74593216D01*
X91300147Y-74445646D01*
X91425646Y-74320147D01*
X91573216Y-74221544D01*
X91737188Y-74153624D01*
X91886488Y-74123927D01*
X91911258Y-74119000D01*
X92088742Y-74119000D01*
X92113512Y-74123927D01*
G37*
G36*
X94653512Y-74123927D02*
G01*
X94802812Y-74153624D01*
X94966784Y-74221544D01*
X95114354Y-74320147D01*
X95239853Y-74445646D01*
X95338456Y-74593216D01*
X95406376Y-74757188D01*
X95441000Y-74931259D01*
X95441000Y-75108741D01*
X95406376Y-75282812D01*
X95338456Y-75446784D01*
X95239853Y-75594354D01*
X95114354Y-75719853D01*
X94966784Y-75818456D01*
X94802812Y-75886376D01*
X94653512Y-75916073D01*
X94628742Y-75921000D01*
X94451258Y-75921000D01*
X94426488Y-75916073D01*
X94277188Y-75886376D01*
X94113216Y-75818456D01*
X93965646Y-75719853D01*
X93840147Y-75594354D01*
X93741544Y-75446784D01*
X93673624Y-75282812D01*
X93639000Y-75108741D01*
X93639000Y-74931259D01*
X93673624Y-74757188D01*
X93741544Y-74593216D01*
X93840147Y-74445646D01*
X93965646Y-74320147D01*
X94113216Y-74221544D01*
X94277188Y-74153624D01*
X94426488Y-74123927D01*
X94451258Y-74119000D01*
X94628742Y-74119000D01*
X94653512Y-74123927D01*
G37*
G36*
X92113512Y-71583927D02*
G01*
X92262812Y-71613624D01*
X92426784Y-71681544D01*
X92574354Y-71780147D01*
X92699853Y-71905646D01*
X92798456Y-72053216D01*
X92866376Y-72217188D01*
X92901000Y-72391259D01*
X92901000Y-72568741D01*
X92866376Y-72742812D01*
X92798456Y-72906784D01*
X92699853Y-73054354D01*
X92574354Y-73179853D01*
X92426784Y-73278456D01*
X92262812Y-73346376D01*
X92113512Y-73376073D01*
X92088742Y-73381000D01*
X91911258Y-73381000D01*
X91886488Y-73376073D01*
X91737188Y-73346376D01*
X91573216Y-73278456D01*
X91425646Y-73179853D01*
X91300147Y-73054354D01*
X91201544Y-72906784D01*
X91133624Y-72742812D01*
X91099000Y-72568741D01*
X91099000Y-72391259D01*
X91133624Y-72217188D01*
X91201544Y-72053216D01*
X91300147Y-71905646D01*
X91425646Y-71780147D01*
X91573216Y-71681544D01*
X91737188Y-71613624D01*
X91886488Y-71583927D01*
X91911258Y-71579000D01*
X92088742Y-71579000D01*
X92113512Y-71583927D01*
G37*
G36*
X94653512Y-71583927D02*
G01*
X94802812Y-71613624D01*
X94966784Y-71681544D01*
X95114354Y-71780147D01*
X95239853Y-71905646D01*
X95338456Y-72053216D01*
X95406376Y-72217188D01*
X95441000Y-72391259D01*
X95441000Y-72568741D01*
X95406376Y-72742812D01*
X95338456Y-72906784D01*
X95239853Y-73054354D01*
X95114354Y-73179853D01*
X94966784Y-73278456D01*
X94802812Y-73346376D01*
X94653512Y-73376073D01*
X94628742Y-73381000D01*
X94451258Y-73381000D01*
X94426488Y-73376073D01*
X94277188Y-73346376D01*
X94113216Y-73278456D01*
X93965646Y-73179853D01*
X93840147Y-73054354D01*
X93741544Y-72906784D01*
X93673624Y-72742812D01*
X93639000Y-72568741D01*
X93639000Y-72391259D01*
X93673624Y-72217188D01*
X93741544Y-72053216D01*
X93840147Y-71905646D01*
X93965646Y-71780147D01*
X94113216Y-71681544D01*
X94277188Y-71613624D01*
X94426488Y-71583927D01*
X94451258Y-71579000D01*
X94628742Y-71579000D01*
X94653512Y-71583927D01*
G37*
G36*
X94653512Y-69043927D02*
G01*
X94802812Y-69073624D01*
X94966784Y-69141544D01*
X95114354Y-69240147D01*
X95239853Y-69365646D01*
X95338456Y-69513216D01*
X95406376Y-69677188D01*
X95441000Y-69851259D01*
X95441000Y-70028741D01*
X95406376Y-70202812D01*
X95338456Y-70366784D01*
X95239853Y-70514354D01*
X95114354Y-70639853D01*
X94966784Y-70738456D01*
X94802812Y-70806376D01*
X94653512Y-70836073D01*
X94628742Y-70841000D01*
X94451258Y-70841000D01*
X94426488Y-70836073D01*
X94277188Y-70806376D01*
X94113216Y-70738456D01*
X93965646Y-70639853D01*
X93840147Y-70514354D01*
X93741544Y-70366784D01*
X93673624Y-70202812D01*
X93639000Y-70028741D01*
X93639000Y-69851259D01*
X93673624Y-69677188D01*
X93741544Y-69513216D01*
X93840147Y-69365646D01*
X93965646Y-69240147D01*
X94113216Y-69141544D01*
X94277188Y-69073624D01*
X94426488Y-69043927D01*
X94451258Y-69039000D01*
X94628742Y-69039000D01*
X94653512Y-69043927D01*
G37*
G36*
X92113512Y-69043927D02*
G01*
X92262812Y-69073624D01*
X92426784Y-69141544D01*
X92574354Y-69240147D01*
X92699853Y-69365646D01*
X92798456Y-69513216D01*
X92866376Y-69677188D01*
X92901000Y-69851259D01*
X92901000Y-70028741D01*
X92866376Y-70202812D01*
X92798456Y-70366784D01*
X92699853Y-70514354D01*
X92574354Y-70639853D01*
X92426784Y-70738456D01*
X92262812Y-70806376D01*
X92113512Y-70836073D01*
X92088742Y-70841000D01*
X91911258Y-70841000D01*
X91886488Y-70836073D01*
X91737188Y-70806376D01*
X91573216Y-70738456D01*
X91425646Y-70639853D01*
X91300147Y-70514354D01*
X91201544Y-70366784D01*
X91133624Y-70202812D01*
X91099000Y-70028741D01*
X91099000Y-69851259D01*
X91133624Y-69677188D01*
X91201544Y-69513216D01*
X91300147Y-69365646D01*
X91425646Y-69240147D01*
X91573216Y-69141544D01*
X91737188Y-69073624D01*
X91886488Y-69043927D01*
X91911258Y-69039000D01*
X92088742Y-69039000D01*
X92113512Y-69043927D01*
G37*
G36*
X94653512Y-66503927D02*
G01*
X94802812Y-66533624D01*
X94966784Y-66601544D01*
X95114354Y-66700147D01*
X95239853Y-66825646D01*
X95338456Y-66973216D01*
X95406376Y-67137188D01*
X95441000Y-67311259D01*
X95441000Y-67488741D01*
X95406376Y-67662812D01*
X95338456Y-67826784D01*
X95239853Y-67974354D01*
X95114354Y-68099853D01*
X94966784Y-68198456D01*
X94802812Y-68266376D01*
X94653512Y-68296073D01*
X94628742Y-68301000D01*
X94451258Y-68301000D01*
X94426488Y-68296073D01*
X94277188Y-68266376D01*
X94113216Y-68198456D01*
X93965646Y-68099853D01*
X93840147Y-67974354D01*
X93741544Y-67826784D01*
X93673624Y-67662812D01*
X93639000Y-67488741D01*
X93639000Y-67311259D01*
X93673624Y-67137188D01*
X93741544Y-66973216D01*
X93840147Y-66825646D01*
X93965646Y-66700147D01*
X94113216Y-66601544D01*
X94277188Y-66533624D01*
X94426488Y-66503927D01*
X94451258Y-66499000D01*
X94628742Y-66499000D01*
X94653512Y-66503927D01*
G37*
G36*
X92113512Y-66503927D02*
G01*
X92262812Y-66533624D01*
X92426784Y-66601544D01*
X92574354Y-66700147D01*
X92699853Y-66825646D01*
X92798456Y-66973216D01*
X92866376Y-67137188D01*
X92901000Y-67311259D01*
X92901000Y-67488741D01*
X92866376Y-67662812D01*
X92798456Y-67826784D01*
X92699853Y-67974354D01*
X92574354Y-68099853D01*
X92426784Y-68198456D01*
X92262812Y-68266376D01*
X92113512Y-68296073D01*
X92088742Y-68301000D01*
X91911258Y-68301000D01*
X91886488Y-68296073D01*
X91737188Y-68266376D01*
X91573216Y-68198456D01*
X91425646Y-68099853D01*
X91300147Y-67974354D01*
X91201544Y-67826784D01*
X91133624Y-67662812D01*
X91099000Y-67488741D01*
X91099000Y-67311259D01*
X91133624Y-67137188D01*
X91201544Y-66973216D01*
X91300147Y-66825646D01*
X91425646Y-66700147D01*
X91573216Y-66601544D01*
X91737188Y-66533624D01*
X91886488Y-66503927D01*
X91911258Y-66499000D01*
X92088742Y-66499000D01*
X92113512Y-66503927D01*
G37*
G36*
X94653512Y-63963927D02*
G01*
X94802812Y-63993624D01*
X94966784Y-64061544D01*
X95114354Y-64160147D01*
X95239853Y-64285646D01*
X95338456Y-64433216D01*
X95406376Y-64597188D01*
X95441000Y-64771259D01*
X95441000Y-64948741D01*
X95406376Y-65122812D01*
X95338456Y-65286784D01*
X95239853Y-65434354D01*
X95114354Y-65559853D01*
X94966784Y-65658456D01*
X94802812Y-65726376D01*
X94653512Y-65756073D01*
X94628742Y-65761000D01*
X94451258Y-65761000D01*
X94426488Y-65756073D01*
X94277188Y-65726376D01*
X94113216Y-65658456D01*
X93965646Y-65559853D01*
X93840147Y-65434354D01*
X93741544Y-65286784D01*
X93673624Y-65122812D01*
X93639000Y-64948741D01*
X93639000Y-64771259D01*
X93673624Y-64597188D01*
X93741544Y-64433216D01*
X93840147Y-64285646D01*
X93965646Y-64160147D01*
X94113216Y-64061544D01*
X94277188Y-63993624D01*
X94426488Y-63963927D01*
X94451258Y-63959000D01*
X94628742Y-63959000D01*
X94653512Y-63963927D01*
G37*
G36*
X92113512Y-63963927D02*
G01*
X92262812Y-63993624D01*
X92426784Y-64061544D01*
X92574354Y-64160147D01*
X92699853Y-64285646D01*
X92798456Y-64433216D01*
X92866376Y-64597188D01*
X92901000Y-64771259D01*
X92901000Y-64948741D01*
X92866376Y-65122812D01*
X92798456Y-65286784D01*
X92699853Y-65434354D01*
X92574354Y-65559853D01*
X92426784Y-65658456D01*
X92262812Y-65726376D01*
X92113512Y-65756073D01*
X92088742Y-65761000D01*
X91911258Y-65761000D01*
X91886488Y-65756073D01*
X91737188Y-65726376D01*
X91573216Y-65658456D01*
X91425646Y-65559853D01*
X91300147Y-65434354D01*
X91201544Y-65286784D01*
X91133624Y-65122812D01*
X91099000Y-64948741D01*
X91099000Y-64771259D01*
X91133624Y-64597188D01*
X91201544Y-64433216D01*
X91300147Y-64285646D01*
X91425646Y-64160147D01*
X91573216Y-64061544D01*
X91737188Y-63993624D01*
X91886488Y-63963927D01*
X91911258Y-63959000D01*
X92088742Y-63959000D01*
X92113512Y-63963927D01*
G37*
G36*
X94653512Y-61423927D02*
G01*
X94802812Y-61453624D01*
X94966784Y-61521544D01*
X95114354Y-61620147D01*
X95239853Y-61745646D01*
X95338456Y-61893216D01*
X95406376Y-62057188D01*
X95441000Y-62231259D01*
X95441000Y-62408741D01*
X95406376Y-62582812D01*
X95338456Y-62746784D01*
X95239853Y-62894354D01*
X95114354Y-63019853D01*
X94966784Y-63118456D01*
X94802812Y-63186376D01*
X94653512Y-63216073D01*
X94628742Y-63221000D01*
X94451258Y-63221000D01*
X94426488Y-63216073D01*
X94277188Y-63186376D01*
X94113216Y-63118456D01*
X93965646Y-63019853D01*
X93840147Y-62894354D01*
X93741544Y-62746784D01*
X93673624Y-62582812D01*
X93639000Y-62408741D01*
X93639000Y-62231259D01*
X93673624Y-62057188D01*
X93741544Y-61893216D01*
X93840147Y-61745646D01*
X93965646Y-61620147D01*
X94113216Y-61521544D01*
X94277188Y-61453624D01*
X94426488Y-61423927D01*
X94451258Y-61419000D01*
X94628742Y-61419000D01*
X94653512Y-61423927D01*
G37*
G36*
X92113512Y-61423927D02*
G01*
X92262812Y-61453624D01*
X92426784Y-61521544D01*
X92574354Y-61620147D01*
X92699853Y-61745646D01*
X92798456Y-61893216D01*
X92866376Y-62057188D01*
X92901000Y-62231259D01*
X92901000Y-62408741D01*
X92866376Y-62582812D01*
X92798456Y-62746784D01*
X92699853Y-62894354D01*
X92574354Y-63019853D01*
X92426784Y-63118456D01*
X92262812Y-63186376D01*
X92113512Y-63216073D01*
X92088742Y-63221000D01*
X91911258Y-63221000D01*
X91886488Y-63216073D01*
X91737188Y-63186376D01*
X91573216Y-63118456D01*
X91425646Y-63019853D01*
X91300147Y-62894354D01*
X91201544Y-62746784D01*
X91133624Y-62582812D01*
X91099000Y-62408741D01*
X91099000Y-62231259D01*
X91133624Y-62057188D01*
X91201544Y-61893216D01*
X91300147Y-61745646D01*
X91425646Y-61620147D01*
X91573216Y-61521544D01*
X91737188Y-61453624D01*
X91886488Y-61423927D01*
X91911258Y-61419000D01*
X92088742Y-61419000D01*
X92113512Y-61423927D01*
G37*
G36*
X94653512Y-58883927D02*
G01*
X94802812Y-58913624D01*
X94966784Y-58981544D01*
X95114354Y-59080147D01*
X95239853Y-59205646D01*
X95338456Y-59353216D01*
X95406376Y-59517188D01*
X95441000Y-59691259D01*
X95441000Y-59868741D01*
X95406376Y-60042812D01*
X95338456Y-60206784D01*
X95239853Y-60354354D01*
X95114354Y-60479853D01*
X94966784Y-60578456D01*
X94802812Y-60646376D01*
X94653512Y-60676073D01*
X94628742Y-60681000D01*
X94451258Y-60681000D01*
X94426488Y-60676073D01*
X94277188Y-60646376D01*
X94113216Y-60578456D01*
X93965646Y-60479853D01*
X93840147Y-60354354D01*
X93741544Y-60206784D01*
X93673624Y-60042812D01*
X93639000Y-59868741D01*
X93639000Y-59691259D01*
X93673624Y-59517188D01*
X93741544Y-59353216D01*
X93840147Y-59205646D01*
X93965646Y-59080147D01*
X94113216Y-58981544D01*
X94277188Y-58913624D01*
X94426488Y-58883927D01*
X94451258Y-58879000D01*
X94628742Y-58879000D01*
X94653512Y-58883927D01*
G37*
G36*
X92113512Y-58883927D02*
G01*
X92262812Y-58913624D01*
X92426784Y-58981544D01*
X92574354Y-59080147D01*
X92699853Y-59205646D01*
X92798456Y-59353216D01*
X92866376Y-59517188D01*
X92901000Y-59691259D01*
X92901000Y-59868741D01*
X92866376Y-60042812D01*
X92798456Y-60206784D01*
X92699853Y-60354354D01*
X92574354Y-60479853D01*
X92426784Y-60578456D01*
X92262812Y-60646376D01*
X92113512Y-60676073D01*
X92088742Y-60681000D01*
X91911258Y-60681000D01*
X91886488Y-60676073D01*
X91737188Y-60646376D01*
X91573216Y-60578456D01*
X91425646Y-60479853D01*
X91300147Y-60354354D01*
X91201544Y-60206784D01*
X91133624Y-60042812D01*
X91099000Y-59868741D01*
X91099000Y-59691259D01*
X91133624Y-59517188D01*
X91201544Y-59353216D01*
X91300147Y-59205646D01*
X91425646Y-59080147D01*
X91573216Y-58981544D01*
X91737188Y-58913624D01*
X91886488Y-58883927D01*
X91911258Y-58879000D01*
X92088742Y-58879000D01*
X92113512Y-58883927D01*
G37*
G36*
X94653512Y-56343927D02*
G01*
X94802812Y-56373624D01*
X94966784Y-56441544D01*
X95114354Y-56540147D01*
X95239853Y-56665646D01*
X95338456Y-56813216D01*
X95406376Y-56977188D01*
X95441000Y-57151259D01*
X95441000Y-57328741D01*
X95406376Y-57502812D01*
X95338456Y-57666784D01*
X95239853Y-57814354D01*
X95114354Y-57939853D01*
X94966784Y-58038456D01*
X94802812Y-58106376D01*
X94653512Y-58136073D01*
X94628742Y-58141000D01*
X94451258Y-58141000D01*
X94426488Y-58136073D01*
X94277188Y-58106376D01*
X94113216Y-58038456D01*
X93965646Y-57939853D01*
X93840147Y-57814354D01*
X93741544Y-57666784D01*
X93673624Y-57502812D01*
X93639000Y-57328741D01*
X93639000Y-57151259D01*
X93673624Y-56977188D01*
X93741544Y-56813216D01*
X93840147Y-56665646D01*
X93965646Y-56540147D01*
X94113216Y-56441544D01*
X94277188Y-56373624D01*
X94426488Y-56343927D01*
X94451258Y-56339000D01*
X94628742Y-56339000D01*
X94653512Y-56343927D01*
G37*
G36*
X92113512Y-56343927D02*
G01*
X92262812Y-56373624D01*
X92426784Y-56441544D01*
X92574354Y-56540147D01*
X92699853Y-56665646D01*
X92798456Y-56813216D01*
X92866376Y-56977188D01*
X92901000Y-57151259D01*
X92901000Y-57328741D01*
X92866376Y-57502812D01*
X92798456Y-57666784D01*
X92699853Y-57814354D01*
X92574354Y-57939853D01*
X92426784Y-58038456D01*
X92262812Y-58106376D01*
X92113512Y-58136073D01*
X92088742Y-58141000D01*
X91911258Y-58141000D01*
X91886488Y-58136073D01*
X91737188Y-58106376D01*
X91573216Y-58038456D01*
X91425646Y-57939853D01*
X91300147Y-57814354D01*
X91201544Y-57666784D01*
X91133624Y-57502812D01*
X91099000Y-57328741D01*
X91099000Y-57151259D01*
X91133624Y-56977188D01*
X91201544Y-56813216D01*
X91300147Y-56665646D01*
X91425646Y-56540147D01*
X91573216Y-56441544D01*
X91737188Y-56373624D01*
X91886488Y-56343927D01*
X91911258Y-56339000D01*
X92088742Y-56339000D01*
X92113512Y-56343927D01*
G37*
G36*
X92113512Y-53803927D02*
G01*
X92262812Y-53833624D01*
X92426784Y-53901544D01*
X92574354Y-54000147D01*
X92699853Y-54125646D01*
X92798456Y-54273216D01*
X92866376Y-54437188D01*
X92901000Y-54611259D01*
X92901000Y-54788741D01*
X92866376Y-54962812D01*
X92798456Y-55126784D01*
X92699853Y-55274354D01*
X92574354Y-55399853D01*
X92426784Y-55498456D01*
X92262812Y-55566376D01*
X92113512Y-55596073D01*
X92088742Y-55601000D01*
X91911258Y-55601000D01*
X91886488Y-55596073D01*
X91737188Y-55566376D01*
X91573216Y-55498456D01*
X91425646Y-55399853D01*
X91300147Y-55274354D01*
X91201544Y-55126784D01*
X91133624Y-54962812D01*
X91099000Y-54788741D01*
X91099000Y-54611259D01*
X91133624Y-54437188D01*
X91201544Y-54273216D01*
X91300147Y-54125646D01*
X91425646Y-54000147D01*
X91573216Y-53901544D01*
X91737188Y-53833624D01*
X91886488Y-53803927D01*
X91911258Y-53799000D01*
X92088742Y-53799000D01*
X92113512Y-53803927D01*
G37*
G36*
X94653512Y-53803927D02*
G01*
X94802812Y-53833624D01*
X94966784Y-53901544D01*
X95114354Y-54000147D01*
X95239853Y-54125646D01*
X95338456Y-54273216D01*
X95406376Y-54437188D01*
X95441000Y-54611259D01*
X95441000Y-54788741D01*
X95406376Y-54962812D01*
X95338456Y-55126784D01*
X95239853Y-55274354D01*
X95114354Y-55399853D01*
X94966784Y-55498456D01*
X94802812Y-55566376D01*
X94653512Y-55596073D01*
X94628742Y-55601000D01*
X94451258Y-55601000D01*
X94426488Y-55596073D01*
X94277188Y-55566376D01*
X94113216Y-55498456D01*
X93965646Y-55399853D01*
X93840147Y-55274354D01*
X93741544Y-55126784D01*
X93673624Y-54962812D01*
X93639000Y-54788741D01*
X93639000Y-54611259D01*
X93673624Y-54437188D01*
X93741544Y-54273216D01*
X93840147Y-54125646D01*
X93965646Y-54000147D01*
X94113216Y-53901544D01*
X94277188Y-53833624D01*
X94426488Y-53803927D01*
X94451258Y-53799000D01*
X94628742Y-53799000D01*
X94653512Y-53803927D01*
G37*
G36*
X92113512Y-51263927D02*
G01*
X92262812Y-51293624D01*
X92426784Y-51361544D01*
X92574354Y-51460147D01*
X92699853Y-51585646D01*
X92798456Y-51733216D01*
X92866376Y-51897188D01*
X92901000Y-52071259D01*
X92901000Y-52248741D01*
X92866376Y-52422812D01*
X92798456Y-52586784D01*
X92699853Y-52734354D01*
X92574354Y-52859853D01*
X92426784Y-52958456D01*
X92262812Y-53026376D01*
X92113512Y-53056073D01*
X92088742Y-53061000D01*
X91911258Y-53061000D01*
X91886488Y-53056073D01*
X91737188Y-53026376D01*
X91573216Y-52958456D01*
X91425646Y-52859853D01*
X91300147Y-52734354D01*
X91201544Y-52586784D01*
X91133624Y-52422812D01*
X91099000Y-52248741D01*
X91099000Y-52071259D01*
X91133624Y-51897188D01*
X91201544Y-51733216D01*
X91300147Y-51585646D01*
X91425646Y-51460147D01*
X91573216Y-51361544D01*
X91737188Y-51293624D01*
X91886488Y-51263927D01*
X91911258Y-51259000D01*
X92088742Y-51259000D01*
X92113512Y-51263927D01*
G37*
G36*
X94653512Y-51263927D02*
G01*
X94802812Y-51293624D01*
X94966784Y-51361544D01*
X95114354Y-51460147D01*
X95239853Y-51585646D01*
X95338456Y-51733216D01*
X95406376Y-51897188D01*
X95441000Y-52071259D01*
X95441000Y-52248741D01*
X95406376Y-52422812D01*
X95338456Y-52586784D01*
X95239853Y-52734354D01*
X95114354Y-52859853D01*
X94966784Y-52958456D01*
X94802812Y-53026376D01*
X94653512Y-53056073D01*
X94628742Y-53061000D01*
X94451258Y-53061000D01*
X94426488Y-53056073D01*
X94277188Y-53026376D01*
X94113216Y-52958456D01*
X93965646Y-52859853D01*
X93840147Y-52734354D01*
X93741544Y-52586784D01*
X93673624Y-52422812D01*
X93639000Y-52248741D01*
X93639000Y-52071259D01*
X93673624Y-51897188D01*
X93741544Y-51733216D01*
X93840147Y-51585646D01*
X93965646Y-51460147D01*
X94113216Y-51361544D01*
X94277188Y-51293624D01*
X94426488Y-51263927D01*
X94451258Y-51259000D01*
X94628742Y-51259000D01*
X94653512Y-51263927D01*
G37*
G36*
X94653512Y-48723927D02*
G01*
X94802812Y-48753624D01*
X94966784Y-48821544D01*
X95114354Y-48920147D01*
X95239853Y-49045646D01*
X95338456Y-49193216D01*
X95406376Y-49357188D01*
X95441000Y-49531259D01*
X95441000Y-49708741D01*
X95406376Y-49882812D01*
X95338456Y-50046784D01*
X95239853Y-50194354D01*
X95114354Y-50319853D01*
X94966784Y-50418456D01*
X94802812Y-50486376D01*
X94653512Y-50516073D01*
X94628742Y-50521000D01*
X94451258Y-50521000D01*
X94426488Y-50516073D01*
X94277188Y-50486376D01*
X94113216Y-50418456D01*
X93965646Y-50319853D01*
X93840147Y-50194354D01*
X93741544Y-50046784D01*
X93673624Y-49882812D01*
X93639000Y-49708741D01*
X93639000Y-49531259D01*
X93673624Y-49357188D01*
X93741544Y-49193216D01*
X93840147Y-49045646D01*
X93965646Y-48920147D01*
X94113216Y-48821544D01*
X94277188Y-48753624D01*
X94426488Y-48723927D01*
X94451258Y-48719000D01*
X94628742Y-48719000D01*
X94653512Y-48723927D01*
G37*
G36*
X92113512Y-48723927D02*
G01*
X92262812Y-48753624D01*
X92426784Y-48821544D01*
X92574354Y-48920147D01*
X92699853Y-49045646D01*
X92798456Y-49193216D01*
X92866376Y-49357188D01*
X92901000Y-49531259D01*
X92901000Y-49708741D01*
X92866376Y-49882812D01*
X92798456Y-50046784D01*
X92699853Y-50194354D01*
X92574354Y-50319853D01*
X92426784Y-50418456D01*
X92262812Y-50486376D01*
X92113512Y-50516073D01*
X92088742Y-50521000D01*
X91911258Y-50521000D01*
X91886488Y-50516073D01*
X91737188Y-50486376D01*
X91573216Y-50418456D01*
X91425646Y-50319853D01*
X91300147Y-50194354D01*
X91201544Y-50046784D01*
X91133624Y-49882812D01*
X91099000Y-49708741D01*
X91099000Y-49531259D01*
X91133624Y-49357188D01*
X91201544Y-49193216D01*
X91300147Y-49045646D01*
X91425646Y-48920147D01*
X91573216Y-48821544D01*
X91737188Y-48753624D01*
X91886488Y-48723927D01*
X91911258Y-48719000D01*
X92088742Y-48719000D01*
X92113512Y-48723927D01*
G37*
G36*
X135133512Y-48477927D02*
G01*
X135282812Y-48507624D01*
X135446784Y-48575544D01*
X135594354Y-48674147D01*
X135719853Y-48799646D01*
X135818456Y-48947216D01*
X135886376Y-49111188D01*
X135921000Y-49285259D01*
X135921000Y-49462741D01*
X135886376Y-49636812D01*
X135818456Y-49800784D01*
X135719853Y-49948354D01*
X135594354Y-50073853D01*
X135446784Y-50172456D01*
X135282812Y-50240376D01*
X135133512Y-50270073D01*
X135108742Y-50275000D01*
X134931258Y-50275000D01*
X134906488Y-50270073D01*
X134757188Y-50240376D01*
X134593216Y-50172456D01*
X134445646Y-50073853D01*
X134320147Y-49948354D01*
X134221544Y-49800784D01*
X134153624Y-49636812D01*
X134119000Y-49462741D01*
X134119000Y-49285259D01*
X134153624Y-49111188D01*
X134221544Y-48947216D01*
X134320147Y-48799646D01*
X134445646Y-48674147D01*
X134593216Y-48575544D01*
X134757188Y-48507624D01*
X134906488Y-48477927D01*
X134931258Y-48473000D01*
X135108742Y-48473000D01*
X135133512Y-48477927D01*
G37*
G36*
X137673512Y-48477927D02*
G01*
X137822812Y-48507624D01*
X137986784Y-48575544D01*
X138134354Y-48674147D01*
X138259853Y-48799646D01*
X138358456Y-48947216D01*
X138426376Y-49111188D01*
X138461000Y-49285259D01*
X138461000Y-49462741D01*
X138426376Y-49636812D01*
X138358456Y-49800784D01*
X138259853Y-49948354D01*
X138134354Y-50073853D01*
X137986784Y-50172456D01*
X137822812Y-50240376D01*
X137673512Y-50270073D01*
X137648742Y-50275000D01*
X137471258Y-50275000D01*
X137446488Y-50270073D01*
X137297188Y-50240376D01*
X137133216Y-50172456D01*
X136985646Y-50073853D01*
X136860147Y-49948354D01*
X136761544Y-49800784D01*
X136693624Y-49636812D01*
X136659000Y-49462741D01*
X136659000Y-49285259D01*
X136693624Y-49111188D01*
X136761544Y-48947216D01*
X136860147Y-48799646D01*
X136985646Y-48674147D01*
X137133216Y-48575544D01*
X137297188Y-48507624D01*
X137446488Y-48477927D01*
X137471258Y-48473000D01*
X137648742Y-48473000D01*
X137673512Y-48477927D01*
G37*
G36*
X142753512Y-48477927D02*
G01*
X142902812Y-48507624D01*
X143066784Y-48575544D01*
X143214354Y-48674147D01*
X143339853Y-48799646D01*
X143438456Y-48947216D01*
X143506376Y-49111188D01*
X143541000Y-49285259D01*
X143541000Y-49462741D01*
X143506376Y-49636812D01*
X143438456Y-49800784D01*
X143339853Y-49948354D01*
X143214354Y-50073853D01*
X143066784Y-50172456D01*
X142902812Y-50240376D01*
X142753512Y-50270073D01*
X142728742Y-50275000D01*
X142551258Y-50275000D01*
X142526488Y-50270073D01*
X142377188Y-50240376D01*
X142213216Y-50172456D01*
X142065646Y-50073853D01*
X141940147Y-49948354D01*
X141841544Y-49800784D01*
X141773624Y-49636812D01*
X141739000Y-49462741D01*
X141739000Y-49285259D01*
X141773624Y-49111188D01*
X141841544Y-48947216D01*
X141940147Y-48799646D01*
X142065646Y-48674147D01*
X142213216Y-48575544D01*
X142377188Y-48507624D01*
X142526488Y-48477927D01*
X142551258Y-48473000D01*
X142728742Y-48473000D01*
X142753512Y-48477927D01*
G37*
G36*
X115601000Y-50275000D02*
G01*
X113799000Y-50275000D01*
X113799000Y-48473000D01*
X115601000Y-48473000D01*
X115601000Y-50275000D01*
G37*
G36*
X117353512Y-48477927D02*
G01*
X117502812Y-48507624D01*
X117666784Y-48575544D01*
X117814354Y-48674147D01*
X117939853Y-48799646D01*
X118038456Y-48947216D01*
X118106376Y-49111188D01*
X118141000Y-49285259D01*
X118141000Y-49462741D01*
X118106376Y-49636812D01*
X118038456Y-49800784D01*
X117939853Y-49948354D01*
X117814354Y-50073853D01*
X117666784Y-50172456D01*
X117502812Y-50240376D01*
X117353512Y-50270073D01*
X117328742Y-50275000D01*
X117151258Y-50275000D01*
X117126488Y-50270073D01*
X116977188Y-50240376D01*
X116813216Y-50172456D01*
X116665646Y-50073853D01*
X116540147Y-49948354D01*
X116441544Y-49800784D01*
X116373624Y-49636812D01*
X116339000Y-49462741D01*
X116339000Y-49285259D01*
X116373624Y-49111188D01*
X116441544Y-48947216D01*
X116540147Y-48799646D01*
X116665646Y-48674147D01*
X116813216Y-48575544D01*
X116977188Y-48507624D01*
X117126488Y-48477927D01*
X117151258Y-48473000D01*
X117328742Y-48473000D01*
X117353512Y-48477927D01*
G37*
G36*
X119893512Y-48477927D02*
G01*
X120042812Y-48507624D01*
X120206784Y-48575544D01*
X120354354Y-48674147D01*
X120479853Y-48799646D01*
X120578456Y-48947216D01*
X120646376Y-49111188D01*
X120681000Y-49285259D01*
X120681000Y-49462741D01*
X120646376Y-49636812D01*
X120578456Y-49800784D01*
X120479853Y-49948354D01*
X120354354Y-50073853D01*
X120206784Y-50172456D01*
X120042812Y-50240376D01*
X119893512Y-50270073D01*
X119868742Y-50275000D01*
X119691258Y-50275000D01*
X119666488Y-50270073D01*
X119517188Y-50240376D01*
X119353216Y-50172456D01*
X119205646Y-50073853D01*
X119080147Y-49948354D01*
X118981544Y-49800784D01*
X118913624Y-49636812D01*
X118879000Y-49462741D01*
X118879000Y-49285259D01*
X118913624Y-49111188D01*
X118981544Y-48947216D01*
X119080147Y-48799646D01*
X119205646Y-48674147D01*
X119353216Y-48575544D01*
X119517188Y-48507624D01*
X119666488Y-48477927D01*
X119691258Y-48473000D01*
X119868742Y-48473000D01*
X119893512Y-48477927D01*
G37*
G36*
X124973512Y-48477927D02*
G01*
X125122812Y-48507624D01*
X125286784Y-48575544D01*
X125434354Y-48674147D01*
X125559853Y-48799646D01*
X125658456Y-48947216D01*
X125726376Y-49111188D01*
X125761000Y-49285259D01*
X125761000Y-49462741D01*
X125726376Y-49636812D01*
X125658456Y-49800784D01*
X125559853Y-49948354D01*
X125434354Y-50073853D01*
X125286784Y-50172456D01*
X125122812Y-50240376D01*
X124973512Y-50270073D01*
X124948742Y-50275000D01*
X124771258Y-50275000D01*
X124746488Y-50270073D01*
X124597188Y-50240376D01*
X124433216Y-50172456D01*
X124285646Y-50073853D01*
X124160147Y-49948354D01*
X124061544Y-49800784D01*
X123993624Y-49636812D01*
X123959000Y-49462741D01*
X123959000Y-49285259D01*
X123993624Y-49111188D01*
X124061544Y-48947216D01*
X124160147Y-48799646D01*
X124285646Y-48674147D01*
X124433216Y-48575544D01*
X124597188Y-48507624D01*
X124746488Y-48477927D01*
X124771258Y-48473000D01*
X124948742Y-48473000D01*
X124973512Y-48477927D01*
G37*
G36*
X127513512Y-48477927D02*
G01*
X127662812Y-48507624D01*
X127826784Y-48575544D01*
X127974354Y-48674147D01*
X128099853Y-48799646D01*
X128198456Y-48947216D01*
X128266376Y-49111188D01*
X128301000Y-49285259D01*
X128301000Y-49462741D01*
X128266376Y-49636812D01*
X128198456Y-49800784D01*
X128099853Y-49948354D01*
X127974354Y-50073853D01*
X127826784Y-50172456D01*
X127662812Y-50240376D01*
X127513512Y-50270073D01*
X127488742Y-50275000D01*
X127311258Y-50275000D01*
X127286488Y-50270073D01*
X127137188Y-50240376D01*
X126973216Y-50172456D01*
X126825646Y-50073853D01*
X126700147Y-49948354D01*
X126601544Y-49800784D01*
X126533624Y-49636812D01*
X126499000Y-49462741D01*
X126499000Y-49285259D01*
X126533624Y-49111188D01*
X126601544Y-48947216D01*
X126700147Y-48799646D01*
X126825646Y-48674147D01*
X126973216Y-48575544D01*
X127137188Y-48507624D01*
X127286488Y-48477927D01*
X127311258Y-48473000D01*
X127488742Y-48473000D01*
X127513512Y-48477927D01*
G37*
G36*
X132593512Y-48477927D02*
G01*
X132742812Y-48507624D01*
X132906784Y-48575544D01*
X133054354Y-48674147D01*
X133179853Y-48799646D01*
X133278456Y-48947216D01*
X133346376Y-49111188D01*
X133381000Y-49285259D01*
X133381000Y-49462741D01*
X133346376Y-49636812D01*
X133278456Y-49800784D01*
X133179853Y-49948354D01*
X133054354Y-50073853D01*
X132906784Y-50172456D01*
X132742812Y-50240376D01*
X132593512Y-50270073D01*
X132568742Y-50275000D01*
X132391258Y-50275000D01*
X132366488Y-50270073D01*
X132217188Y-50240376D01*
X132053216Y-50172456D01*
X131905646Y-50073853D01*
X131780147Y-49948354D01*
X131681544Y-49800784D01*
X131613624Y-49636812D01*
X131579000Y-49462741D01*
X131579000Y-49285259D01*
X131613624Y-49111188D01*
X131681544Y-48947216D01*
X131780147Y-48799646D01*
X131905646Y-48674147D01*
X132053216Y-48575544D01*
X132217188Y-48507624D01*
X132366488Y-48477927D01*
X132391258Y-48473000D01*
X132568742Y-48473000D01*
X132593512Y-48477927D01*
G37*
G36*
X140213512Y-48477927D02*
G01*
X140362812Y-48507624D01*
X140526784Y-48575544D01*
X140674354Y-48674147D01*
X140799853Y-48799646D01*
X140898456Y-48947216D01*
X140966376Y-49111188D01*
X141001000Y-49285259D01*
X141001000Y-49462741D01*
X140966376Y-49636812D01*
X140898456Y-49800784D01*
X140799853Y-49948354D01*
X140674354Y-50073853D01*
X140526784Y-50172456D01*
X140362812Y-50240376D01*
X140213512Y-50270073D01*
X140188742Y-50275000D01*
X140011258Y-50275000D01*
X139986488Y-50270073D01*
X139837188Y-50240376D01*
X139673216Y-50172456D01*
X139525646Y-50073853D01*
X139400147Y-49948354D01*
X139301544Y-49800784D01*
X139233624Y-49636812D01*
X139199000Y-49462741D01*
X139199000Y-49285259D01*
X139233624Y-49111188D01*
X139301544Y-48947216D01*
X139400147Y-48799646D01*
X139525646Y-48674147D01*
X139673216Y-48575544D01*
X139837188Y-48507624D01*
X139986488Y-48477927D01*
X140011258Y-48473000D01*
X140188742Y-48473000D01*
X140213512Y-48477927D01*
G37*
G36*
X130053512Y-48477927D02*
G01*
X130202812Y-48507624D01*
X130366784Y-48575544D01*
X130514354Y-48674147D01*
X130639853Y-48799646D01*
X130738456Y-48947216D01*
X130806376Y-49111188D01*
X130841000Y-49285259D01*
X130841000Y-49462741D01*
X130806376Y-49636812D01*
X130738456Y-49800784D01*
X130639853Y-49948354D01*
X130514354Y-50073853D01*
X130366784Y-50172456D01*
X130202812Y-50240376D01*
X130053512Y-50270073D01*
X130028742Y-50275000D01*
X129851258Y-50275000D01*
X129826488Y-50270073D01*
X129677188Y-50240376D01*
X129513216Y-50172456D01*
X129365646Y-50073853D01*
X129240147Y-49948354D01*
X129141544Y-49800784D01*
X129073624Y-49636812D01*
X129039000Y-49462741D01*
X129039000Y-49285259D01*
X129073624Y-49111188D01*
X129141544Y-48947216D01*
X129240147Y-48799646D01*
X129365646Y-48674147D01*
X129513216Y-48575544D01*
X129677188Y-48507624D01*
X129826488Y-48477927D01*
X129851258Y-48473000D01*
X130028742Y-48473000D01*
X130053512Y-48477927D01*
G37*
G36*
X122433512Y-48477927D02*
G01*
X122582812Y-48507624D01*
X122746784Y-48575544D01*
X122894354Y-48674147D01*
X123019853Y-48799646D01*
X123118456Y-48947216D01*
X123186376Y-49111188D01*
X123221000Y-49285259D01*
X123221000Y-49462741D01*
X123186376Y-49636812D01*
X123118456Y-49800784D01*
X123019853Y-49948354D01*
X122894354Y-50073853D01*
X122746784Y-50172456D01*
X122582812Y-50240376D01*
X122433512Y-50270073D01*
X122408742Y-50275000D01*
X122231258Y-50275000D01*
X122206488Y-50270073D01*
X122057188Y-50240376D01*
X121893216Y-50172456D01*
X121745646Y-50073853D01*
X121620147Y-49948354D01*
X121521544Y-49800784D01*
X121453624Y-49636812D01*
X121419000Y-49462741D01*
X121419000Y-49285259D01*
X121453624Y-49111188D01*
X121521544Y-48947216D01*
X121620147Y-48799646D01*
X121745646Y-48674147D01*
X121893216Y-48575544D01*
X122057188Y-48507624D01*
X122206488Y-48477927D01*
X122231258Y-48473000D01*
X122408742Y-48473000D01*
X122433512Y-48477927D01*
G37*
G36*
X94653512Y-46183927D02*
G01*
X94802812Y-46213624D01*
X94966784Y-46281544D01*
X95114354Y-46380147D01*
X95239853Y-46505646D01*
X95338456Y-46653216D01*
X95406376Y-46817188D01*
X95441000Y-46991259D01*
X95441000Y-47168741D01*
X95406376Y-47342812D01*
X95338456Y-47506784D01*
X95239853Y-47654354D01*
X95114354Y-47779853D01*
X94966784Y-47878456D01*
X94802812Y-47946376D01*
X94653512Y-47976073D01*
X94628742Y-47981000D01*
X94451258Y-47981000D01*
X94426488Y-47976073D01*
X94277188Y-47946376D01*
X94113216Y-47878456D01*
X93965646Y-47779853D01*
X93840147Y-47654354D01*
X93741544Y-47506784D01*
X93673624Y-47342812D01*
X93639000Y-47168741D01*
X93639000Y-46991259D01*
X93673624Y-46817188D01*
X93741544Y-46653216D01*
X93840147Y-46505646D01*
X93965646Y-46380147D01*
X94113216Y-46281544D01*
X94277188Y-46213624D01*
X94426488Y-46183927D01*
X94451258Y-46179000D01*
X94628742Y-46179000D01*
X94653512Y-46183927D01*
G37*
G36*
X92113512Y-46183927D02*
G01*
X92262812Y-46213624D01*
X92426784Y-46281544D01*
X92574354Y-46380147D01*
X92699853Y-46505646D01*
X92798456Y-46653216D01*
X92866376Y-46817188D01*
X92901000Y-46991259D01*
X92901000Y-47168741D01*
X92866376Y-47342812D01*
X92798456Y-47506784D01*
X92699853Y-47654354D01*
X92574354Y-47779853D01*
X92426784Y-47878456D01*
X92262812Y-47946376D01*
X92113512Y-47976073D01*
X92088742Y-47981000D01*
X91911258Y-47981000D01*
X91886488Y-47976073D01*
X91737188Y-47946376D01*
X91573216Y-47878456D01*
X91425646Y-47779853D01*
X91300147Y-47654354D01*
X91201544Y-47506784D01*
X91133624Y-47342812D01*
X91099000Y-47168741D01*
X91099000Y-46991259D01*
X91133624Y-46817188D01*
X91201544Y-46653216D01*
X91300147Y-46505646D01*
X91425646Y-46380147D01*
X91573216Y-46281544D01*
X91737188Y-46213624D01*
X91886488Y-46183927D01*
X91911258Y-46179000D01*
X92088742Y-46179000D01*
X92113512Y-46183927D01*
G37*
G36*
X135133512Y-45937927D02*
G01*
X135282812Y-45967624D01*
X135446784Y-46035544D01*
X135594354Y-46134147D01*
X135719853Y-46259646D01*
X135818456Y-46407216D01*
X135886376Y-46571188D01*
X135921000Y-46745259D01*
X135921000Y-46922741D01*
X135886376Y-47096812D01*
X135818456Y-47260784D01*
X135719853Y-47408354D01*
X135594354Y-47533853D01*
X135446784Y-47632456D01*
X135282812Y-47700376D01*
X135133512Y-47730073D01*
X135108742Y-47735000D01*
X134931258Y-47735000D01*
X134906488Y-47730073D01*
X134757188Y-47700376D01*
X134593216Y-47632456D01*
X134445646Y-47533853D01*
X134320147Y-47408354D01*
X134221544Y-47260784D01*
X134153624Y-47096812D01*
X134119000Y-46922741D01*
X134119000Y-46745259D01*
X134153624Y-46571188D01*
X134221544Y-46407216D01*
X134320147Y-46259646D01*
X134445646Y-46134147D01*
X134593216Y-46035544D01*
X134757188Y-45967624D01*
X134906488Y-45937927D01*
X134931258Y-45933000D01*
X135108742Y-45933000D01*
X135133512Y-45937927D01*
G37*
G36*
X114813512Y-45937927D02*
G01*
X114962812Y-45967624D01*
X115126784Y-46035544D01*
X115274354Y-46134147D01*
X115399853Y-46259646D01*
X115498456Y-46407216D01*
X115566376Y-46571188D01*
X115601000Y-46745259D01*
X115601000Y-46922741D01*
X115566376Y-47096812D01*
X115498456Y-47260784D01*
X115399853Y-47408354D01*
X115274354Y-47533853D01*
X115126784Y-47632456D01*
X114962812Y-47700376D01*
X114813512Y-47730073D01*
X114788742Y-47735000D01*
X114611258Y-47735000D01*
X114586488Y-47730073D01*
X114437188Y-47700376D01*
X114273216Y-47632456D01*
X114125646Y-47533853D01*
X114000147Y-47408354D01*
X113901544Y-47260784D01*
X113833624Y-47096812D01*
X113799000Y-46922741D01*
X113799000Y-46745259D01*
X113833624Y-46571188D01*
X113901544Y-46407216D01*
X114000147Y-46259646D01*
X114125646Y-46134147D01*
X114273216Y-46035544D01*
X114437188Y-45967624D01*
X114586488Y-45937927D01*
X114611258Y-45933000D01*
X114788742Y-45933000D01*
X114813512Y-45937927D01*
G37*
G36*
X119893512Y-45937927D02*
G01*
X120042812Y-45967624D01*
X120206784Y-46035544D01*
X120354354Y-46134147D01*
X120479853Y-46259646D01*
X120578456Y-46407216D01*
X120646376Y-46571188D01*
X120681000Y-46745259D01*
X120681000Y-46922741D01*
X120646376Y-47096812D01*
X120578456Y-47260784D01*
X120479853Y-47408354D01*
X120354354Y-47533853D01*
X120206784Y-47632456D01*
X120042812Y-47700376D01*
X119893512Y-47730073D01*
X119868742Y-47735000D01*
X119691258Y-47735000D01*
X119666488Y-47730073D01*
X119517188Y-47700376D01*
X119353216Y-47632456D01*
X119205646Y-47533853D01*
X119080147Y-47408354D01*
X118981544Y-47260784D01*
X118913624Y-47096812D01*
X118879000Y-46922741D01*
X118879000Y-46745259D01*
X118913624Y-46571188D01*
X118981544Y-46407216D01*
X119080147Y-46259646D01*
X119205646Y-46134147D01*
X119353216Y-46035544D01*
X119517188Y-45967624D01*
X119666488Y-45937927D01*
X119691258Y-45933000D01*
X119868742Y-45933000D01*
X119893512Y-45937927D01*
G37*
G36*
X122433512Y-45937927D02*
G01*
X122582812Y-45967624D01*
X122746784Y-46035544D01*
X122894354Y-46134147D01*
X123019853Y-46259646D01*
X123118456Y-46407216D01*
X123186376Y-46571188D01*
X123221000Y-46745259D01*
X123221000Y-46922741D01*
X123186376Y-47096812D01*
X123118456Y-47260784D01*
X123019853Y-47408354D01*
X122894354Y-47533853D01*
X122746784Y-47632456D01*
X122582812Y-47700376D01*
X122433512Y-47730073D01*
X122408742Y-47735000D01*
X122231258Y-47735000D01*
X122206488Y-47730073D01*
X122057188Y-47700376D01*
X121893216Y-47632456D01*
X121745646Y-47533853D01*
X121620147Y-47408354D01*
X121521544Y-47260784D01*
X121453624Y-47096812D01*
X121419000Y-46922741D01*
X121419000Y-46745259D01*
X121453624Y-46571188D01*
X121521544Y-46407216D01*
X121620147Y-46259646D01*
X121745646Y-46134147D01*
X121893216Y-46035544D01*
X122057188Y-45967624D01*
X122206488Y-45937927D01*
X122231258Y-45933000D01*
X122408742Y-45933000D01*
X122433512Y-45937927D01*
G37*
G36*
X124973512Y-45937927D02*
G01*
X125122812Y-45967624D01*
X125286784Y-46035544D01*
X125434354Y-46134147D01*
X125559853Y-46259646D01*
X125658456Y-46407216D01*
X125726376Y-46571188D01*
X125761000Y-46745259D01*
X125761000Y-46922741D01*
X125726376Y-47096812D01*
X125658456Y-47260784D01*
X125559853Y-47408354D01*
X125434354Y-47533853D01*
X125286784Y-47632456D01*
X125122812Y-47700376D01*
X124973512Y-47730073D01*
X124948742Y-47735000D01*
X124771258Y-47735000D01*
X124746488Y-47730073D01*
X124597188Y-47700376D01*
X124433216Y-47632456D01*
X124285646Y-47533853D01*
X124160147Y-47408354D01*
X124061544Y-47260784D01*
X123993624Y-47096812D01*
X123959000Y-46922741D01*
X123959000Y-46745259D01*
X123993624Y-46571188D01*
X124061544Y-46407216D01*
X124160147Y-46259646D01*
X124285646Y-46134147D01*
X124433216Y-46035544D01*
X124597188Y-45967624D01*
X124746488Y-45937927D01*
X124771258Y-45933000D01*
X124948742Y-45933000D01*
X124973512Y-45937927D01*
G37*
G36*
X127513512Y-45937927D02*
G01*
X127662812Y-45967624D01*
X127826784Y-46035544D01*
X127974354Y-46134147D01*
X128099853Y-46259646D01*
X128198456Y-46407216D01*
X128266376Y-46571188D01*
X128301000Y-46745259D01*
X128301000Y-46922741D01*
X128266376Y-47096812D01*
X128198456Y-47260784D01*
X128099853Y-47408354D01*
X127974354Y-47533853D01*
X127826784Y-47632456D01*
X127662812Y-47700376D01*
X127513512Y-47730073D01*
X127488742Y-47735000D01*
X127311258Y-47735000D01*
X127286488Y-47730073D01*
X127137188Y-47700376D01*
X126973216Y-47632456D01*
X126825646Y-47533853D01*
X126700147Y-47408354D01*
X126601544Y-47260784D01*
X126533624Y-47096812D01*
X126499000Y-46922741D01*
X126499000Y-46745259D01*
X126533624Y-46571188D01*
X126601544Y-46407216D01*
X126700147Y-46259646D01*
X126825646Y-46134147D01*
X126973216Y-46035544D01*
X127137188Y-45967624D01*
X127286488Y-45937927D01*
X127311258Y-45933000D01*
X127488742Y-45933000D01*
X127513512Y-45937927D01*
G37*
G36*
X130053512Y-45937927D02*
G01*
X130202812Y-45967624D01*
X130366784Y-46035544D01*
X130514354Y-46134147D01*
X130639853Y-46259646D01*
X130738456Y-46407216D01*
X130806376Y-46571188D01*
X130841000Y-46745259D01*
X130841000Y-46922741D01*
X130806376Y-47096812D01*
X130738456Y-47260784D01*
X130639853Y-47408354D01*
X130514354Y-47533853D01*
X130366784Y-47632456D01*
X130202812Y-47700376D01*
X130053512Y-47730073D01*
X130028742Y-47735000D01*
X129851258Y-47735000D01*
X129826488Y-47730073D01*
X129677188Y-47700376D01*
X129513216Y-47632456D01*
X129365646Y-47533853D01*
X129240147Y-47408354D01*
X129141544Y-47260784D01*
X129073624Y-47096812D01*
X129039000Y-46922741D01*
X129039000Y-46745259D01*
X129073624Y-46571188D01*
X129141544Y-46407216D01*
X129240147Y-46259646D01*
X129365646Y-46134147D01*
X129513216Y-46035544D01*
X129677188Y-45967624D01*
X129826488Y-45937927D01*
X129851258Y-45933000D01*
X130028742Y-45933000D01*
X130053512Y-45937927D01*
G37*
G36*
X132593512Y-45937927D02*
G01*
X132742812Y-45967624D01*
X132906784Y-46035544D01*
X133054354Y-46134147D01*
X133179853Y-46259646D01*
X133278456Y-46407216D01*
X133346376Y-46571188D01*
X133381000Y-46745259D01*
X133381000Y-46922741D01*
X133346376Y-47096812D01*
X133278456Y-47260784D01*
X133179853Y-47408354D01*
X133054354Y-47533853D01*
X132906784Y-47632456D01*
X132742812Y-47700376D01*
X132593512Y-47730073D01*
X132568742Y-47735000D01*
X132391258Y-47735000D01*
X132366488Y-47730073D01*
X132217188Y-47700376D01*
X132053216Y-47632456D01*
X131905646Y-47533853D01*
X131780147Y-47408354D01*
X131681544Y-47260784D01*
X131613624Y-47096812D01*
X131579000Y-46922741D01*
X131579000Y-46745259D01*
X131613624Y-46571188D01*
X131681544Y-46407216D01*
X131780147Y-46259646D01*
X131905646Y-46134147D01*
X132053216Y-46035544D01*
X132217188Y-45967624D01*
X132366488Y-45937927D01*
X132391258Y-45933000D01*
X132568742Y-45933000D01*
X132593512Y-45937927D01*
G37*
G36*
X137673512Y-45937927D02*
G01*
X137822812Y-45967624D01*
X137986784Y-46035544D01*
X138134354Y-46134147D01*
X138259853Y-46259646D01*
X138358456Y-46407216D01*
X138426376Y-46571188D01*
X138461000Y-46745259D01*
X138461000Y-46922741D01*
X138426376Y-47096812D01*
X138358456Y-47260784D01*
X138259853Y-47408354D01*
X138134354Y-47533853D01*
X137986784Y-47632456D01*
X137822812Y-47700376D01*
X137673512Y-47730073D01*
X137648742Y-47735000D01*
X137471258Y-47735000D01*
X137446488Y-47730073D01*
X137297188Y-47700376D01*
X137133216Y-47632456D01*
X136985646Y-47533853D01*
X136860147Y-47408354D01*
X136761544Y-47260784D01*
X136693624Y-47096812D01*
X136659000Y-46922741D01*
X136659000Y-46745259D01*
X136693624Y-46571188D01*
X136761544Y-46407216D01*
X136860147Y-46259646D01*
X136985646Y-46134147D01*
X137133216Y-46035544D01*
X137297188Y-45967624D01*
X137446488Y-45937927D01*
X137471258Y-45933000D01*
X137648742Y-45933000D01*
X137673512Y-45937927D01*
G37*
G36*
X140213512Y-45937927D02*
G01*
X140362812Y-45967624D01*
X140526784Y-46035544D01*
X140674354Y-46134147D01*
X140799853Y-46259646D01*
X140898456Y-46407216D01*
X140966376Y-46571188D01*
X141001000Y-46745259D01*
X141001000Y-46922741D01*
X140966376Y-47096812D01*
X140898456Y-47260784D01*
X140799853Y-47408354D01*
X140674354Y-47533853D01*
X140526784Y-47632456D01*
X140362812Y-47700376D01*
X140213512Y-47730073D01*
X140188742Y-47735000D01*
X140011258Y-47735000D01*
X139986488Y-47730073D01*
X139837188Y-47700376D01*
X139673216Y-47632456D01*
X139525646Y-47533853D01*
X139400147Y-47408354D01*
X139301544Y-47260784D01*
X139233624Y-47096812D01*
X139199000Y-46922741D01*
X139199000Y-46745259D01*
X139233624Y-46571188D01*
X139301544Y-46407216D01*
X139400147Y-46259646D01*
X139525646Y-46134147D01*
X139673216Y-46035544D01*
X139837188Y-45967624D01*
X139986488Y-45937927D01*
X140011258Y-45933000D01*
X140188742Y-45933000D01*
X140213512Y-45937927D01*
G37*
G36*
X117353512Y-45937927D02*
G01*
X117502812Y-45967624D01*
X117666784Y-46035544D01*
X117814354Y-46134147D01*
X117939853Y-46259646D01*
X118038456Y-46407216D01*
X118106376Y-46571188D01*
X118141000Y-46745259D01*
X118141000Y-46922741D01*
X118106376Y-47096812D01*
X118038456Y-47260784D01*
X117939853Y-47408354D01*
X117814354Y-47533853D01*
X117666784Y-47632456D01*
X117502812Y-47700376D01*
X117353512Y-47730073D01*
X117328742Y-47735000D01*
X117151258Y-47735000D01*
X117126488Y-47730073D01*
X116977188Y-47700376D01*
X116813216Y-47632456D01*
X116665646Y-47533853D01*
X116540147Y-47408354D01*
X116441544Y-47260784D01*
X116373624Y-47096812D01*
X116339000Y-46922741D01*
X116339000Y-46745259D01*
X116373624Y-46571188D01*
X116441544Y-46407216D01*
X116540147Y-46259646D01*
X116665646Y-46134147D01*
X116813216Y-46035544D01*
X116977188Y-45967624D01*
X117126488Y-45937927D01*
X117151258Y-45933000D01*
X117328742Y-45933000D01*
X117353512Y-45937927D01*
G37*
G36*
X142753512Y-45937927D02*
G01*
X142902812Y-45967624D01*
X143066784Y-46035544D01*
X143214354Y-46134147D01*
X143339853Y-46259646D01*
X143438456Y-46407216D01*
X143506376Y-46571188D01*
X143541000Y-46745259D01*
X143541000Y-46922741D01*
X143506376Y-47096812D01*
X143438456Y-47260784D01*
X143339853Y-47408354D01*
X143214354Y-47533853D01*
X143066784Y-47632456D01*
X142902812Y-47700376D01*
X142753512Y-47730073D01*
X142728742Y-47735000D01*
X142551258Y-47735000D01*
X142526488Y-47730073D01*
X142377188Y-47700376D01*
X142213216Y-47632456D01*
X142065646Y-47533853D01*
X141940147Y-47408354D01*
X141841544Y-47260784D01*
X141773624Y-47096812D01*
X141739000Y-46922741D01*
X141739000Y-46745259D01*
X141773624Y-46571188D01*
X141841544Y-46407216D01*
X141940147Y-46259646D01*
X142065646Y-46134147D01*
X142213216Y-46035544D01*
X142377188Y-45967624D01*
X142526488Y-45937927D01*
X142551258Y-45933000D01*
X142728742Y-45933000D01*
X142753512Y-45937927D01*
G37*
G36*
X94653512Y-43643927D02*
G01*
X94802812Y-43673624D01*
X94966784Y-43741544D01*
X95114354Y-43840147D01*
X95239853Y-43965646D01*
X95338456Y-44113216D01*
X95406376Y-44277188D01*
X95441000Y-44451259D01*
X95441000Y-44628741D01*
X95406376Y-44802812D01*
X95338456Y-44966784D01*
X95239853Y-45114354D01*
X95114354Y-45239853D01*
X94966784Y-45338456D01*
X94802812Y-45406376D01*
X94653512Y-45436073D01*
X94628742Y-45441000D01*
X94451258Y-45441000D01*
X94426488Y-45436073D01*
X94277188Y-45406376D01*
X94113216Y-45338456D01*
X93965646Y-45239853D01*
X93840147Y-45114354D01*
X93741544Y-44966784D01*
X93673624Y-44802812D01*
X93639000Y-44628741D01*
X93639000Y-44451259D01*
X93673624Y-44277188D01*
X93741544Y-44113216D01*
X93840147Y-43965646D01*
X93965646Y-43840147D01*
X94113216Y-43741544D01*
X94277188Y-43673624D01*
X94426488Y-43643927D01*
X94451258Y-43639000D01*
X94628742Y-43639000D01*
X94653512Y-43643927D01*
G37*
G36*
X92113512Y-43643927D02*
G01*
X92262812Y-43673624D01*
X92426784Y-43741544D01*
X92574354Y-43840147D01*
X92699853Y-43965646D01*
X92798456Y-44113216D01*
X92866376Y-44277188D01*
X92901000Y-44451259D01*
X92901000Y-44628741D01*
X92866376Y-44802812D01*
X92798456Y-44966784D01*
X92699853Y-45114354D01*
X92574354Y-45239853D01*
X92426784Y-45338456D01*
X92262812Y-45406376D01*
X92113512Y-45436073D01*
X92088742Y-45441000D01*
X91911258Y-45441000D01*
X91886488Y-45436073D01*
X91737188Y-45406376D01*
X91573216Y-45338456D01*
X91425646Y-45239853D01*
X91300147Y-45114354D01*
X91201544Y-44966784D01*
X91133624Y-44802812D01*
X91099000Y-44628741D01*
X91099000Y-44451259D01*
X91133624Y-44277188D01*
X91201544Y-44113216D01*
X91300147Y-43965646D01*
X91425646Y-43840147D01*
X91573216Y-43741544D01*
X91737188Y-43673624D01*
X91886488Y-43643927D01*
X91911258Y-43639000D01*
X92088742Y-43639000D01*
X92113512Y-43643927D01*
G37*
G36*
X92901000Y-42901000D02*
G01*
X91099000Y-42901000D01*
X91099000Y-41099000D01*
X92901000Y-41099000D01*
X92901000Y-42901000D01*
G37*
G36*
X94653512Y-41103927D02*
G01*
X94802812Y-41133624D01*
X94966784Y-41201544D01*
X95114354Y-41300147D01*
X95239853Y-41425646D01*
X95338456Y-41573216D01*
X95406376Y-41737188D01*
X95441000Y-41911259D01*
X95441000Y-42088741D01*
X95406376Y-42262812D01*
X95338456Y-42426784D01*
X95239853Y-42574354D01*
X95114354Y-42699853D01*
X94966784Y-42798456D01*
X94802812Y-42866376D01*
X94653512Y-42896073D01*
X94628742Y-42901000D01*
X94451258Y-42901000D01*
X94426488Y-42896073D01*
X94277188Y-42866376D01*
X94113216Y-42798456D01*
X93965646Y-42699853D01*
X93840147Y-42574354D01*
X93741544Y-42426784D01*
X93673624Y-42262812D01*
X93639000Y-42088741D01*
X93639000Y-41911259D01*
X93673624Y-41737188D01*
X93741544Y-41573216D01*
X93840147Y-41425646D01*
X93965646Y-41300147D01*
X94113216Y-41201544D01*
X94277188Y-41133624D01*
X94426488Y-41103927D01*
X94451258Y-41099000D01*
X94628742Y-41099000D01*
X94653512Y-41103927D01*
G37*
M02*
