%TF.GenerationSoftware,KiCad,Pcbnew,5.1.5+dfsg1-2build2*%
%TF.CreationDate,2023-06-17T11:27:21-05:00*%
%TF.ProjectId,2067-Z8S180,32303637-2d5a-4385-9331-38302e6b6963,rev?*%
%TF.SameCoordinates,Original*%
%TF.FileFunction,Paste,Top*%
%TF.FilePolarity,Positive*%
%FSLAX46Y46*%
G04 Gerber Fmt 4.6, Leading zero omitted, Abs format (unit mm)*
G04 Created by KiCad (PCBNEW 5.1.5+dfsg1-2build2) date 2023-06-17 11:27:21*
%MOMM*%
%LPD*%
G04 APERTURE LIST*
%ADD10C,0.100000*%
%ADD11R,1.300000X0.500000*%
%ADD12R,0.500000X1.300000*%
G04 APERTURE END LIST*
D10*
G36*
X137174505Y-69436204D02*
G01*
X137198773Y-69439804D01*
X137222572Y-69445765D01*
X137245671Y-69454030D01*
X137267850Y-69464520D01*
X137288893Y-69477132D01*
X137308599Y-69491747D01*
X137326777Y-69508223D01*
X137343253Y-69526401D01*
X137357868Y-69546107D01*
X137370480Y-69567150D01*
X137380970Y-69589329D01*
X137389235Y-69612428D01*
X137395196Y-69636227D01*
X137398796Y-69660495D01*
X137400000Y-69684999D01*
X137400000Y-70335001D01*
X137398796Y-70359505D01*
X137395196Y-70383773D01*
X137389235Y-70407572D01*
X137380970Y-70430671D01*
X137370480Y-70452850D01*
X137357868Y-70473893D01*
X137343253Y-70493599D01*
X137326777Y-70511777D01*
X137308599Y-70528253D01*
X137288893Y-70542868D01*
X137267850Y-70555480D01*
X137245671Y-70565970D01*
X137222572Y-70574235D01*
X137198773Y-70580196D01*
X137174505Y-70583796D01*
X137150001Y-70585000D01*
X136249999Y-70585000D01*
X136225495Y-70583796D01*
X136201227Y-70580196D01*
X136177428Y-70574235D01*
X136154329Y-70565970D01*
X136132150Y-70555480D01*
X136111107Y-70542868D01*
X136091401Y-70528253D01*
X136073223Y-70511777D01*
X136056747Y-70493599D01*
X136042132Y-70473893D01*
X136029520Y-70452850D01*
X136019030Y-70430671D01*
X136010765Y-70407572D01*
X136004804Y-70383773D01*
X136001204Y-70359505D01*
X136000000Y-70335001D01*
X136000000Y-69684999D01*
X136001204Y-69660495D01*
X136004804Y-69636227D01*
X136010765Y-69612428D01*
X136019030Y-69589329D01*
X136029520Y-69567150D01*
X136042132Y-69546107D01*
X136056747Y-69526401D01*
X136073223Y-69508223D01*
X136091401Y-69491747D01*
X136111107Y-69477132D01*
X136132150Y-69464520D01*
X136154329Y-69454030D01*
X136177428Y-69445765D01*
X136201227Y-69439804D01*
X136225495Y-69436204D01*
X136249999Y-69435000D01*
X137150001Y-69435000D01*
X137174505Y-69436204D01*
G37*
G36*
X137174505Y-71486204D02*
G01*
X137198773Y-71489804D01*
X137222572Y-71495765D01*
X137245671Y-71504030D01*
X137267850Y-71514520D01*
X137288893Y-71527132D01*
X137308599Y-71541747D01*
X137326777Y-71558223D01*
X137343253Y-71576401D01*
X137357868Y-71596107D01*
X137370480Y-71617150D01*
X137380970Y-71639329D01*
X137389235Y-71662428D01*
X137395196Y-71686227D01*
X137398796Y-71710495D01*
X137400000Y-71734999D01*
X137400000Y-72385001D01*
X137398796Y-72409505D01*
X137395196Y-72433773D01*
X137389235Y-72457572D01*
X137380970Y-72480671D01*
X137370480Y-72502850D01*
X137357868Y-72523893D01*
X137343253Y-72543599D01*
X137326777Y-72561777D01*
X137308599Y-72578253D01*
X137288893Y-72592868D01*
X137267850Y-72605480D01*
X137245671Y-72615970D01*
X137222572Y-72624235D01*
X137198773Y-72630196D01*
X137174505Y-72633796D01*
X137150001Y-72635000D01*
X136249999Y-72635000D01*
X136225495Y-72633796D01*
X136201227Y-72630196D01*
X136177428Y-72624235D01*
X136154329Y-72615970D01*
X136132150Y-72605480D01*
X136111107Y-72592868D01*
X136091401Y-72578253D01*
X136073223Y-72561777D01*
X136056747Y-72543599D01*
X136042132Y-72523893D01*
X136029520Y-72502850D01*
X136019030Y-72480671D01*
X136010765Y-72457572D01*
X136004804Y-72433773D01*
X136001204Y-72409505D01*
X136000000Y-72385001D01*
X136000000Y-71734999D01*
X136001204Y-71710495D01*
X136004804Y-71686227D01*
X136010765Y-71662428D01*
X136019030Y-71639329D01*
X136029520Y-71617150D01*
X136042132Y-71596107D01*
X136056747Y-71576401D01*
X136073223Y-71558223D01*
X136091401Y-71541747D01*
X136111107Y-71527132D01*
X136132150Y-71514520D01*
X136154329Y-71504030D01*
X136177428Y-71495765D01*
X136201227Y-71489804D01*
X136225495Y-71486204D01*
X136249999Y-71485000D01*
X137150001Y-71485000D01*
X137174505Y-71486204D01*
G37*
G36*
X135754505Y-95576204D02*
G01*
X135778773Y-95579804D01*
X135802572Y-95585765D01*
X135825671Y-95594030D01*
X135847850Y-95604520D01*
X135868893Y-95617132D01*
X135888599Y-95631747D01*
X135906777Y-95648223D01*
X135923253Y-95666401D01*
X135937868Y-95686107D01*
X135950480Y-95707150D01*
X135960970Y-95729329D01*
X135969235Y-95752428D01*
X135975196Y-95776227D01*
X135978796Y-95800495D01*
X135980000Y-95824999D01*
X135980000Y-96475001D01*
X135978796Y-96499505D01*
X135975196Y-96523773D01*
X135969235Y-96547572D01*
X135960970Y-96570671D01*
X135950480Y-96592850D01*
X135937868Y-96613893D01*
X135923253Y-96633599D01*
X135906777Y-96651777D01*
X135888599Y-96668253D01*
X135868893Y-96682868D01*
X135847850Y-96695480D01*
X135825671Y-96705970D01*
X135802572Y-96714235D01*
X135778773Y-96720196D01*
X135754505Y-96723796D01*
X135730001Y-96725000D01*
X134829999Y-96725000D01*
X134805495Y-96723796D01*
X134781227Y-96720196D01*
X134757428Y-96714235D01*
X134734329Y-96705970D01*
X134712150Y-96695480D01*
X134691107Y-96682868D01*
X134671401Y-96668253D01*
X134653223Y-96651777D01*
X134636747Y-96633599D01*
X134622132Y-96613893D01*
X134609520Y-96592850D01*
X134599030Y-96570671D01*
X134590765Y-96547572D01*
X134584804Y-96523773D01*
X134581204Y-96499505D01*
X134580000Y-96475001D01*
X134580000Y-95824999D01*
X134581204Y-95800495D01*
X134584804Y-95776227D01*
X134590765Y-95752428D01*
X134599030Y-95729329D01*
X134609520Y-95707150D01*
X134622132Y-95686107D01*
X134636747Y-95666401D01*
X134653223Y-95648223D01*
X134671401Y-95631747D01*
X134691107Y-95617132D01*
X134712150Y-95604520D01*
X134734329Y-95594030D01*
X134757428Y-95585765D01*
X134781227Y-95579804D01*
X134805495Y-95576204D01*
X134829999Y-95575000D01*
X135730001Y-95575000D01*
X135754505Y-95576204D01*
G37*
G36*
X135754505Y-97626204D02*
G01*
X135778773Y-97629804D01*
X135802572Y-97635765D01*
X135825671Y-97644030D01*
X135847850Y-97654520D01*
X135868893Y-97667132D01*
X135888599Y-97681747D01*
X135906777Y-97698223D01*
X135923253Y-97716401D01*
X135937868Y-97736107D01*
X135950480Y-97757150D01*
X135960970Y-97779329D01*
X135969235Y-97802428D01*
X135975196Y-97826227D01*
X135978796Y-97850495D01*
X135980000Y-97874999D01*
X135980000Y-98525001D01*
X135978796Y-98549505D01*
X135975196Y-98573773D01*
X135969235Y-98597572D01*
X135960970Y-98620671D01*
X135950480Y-98642850D01*
X135937868Y-98663893D01*
X135923253Y-98683599D01*
X135906777Y-98701777D01*
X135888599Y-98718253D01*
X135868893Y-98732868D01*
X135847850Y-98745480D01*
X135825671Y-98755970D01*
X135802572Y-98764235D01*
X135778773Y-98770196D01*
X135754505Y-98773796D01*
X135730001Y-98775000D01*
X134829999Y-98775000D01*
X134805495Y-98773796D01*
X134781227Y-98770196D01*
X134757428Y-98764235D01*
X134734329Y-98755970D01*
X134712150Y-98745480D01*
X134691107Y-98732868D01*
X134671401Y-98718253D01*
X134653223Y-98701777D01*
X134636747Y-98683599D01*
X134622132Y-98663893D01*
X134609520Y-98642850D01*
X134599030Y-98620671D01*
X134590765Y-98597572D01*
X134584804Y-98573773D01*
X134581204Y-98549505D01*
X134580000Y-98525001D01*
X134580000Y-97874999D01*
X134581204Y-97850495D01*
X134584804Y-97826227D01*
X134590765Y-97802428D01*
X134599030Y-97779329D01*
X134609520Y-97757150D01*
X134622132Y-97736107D01*
X134636747Y-97716401D01*
X134653223Y-97698223D01*
X134671401Y-97681747D01*
X134691107Y-97667132D01*
X134712150Y-97654520D01*
X134734329Y-97644030D01*
X134757428Y-97635765D01*
X134781227Y-97629804D01*
X134805495Y-97626204D01*
X134829999Y-97625000D01*
X135730001Y-97625000D01*
X135754505Y-97626204D01*
G37*
G36*
X135244505Y-69446204D02*
G01*
X135268773Y-69449804D01*
X135292572Y-69455765D01*
X135315671Y-69464030D01*
X135337850Y-69474520D01*
X135358893Y-69487132D01*
X135378599Y-69501747D01*
X135396777Y-69518223D01*
X135413253Y-69536401D01*
X135427868Y-69556107D01*
X135440480Y-69577150D01*
X135450970Y-69599329D01*
X135459235Y-69622428D01*
X135465196Y-69646227D01*
X135468796Y-69670495D01*
X135470000Y-69694999D01*
X135470000Y-70345001D01*
X135468796Y-70369505D01*
X135465196Y-70393773D01*
X135459235Y-70417572D01*
X135450970Y-70440671D01*
X135440480Y-70462850D01*
X135427868Y-70483893D01*
X135413253Y-70503599D01*
X135396777Y-70521777D01*
X135378599Y-70538253D01*
X135358893Y-70552868D01*
X135337850Y-70565480D01*
X135315671Y-70575970D01*
X135292572Y-70584235D01*
X135268773Y-70590196D01*
X135244505Y-70593796D01*
X135220001Y-70595000D01*
X134319999Y-70595000D01*
X134295495Y-70593796D01*
X134271227Y-70590196D01*
X134247428Y-70584235D01*
X134224329Y-70575970D01*
X134202150Y-70565480D01*
X134181107Y-70552868D01*
X134161401Y-70538253D01*
X134143223Y-70521777D01*
X134126747Y-70503599D01*
X134112132Y-70483893D01*
X134099520Y-70462850D01*
X134089030Y-70440671D01*
X134080765Y-70417572D01*
X134074804Y-70393773D01*
X134071204Y-70369505D01*
X134070000Y-70345001D01*
X134070000Y-69694999D01*
X134071204Y-69670495D01*
X134074804Y-69646227D01*
X134080765Y-69622428D01*
X134089030Y-69599329D01*
X134099520Y-69577150D01*
X134112132Y-69556107D01*
X134126747Y-69536401D01*
X134143223Y-69518223D01*
X134161401Y-69501747D01*
X134181107Y-69487132D01*
X134202150Y-69474520D01*
X134224329Y-69464030D01*
X134247428Y-69455765D01*
X134271227Y-69449804D01*
X134295495Y-69446204D01*
X134319999Y-69445000D01*
X135220001Y-69445000D01*
X135244505Y-69446204D01*
G37*
G36*
X135244505Y-71496204D02*
G01*
X135268773Y-71499804D01*
X135292572Y-71505765D01*
X135315671Y-71514030D01*
X135337850Y-71524520D01*
X135358893Y-71537132D01*
X135378599Y-71551747D01*
X135396777Y-71568223D01*
X135413253Y-71586401D01*
X135427868Y-71606107D01*
X135440480Y-71627150D01*
X135450970Y-71649329D01*
X135459235Y-71672428D01*
X135465196Y-71696227D01*
X135468796Y-71720495D01*
X135470000Y-71744999D01*
X135470000Y-72395001D01*
X135468796Y-72419505D01*
X135465196Y-72443773D01*
X135459235Y-72467572D01*
X135450970Y-72490671D01*
X135440480Y-72512850D01*
X135427868Y-72533893D01*
X135413253Y-72553599D01*
X135396777Y-72571777D01*
X135378599Y-72588253D01*
X135358893Y-72602868D01*
X135337850Y-72615480D01*
X135315671Y-72625970D01*
X135292572Y-72634235D01*
X135268773Y-72640196D01*
X135244505Y-72643796D01*
X135220001Y-72645000D01*
X134319999Y-72645000D01*
X134295495Y-72643796D01*
X134271227Y-72640196D01*
X134247428Y-72634235D01*
X134224329Y-72625970D01*
X134202150Y-72615480D01*
X134181107Y-72602868D01*
X134161401Y-72588253D01*
X134143223Y-72571777D01*
X134126747Y-72553599D01*
X134112132Y-72533893D01*
X134099520Y-72512850D01*
X134089030Y-72490671D01*
X134080765Y-72467572D01*
X134074804Y-72443773D01*
X134071204Y-72419505D01*
X134070000Y-72395001D01*
X134070000Y-71744999D01*
X134071204Y-71720495D01*
X134074804Y-71696227D01*
X134080765Y-71672428D01*
X134089030Y-71649329D01*
X134099520Y-71627150D01*
X134112132Y-71606107D01*
X134126747Y-71586401D01*
X134143223Y-71568223D01*
X134161401Y-71551747D01*
X134181107Y-71537132D01*
X134202150Y-71524520D01*
X134224329Y-71514030D01*
X134247428Y-71505765D01*
X134271227Y-71499804D01*
X134295495Y-71496204D01*
X134319999Y-71495000D01*
X135220001Y-71495000D01*
X135244505Y-71496204D01*
G37*
G36*
X133784505Y-95566204D02*
G01*
X133808773Y-95569804D01*
X133832572Y-95575765D01*
X133855671Y-95584030D01*
X133877850Y-95594520D01*
X133898893Y-95607132D01*
X133918599Y-95621747D01*
X133936777Y-95638223D01*
X133953253Y-95656401D01*
X133967868Y-95676107D01*
X133980480Y-95697150D01*
X133990970Y-95719329D01*
X133999235Y-95742428D01*
X134005196Y-95766227D01*
X134008796Y-95790495D01*
X134010000Y-95814999D01*
X134010000Y-96465001D01*
X134008796Y-96489505D01*
X134005196Y-96513773D01*
X133999235Y-96537572D01*
X133990970Y-96560671D01*
X133980480Y-96582850D01*
X133967868Y-96603893D01*
X133953253Y-96623599D01*
X133936777Y-96641777D01*
X133918599Y-96658253D01*
X133898893Y-96672868D01*
X133877850Y-96685480D01*
X133855671Y-96695970D01*
X133832572Y-96704235D01*
X133808773Y-96710196D01*
X133784505Y-96713796D01*
X133760001Y-96715000D01*
X132859999Y-96715000D01*
X132835495Y-96713796D01*
X132811227Y-96710196D01*
X132787428Y-96704235D01*
X132764329Y-96695970D01*
X132742150Y-96685480D01*
X132721107Y-96672868D01*
X132701401Y-96658253D01*
X132683223Y-96641777D01*
X132666747Y-96623599D01*
X132652132Y-96603893D01*
X132639520Y-96582850D01*
X132629030Y-96560671D01*
X132620765Y-96537572D01*
X132614804Y-96513773D01*
X132611204Y-96489505D01*
X132610000Y-96465001D01*
X132610000Y-95814999D01*
X132611204Y-95790495D01*
X132614804Y-95766227D01*
X132620765Y-95742428D01*
X132629030Y-95719329D01*
X132639520Y-95697150D01*
X132652132Y-95676107D01*
X132666747Y-95656401D01*
X132683223Y-95638223D01*
X132701401Y-95621747D01*
X132721107Y-95607132D01*
X132742150Y-95594520D01*
X132764329Y-95584030D01*
X132787428Y-95575765D01*
X132811227Y-95569804D01*
X132835495Y-95566204D01*
X132859999Y-95565000D01*
X133760001Y-95565000D01*
X133784505Y-95566204D01*
G37*
G36*
X133784505Y-97616204D02*
G01*
X133808773Y-97619804D01*
X133832572Y-97625765D01*
X133855671Y-97634030D01*
X133877850Y-97644520D01*
X133898893Y-97657132D01*
X133918599Y-97671747D01*
X133936777Y-97688223D01*
X133953253Y-97706401D01*
X133967868Y-97726107D01*
X133980480Y-97747150D01*
X133990970Y-97769329D01*
X133999235Y-97792428D01*
X134005196Y-97816227D01*
X134008796Y-97840495D01*
X134010000Y-97864999D01*
X134010000Y-98515001D01*
X134008796Y-98539505D01*
X134005196Y-98563773D01*
X133999235Y-98587572D01*
X133990970Y-98610671D01*
X133980480Y-98632850D01*
X133967868Y-98653893D01*
X133953253Y-98673599D01*
X133936777Y-98691777D01*
X133918599Y-98708253D01*
X133898893Y-98722868D01*
X133877850Y-98735480D01*
X133855671Y-98745970D01*
X133832572Y-98754235D01*
X133808773Y-98760196D01*
X133784505Y-98763796D01*
X133760001Y-98765000D01*
X132859999Y-98765000D01*
X132835495Y-98763796D01*
X132811227Y-98760196D01*
X132787428Y-98754235D01*
X132764329Y-98745970D01*
X132742150Y-98735480D01*
X132721107Y-98722868D01*
X132701401Y-98708253D01*
X132683223Y-98691777D01*
X132666747Y-98673599D01*
X132652132Y-98653893D01*
X132639520Y-98632850D01*
X132629030Y-98610671D01*
X132620765Y-98587572D01*
X132614804Y-98563773D01*
X132611204Y-98539505D01*
X132610000Y-98515001D01*
X132610000Y-97864999D01*
X132611204Y-97840495D01*
X132614804Y-97816227D01*
X132620765Y-97792428D01*
X132629030Y-97769329D01*
X132639520Y-97747150D01*
X132652132Y-97726107D01*
X132666747Y-97706401D01*
X132683223Y-97688223D01*
X132701401Y-97671747D01*
X132721107Y-97657132D01*
X132742150Y-97644520D01*
X132764329Y-97634030D01*
X132787428Y-97625765D01*
X132811227Y-97619804D01*
X132835495Y-97616204D01*
X132859999Y-97615000D01*
X133760001Y-97615000D01*
X133784505Y-97616204D01*
G37*
D11*
X109850000Y-78000000D03*
X109850000Y-77200000D03*
X109850000Y-76400000D03*
X109850000Y-75600000D03*
X109850000Y-74800000D03*
X109850000Y-74000000D03*
X109850000Y-73200000D03*
X109850000Y-72400000D03*
X109850000Y-71600000D03*
X109850000Y-70800000D03*
X109850000Y-70000000D03*
X109850000Y-69200000D03*
X109850000Y-68400000D03*
X109850000Y-67600000D03*
X109850000Y-66800000D03*
X109850000Y-66000000D03*
D12*
X111800000Y-63850000D03*
X112600000Y-63850000D03*
X113400000Y-63850000D03*
X114200000Y-63850000D03*
X115000000Y-63850000D03*
X115800000Y-63850000D03*
X116600000Y-63850000D03*
X117400000Y-63850000D03*
X118200000Y-63850000D03*
X119000000Y-63850000D03*
X119800000Y-63850000D03*
X120600000Y-63850000D03*
X121400000Y-63850000D03*
X122200000Y-63850000D03*
X123000000Y-63850000D03*
X123800000Y-63850000D03*
X124600000Y-63850000D03*
X125400000Y-63850000D03*
X126200000Y-63850000D03*
X127000000Y-63850000D03*
X127800000Y-63850000D03*
X128600000Y-63850000D03*
X129400000Y-63850000D03*
X130200000Y-63850000D03*
D11*
X132150000Y-66000000D03*
X132150000Y-66800000D03*
X132150000Y-67600000D03*
X132150000Y-68400000D03*
X132150000Y-69200000D03*
X132150000Y-70000000D03*
X132150000Y-70800000D03*
X132150000Y-71600000D03*
X132150000Y-72400000D03*
X132150000Y-73200000D03*
X132150000Y-74000000D03*
X132150000Y-74800000D03*
X132150000Y-75600000D03*
X132150000Y-76400000D03*
X132150000Y-77200000D03*
X132150000Y-78000000D03*
D12*
X130200000Y-80150000D03*
X129400000Y-80150000D03*
X128600000Y-80150000D03*
X127800000Y-80150000D03*
X127000000Y-80150000D03*
X126200000Y-80150000D03*
X125400000Y-80150000D03*
X124600000Y-80150000D03*
X123800000Y-80150000D03*
X123000000Y-80150000D03*
X122200000Y-80150000D03*
X121400000Y-80150000D03*
X120600000Y-80150000D03*
X119800000Y-80150000D03*
X119000000Y-80150000D03*
X118200000Y-80150000D03*
X117400000Y-80150000D03*
X116600000Y-80150000D03*
X115800000Y-80150000D03*
X115000000Y-80150000D03*
X114200000Y-80150000D03*
X113400000Y-80150000D03*
X112600000Y-80150000D03*
X111800000Y-80150000D03*
D10*
G36*
X129225977Y-89325662D02*
G01*
X129239325Y-89327642D01*
X129252414Y-89330921D01*
X129265119Y-89335467D01*
X129277317Y-89341236D01*
X129288891Y-89348173D01*
X129299729Y-89356211D01*
X129309727Y-89365273D01*
X129318789Y-89375271D01*
X129326827Y-89386109D01*
X129333764Y-89397683D01*
X129339533Y-89409881D01*
X129344079Y-89422586D01*
X129347358Y-89435675D01*
X129349338Y-89449023D01*
X129350000Y-89462500D01*
X129350000Y-89737500D01*
X129349338Y-89750977D01*
X129347358Y-89764325D01*
X129344079Y-89777414D01*
X129339533Y-89790119D01*
X129333764Y-89802317D01*
X129326827Y-89813891D01*
X129318789Y-89824729D01*
X129309727Y-89834727D01*
X129299729Y-89843789D01*
X129288891Y-89851827D01*
X129277317Y-89858764D01*
X129265119Y-89864533D01*
X129252414Y-89869079D01*
X129239325Y-89872358D01*
X129225977Y-89874338D01*
X129212500Y-89875000D01*
X127962500Y-89875000D01*
X127949023Y-89874338D01*
X127935675Y-89872358D01*
X127922586Y-89869079D01*
X127909881Y-89864533D01*
X127897683Y-89858764D01*
X127886109Y-89851827D01*
X127875271Y-89843789D01*
X127865273Y-89834727D01*
X127856211Y-89824729D01*
X127848173Y-89813891D01*
X127841236Y-89802317D01*
X127835467Y-89790119D01*
X127830921Y-89777414D01*
X127827642Y-89764325D01*
X127825662Y-89750977D01*
X127825000Y-89737500D01*
X127825000Y-89462500D01*
X127825662Y-89449023D01*
X127827642Y-89435675D01*
X127830921Y-89422586D01*
X127835467Y-89409881D01*
X127841236Y-89397683D01*
X127848173Y-89386109D01*
X127856211Y-89375271D01*
X127865273Y-89365273D01*
X127875271Y-89356211D01*
X127886109Y-89348173D01*
X127897683Y-89341236D01*
X127909881Y-89335467D01*
X127922586Y-89330921D01*
X127935675Y-89327642D01*
X127949023Y-89325662D01*
X127962500Y-89325000D01*
X129212500Y-89325000D01*
X129225977Y-89325662D01*
G37*
G36*
X129225977Y-90125662D02*
G01*
X129239325Y-90127642D01*
X129252414Y-90130921D01*
X129265119Y-90135467D01*
X129277317Y-90141236D01*
X129288891Y-90148173D01*
X129299729Y-90156211D01*
X129309727Y-90165273D01*
X129318789Y-90175271D01*
X129326827Y-90186109D01*
X129333764Y-90197683D01*
X129339533Y-90209881D01*
X129344079Y-90222586D01*
X129347358Y-90235675D01*
X129349338Y-90249023D01*
X129350000Y-90262500D01*
X129350000Y-90537500D01*
X129349338Y-90550977D01*
X129347358Y-90564325D01*
X129344079Y-90577414D01*
X129339533Y-90590119D01*
X129333764Y-90602317D01*
X129326827Y-90613891D01*
X129318789Y-90624729D01*
X129309727Y-90634727D01*
X129299729Y-90643789D01*
X129288891Y-90651827D01*
X129277317Y-90658764D01*
X129265119Y-90664533D01*
X129252414Y-90669079D01*
X129239325Y-90672358D01*
X129225977Y-90674338D01*
X129212500Y-90675000D01*
X127962500Y-90675000D01*
X127949023Y-90674338D01*
X127935675Y-90672358D01*
X127922586Y-90669079D01*
X127909881Y-90664533D01*
X127897683Y-90658764D01*
X127886109Y-90651827D01*
X127875271Y-90643789D01*
X127865273Y-90634727D01*
X127856211Y-90624729D01*
X127848173Y-90613891D01*
X127841236Y-90602317D01*
X127835467Y-90590119D01*
X127830921Y-90577414D01*
X127827642Y-90564325D01*
X127825662Y-90550977D01*
X127825000Y-90537500D01*
X127825000Y-90262500D01*
X127825662Y-90249023D01*
X127827642Y-90235675D01*
X127830921Y-90222586D01*
X127835467Y-90209881D01*
X127841236Y-90197683D01*
X127848173Y-90186109D01*
X127856211Y-90175271D01*
X127865273Y-90165273D01*
X127875271Y-90156211D01*
X127886109Y-90148173D01*
X127897683Y-90141236D01*
X127909881Y-90135467D01*
X127922586Y-90130921D01*
X127935675Y-90127642D01*
X127949023Y-90125662D01*
X127962500Y-90125000D01*
X129212500Y-90125000D01*
X129225977Y-90125662D01*
G37*
G36*
X129225977Y-90925662D02*
G01*
X129239325Y-90927642D01*
X129252414Y-90930921D01*
X129265119Y-90935467D01*
X129277317Y-90941236D01*
X129288891Y-90948173D01*
X129299729Y-90956211D01*
X129309727Y-90965273D01*
X129318789Y-90975271D01*
X129326827Y-90986109D01*
X129333764Y-90997683D01*
X129339533Y-91009881D01*
X129344079Y-91022586D01*
X129347358Y-91035675D01*
X129349338Y-91049023D01*
X129350000Y-91062500D01*
X129350000Y-91337500D01*
X129349338Y-91350977D01*
X129347358Y-91364325D01*
X129344079Y-91377414D01*
X129339533Y-91390119D01*
X129333764Y-91402317D01*
X129326827Y-91413891D01*
X129318789Y-91424729D01*
X129309727Y-91434727D01*
X129299729Y-91443789D01*
X129288891Y-91451827D01*
X129277317Y-91458764D01*
X129265119Y-91464533D01*
X129252414Y-91469079D01*
X129239325Y-91472358D01*
X129225977Y-91474338D01*
X129212500Y-91475000D01*
X127962500Y-91475000D01*
X127949023Y-91474338D01*
X127935675Y-91472358D01*
X127922586Y-91469079D01*
X127909881Y-91464533D01*
X127897683Y-91458764D01*
X127886109Y-91451827D01*
X127875271Y-91443789D01*
X127865273Y-91434727D01*
X127856211Y-91424729D01*
X127848173Y-91413891D01*
X127841236Y-91402317D01*
X127835467Y-91390119D01*
X127830921Y-91377414D01*
X127827642Y-91364325D01*
X127825662Y-91350977D01*
X127825000Y-91337500D01*
X127825000Y-91062500D01*
X127825662Y-91049023D01*
X127827642Y-91035675D01*
X127830921Y-91022586D01*
X127835467Y-91009881D01*
X127841236Y-90997683D01*
X127848173Y-90986109D01*
X127856211Y-90975271D01*
X127865273Y-90965273D01*
X127875271Y-90956211D01*
X127886109Y-90948173D01*
X127897683Y-90941236D01*
X127909881Y-90935467D01*
X127922586Y-90930921D01*
X127935675Y-90927642D01*
X127949023Y-90925662D01*
X127962500Y-90925000D01*
X129212500Y-90925000D01*
X129225977Y-90925662D01*
G37*
G36*
X129225977Y-91725662D02*
G01*
X129239325Y-91727642D01*
X129252414Y-91730921D01*
X129265119Y-91735467D01*
X129277317Y-91741236D01*
X129288891Y-91748173D01*
X129299729Y-91756211D01*
X129309727Y-91765273D01*
X129318789Y-91775271D01*
X129326827Y-91786109D01*
X129333764Y-91797683D01*
X129339533Y-91809881D01*
X129344079Y-91822586D01*
X129347358Y-91835675D01*
X129349338Y-91849023D01*
X129350000Y-91862500D01*
X129350000Y-92137500D01*
X129349338Y-92150977D01*
X129347358Y-92164325D01*
X129344079Y-92177414D01*
X129339533Y-92190119D01*
X129333764Y-92202317D01*
X129326827Y-92213891D01*
X129318789Y-92224729D01*
X129309727Y-92234727D01*
X129299729Y-92243789D01*
X129288891Y-92251827D01*
X129277317Y-92258764D01*
X129265119Y-92264533D01*
X129252414Y-92269079D01*
X129239325Y-92272358D01*
X129225977Y-92274338D01*
X129212500Y-92275000D01*
X127962500Y-92275000D01*
X127949023Y-92274338D01*
X127935675Y-92272358D01*
X127922586Y-92269079D01*
X127909881Y-92264533D01*
X127897683Y-92258764D01*
X127886109Y-92251827D01*
X127875271Y-92243789D01*
X127865273Y-92234727D01*
X127856211Y-92224729D01*
X127848173Y-92213891D01*
X127841236Y-92202317D01*
X127835467Y-92190119D01*
X127830921Y-92177414D01*
X127827642Y-92164325D01*
X127825662Y-92150977D01*
X127825000Y-92137500D01*
X127825000Y-91862500D01*
X127825662Y-91849023D01*
X127827642Y-91835675D01*
X127830921Y-91822586D01*
X127835467Y-91809881D01*
X127841236Y-91797683D01*
X127848173Y-91786109D01*
X127856211Y-91775271D01*
X127865273Y-91765273D01*
X127875271Y-91756211D01*
X127886109Y-91748173D01*
X127897683Y-91741236D01*
X127909881Y-91735467D01*
X127922586Y-91730921D01*
X127935675Y-91727642D01*
X127949023Y-91725662D01*
X127962500Y-91725000D01*
X129212500Y-91725000D01*
X129225977Y-91725662D01*
G37*
G36*
X129225977Y-92525662D02*
G01*
X129239325Y-92527642D01*
X129252414Y-92530921D01*
X129265119Y-92535467D01*
X129277317Y-92541236D01*
X129288891Y-92548173D01*
X129299729Y-92556211D01*
X129309727Y-92565273D01*
X129318789Y-92575271D01*
X129326827Y-92586109D01*
X129333764Y-92597683D01*
X129339533Y-92609881D01*
X129344079Y-92622586D01*
X129347358Y-92635675D01*
X129349338Y-92649023D01*
X129350000Y-92662500D01*
X129350000Y-92937500D01*
X129349338Y-92950977D01*
X129347358Y-92964325D01*
X129344079Y-92977414D01*
X129339533Y-92990119D01*
X129333764Y-93002317D01*
X129326827Y-93013891D01*
X129318789Y-93024729D01*
X129309727Y-93034727D01*
X129299729Y-93043789D01*
X129288891Y-93051827D01*
X129277317Y-93058764D01*
X129265119Y-93064533D01*
X129252414Y-93069079D01*
X129239325Y-93072358D01*
X129225977Y-93074338D01*
X129212500Y-93075000D01*
X127962500Y-93075000D01*
X127949023Y-93074338D01*
X127935675Y-93072358D01*
X127922586Y-93069079D01*
X127909881Y-93064533D01*
X127897683Y-93058764D01*
X127886109Y-93051827D01*
X127875271Y-93043789D01*
X127865273Y-93034727D01*
X127856211Y-93024729D01*
X127848173Y-93013891D01*
X127841236Y-93002317D01*
X127835467Y-92990119D01*
X127830921Y-92977414D01*
X127827642Y-92964325D01*
X127825662Y-92950977D01*
X127825000Y-92937500D01*
X127825000Y-92662500D01*
X127825662Y-92649023D01*
X127827642Y-92635675D01*
X127830921Y-92622586D01*
X127835467Y-92609881D01*
X127841236Y-92597683D01*
X127848173Y-92586109D01*
X127856211Y-92575271D01*
X127865273Y-92565273D01*
X127875271Y-92556211D01*
X127886109Y-92548173D01*
X127897683Y-92541236D01*
X127909881Y-92535467D01*
X127922586Y-92530921D01*
X127935675Y-92527642D01*
X127949023Y-92525662D01*
X127962500Y-92525000D01*
X129212500Y-92525000D01*
X129225977Y-92525662D01*
G37*
G36*
X129225977Y-93325662D02*
G01*
X129239325Y-93327642D01*
X129252414Y-93330921D01*
X129265119Y-93335467D01*
X129277317Y-93341236D01*
X129288891Y-93348173D01*
X129299729Y-93356211D01*
X129309727Y-93365273D01*
X129318789Y-93375271D01*
X129326827Y-93386109D01*
X129333764Y-93397683D01*
X129339533Y-93409881D01*
X129344079Y-93422586D01*
X129347358Y-93435675D01*
X129349338Y-93449023D01*
X129350000Y-93462500D01*
X129350000Y-93737500D01*
X129349338Y-93750977D01*
X129347358Y-93764325D01*
X129344079Y-93777414D01*
X129339533Y-93790119D01*
X129333764Y-93802317D01*
X129326827Y-93813891D01*
X129318789Y-93824729D01*
X129309727Y-93834727D01*
X129299729Y-93843789D01*
X129288891Y-93851827D01*
X129277317Y-93858764D01*
X129265119Y-93864533D01*
X129252414Y-93869079D01*
X129239325Y-93872358D01*
X129225977Y-93874338D01*
X129212500Y-93875000D01*
X127962500Y-93875000D01*
X127949023Y-93874338D01*
X127935675Y-93872358D01*
X127922586Y-93869079D01*
X127909881Y-93864533D01*
X127897683Y-93858764D01*
X127886109Y-93851827D01*
X127875271Y-93843789D01*
X127865273Y-93834727D01*
X127856211Y-93824729D01*
X127848173Y-93813891D01*
X127841236Y-93802317D01*
X127835467Y-93790119D01*
X127830921Y-93777414D01*
X127827642Y-93764325D01*
X127825662Y-93750977D01*
X127825000Y-93737500D01*
X127825000Y-93462500D01*
X127825662Y-93449023D01*
X127827642Y-93435675D01*
X127830921Y-93422586D01*
X127835467Y-93409881D01*
X127841236Y-93397683D01*
X127848173Y-93386109D01*
X127856211Y-93375271D01*
X127865273Y-93365273D01*
X127875271Y-93356211D01*
X127886109Y-93348173D01*
X127897683Y-93341236D01*
X127909881Y-93335467D01*
X127922586Y-93330921D01*
X127935675Y-93327642D01*
X127949023Y-93325662D01*
X127962500Y-93325000D01*
X129212500Y-93325000D01*
X129225977Y-93325662D01*
G37*
G36*
X129225977Y-94125662D02*
G01*
X129239325Y-94127642D01*
X129252414Y-94130921D01*
X129265119Y-94135467D01*
X129277317Y-94141236D01*
X129288891Y-94148173D01*
X129299729Y-94156211D01*
X129309727Y-94165273D01*
X129318789Y-94175271D01*
X129326827Y-94186109D01*
X129333764Y-94197683D01*
X129339533Y-94209881D01*
X129344079Y-94222586D01*
X129347358Y-94235675D01*
X129349338Y-94249023D01*
X129350000Y-94262500D01*
X129350000Y-94537500D01*
X129349338Y-94550977D01*
X129347358Y-94564325D01*
X129344079Y-94577414D01*
X129339533Y-94590119D01*
X129333764Y-94602317D01*
X129326827Y-94613891D01*
X129318789Y-94624729D01*
X129309727Y-94634727D01*
X129299729Y-94643789D01*
X129288891Y-94651827D01*
X129277317Y-94658764D01*
X129265119Y-94664533D01*
X129252414Y-94669079D01*
X129239325Y-94672358D01*
X129225977Y-94674338D01*
X129212500Y-94675000D01*
X127962500Y-94675000D01*
X127949023Y-94674338D01*
X127935675Y-94672358D01*
X127922586Y-94669079D01*
X127909881Y-94664533D01*
X127897683Y-94658764D01*
X127886109Y-94651827D01*
X127875271Y-94643789D01*
X127865273Y-94634727D01*
X127856211Y-94624729D01*
X127848173Y-94613891D01*
X127841236Y-94602317D01*
X127835467Y-94590119D01*
X127830921Y-94577414D01*
X127827642Y-94564325D01*
X127825662Y-94550977D01*
X127825000Y-94537500D01*
X127825000Y-94262500D01*
X127825662Y-94249023D01*
X127827642Y-94235675D01*
X127830921Y-94222586D01*
X127835467Y-94209881D01*
X127841236Y-94197683D01*
X127848173Y-94186109D01*
X127856211Y-94175271D01*
X127865273Y-94165273D01*
X127875271Y-94156211D01*
X127886109Y-94148173D01*
X127897683Y-94141236D01*
X127909881Y-94135467D01*
X127922586Y-94130921D01*
X127935675Y-94127642D01*
X127949023Y-94125662D01*
X127962500Y-94125000D01*
X129212500Y-94125000D01*
X129225977Y-94125662D01*
G37*
G36*
X129225977Y-94925662D02*
G01*
X129239325Y-94927642D01*
X129252414Y-94930921D01*
X129265119Y-94935467D01*
X129277317Y-94941236D01*
X129288891Y-94948173D01*
X129299729Y-94956211D01*
X129309727Y-94965273D01*
X129318789Y-94975271D01*
X129326827Y-94986109D01*
X129333764Y-94997683D01*
X129339533Y-95009881D01*
X129344079Y-95022586D01*
X129347358Y-95035675D01*
X129349338Y-95049023D01*
X129350000Y-95062500D01*
X129350000Y-95337500D01*
X129349338Y-95350977D01*
X129347358Y-95364325D01*
X129344079Y-95377414D01*
X129339533Y-95390119D01*
X129333764Y-95402317D01*
X129326827Y-95413891D01*
X129318789Y-95424729D01*
X129309727Y-95434727D01*
X129299729Y-95443789D01*
X129288891Y-95451827D01*
X129277317Y-95458764D01*
X129265119Y-95464533D01*
X129252414Y-95469079D01*
X129239325Y-95472358D01*
X129225977Y-95474338D01*
X129212500Y-95475000D01*
X127962500Y-95475000D01*
X127949023Y-95474338D01*
X127935675Y-95472358D01*
X127922586Y-95469079D01*
X127909881Y-95464533D01*
X127897683Y-95458764D01*
X127886109Y-95451827D01*
X127875271Y-95443789D01*
X127865273Y-95434727D01*
X127856211Y-95424729D01*
X127848173Y-95413891D01*
X127841236Y-95402317D01*
X127835467Y-95390119D01*
X127830921Y-95377414D01*
X127827642Y-95364325D01*
X127825662Y-95350977D01*
X127825000Y-95337500D01*
X127825000Y-95062500D01*
X127825662Y-95049023D01*
X127827642Y-95035675D01*
X127830921Y-95022586D01*
X127835467Y-95009881D01*
X127841236Y-94997683D01*
X127848173Y-94986109D01*
X127856211Y-94975271D01*
X127865273Y-94965273D01*
X127875271Y-94956211D01*
X127886109Y-94948173D01*
X127897683Y-94941236D01*
X127909881Y-94935467D01*
X127922586Y-94930921D01*
X127935675Y-94927642D01*
X127949023Y-94925662D01*
X127962500Y-94925000D01*
X129212500Y-94925000D01*
X129225977Y-94925662D01*
G37*
G36*
X129225977Y-95725662D02*
G01*
X129239325Y-95727642D01*
X129252414Y-95730921D01*
X129265119Y-95735467D01*
X129277317Y-95741236D01*
X129288891Y-95748173D01*
X129299729Y-95756211D01*
X129309727Y-95765273D01*
X129318789Y-95775271D01*
X129326827Y-95786109D01*
X129333764Y-95797683D01*
X129339533Y-95809881D01*
X129344079Y-95822586D01*
X129347358Y-95835675D01*
X129349338Y-95849023D01*
X129350000Y-95862500D01*
X129350000Y-96137500D01*
X129349338Y-96150977D01*
X129347358Y-96164325D01*
X129344079Y-96177414D01*
X129339533Y-96190119D01*
X129333764Y-96202317D01*
X129326827Y-96213891D01*
X129318789Y-96224729D01*
X129309727Y-96234727D01*
X129299729Y-96243789D01*
X129288891Y-96251827D01*
X129277317Y-96258764D01*
X129265119Y-96264533D01*
X129252414Y-96269079D01*
X129239325Y-96272358D01*
X129225977Y-96274338D01*
X129212500Y-96275000D01*
X127962500Y-96275000D01*
X127949023Y-96274338D01*
X127935675Y-96272358D01*
X127922586Y-96269079D01*
X127909881Y-96264533D01*
X127897683Y-96258764D01*
X127886109Y-96251827D01*
X127875271Y-96243789D01*
X127865273Y-96234727D01*
X127856211Y-96224729D01*
X127848173Y-96213891D01*
X127841236Y-96202317D01*
X127835467Y-96190119D01*
X127830921Y-96177414D01*
X127827642Y-96164325D01*
X127825662Y-96150977D01*
X127825000Y-96137500D01*
X127825000Y-95862500D01*
X127825662Y-95849023D01*
X127827642Y-95835675D01*
X127830921Y-95822586D01*
X127835467Y-95809881D01*
X127841236Y-95797683D01*
X127848173Y-95786109D01*
X127856211Y-95775271D01*
X127865273Y-95765273D01*
X127875271Y-95756211D01*
X127886109Y-95748173D01*
X127897683Y-95741236D01*
X127909881Y-95735467D01*
X127922586Y-95730921D01*
X127935675Y-95727642D01*
X127949023Y-95725662D01*
X127962500Y-95725000D01*
X129212500Y-95725000D01*
X129225977Y-95725662D01*
G37*
G36*
X129225977Y-96525662D02*
G01*
X129239325Y-96527642D01*
X129252414Y-96530921D01*
X129265119Y-96535467D01*
X129277317Y-96541236D01*
X129288891Y-96548173D01*
X129299729Y-96556211D01*
X129309727Y-96565273D01*
X129318789Y-96575271D01*
X129326827Y-96586109D01*
X129333764Y-96597683D01*
X129339533Y-96609881D01*
X129344079Y-96622586D01*
X129347358Y-96635675D01*
X129349338Y-96649023D01*
X129350000Y-96662500D01*
X129350000Y-96937500D01*
X129349338Y-96950977D01*
X129347358Y-96964325D01*
X129344079Y-96977414D01*
X129339533Y-96990119D01*
X129333764Y-97002317D01*
X129326827Y-97013891D01*
X129318789Y-97024729D01*
X129309727Y-97034727D01*
X129299729Y-97043789D01*
X129288891Y-97051827D01*
X129277317Y-97058764D01*
X129265119Y-97064533D01*
X129252414Y-97069079D01*
X129239325Y-97072358D01*
X129225977Y-97074338D01*
X129212500Y-97075000D01*
X127962500Y-97075000D01*
X127949023Y-97074338D01*
X127935675Y-97072358D01*
X127922586Y-97069079D01*
X127909881Y-97064533D01*
X127897683Y-97058764D01*
X127886109Y-97051827D01*
X127875271Y-97043789D01*
X127865273Y-97034727D01*
X127856211Y-97024729D01*
X127848173Y-97013891D01*
X127841236Y-97002317D01*
X127835467Y-96990119D01*
X127830921Y-96977414D01*
X127827642Y-96964325D01*
X127825662Y-96950977D01*
X127825000Y-96937500D01*
X127825000Y-96662500D01*
X127825662Y-96649023D01*
X127827642Y-96635675D01*
X127830921Y-96622586D01*
X127835467Y-96609881D01*
X127841236Y-96597683D01*
X127848173Y-96586109D01*
X127856211Y-96575271D01*
X127865273Y-96565273D01*
X127875271Y-96556211D01*
X127886109Y-96548173D01*
X127897683Y-96541236D01*
X127909881Y-96535467D01*
X127922586Y-96530921D01*
X127935675Y-96527642D01*
X127949023Y-96525662D01*
X127962500Y-96525000D01*
X129212500Y-96525000D01*
X129225977Y-96525662D01*
G37*
G36*
X129225977Y-97325662D02*
G01*
X129239325Y-97327642D01*
X129252414Y-97330921D01*
X129265119Y-97335467D01*
X129277317Y-97341236D01*
X129288891Y-97348173D01*
X129299729Y-97356211D01*
X129309727Y-97365273D01*
X129318789Y-97375271D01*
X129326827Y-97386109D01*
X129333764Y-97397683D01*
X129339533Y-97409881D01*
X129344079Y-97422586D01*
X129347358Y-97435675D01*
X129349338Y-97449023D01*
X129350000Y-97462500D01*
X129350000Y-97737500D01*
X129349338Y-97750977D01*
X129347358Y-97764325D01*
X129344079Y-97777414D01*
X129339533Y-97790119D01*
X129333764Y-97802317D01*
X129326827Y-97813891D01*
X129318789Y-97824729D01*
X129309727Y-97834727D01*
X129299729Y-97843789D01*
X129288891Y-97851827D01*
X129277317Y-97858764D01*
X129265119Y-97864533D01*
X129252414Y-97869079D01*
X129239325Y-97872358D01*
X129225977Y-97874338D01*
X129212500Y-97875000D01*
X127962500Y-97875000D01*
X127949023Y-97874338D01*
X127935675Y-97872358D01*
X127922586Y-97869079D01*
X127909881Y-97864533D01*
X127897683Y-97858764D01*
X127886109Y-97851827D01*
X127875271Y-97843789D01*
X127865273Y-97834727D01*
X127856211Y-97824729D01*
X127848173Y-97813891D01*
X127841236Y-97802317D01*
X127835467Y-97790119D01*
X127830921Y-97777414D01*
X127827642Y-97764325D01*
X127825662Y-97750977D01*
X127825000Y-97737500D01*
X127825000Y-97462500D01*
X127825662Y-97449023D01*
X127827642Y-97435675D01*
X127830921Y-97422586D01*
X127835467Y-97409881D01*
X127841236Y-97397683D01*
X127848173Y-97386109D01*
X127856211Y-97375271D01*
X127865273Y-97365273D01*
X127875271Y-97356211D01*
X127886109Y-97348173D01*
X127897683Y-97341236D01*
X127909881Y-97335467D01*
X127922586Y-97330921D01*
X127935675Y-97327642D01*
X127949023Y-97325662D01*
X127962500Y-97325000D01*
X129212500Y-97325000D01*
X129225977Y-97325662D01*
G37*
G36*
X129225977Y-98125662D02*
G01*
X129239325Y-98127642D01*
X129252414Y-98130921D01*
X129265119Y-98135467D01*
X129277317Y-98141236D01*
X129288891Y-98148173D01*
X129299729Y-98156211D01*
X129309727Y-98165273D01*
X129318789Y-98175271D01*
X129326827Y-98186109D01*
X129333764Y-98197683D01*
X129339533Y-98209881D01*
X129344079Y-98222586D01*
X129347358Y-98235675D01*
X129349338Y-98249023D01*
X129350000Y-98262500D01*
X129350000Y-98537500D01*
X129349338Y-98550977D01*
X129347358Y-98564325D01*
X129344079Y-98577414D01*
X129339533Y-98590119D01*
X129333764Y-98602317D01*
X129326827Y-98613891D01*
X129318789Y-98624729D01*
X129309727Y-98634727D01*
X129299729Y-98643789D01*
X129288891Y-98651827D01*
X129277317Y-98658764D01*
X129265119Y-98664533D01*
X129252414Y-98669079D01*
X129239325Y-98672358D01*
X129225977Y-98674338D01*
X129212500Y-98675000D01*
X127962500Y-98675000D01*
X127949023Y-98674338D01*
X127935675Y-98672358D01*
X127922586Y-98669079D01*
X127909881Y-98664533D01*
X127897683Y-98658764D01*
X127886109Y-98651827D01*
X127875271Y-98643789D01*
X127865273Y-98634727D01*
X127856211Y-98624729D01*
X127848173Y-98613891D01*
X127841236Y-98602317D01*
X127835467Y-98590119D01*
X127830921Y-98577414D01*
X127827642Y-98564325D01*
X127825662Y-98550977D01*
X127825000Y-98537500D01*
X127825000Y-98262500D01*
X127825662Y-98249023D01*
X127827642Y-98235675D01*
X127830921Y-98222586D01*
X127835467Y-98209881D01*
X127841236Y-98197683D01*
X127848173Y-98186109D01*
X127856211Y-98175271D01*
X127865273Y-98165273D01*
X127875271Y-98156211D01*
X127886109Y-98148173D01*
X127897683Y-98141236D01*
X127909881Y-98135467D01*
X127922586Y-98130921D01*
X127935675Y-98127642D01*
X127949023Y-98125662D01*
X127962500Y-98125000D01*
X129212500Y-98125000D01*
X129225977Y-98125662D01*
G37*
G36*
X129225977Y-98925662D02*
G01*
X129239325Y-98927642D01*
X129252414Y-98930921D01*
X129265119Y-98935467D01*
X129277317Y-98941236D01*
X129288891Y-98948173D01*
X129299729Y-98956211D01*
X129309727Y-98965273D01*
X129318789Y-98975271D01*
X129326827Y-98986109D01*
X129333764Y-98997683D01*
X129339533Y-99009881D01*
X129344079Y-99022586D01*
X129347358Y-99035675D01*
X129349338Y-99049023D01*
X129350000Y-99062500D01*
X129350000Y-99337500D01*
X129349338Y-99350977D01*
X129347358Y-99364325D01*
X129344079Y-99377414D01*
X129339533Y-99390119D01*
X129333764Y-99402317D01*
X129326827Y-99413891D01*
X129318789Y-99424729D01*
X129309727Y-99434727D01*
X129299729Y-99443789D01*
X129288891Y-99451827D01*
X129277317Y-99458764D01*
X129265119Y-99464533D01*
X129252414Y-99469079D01*
X129239325Y-99472358D01*
X129225977Y-99474338D01*
X129212500Y-99475000D01*
X127962500Y-99475000D01*
X127949023Y-99474338D01*
X127935675Y-99472358D01*
X127922586Y-99469079D01*
X127909881Y-99464533D01*
X127897683Y-99458764D01*
X127886109Y-99451827D01*
X127875271Y-99443789D01*
X127865273Y-99434727D01*
X127856211Y-99424729D01*
X127848173Y-99413891D01*
X127841236Y-99402317D01*
X127835467Y-99390119D01*
X127830921Y-99377414D01*
X127827642Y-99364325D01*
X127825662Y-99350977D01*
X127825000Y-99337500D01*
X127825000Y-99062500D01*
X127825662Y-99049023D01*
X127827642Y-99035675D01*
X127830921Y-99022586D01*
X127835467Y-99009881D01*
X127841236Y-98997683D01*
X127848173Y-98986109D01*
X127856211Y-98975271D01*
X127865273Y-98965273D01*
X127875271Y-98956211D01*
X127886109Y-98948173D01*
X127897683Y-98941236D01*
X127909881Y-98935467D01*
X127922586Y-98930921D01*
X127935675Y-98927642D01*
X127949023Y-98925662D01*
X127962500Y-98925000D01*
X129212500Y-98925000D01*
X129225977Y-98925662D01*
G37*
G36*
X129225977Y-99725662D02*
G01*
X129239325Y-99727642D01*
X129252414Y-99730921D01*
X129265119Y-99735467D01*
X129277317Y-99741236D01*
X129288891Y-99748173D01*
X129299729Y-99756211D01*
X129309727Y-99765273D01*
X129318789Y-99775271D01*
X129326827Y-99786109D01*
X129333764Y-99797683D01*
X129339533Y-99809881D01*
X129344079Y-99822586D01*
X129347358Y-99835675D01*
X129349338Y-99849023D01*
X129350000Y-99862500D01*
X129350000Y-100137500D01*
X129349338Y-100150977D01*
X129347358Y-100164325D01*
X129344079Y-100177414D01*
X129339533Y-100190119D01*
X129333764Y-100202317D01*
X129326827Y-100213891D01*
X129318789Y-100224729D01*
X129309727Y-100234727D01*
X129299729Y-100243789D01*
X129288891Y-100251827D01*
X129277317Y-100258764D01*
X129265119Y-100264533D01*
X129252414Y-100269079D01*
X129239325Y-100272358D01*
X129225977Y-100274338D01*
X129212500Y-100275000D01*
X127962500Y-100275000D01*
X127949023Y-100274338D01*
X127935675Y-100272358D01*
X127922586Y-100269079D01*
X127909881Y-100264533D01*
X127897683Y-100258764D01*
X127886109Y-100251827D01*
X127875271Y-100243789D01*
X127865273Y-100234727D01*
X127856211Y-100224729D01*
X127848173Y-100213891D01*
X127841236Y-100202317D01*
X127835467Y-100190119D01*
X127830921Y-100177414D01*
X127827642Y-100164325D01*
X127825662Y-100150977D01*
X127825000Y-100137500D01*
X127825000Y-99862500D01*
X127825662Y-99849023D01*
X127827642Y-99835675D01*
X127830921Y-99822586D01*
X127835467Y-99809881D01*
X127841236Y-99797683D01*
X127848173Y-99786109D01*
X127856211Y-99775271D01*
X127865273Y-99765273D01*
X127875271Y-99756211D01*
X127886109Y-99748173D01*
X127897683Y-99741236D01*
X127909881Y-99735467D01*
X127922586Y-99730921D01*
X127935675Y-99727642D01*
X127949023Y-99725662D01*
X127962500Y-99725000D01*
X129212500Y-99725000D01*
X129225977Y-99725662D01*
G37*
G36*
X129225977Y-100525662D02*
G01*
X129239325Y-100527642D01*
X129252414Y-100530921D01*
X129265119Y-100535467D01*
X129277317Y-100541236D01*
X129288891Y-100548173D01*
X129299729Y-100556211D01*
X129309727Y-100565273D01*
X129318789Y-100575271D01*
X129326827Y-100586109D01*
X129333764Y-100597683D01*
X129339533Y-100609881D01*
X129344079Y-100622586D01*
X129347358Y-100635675D01*
X129349338Y-100649023D01*
X129350000Y-100662500D01*
X129350000Y-100937500D01*
X129349338Y-100950977D01*
X129347358Y-100964325D01*
X129344079Y-100977414D01*
X129339533Y-100990119D01*
X129333764Y-101002317D01*
X129326827Y-101013891D01*
X129318789Y-101024729D01*
X129309727Y-101034727D01*
X129299729Y-101043789D01*
X129288891Y-101051827D01*
X129277317Y-101058764D01*
X129265119Y-101064533D01*
X129252414Y-101069079D01*
X129239325Y-101072358D01*
X129225977Y-101074338D01*
X129212500Y-101075000D01*
X127962500Y-101075000D01*
X127949023Y-101074338D01*
X127935675Y-101072358D01*
X127922586Y-101069079D01*
X127909881Y-101064533D01*
X127897683Y-101058764D01*
X127886109Y-101051827D01*
X127875271Y-101043789D01*
X127865273Y-101034727D01*
X127856211Y-101024729D01*
X127848173Y-101013891D01*
X127841236Y-101002317D01*
X127835467Y-100990119D01*
X127830921Y-100977414D01*
X127827642Y-100964325D01*
X127825662Y-100950977D01*
X127825000Y-100937500D01*
X127825000Y-100662500D01*
X127825662Y-100649023D01*
X127827642Y-100635675D01*
X127830921Y-100622586D01*
X127835467Y-100609881D01*
X127841236Y-100597683D01*
X127848173Y-100586109D01*
X127856211Y-100575271D01*
X127865273Y-100565273D01*
X127875271Y-100556211D01*
X127886109Y-100548173D01*
X127897683Y-100541236D01*
X127909881Y-100535467D01*
X127922586Y-100530921D01*
X127935675Y-100527642D01*
X127949023Y-100525662D01*
X127962500Y-100525000D01*
X129212500Y-100525000D01*
X129225977Y-100525662D01*
G37*
G36*
X129225977Y-101325662D02*
G01*
X129239325Y-101327642D01*
X129252414Y-101330921D01*
X129265119Y-101335467D01*
X129277317Y-101341236D01*
X129288891Y-101348173D01*
X129299729Y-101356211D01*
X129309727Y-101365273D01*
X129318789Y-101375271D01*
X129326827Y-101386109D01*
X129333764Y-101397683D01*
X129339533Y-101409881D01*
X129344079Y-101422586D01*
X129347358Y-101435675D01*
X129349338Y-101449023D01*
X129350000Y-101462500D01*
X129350000Y-101737500D01*
X129349338Y-101750977D01*
X129347358Y-101764325D01*
X129344079Y-101777414D01*
X129339533Y-101790119D01*
X129333764Y-101802317D01*
X129326827Y-101813891D01*
X129318789Y-101824729D01*
X129309727Y-101834727D01*
X129299729Y-101843789D01*
X129288891Y-101851827D01*
X129277317Y-101858764D01*
X129265119Y-101864533D01*
X129252414Y-101869079D01*
X129239325Y-101872358D01*
X129225977Y-101874338D01*
X129212500Y-101875000D01*
X127962500Y-101875000D01*
X127949023Y-101874338D01*
X127935675Y-101872358D01*
X127922586Y-101869079D01*
X127909881Y-101864533D01*
X127897683Y-101858764D01*
X127886109Y-101851827D01*
X127875271Y-101843789D01*
X127865273Y-101834727D01*
X127856211Y-101824729D01*
X127848173Y-101813891D01*
X127841236Y-101802317D01*
X127835467Y-101790119D01*
X127830921Y-101777414D01*
X127827642Y-101764325D01*
X127825662Y-101750977D01*
X127825000Y-101737500D01*
X127825000Y-101462500D01*
X127825662Y-101449023D01*
X127827642Y-101435675D01*
X127830921Y-101422586D01*
X127835467Y-101409881D01*
X127841236Y-101397683D01*
X127848173Y-101386109D01*
X127856211Y-101375271D01*
X127865273Y-101365273D01*
X127875271Y-101356211D01*
X127886109Y-101348173D01*
X127897683Y-101341236D01*
X127909881Y-101335467D01*
X127922586Y-101330921D01*
X127935675Y-101327642D01*
X127949023Y-101325662D01*
X127962500Y-101325000D01*
X129212500Y-101325000D01*
X129225977Y-101325662D01*
G37*
G36*
X129225977Y-102125662D02*
G01*
X129239325Y-102127642D01*
X129252414Y-102130921D01*
X129265119Y-102135467D01*
X129277317Y-102141236D01*
X129288891Y-102148173D01*
X129299729Y-102156211D01*
X129309727Y-102165273D01*
X129318789Y-102175271D01*
X129326827Y-102186109D01*
X129333764Y-102197683D01*
X129339533Y-102209881D01*
X129344079Y-102222586D01*
X129347358Y-102235675D01*
X129349338Y-102249023D01*
X129350000Y-102262500D01*
X129350000Y-102537500D01*
X129349338Y-102550977D01*
X129347358Y-102564325D01*
X129344079Y-102577414D01*
X129339533Y-102590119D01*
X129333764Y-102602317D01*
X129326827Y-102613891D01*
X129318789Y-102624729D01*
X129309727Y-102634727D01*
X129299729Y-102643789D01*
X129288891Y-102651827D01*
X129277317Y-102658764D01*
X129265119Y-102664533D01*
X129252414Y-102669079D01*
X129239325Y-102672358D01*
X129225977Y-102674338D01*
X129212500Y-102675000D01*
X127962500Y-102675000D01*
X127949023Y-102674338D01*
X127935675Y-102672358D01*
X127922586Y-102669079D01*
X127909881Y-102664533D01*
X127897683Y-102658764D01*
X127886109Y-102651827D01*
X127875271Y-102643789D01*
X127865273Y-102634727D01*
X127856211Y-102624729D01*
X127848173Y-102613891D01*
X127841236Y-102602317D01*
X127835467Y-102590119D01*
X127830921Y-102577414D01*
X127827642Y-102564325D01*
X127825662Y-102550977D01*
X127825000Y-102537500D01*
X127825000Y-102262500D01*
X127825662Y-102249023D01*
X127827642Y-102235675D01*
X127830921Y-102222586D01*
X127835467Y-102209881D01*
X127841236Y-102197683D01*
X127848173Y-102186109D01*
X127856211Y-102175271D01*
X127865273Y-102165273D01*
X127875271Y-102156211D01*
X127886109Y-102148173D01*
X127897683Y-102141236D01*
X127909881Y-102135467D01*
X127922586Y-102130921D01*
X127935675Y-102127642D01*
X127949023Y-102125662D01*
X127962500Y-102125000D01*
X129212500Y-102125000D01*
X129225977Y-102125662D01*
G37*
G36*
X129225977Y-102925662D02*
G01*
X129239325Y-102927642D01*
X129252414Y-102930921D01*
X129265119Y-102935467D01*
X129277317Y-102941236D01*
X129288891Y-102948173D01*
X129299729Y-102956211D01*
X129309727Y-102965273D01*
X129318789Y-102975271D01*
X129326827Y-102986109D01*
X129333764Y-102997683D01*
X129339533Y-103009881D01*
X129344079Y-103022586D01*
X129347358Y-103035675D01*
X129349338Y-103049023D01*
X129350000Y-103062500D01*
X129350000Y-103337500D01*
X129349338Y-103350977D01*
X129347358Y-103364325D01*
X129344079Y-103377414D01*
X129339533Y-103390119D01*
X129333764Y-103402317D01*
X129326827Y-103413891D01*
X129318789Y-103424729D01*
X129309727Y-103434727D01*
X129299729Y-103443789D01*
X129288891Y-103451827D01*
X129277317Y-103458764D01*
X129265119Y-103464533D01*
X129252414Y-103469079D01*
X129239325Y-103472358D01*
X129225977Y-103474338D01*
X129212500Y-103475000D01*
X127962500Y-103475000D01*
X127949023Y-103474338D01*
X127935675Y-103472358D01*
X127922586Y-103469079D01*
X127909881Y-103464533D01*
X127897683Y-103458764D01*
X127886109Y-103451827D01*
X127875271Y-103443789D01*
X127865273Y-103434727D01*
X127856211Y-103424729D01*
X127848173Y-103413891D01*
X127841236Y-103402317D01*
X127835467Y-103390119D01*
X127830921Y-103377414D01*
X127827642Y-103364325D01*
X127825662Y-103350977D01*
X127825000Y-103337500D01*
X127825000Y-103062500D01*
X127825662Y-103049023D01*
X127827642Y-103035675D01*
X127830921Y-103022586D01*
X127835467Y-103009881D01*
X127841236Y-102997683D01*
X127848173Y-102986109D01*
X127856211Y-102975271D01*
X127865273Y-102965273D01*
X127875271Y-102956211D01*
X127886109Y-102948173D01*
X127897683Y-102941236D01*
X127909881Y-102935467D01*
X127922586Y-102930921D01*
X127935675Y-102927642D01*
X127949023Y-102925662D01*
X127962500Y-102925000D01*
X129212500Y-102925000D01*
X129225977Y-102925662D01*
G37*
G36*
X129225977Y-103725662D02*
G01*
X129239325Y-103727642D01*
X129252414Y-103730921D01*
X129265119Y-103735467D01*
X129277317Y-103741236D01*
X129288891Y-103748173D01*
X129299729Y-103756211D01*
X129309727Y-103765273D01*
X129318789Y-103775271D01*
X129326827Y-103786109D01*
X129333764Y-103797683D01*
X129339533Y-103809881D01*
X129344079Y-103822586D01*
X129347358Y-103835675D01*
X129349338Y-103849023D01*
X129350000Y-103862500D01*
X129350000Y-104137500D01*
X129349338Y-104150977D01*
X129347358Y-104164325D01*
X129344079Y-104177414D01*
X129339533Y-104190119D01*
X129333764Y-104202317D01*
X129326827Y-104213891D01*
X129318789Y-104224729D01*
X129309727Y-104234727D01*
X129299729Y-104243789D01*
X129288891Y-104251827D01*
X129277317Y-104258764D01*
X129265119Y-104264533D01*
X129252414Y-104269079D01*
X129239325Y-104272358D01*
X129225977Y-104274338D01*
X129212500Y-104275000D01*
X127962500Y-104275000D01*
X127949023Y-104274338D01*
X127935675Y-104272358D01*
X127922586Y-104269079D01*
X127909881Y-104264533D01*
X127897683Y-104258764D01*
X127886109Y-104251827D01*
X127875271Y-104243789D01*
X127865273Y-104234727D01*
X127856211Y-104224729D01*
X127848173Y-104213891D01*
X127841236Y-104202317D01*
X127835467Y-104190119D01*
X127830921Y-104177414D01*
X127827642Y-104164325D01*
X127825662Y-104150977D01*
X127825000Y-104137500D01*
X127825000Y-103862500D01*
X127825662Y-103849023D01*
X127827642Y-103835675D01*
X127830921Y-103822586D01*
X127835467Y-103809881D01*
X127841236Y-103797683D01*
X127848173Y-103786109D01*
X127856211Y-103775271D01*
X127865273Y-103765273D01*
X127875271Y-103756211D01*
X127886109Y-103748173D01*
X127897683Y-103741236D01*
X127909881Y-103735467D01*
X127922586Y-103730921D01*
X127935675Y-103727642D01*
X127949023Y-103725662D01*
X127962500Y-103725000D01*
X129212500Y-103725000D01*
X129225977Y-103725662D01*
G37*
G36*
X129225977Y-104525662D02*
G01*
X129239325Y-104527642D01*
X129252414Y-104530921D01*
X129265119Y-104535467D01*
X129277317Y-104541236D01*
X129288891Y-104548173D01*
X129299729Y-104556211D01*
X129309727Y-104565273D01*
X129318789Y-104575271D01*
X129326827Y-104586109D01*
X129333764Y-104597683D01*
X129339533Y-104609881D01*
X129344079Y-104622586D01*
X129347358Y-104635675D01*
X129349338Y-104649023D01*
X129350000Y-104662500D01*
X129350000Y-104937500D01*
X129349338Y-104950977D01*
X129347358Y-104964325D01*
X129344079Y-104977414D01*
X129339533Y-104990119D01*
X129333764Y-105002317D01*
X129326827Y-105013891D01*
X129318789Y-105024729D01*
X129309727Y-105034727D01*
X129299729Y-105043789D01*
X129288891Y-105051827D01*
X129277317Y-105058764D01*
X129265119Y-105064533D01*
X129252414Y-105069079D01*
X129239325Y-105072358D01*
X129225977Y-105074338D01*
X129212500Y-105075000D01*
X127962500Y-105075000D01*
X127949023Y-105074338D01*
X127935675Y-105072358D01*
X127922586Y-105069079D01*
X127909881Y-105064533D01*
X127897683Y-105058764D01*
X127886109Y-105051827D01*
X127875271Y-105043789D01*
X127865273Y-105034727D01*
X127856211Y-105024729D01*
X127848173Y-105013891D01*
X127841236Y-105002317D01*
X127835467Y-104990119D01*
X127830921Y-104977414D01*
X127827642Y-104964325D01*
X127825662Y-104950977D01*
X127825000Y-104937500D01*
X127825000Y-104662500D01*
X127825662Y-104649023D01*
X127827642Y-104635675D01*
X127830921Y-104622586D01*
X127835467Y-104609881D01*
X127841236Y-104597683D01*
X127848173Y-104586109D01*
X127856211Y-104575271D01*
X127865273Y-104565273D01*
X127875271Y-104556211D01*
X127886109Y-104548173D01*
X127897683Y-104541236D01*
X127909881Y-104535467D01*
X127922586Y-104530921D01*
X127935675Y-104527642D01*
X127949023Y-104525662D01*
X127962500Y-104525000D01*
X129212500Y-104525000D01*
X129225977Y-104525662D01*
G37*
G36*
X129225977Y-105325662D02*
G01*
X129239325Y-105327642D01*
X129252414Y-105330921D01*
X129265119Y-105335467D01*
X129277317Y-105341236D01*
X129288891Y-105348173D01*
X129299729Y-105356211D01*
X129309727Y-105365273D01*
X129318789Y-105375271D01*
X129326827Y-105386109D01*
X129333764Y-105397683D01*
X129339533Y-105409881D01*
X129344079Y-105422586D01*
X129347358Y-105435675D01*
X129349338Y-105449023D01*
X129350000Y-105462500D01*
X129350000Y-105737500D01*
X129349338Y-105750977D01*
X129347358Y-105764325D01*
X129344079Y-105777414D01*
X129339533Y-105790119D01*
X129333764Y-105802317D01*
X129326827Y-105813891D01*
X129318789Y-105824729D01*
X129309727Y-105834727D01*
X129299729Y-105843789D01*
X129288891Y-105851827D01*
X129277317Y-105858764D01*
X129265119Y-105864533D01*
X129252414Y-105869079D01*
X129239325Y-105872358D01*
X129225977Y-105874338D01*
X129212500Y-105875000D01*
X127962500Y-105875000D01*
X127949023Y-105874338D01*
X127935675Y-105872358D01*
X127922586Y-105869079D01*
X127909881Y-105864533D01*
X127897683Y-105858764D01*
X127886109Y-105851827D01*
X127875271Y-105843789D01*
X127865273Y-105834727D01*
X127856211Y-105824729D01*
X127848173Y-105813891D01*
X127841236Y-105802317D01*
X127835467Y-105790119D01*
X127830921Y-105777414D01*
X127827642Y-105764325D01*
X127825662Y-105750977D01*
X127825000Y-105737500D01*
X127825000Y-105462500D01*
X127825662Y-105449023D01*
X127827642Y-105435675D01*
X127830921Y-105422586D01*
X127835467Y-105409881D01*
X127841236Y-105397683D01*
X127848173Y-105386109D01*
X127856211Y-105375271D01*
X127865273Y-105365273D01*
X127875271Y-105356211D01*
X127886109Y-105348173D01*
X127897683Y-105341236D01*
X127909881Y-105335467D01*
X127922586Y-105330921D01*
X127935675Y-105327642D01*
X127949023Y-105325662D01*
X127962500Y-105325000D01*
X129212500Y-105325000D01*
X129225977Y-105325662D01*
G37*
G36*
X129225977Y-106125662D02*
G01*
X129239325Y-106127642D01*
X129252414Y-106130921D01*
X129265119Y-106135467D01*
X129277317Y-106141236D01*
X129288891Y-106148173D01*
X129299729Y-106156211D01*
X129309727Y-106165273D01*
X129318789Y-106175271D01*
X129326827Y-106186109D01*
X129333764Y-106197683D01*
X129339533Y-106209881D01*
X129344079Y-106222586D01*
X129347358Y-106235675D01*
X129349338Y-106249023D01*
X129350000Y-106262500D01*
X129350000Y-106537500D01*
X129349338Y-106550977D01*
X129347358Y-106564325D01*
X129344079Y-106577414D01*
X129339533Y-106590119D01*
X129333764Y-106602317D01*
X129326827Y-106613891D01*
X129318789Y-106624729D01*
X129309727Y-106634727D01*
X129299729Y-106643789D01*
X129288891Y-106651827D01*
X129277317Y-106658764D01*
X129265119Y-106664533D01*
X129252414Y-106669079D01*
X129239325Y-106672358D01*
X129225977Y-106674338D01*
X129212500Y-106675000D01*
X127962500Y-106675000D01*
X127949023Y-106674338D01*
X127935675Y-106672358D01*
X127922586Y-106669079D01*
X127909881Y-106664533D01*
X127897683Y-106658764D01*
X127886109Y-106651827D01*
X127875271Y-106643789D01*
X127865273Y-106634727D01*
X127856211Y-106624729D01*
X127848173Y-106613891D01*
X127841236Y-106602317D01*
X127835467Y-106590119D01*
X127830921Y-106577414D01*
X127827642Y-106564325D01*
X127825662Y-106550977D01*
X127825000Y-106537500D01*
X127825000Y-106262500D01*
X127825662Y-106249023D01*
X127827642Y-106235675D01*
X127830921Y-106222586D01*
X127835467Y-106209881D01*
X127841236Y-106197683D01*
X127848173Y-106186109D01*
X127856211Y-106175271D01*
X127865273Y-106165273D01*
X127875271Y-106156211D01*
X127886109Y-106148173D01*
X127897683Y-106141236D01*
X127909881Y-106135467D01*
X127922586Y-106130921D01*
X127935675Y-106127642D01*
X127949023Y-106125662D01*
X127962500Y-106125000D01*
X129212500Y-106125000D01*
X129225977Y-106125662D01*
G37*
G36*
X118050977Y-106125662D02*
G01*
X118064325Y-106127642D01*
X118077414Y-106130921D01*
X118090119Y-106135467D01*
X118102317Y-106141236D01*
X118113891Y-106148173D01*
X118124729Y-106156211D01*
X118134727Y-106165273D01*
X118143789Y-106175271D01*
X118151827Y-106186109D01*
X118158764Y-106197683D01*
X118164533Y-106209881D01*
X118169079Y-106222586D01*
X118172358Y-106235675D01*
X118174338Y-106249023D01*
X118175000Y-106262500D01*
X118175000Y-106537500D01*
X118174338Y-106550977D01*
X118172358Y-106564325D01*
X118169079Y-106577414D01*
X118164533Y-106590119D01*
X118158764Y-106602317D01*
X118151827Y-106613891D01*
X118143789Y-106624729D01*
X118134727Y-106634727D01*
X118124729Y-106643789D01*
X118113891Y-106651827D01*
X118102317Y-106658764D01*
X118090119Y-106664533D01*
X118077414Y-106669079D01*
X118064325Y-106672358D01*
X118050977Y-106674338D01*
X118037500Y-106675000D01*
X116787500Y-106675000D01*
X116774023Y-106674338D01*
X116760675Y-106672358D01*
X116747586Y-106669079D01*
X116734881Y-106664533D01*
X116722683Y-106658764D01*
X116711109Y-106651827D01*
X116700271Y-106643789D01*
X116690273Y-106634727D01*
X116681211Y-106624729D01*
X116673173Y-106613891D01*
X116666236Y-106602317D01*
X116660467Y-106590119D01*
X116655921Y-106577414D01*
X116652642Y-106564325D01*
X116650662Y-106550977D01*
X116650000Y-106537500D01*
X116650000Y-106262500D01*
X116650662Y-106249023D01*
X116652642Y-106235675D01*
X116655921Y-106222586D01*
X116660467Y-106209881D01*
X116666236Y-106197683D01*
X116673173Y-106186109D01*
X116681211Y-106175271D01*
X116690273Y-106165273D01*
X116700271Y-106156211D01*
X116711109Y-106148173D01*
X116722683Y-106141236D01*
X116734881Y-106135467D01*
X116747586Y-106130921D01*
X116760675Y-106127642D01*
X116774023Y-106125662D01*
X116787500Y-106125000D01*
X118037500Y-106125000D01*
X118050977Y-106125662D01*
G37*
G36*
X118050977Y-105325662D02*
G01*
X118064325Y-105327642D01*
X118077414Y-105330921D01*
X118090119Y-105335467D01*
X118102317Y-105341236D01*
X118113891Y-105348173D01*
X118124729Y-105356211D01*
X118134727Y-105365273D01*
X118143789Y-105375271D01*
X118151827Y-105386109D01*
X118158764Y-105397683D01*
X118164533Y-105409881D01*
X118169079Y-105422586D01*
X118172358Y-105435675D01*
X118174338Y-105449023D01*
X118175000Y-105462500D01*
X118175000Y-105737500D01*
X118174338Y-105750977D01*
X118172358Y-105764325D01*
X118169079Y-105777414D01*
X118164533Y-105790119D01*
X118158764Y-105802317D01*
X118151827Y-105813891D01*
X118143789Y-105824729D01*
X118134727Y-105834727D01*
X118124729Y-105843789D01*
X118113891Y-105851827D01*
X118102317Y-105858764D01*
X118090119Y-105864533D01*
X118077414Y-105869079D01*
X118064325Y-105872358D01*
X118050977Y-105874338D01*
X118037500Y-105875000D01*
X116787500Y-105875000D01*
X116774023Y-105874338D01*
X116760675Y-105872358D01*
X116747586Y-105869079D01*
X116734881Y-105864533D01*
X116722683Y-105858764D01*
X116711109Y-105851827D01*
X116700271Y-105843789D01*
X116690273Y-105834727D01*
X116681211Y-105824729D01*
X116673173Y-105813891D01*
X116666236Y-105802317D01*
X116660467Y-105790119D01*
X116655921Y-105777414D01*
X116652642Y-105764325D01*
X116650662Y-105750977D01*
X116650000Y-105737500D01*
X116650000Y-105462500D01*
X116650662Y-105449023D01*
X116652642Y-105435675D01*
X116655921Y-105422586D01*
X116660467Y-105409881D01*
X116666236Y-105397683D01*
X116673173Y-105386109D01*
X116681211Y-105375271D01*
X116690273Y-105365273D01*
X116700271Y-105356211D01*
X116711109Y-105348173D01*
X116722683Y-105341236D01*
X116734881Y-105335467D01*
X116747586Y-105330921D01*
X116760675Y-105327642D01*
X116774023Y-105325662D01*
X116787500Y-105325000D01*
X118037500Y-105325000D01*
X118050977Y-105325662D01*
G37*
G36*
X118050977Y-104525662D02*
G01*
X118064325Y-104527642D01*
X118077414Y-104530921D01*
X118090119Y-104535467D01*
X118102317Y-104541236D01*
X118113891Y-104548173D01*
X118124729Y-104556211D01*
X118134727Y-104565273D01*
X118143789Y-104575271D01*
X118151827Y-104586109D01*
X118158764Y-104597683D01*
X118164533Y-104609881D01*
X118169079Y-104622586D01*
X118172358Y-104635675D01*
X118174338Y-104649023D01*
X118175000Y-104662500D01*
X118175000Y-104937500D01*
X118174338Y-104950977D01*
X118172358Y-104964325D01*
X118169079Y-104977414D01*
X118164533Y-104990119D01*
X118158764Y-105002317D01*
X118151827Y-105013891D01*
X118143789Y-105024729D01*
X118134727Y-105034727D01*
X118124729Y-105043789D01*
X118113891Y-105051827D01*
X118102317Y-105058764D01*
X118090119Y-105064533D01*
X118077414Y-105069079D01*
X118064325Y-105072358D01*
X118050977Y-105074338D01*
X118037500Y-105075000D01*
X116787500Y-105075000D01*
X116774023Y-105074338D01*
X116760675Y-105072358D01*
X116747586Y-105069079D01*
X116734881Y-105064533D01*
X116722683Y-105058764D01*
X116711109Y-105051827D01*
X116700271Y-105043789D01*
X116690273Y-105034727D01*
X116681211Y-105024729D01*
X116673173Y-105013891D01*
X116666236Y-105002317D01*
X116660467Y-104990119D01*
X116655921Y-104977414D01*
X116652642Y-104964325D01*
X116650662Y-104950977D01*
X116650000Y-104937500D01*
X116650000Y-104662500D01*
X116650662Y-104649023D01*
X116652642Y-104635675D01*
X116655921Y-104622586D01*
X116660467Y-104609881D01*
X116666236Y-104597683D01*
X116673173Y-104586109D01*
X116681211Y-104575271D01*
X116690273Y-104565273D01*
X116700271Y-104556211D01*
X116711109Y-104548173D01*
X116722683Y-104541236D01*
X116734881Y-104535467D01*
X116747586Y-104530921D01*
X116760675Y-104527642D01*
X116774023Y-104525662D01*
X116787500Y-104525000D01*
X118037500Y-104525000D01*
X118050977Y-104525662D01*
G37*
G36*
X118050977Y-103725662D02*
G01*
X118064325Y-103727642D01*
X118077414Y-103730921D01*
X118090119Y-103735467D01*
X118102317Y-103741236D01*
X118113891Y-103748173D01*
X118124729Y-103756211D01*
X118134727Y-103765273D01*
X118143789Y-103775271D01*
X118151827Y-103786109D01*
X118158764Y-103797683D01*
X118164533Y-103809881D01*
X118169079Y-103822586D01*
X118172358Y-103835675D01*
X118174338Y-103849023D01*
X118175000Y-103862500D01*
X118175000Y-104137500D01*
X118174338Y-104150977D01*
X118172358Y-104164325D01*
X118169079Y-104177414D01*
X118164533Y-104190119D01*
X118158764Y-104202317D01*
X118151827Y-104213891D01*
X118143789Y-104224729D01*
X118134727Y-104234727D01*
X118124729Y-104243789D01*
X118113891Y-104251827D01*
X118102317Y-104258764D01*
X118090119Y-104264533D01*
X118077414Y-104269079D01*
X118064325Y-104272358D01*
X118050977Y-104274338D01*
X118037500Y-104275000D01*
X116787500Y-104275000D01*
X116774023Y-104274338D01*
X116760675Y-104272358D01*
X116747586Y-104269079D01*
X116734881Y-104264533D01*
X116722683Y-104258764D01*
X116711109Y-104251827D01*
X116700271Y-104243789D01*
X116690273Y-104234727D01*
X116681211Y-104224729D01*
X116673173Y-104213891D01*
X116666236Y-104202317D01*
X116660467Y-104190119D01*
X116655921Y-104177414D01*
X116652642Y-104164325D01*
X116650662Y-104150977D01*
X116650000Y-104137500D01*
X116650000Y-103862500D01*
X116650662Y-103849023D01*
X116652642Y-103835675D01*
X116655921Y-103822586D01*
X116660467Y-103809881D01*
X116666236Y-103797683D01*
X116673173Y-103786109D01*
X116681211Y-103775271D01*
X116690273Y-103765273D01*
X116700271Y-103756211D01*
X116711109Y-103748173D01*
X116722683Y-103741236D01*
X116734881Y-103735467D01*
X116747586Y-103730921D01*
X116760675Y-103727642D01*
X116774023Y-103725662D01*
X116787500Y-103725000D01*
X118037500Y-103725000D01*
X118050977Y-103725662D01*
G37*
G36*
X118050977Y-102925662D02*
G01*
X118064325Y-102927642D01*
X118077414Y-102930921D01*
X118090119Y-102935467D01*
X118102317Y-102941236D01*
X118113891Y-102948173D01*
X118124729Y-102956211D01*
X118134727Y-102965273D01*
X118143789Y-102975271D01*
X118151827Y-102986109D01*
X118158764Y-102997683D01*
X118164533Y-103009881D01*
X118169079Y-103022586D01*
X118172358Y-103035675D01*
X118174338Y-103049023D01*
X118175000Y-103062500D01*
X118175000Y-103337500D01*
X118174338Y-103350977D01*
X118172358Y-103364325D01*
X118169079Y-103377414D01*
X118164533Y-103390119D01*
X118158764Y-103402317D01*
X118151827Y-103413891D01*
X118143789Y-103424729D01*
X118134727Y-103434727D01*
X118124729Y-103443789D01*
X118113891Y-103451827D01*
X118102317Y-103458764D01*
X118090119Y-103464533D01*
X118077414Y-103469079D01*
X118064325Y-103472358D01*
X118050977Y-103474338D01*
X118037500Y-103475000D01*
X116787500Y-103475000D01*
X116774023Y-103474338D01*
X116760675Y-103472358D01*
X116747586Y-103469079D01*
X116734881Y-103464533D01*
X116722683Y-103458764D01*
X116711109Y-103451827D01*
X116700271Y-103443789D01*
X116690273Y-103434727D01*
X116681211Y-103424729D01*
X116673173Y-103413891D01*
X116666236Y-103402317D01*
X116660467Y-103390119D01*
X116655921Y-103377414D01*
X116652642Y-103364325D01*
X116650662Y-103350977D01*
X116650000Y-103337500D01*
X116650000Y-103062500D01*
X116650662Y-103049023D01*
X116652642Y-103035675D01*
X116655921Y-103022586D01*
X116660467Y-103009881D01*
X116666236Y-102997683D01*
X116673173Y-102986109D01*
X116681211Y-102975271D01*
X116690273Y-102965273D01*
X116700271Y-102956211D01*
X116711109Y-102948173D01*
X116722683Y-102941236D01*
X116734881Y-102935467D01*
X116747586Y-102930921D01*
X116760675Y-102927642D01*
X116774023Y-102925662D01*
X116787500Y-102925000D01*
X118037500Y-102925000D01*
X118050977Y-102925662D01*
G37*
G36*
X118050977Y-102125662D02*
G01*
X118064325Y-102127642D01*
X118077414Y-102130921D01*
X118090119Y-102135467D01*
X118102317Y-102141236D01*
X118113891Y-102148173D01*
X118124729Y-102156211D01*
X118134727Y-102165273D01*
X118143789Y-102175271D01*
X118151827Y-102186109D01*
X118158764Y-102197683D01*
X118164533Y-102209881D01*
X118169079Y-102222586D01*
X118172358Y-102235675D01*
X118174338Y-102249023D01*
X118175000Y-102262500D01*
X118175000Y-102537500D01*
X118174338Y-102550977D01*
X118172358Y-102564325D01*
X118169079Y-102577414D01*
X118164533Y-102590119D01*
X118158764Y-102602317D01*
X118151827Y-102613891D01*
X118143789Y-102624729D01*
X118134727Y-102634727D01*
X118124729Y-102643789D01*
X118113891Y-102651827D01*
X118102317Y-102658764D01*
X118090119Y-102664533D01*
X118077414Y-102669079D01*
X118064325Y-102672358D01*
X118050977Y-102674338D01*
X118037500Y-102675000D01*
X116787500Y-102675000D01*
X116774023Y-102674338D01*
X116760675Y-102672358D01*
X116747586Y-102669079D01*
X116734881Y-102664533D01*
X116722683Y-102658764D01*
X116711109Y-102651827D01*
X116700271Y-102643789D01*
X116690273Y-102634727D01*
X116681211Y-102624729D01*
X116673173Y-102613891D01*
X116666236Y-102602317D01*
X116660467Y-102590119D01*
X116655921Y-102577414D01*
X116652642Y-102564325D01*
X116650662Y-102550977D01*
X116650000Y-102537500D01*
X116650000Y-102262500D01*
X116650662Y-102249023D01*
X116652642Y-102235675D01*
X116655921Y-102222586D01*
X116660467Y-102209881D01*
X116666236Y-102197683D01*
X116673173Y-102186109D01*
X116681211Y-102175271D01*
X116690273Y-102165273D01*
X116700271Y-102156211D01*
X116711109Y-102148173D01*
X116722683Y-102141236D01*
X116734881Y-102135467D01*
X116747586Y-102130921D01*
X116760675Y-102127642D01*
X116774023Y-102125662D01*
X116787500Y-102125000D01*
X118037500Y-102125000D01*
X118050977Y-102125662D01*
G37*
G36*
X118050977Y-101325662D02*
G01*
X118064325Y-101327642D01*
X118077414Y-101330921D01*
X118090119Y-101335467D01*
X118102317Y-101341236D01*
X118113891Y-101348173D01*
X118124729Y-101356211D01*
X118134727Y-101365273D01*
X118143789Y-101375271D01*
X118151827Y-101386109D01*
X118158764Y-101397683D01*
X118164533Y-101409881D01*
X118169079Y-101422586D01*
X118172358Y-101435675D01*
X118174338Y-101449023D01*
X118175000Y-101462500D01*
X118175000Y-101737500D01*
X118174338Y-101750977D01*
X118172358Y-101764325D01*
X118169079Y-101777414D01*
X118164533Y-101790119D01*
X118158764Y-101802317D01*
X118151827Y-101813891D01*
X118143789Y-101824729D01*
X118134727Y-101834727D01*
X118124729Y-101843789D01*
X118113891Y-101851827D01*
X118102317Y-101858764D01*
X118090119Y-101864533D01*
X118077414Y-101869079D01*
X118064325Y-101872358D01*
X118050977Y-101874338D01*
X118037500Y-101875000D01*
X116787500Y-101875000D01*
X116774023Y-101874338D01*
X116760675Y-101872358D01*
X116747586Y-101869079D01*
X116734881Y-101864533D01*
X116722683Y-101858764D01*
X116711109Y-101851827D01*
X116700271Y-101843789D01*
X116690273Y-101834727D01*
X116681211Y-101824729D01*
X116673173Y-101813891D01*
X116666236Y-101802317D01*
X116660467Y-101790119D01*
X116655921Y-101777414D01*
X116652642Y-101764325D01*
X116650662Y-101750977D01*
X116650000Y-101737500D01*
X116650000Y-101462500D01*
X116650662Y-101449023D01*
X116652642Y-101435675D01*
X116655921Y-101422586D01*
X116660467Y-101409881D01*
X116666236Y-101397683D01*
X116673173Y-101386109D01*
X116681211Y-101375271D01*
X116690273Y-101365273D01*
X116700271Y-101356211D01*
X116711109Y-101348173D01*
X116722683Y-101341236D01*
X116734881Y-101335467D01*
X116747586Y-101330921D01*
X116760675Y-101327642D01*
X116774023Y-101325662D01*
X116787500Y-101325000D01*
X118037500Y-101325000D01*
X118050977Y-101325662D01*
G37*
G36*
X118050977Y-100525662D02*
G01*
X118064325Y-100527642D01*
X118077414Y-100530921D01*
X118090119Y-100535467D01*
X118102317Y-100541236D01*
X118113891Y-100548173D01*
X118124729Y-100556211D01*
X118134727Y-100565273D01*
X118143789Y-100575271D01*
X118151827Y-100586109D01*
X118158764Y-100597683D01*
X118164533Y-100609881D01*
X118169079Y-100622586D01*
X118172358Y-100635675D01*
X118174338Y-100649023D01*
X118175000Y-100662500D01*
X118175000Y-100937500D01*
X118174338Y-100950977D01*
X118172358Y-100964325D01*
X118169079Y-100977414D01*
X118164533Y-100990119D01*
X118158764Y-101002317D01*
X118151827Y-101013891D01*
X118143789Y-101024729D01*
X118134727Y-101034727D01*
X118124729Y-101043789D01*
X118113891Y-101051827D01*
X118102317Y-101058764D01*
X118090119Y-101064533D01*
X118077414Y-101069079D01*
X118064325Y-101072358D01*
X118050977Y-101074338D01*
X118037500Y-101075000D01*
X116787500Y-101075000D01*
X116774023Y-101074338D01*
X116760675Y-101072358D01*
X116747586Y-101069079D01*
X116734881Y-101064533D01*
X116722683Y-101058764D01*
X116711109Y-101051827D01*
X116700271Y-101043789D01*
X116690273Y-101034727D01*
X116681211Y-101024729D01*
X116673173Y-101013891D01*
X116666236Y-101002317D01*
X116660467Y-100990119D01*
X116655921Y-100977414D01*
X116652642Y-100964325D01*
X116650662Y-100950977D01*
X116650000Y-100937500D01*
X116650000Y-100662500D01*
X116650662Y-100649023D01*
X116652642Y-100635675D01*
X116655921Y-100622586D01*
X116660467Y-100609881D01*
X116666236Y-100597683D01*
X116673173Y-100586109D01*
X116681211Y-100575271D01*
X116690273Y-100565273D01*
X116700271Y-100556211D01*
X116711109Y-100548173D01*
X116722683Y-100541236D01*
X116734881Y-100535467D01*
X116747586Y-100530921D01*
X116760675Y-100527642D01*
X116774023Y-100525662D01*
X116787500Y-100525000D01*
X118037500Y-100525000D01*
X118050977Y-100525662D01*
G37*
G36*
X118050977Y-99725662D02*
G01*
X118064325Y-99727642D01*
X118077414Y-99730921D01*
X118090119Y-99735467D01*
X118102317Y-99741236D01*
X118113891Y-99748173D01*
X118124729Y-99756211D01*
X118134727Y-99765273D01*
X118143789Y-99775271D01*
X118151827Y-99786109D01*
X118158764Y-99797683D01*
X118164533Y-99809881D01*
X118169079Y-99822586D01*
X118172358Y-99835675D01*
X118174338Y-99849023D01*
X118175000Y-99862500D01*
X118175000Y-100137500D01*
X118174338Y-100150977D01*
X118172358Y-100164325D01*
X118169079Y-100177414D01*
X118164533Y-100190119D01*
X118158764Y-100202317D01*
X118151827Y-100213891D01*
X118143789Y-100224729D01*
X118134727Y-100234727D01*
X118124729Y-100243789D01*
X118113891Y-100251827D01*
X118102317Y-100258764D01*
X118090119Y-100264533D01*
X118077414Y-100269079D01*
X118064325Y-100272358D01*
X118050977Y-100274338D01*
X118037500Y-100275000D01*
X116787500Y-100275000D01*
X116774023Y-100274338D01*
X116760675Y-100272358D01*
X116747586Y-100269079D01*
X116734881Y-100264533D01*
X116722683Y-100258764D01*
X116711109Y-100251827D01*
X116700271Y-100243789D01*
X116690273Y-100234727D01*
X116681211Y-100224729D01*
X116673173Y-100213891D01*
X116666236Y-100202317D01*
X116660467Y-100190119D01*
X116655921Y-100177414D01*
X116652642Y-100164325D01*
X116650662Y-100150977D01*
X116650000Y-100137500D01*
X116650000Y-99862500D01*
X116650662Y-99849023D01*
X116652642Y-99835675D01*
X116655921Y-99822586D01*
X116660467Y-99809881D01*
X116666236Y-99797683D01*
X116673173Y-99786109D01*
X116681211Y-99775271D01*
X116690273Y-99765273D01*
X116700271Y-99756211D01*
X116711109Y-99748173D01*
X116722683Y-99741236D01*
X116734881Y-99735467D01*
X116747586Y-99730921D01*
X116760675Y-99727642D01*
X116774023Y-99725662D01*
X116787500Y-99725000D01*
X118037500Y-99725000D01*
X118050977Y-99725662D01*
G37*
G36*
X118050977Y-98925662D02*
G01*
X118064325Y-98927642D01*
X118077414Y-98930921D01*
X118090119Y-98935467D01*
X118102317Y-98941236D01*
X118113891Y-98948173D01*
X118124729Y-98956211D01*
X118134727Y-98965273D01*
X118143789Y-98975271D01*
X118151827Y-98986109D01*
X118158764Y-98997683D01*
X118164533Y-99009881D01*
X118169079Y-99022586D01*
X118172358Y-99035675D01*
X118174338Y-99049023D01*
X118175000Y-99062500D01*
X118175000Y-99337500D01*
X118174338Y-99350977D01*
X118172358Y-99364325D01*
X118169079Y-99377414D01*
X118164533Y-99390119D01*
X118158764Y-99402317D01*
X118151827Y-99413891D01*
X118143789Y-99424729D01*
X118134727Y-99434727D01*
X118124729Y-99443789D01*
X118113891Y-99451827D01*
X118102317Y-99458764D01*
X118090119Y-99464533D01*
X118077414Y-99469079D01*
X118064325Y-99472358D01*
X118050977Y-99474338D01*
X118037500Y-99475000D01*
X116787500Y-99475000D01*
X116774023Y-99474338D01*
X116760675Y-99472358D01*
X116747586Y-99469079D01*
X116734881Y-99464533D01*
X116722683Y-99458764D01*
X116711109Y-99451827D01*
X116700271Y-99443789D01*
X116690273Y-99434727D01*
X116681211Y-99424729D01*
X116673173Y-99413891D01*
X116666236Y-99402317D01*
X116660467Y-99390119D01*
X116655921Y-99377414D01*
X116652642Y-99364325D01*
X116650662Y-99350977D01*
X116650000Y-99337500D01*
X116650000Y-99062500D01*
X116650662Y-99049023D01*
X116652642Y-99035675D01*
X116655921Y-99022586D01*
X116660467Y-99009881D01*
X116666236Y-98997683D01*
X116673173Y-98986109D01*
X116681211Y-98975271D01*
X116690273Y-98965273D01*
X116700271Y-98956211D01*
X116711109Y-98948173D01*
X116722683Y-98941236D01*
X116734881Y-98935467D01*
X116747586Y-98930921D01*
X116760675Y-98927642D01*
X116774023Y-98925662D01*
X116787500Y-98925000D01*
X118037500Y-98925000D01*
X118050977Y-98925662D01*
G37*
G36*
X118050977Y-98125662D02*
G01*
X118064325Y-98127642D01*
X118077414Y-98130921D01*
X118090119Y-98135467D01*
X118102317Y-98141236D01*
X118113891Y-98148173D01*
X118124729Y-98156211D01*
X118134727Y-98165273D01*
X118143789Y-98175271D01*
X118151827Y-98186109D01*
X118158764Y-98197683D01*
X118164533Y-98209881D01*
X118169079Y-98222586D01*
X118172358Y-98235675D01*
X118174338Y-98249023D01*
X118175000Y-98262500D01*
X118175000Y-98537500D01*
X118174338Y-98550977D01*
X118172358Y-98564325D01*
X118169079Y-98577414D01*
X118164533Y-98590119D01*
X118158764Y-98602317D01*
X118151827Y-98613891D01*
X118143789Y-98624729D01*
X118134727Y-98634727D01*
X118124729Y-98643789D01*
X118113891Y-98651827D01*
X118102317Y-98658764D01*
X118090119Y-98664533D01*
X118077414Y-98669079D01*
X118064325Y-98672358D01*
X118050977Y-98674338D01*
X118037500Y-98675000D01*
X116787500Y-98675000D01*
X116774023Y-98674338D01*
X116760675Y-98672358D01*
X116747586Y-98669079D01*
X116734881Y-98664533D01*
X116722683Y-98658764D01*
X116711109Y-98651827D01*
X116700271Y-98643789D01*
X116690273Y-98634727D01*
X116681211Y-98624729D01*
X116673173Y-98613891D01*
X116666236Y-98602317D01*
X116660467Y-98590119D01*
X116655921Y-98577414D01*
X116652642Y-98564325D01*
X116650662Y-98550977D01*
X116650000Y-98537500D01*
X116650000Y-98262500D01*
X116650662Y-98249023D01*
X116652642Y-98235675D01*
X116655921Y-98222586D01*
X116660467Y-98209881D01*
X116666236Y-98197683D01*
X116673173Y-98186109D01*
X116681211Y-98175271D01*
X116690273Y-98165273D01*
X116700271Y-98156211D01*
X116711109Y-98148173D01*
X116722683Y-98141236D01*
X116734881Y-98135467D01*
X116747586Y-98130921D01*
X116760675Y-98127642D01*
X116774023Y-98125662D01*
X116787500Y-98125000D01*
X118037500Y-98125000D01*
X118050977Y-98125662D01*
G37*
G36*
X118050977Y-97325662D02*
G01*
X118064325Y-97327642D01*
X118077414Y-97330921D01*
X118090119Y-97335467D01*
X118102317Y-97341236D01*
X118113891Y-97348173D01*
X118124729Y-97356211D01*
X118134727Y-97365273D01*
X118143789Y-97375271D01*
X118151827Y-97386109D01*
X118158764Y-97397683D01*
X118164533Y-97409881D01*
X118169079Y-97422586D01*
X118172358Y-97435675D01*
X118174338Y-97449023D01*
X118175000Y-97462500D01*
X118175000Y-97737500D01*
X118174338Y-97750977D01*
X118172358Y-97764325D01*
X118169079Y-97777414D01*
X118164533Y-97790119D01*
X118158764Y-97802317D01*
X118151827Y-97813891D01*
X118143789Y-97824729D01*
X118134727Y-97834727D01*
X118124729Y-97843789D01*
X118113891Y-97851827D01*
X118102317Y-97858764D01*
X118090119Y-97864533D01*
X118077414Y-97869079D01*
X118064325Y-97872358D01*
X118050977Y-97874338D01*
X118037500Y-97875000D01*
X116787500Y-97875000D01*
X116774023Y-97874338D01*
X116760675Y-97872358D01*
X116747586Y-97869079D01*
X116734881Y-97864533D01*
X116722683Y-97858764D01*
X116711109Y-97851827D01*
X116700271Y-97843789D01*
X116690273Y-97834727D01*
X116681211Y-97824729D01*
X116673173Y-97813891D01*
X116666236Y-97802317D01*
X116660467Y-97790119D01*
X116655921Y-97777414D01*
X116652642Y-97764325D01*
X116650662Y-97750977D01*
X116650000Y-97737500D01*
X116650000Y-97462500D01*
X116650662Y-97449023D01*
X116652642Y-97435675D01*
X116655921Y-97422586D01*
X116660467Y-97409881D01*
X116666236Y-97397683D01*
X116673173Y-97386109D01*
X116681211Y-97375271D01*
X116690273Y-97365273D01*
X116700271Y-97356211D01*
X116711109Y-97348173D01*
X116722683Y-97341236D01*
X116734881Y-97335467D01*
X116747586Y-97330921D01*
X116760675Y-97327642D01*
X116774023Y-97325662D01*
X116787500Y-97325000D01*
X118037500Y-97325000D01*
X118050977Y-97325662D01*
G37*
G36*
X118050977Y-96525662D02*
G01*
X118064325Y-96527642D01*
X118077414Y-96530921D01*
X118090119Y-96535467D01*
X118102317Y-96541236D01*
X118113891Y-96548173D01*
X118124729Y-96556211D01*
X118134727Y-96565273D01*
X118143789Y-96575271D01*
X118151827Y-96586109D01*
X118158764Y-96597683D01*
X118164533Y-96609881D01*
X118169079Y-96622586D01*
X118172358Y-96635675D01*
X118174338Y-96649023D01*
X118175000Y-96662500D01*
X118175000Y-96937500D01*
X118174338Y-96950977D01*
X118172358Y-96964325D01*
X118169079Y-96977414D01*
X118164533Y-96990119D01*
X118158764Y-97002317D01*
X118151827Y-97013891D01*
X118143789Y-97024729D01*
X118134727Y-97034727D01*
X118124729Y-97043789D01*
X118113891Y-97051827D01*
X118102317Y-97058764D01*
X118090119Y-97064533D01*
X118077414Y-97069079D01*
X118064325Y-97072358D01*
X118050977Y-97074338D01*
X118037500Y-97075000D01*
X116787500Y-97075000D01*
X116774023Y-97074338D01*
X116760675Y-97072358D01*
X116747586Y-97069079D01*
X116734881Y-97064533D01*
X116722683Y-97058764D01*
X116711109Y-97051827D01*
X116700271Y-97043789D01*
X116690273Y-97034727D01*
X116681211Y-97024729D01*
X116673173Y-97013891D01*
X116666236Y-97002317D01*
X116660467Y-96990119D01*
X116655921Y-96977414D01*
X116652642Y-96964325D01*
X116650662Y-96950977D01*
X116650000Y-96937500D01*
X116650000Y-96662500D01*
X116650662Y-96649023D01*
X116652642Y-96635675D01*
X116655921Y-96622586D01*
X116660467Y-96609881D01*
X116666236Y-96597683D01*
X116673173Y-96586109D01*
X116681211Y-96575271D01*
X116690273Y-96565273D01*
X116700271Y-96556211D01*
X116711109Y-96548173D01*
X116722683Y-96541236D01*
X116734881Y-96535467D01*
X116747586Y-96530921D01*
X116760675Y-96527642D01*
X116774023Y-96525662D01*
X116787500Y-96525000D01*
X118037500Y-96525000D01*
X118050977Y-96525662D01*
G37*
G36*
X118050977Y-95725662D02*
G01*
X118064325Y-95727642D01*
X118077414Y-95730921D01*
X118090119Y-95735467D01*
X118102317Y-95741236D01*
X118113891Y-95748173D01*
X118124729Y-95756211D01*
X118134727Y-95765273D01*
X118143789Y-95775271D01*
X118151827Y-95786109D01*
X118158764Y-95797683D01*
X118164533Y-95809881D01*
X118169079Y-95822586D01*
X118172358Y-95835675D01*
X118174338Y-95849023D01*
X118175000Y-95862500D01*
X118175000Y-96137500D01*
X118174338Y-96150977D01*
X118172358Y-96164325D01*
X118169079Y-96177414D01*
X118164533Y-96190119D01*
X118158764Y-96202317D01*
X118151827Y-96213891D01*
X118143789Y-96224729D01*
X118134727Y-96234727D01*
X118124729Y-96243789D01*
X118113891Y-96251827D01*
X118102317Y-96258764D01*
X118090119Y-96264533D01*
X118077414Y-96269079D01*
X118064325Y-96272358D01*
X118050977Y-96274338D01*
X118037500Y-96275000D01*
X116787500Y-96275000D01*
X116774023Y-96274338D01*
X116760675Y-96272358D01*
X116747586Y-96269079D01*
X116734881Y-96264533D01*
X116722683Y-96258764D01*
X116711109Y-96251827D01*
X116700271Y-96243789D01*
X116690273Y-96234727D01*
X116681211Y-96224729D01*
X116673173Y-96213891D01*
X116666236Y-96202317D01*
X116660467Y-96190119D01*
X116655921Y-96177414D01*
X116652642Y-96164325D01*
X116650662Y-96150977D01*
X116650000Y-96137500D01*
X116650000Y-95862500D01*
X116650662Y-95849023D01*
X116652642Y-95835675D01*
X116655921Y-95822586D01*
X116660467Y-95809881D01*
X116666236Y-95797683D01*
X116673173Y-95786109D01*
X116681211Y-95775271D01*
X116690273Y-95765273D01*
X116700271Y-95756211D01*
X116711109Y-95748173D01*
X116722683Y-95741236D01*
X116734881Y-95735467D01*
X116747586Y-95730921D01*
X116760675Y-95727642D01*
X116774023Y-95725662D01*
X116787500Y-95725000D01*
X118037500Y-95725000D01*
X118050977Y-95725662D01*
G37*
G36*
X118050977Y-94925662D02*
G01*
X118064325Y-94927642D01*
X118077414Y-94930921D01*
X118090119Y-94935467D01*
X118102317Y-94941236D01*
X118113891Y-94948173D01*
X118124729Y-94956211D01*
X118134727Y-94965273D01*
X118143789Y-94975271D01*
X118151827Y-94986109D01*
X118158764Y-94997683D01*
X118164533Y-95009881D01*
X118169079Y-95022586D01*
X118172358Y-95035675D01*
X118174338Y-95049023D01*
X118175000Y-95062500D01*
X118175000Y-95337500D01*
X118174338Y-95350977D01*
X118172358Y-95364325D01*
X118169079Y-95377414D01*
X118164533Y-95390119D01*
X118158764Y-95402317D01*
X118151827Y-95413891D01*
X118143789Y-95424729D01*
X118134727Y-95434727D01*
X118124729Y-95443789D01*
X118113891Y-95451827D01*
X118102317Y-95458764D01*
X118090119Y-95464533D01*
X118077414Y-95469079D01*
X118064325Y-95472358D01*
X118050977Y-95474338D01*
X118037500Y-95475000D01*
X116787500Y-95475000D01*
X116774023Y-95474338D01*
X116760675Y-95472358D01*
X116747586Y-95469079D01*
X116734881Y-95464533D01*
X116722683Y-95458764D01*
X116711109Y-95451827D01*
X116700271Y-95443789D01*
X116690273Y-95434727D01*
X116681211Y-95424729D01*
X116673173Y-95413891D01*
X116666236Y-95402317D01*
X116660467Y-95390119D01*
X116655921Y-95377414D01*
X116652642Y-95364325D01*
X116650662Y-95350977D01*
X116650000Y-95337500D01*
X116650000Y-95062500D01*
X116650662Y-95049023D01*
X116652642Y-95035675D01*
X116655921Y-95022586D01*
X116660467Y-95009881D01*
X116666236Y-94997683D01*
X116673173Y-94986109D01*
X116681211Y-94975271D01*
X116690273Y-94965273D01*
X116700271Y-94956211D01*
X116711109Y-94948173D01*
X116722683Y-94941236D01*
X116734881Y-94935467D01*
X116747586Y-94930921D01*
X116760675Y-94927642D01*
X116774023Y-94925662D01*
X116787500Y-94925000D01*
X118037500Y-94925000D01*
X118050977Y-94925662D01*
G37*
G36*
X118050977Y-94125662D02*
G01*
X118064325Y-94127642D01*
X118077414Y-94130921D01*
X118090119Y-94135467D01*
X118102317Y-94141236D01*
X118113891Y-94148173D01*
X118124729Y-94156211D01*
X118134727Y-94165273D01*
X118143789Y-94175271D01*
X118151827Y-94186109D01*
X118158764Y-94197683D01*
X118164533Y-94209881D01*
X118169079Y-94222586D01*
X118172358Y-94235675D01*
X118174338Y-94249023D01*
X118175000Y-94262500D01*
X118175000Y-94537500D01*
X118174338Y-94550977D01*
X118172358Y-94564325D01*
X118169079Y-94577414D01*
X118164533Y-94590119D01*
X118158764Y-94602317D01*
X118151827Y-94613891D01*
X118143789Y-94624729D01*
X118134727Y-94634727D01*
X118124729Y-94643789D01*
X118113891Y-94651827D01*
X118102317Y-94658764D01*
X118090119Y-94664533D01*
X118077414Y-94669079D01*
X118064325Y-94672358D01*
X118050977Y-94674338D01*
X118037500Y-94675000D01*
X116787500Y-94675000D01*
X116774023Y-94674338D01*
X116760675Y-94672358D01*
X116747586Y-94669079D01*
X116734881Y-94664533D01*
X116722683Y-94658764D01*
X116711109Y-94651827D01*
X116700271Y-94643789D01*
X116690273Y-94634727D01*
X116681211Y-94624729D01*
X116673173Y-94613891D01*
X116666236Y-94602317D01*
X116660467Y-94590119D01*
X116655921Y-94577414D01*
X116652642Y-94564325D01*
X116650662Y-94550977D01*
X116650000Y-94537500D01*
X116650000Y-94262500D01*
X116650662Y-94249023D01*
X116652642Y-94235675D01*
X116655921Y-94222586D01*
X116660467Y-94209881D01*
X116666236Y-94197683D01*
X116673173Y-94186109D01*
X116681211Y-94175271D01*
X116690273Y-94165273D01*
X116700271Y-94156211D01*
X116711109Y-94148173D01*
X116722683Y-94141236D01*
X116734881Y-94135467D01*
X116747586Y-94130921D01*
X116760675Y-94127642D01*
X116774023Y-94125662D01*
X116787500Y-94125000D01*
X118037500Y-94125000D01*
X118050977Y-94125662D01*
G37*
G36*
X118050977Y-93325662D02*
G01*
X118064325Y-93327642D01*
X118077414Y-93330921D01*
X118090119Y-93335467D01*
X118102317Y-93341236D01*
X118113891Y-93348173D01*
X118124729Y-93356211D01*
X118134727Y-93365273D01*
X118143789Y-93375271D01*
X118151827Y-93386109D01*
X118158764Y-93397683D01*
X118164533Y-93409881D01*
X118169079Y-93422586D01*
X118172358Y-93435675D01*
X118174338Y-93449023D01*
X118175000Y-93462500D01*
X118175000Y-93737500D01*
X118174338Y-93750977D01*
X118172358Y-93764325D01*
X118169079Y-93777414D01*
X118164533Y-93790119D01*
X118158764Y-93802317D01*
X118151827Y-93813891D01*
X118143789Y-93824729D01*
X118134727Y-93834727D01*
X118124729Y-93843789D01*
X118113891Y-93851827D01*
X118102317Y-93858764D01*
X118090119Y-93864533D01*
X118077414Y-93869079D01*
X118064325Y-93872358D01*
X118050977Y-93874338D01*
X118037500Y-93875000D01*
X116787500Y-93875000D01*
X116774023Y-93874338D01*
X116760675Y-93872358D01*
X116747586Y-93869079D01*
X116734881Y-93864533D01*
X116722683Y-93858764D01*
X116711109Y-93851827D01*
X116700271Y-93843789D01*
X116690273Y-93834727D01*
X116681211Y-93824729D01*
X116673173Y-93813891D01*
X116666236Y-93802317D01*
X116660467Y-93790119D01*
X116655921Y-93777414D01*
X116652642Y-93764325D01*
X116650662Y-93750977D01*
X116650000Y-93737500D01*
X116650000Y-93462500D01*
X116650662Y-93449023D01*
X116652642Y-93435675D01*
X116655921Y-93422586D01*
X116660467Y-93409881D01*
X116666236Y-93397683D01*
X116673173Y-93386109D01*
X116681211Y-93375271D01*
X116690273Y-93365273D01*
X116700271Y-93356211D01*
X116711109Y-93348173D01*
X116722683Y-93341236D01*
X116734881Y-93335467D01*
X116747586Y-93330921D01*
X116760675Y-93327642D01*
X116774023Y-93325662D01*
X116787500Y-93325000D01*
X118037500Y-93325000D01*
X118050977Y-93325662D01*
G37*
G36*
X118050977Y-92525662D02*
G01*
X118064325Y-92527642D01*
X118077414Y-92530921D01*
X118090119Y-92535467D01*
X118102317Y-92541236D01*
X118113891Y-92548173D01*
X118124729Y-92556211D01*
X118134727Y-92565273D01*
X118143789Y-92575271D01*
X118151827Y-92586109D01*
X118158764Y-92597683D01*
X118164533Y-92609881D01*
X118169079Y-92622586D01*
X118172358Y-92635675D01*
X118174338Y-92649023D01*
X118175000Y-92662500D01*
X118175000Y-92937500D01*
X118174338Y-92950977D01*
X118172358Y-92964325D01*
X118169079Y-92977414D01*
X118164533Y-92990119D01*
X118158764Y-93002317D01*
X118151827Y-93013891D01*
X118143789Y-93024729D01*
X118134727Y-93034727D01*
X118124729Y-93043789D01*
X118113891Y-93051827D01*
X118102317Y-93058764D01*
X118090119Y-93064533D01*
X118077414Y-93069079D01*
X118064325Y-93072358D01*
X118050977Y-93074338D01*
X118037500Y-93075000D01*
X116787500Y-93075000D01*
X116774023Y-93074338D01*
X116760675Y-93072358D01*
X116747586Y-93069079D01*
X116734881Y-93064533D01*
X116722683Y-93058764D01*
X116711109Y-93051827D01*
X116700271Y-93043789D01*
X116690273Y-93034727D01*
X116681211Y-93024729D01*
X116673173Y-93013891D01*
X116666236Y-93002317D01*
X116660467Y-92990119D01*
X116655921Y-92977414D01*
X116652642Y-92964325D01*
X116650662Y-92950977D01*
X116650000Y-92937500D01*
X116650000Y-92662500D01*
X116650662Y-92649023D01*
X116652642Y-92635675D01*
X116655921Y-92622586D01*
X116660467Y-92609881D01*
X116666236Y-92597683D01*
X116673173Y-92586109D01*
X116681211Y-92575271D01*
X116690273Y-92565273D01*
X116700271Y-92556211D01*
X116711109Y-92548173D01*
X116722683Y-92541236D01*
X116734881Y-92535467D01*
X116747586Y-92530921D01*
X116760675Y-92527642D01*
X116774023Y-92525662D01*
X116787500Y-92525000D01*
X118037500Y-92525000D01*
X118050977Y-92525662D01*
G37*
G36*
X118050977Y-91725662D02*
G01*
X118064325Y-91727642D01*
X118077414Y-91730921D01*
X118090119Y-91735467D01*
X118102317Y-91741236D01*
X118113891Y-91748173D01*
X118124729Y-91756211D01*
X118134727Y-91765273D01*
X118143789Y-91775271D01*
X118151827Y-91786109D01*
X118158764Y-91797683D01*
X118164533Y-91809881D01*
X118169079Y-91822586D01*
X118172358Y-91835675D01*
X118174338Y-91849023D01*
X118175000Y-91862500D01*
X118175000Y-92137500D01*
X118174338Y-92150977D01*
X118172358Y-92164325D01*
X118169079Y-92177414D01*
X118164533Y-92190119D01*
X118158764Y-92202317D01*
X118151827Y-92213891D01*
X118143789Y-92224729D01*
X118134727Y-92234727D01*
X118124729Y-92243789D01*
X118113891Y-92251827D01*
X118102317Y-92258764D01*
X118090119Y-92264533D01*
X118077414Y-92269079D01*
X118064325Y-92272358D01*
X118050977Y-92274338D01*
X118037500Y-92275000D01*
X116787500Y-92275000D01*
X116774023Y-92274338D01*
X116760675Y-92272358D01*
X116747586Y-92269079D01*
X116734881Y-92264533D01*
X116722683Y-92258764D01*
X116711109Y-92251827D01*
X116700271Y-92243789D01*
X116690273Y-92234727D01*
X116681211Y-92224729D01*
X116673173Y-92213891D01*
X116666236Y-92202317D01*
X116660467Y-92190119D01*
X116655921Y-92177414D01*
X116652642Y-92164325D01*
X116650662Y-92150977D01*
X116650000Y-92137500D01*
X116650000Y-91862500D01*
X116650662Y-91849023D01*
X116652642Y-91835675D01*
X116655921Y-91822586D01*
X116660467Y-91809881D01*
X116666236Y-91797683D01*
X116673173Y-91786109D01*
X116681211Y-91775271D01*
X116690273Y-91765273D01*
X116700271Y-91756211D01*
X116711109Y-91748173D01*
X116722683Y-91741236D01*
X116734881Y-91735467D01*
X116747586Y-91730921D01*
X116760675Y-91727642D01*
X116774023Y-91725662D01*
X116787500Y-91725000D01*
X118037500Y-91725000D01*
X118050977Y-91725662D01*
G37*
G36*
X118050977Y-90925662D02*
G01*
X118064325Y-90927642D01*
X118077414Y-90930921D01*
X118090119Y-90935467D01*
X118102317Y-90941236D01*
X118113891Y-90948173D01*
X118124729Y-90956211D01*
X118134727Y-90965273D01*
X118143789Y-90975271D01*
X118151827Y-90986109D01*
X118158764Y-90997683D01*
X118164533Y-91009881D01*
X118169079Y-91022586D01*
X118172358Y-91035675D01*
X118174338Y-91049023D01*
X118175000Y-91062500D01*
X118175000Y-91337500D01*
X118174338Y-91350977D01*
X118172358Y-91364325D01*
X118169079Y-91377414D01*
X118164533Y-91390119D01*
X118158764Y-91402317D01*
X118151827Y-91413891D01*
X118143789Y-91424729D01*
X118134727Y-91434727D01*
X118124729Y-91443789D01*
X118113891Y-91451827D01*
X118102317Y-91458764D01*
X118090119Y-91464533D01*
X118077414Y-91469079D01*
X118064325Y-91472358D01*
X118050977Y-91474338D01*
X118037500Y-91475000D01*
X116787500Y-91475000D01*
X116774023Y-91474338D01*
X116760675Y-91472358D01*
X116747586Y-91469079D01*
X116734881Y-91464533D01*
X116722683Y-91458764D01*
X116711109Y-91451827D01*
X116700271Y-91443789D01*
X116690273Y-91434727D01*
X116681211Y-91424729D01*
X116673173Y-91413891D01*
X116666236Y-91402317D01*
X116660467Y-91390119D01*
X116655921Y-91377414D01*
X116652642Y-91364325D01*
X116650662Y-91350977D01*
X116650000Y-91337500D01*
X116650000Y-91062500D01*
X116650662Y-91049023D01*
X116652642Y-91035675D01*
X116655921Y-91022586D01*
X116660467Y-91009881D01*
X116666236Y-90997683D01*
X116673173Y-90986109D01*
X116681211Y-90975271D01*
X116690273Y-90965273D01*
X116700271Y-90956211D01*
X116711109Y-90948173D01*
X116722683Y-90941236D01*
X116734881Y-90935467D01*
X116747586Y-90930921D01*
X116760675Y-90927642D01*
X116774023Y-90925662D01*
X116787500Y-90925000D01*
X118037500Y-90925000D01*
X118050977Y-90925662D01*
G37*
G36*
X118050977Y-90125662D02*
G01*
X118064325Y-90127642D01*
X118077414Y-90130921D01*
X118090119Y-90135467D01*
X118102317Y-90141236D01*
X118113891Y-90148173D01*
X118124729Y-90156211D01*
X118134727Y-90165273D01*
X118143789Y-90175271D01*
X118151827Y-90186109D01*
X118158764Y-90197683D01*
X118164533Y-90209881D01*
X118169079Y-90222586D01*
X118172358Y-90235675D01*
X118174338Y-90249023D01*
X118175000Y-90262500D01*
X118175000Y-90537500D01*
X118174338Y-90550977D01*
X118172358Y-90564325D01*
X118169079Y-90577414D01*
X118164533Y-90590119D01*
X118158764Y-90602317D01*
X118151827Y-90613891D01*
X118143789Y-90624729D01*
X118134727Y-90634727D01*
X118124729Y-90643789D01*
X118113891Y-90651827D01*
X118102317Y-90658764D01*
X118090119Y-90664533D01*
X118077414Y-90669079D01*
X118064325Y-90672358D01*
X118050977Y-90674338D01*
X118037500Y-90675000D01*
X116787500Y-90675000D01*
X116774023Y-90674338D01*
X116760675Y-90672358D01*
X116747586Y-90669079D01*
X116734881Y-90664533D01*
X116722683Y-90658764D01*
X116711109Y-90651827D01*
X116700271Y-90643789D01*
X116690273Y-90634727D01*
X116681211Y-90624729D01*
X116673173Y-90613891D01*
X116666236Y-90602317D01*
X116660467Y-90590119D01*
X116655921Y-90577414D01*
X116652642Y-90564325D01*
X116650662Y-90550977D01*
X116650000Y-90537500D01*
X116650000Y-90262500D01*
X116650662Y-90249023D01*
X116652642Y-90235675D01*
X116655921Y-90222586D01*
X116660467Y-90209881D01*
X116666236Y-90197683D01*
X116673173Y-90186109D01*
X116681211Y-90175271D01*
X116690273Y-90165273D01*
X116700271Y-90156211D01*
X116711109Y-90148173D01*
X116722683Y-90141236D01*
X116734881Y-90135467D01*
X116747586Y-90130921D01*
X116760675Y-90127642D01*
X116774023Y-90125662D01*
X116787500Y-90125000D01*
X118037500Y-90125000D01*
X118050977Y-90125662D01*
G37*
G36*
X118050977Y-89325662D02*
G01*
X118064325Y-89327642D01*
X118077414Y-89330921D01*
X118090119Y-89335467D01*
X118102317Y-89341236D01*
X118113891Y-89348173D01*
X118124729Y-89356211D01*
X118134727Y-89365273D01*
X118143789Y-89375271D01*
X118151827Y-89386109D01*
X118158764Y-89397683D01*
X118164533Y-89409881D01*
X118169079Y-89422586D01*
X118172358Y-89435675D01*
X118174338Y-89449023D01*
X118175000Y-89462500D01*
X118175000Y-89737500D01*
X118174338Y-89750977D01*
X118172358Y-89764325D01*
X118169079Y-89777414D01*
X118164533Y-89790119D01*
X118158764Y-89802317D01*
X118151827Y-89813891D01*
X118143789Y-89824729D01*
X118134727Y-89834727D01*
X118124729Y-89843789D01*
X118113891Y-89851827D01*
X118102317Y-89858764D01*
X118090119Y-89864533D01*
X118077414Y-89869079D01*
X118064325Y-89872358D01*
X118050977Y-89874338D01*
X118037500Y-89875000D01*
X116787500Y-89875000D01*
X116774023Y-89874338D01*
X116760675Y-89872358D01*
X116747586Y-89869079D01*
X116734881Y-89864533D01*
X116722683Y-89858764D01*
X116711109Y-89851827D01*
X116700271Y-89843789D01*
X116690273Y-89834727D01*
X116681211Y-89824729D01*
X116673173Y-89813891D01*
X116666236Y-89802317D01*
X116660467Y-89790119D01*
X116655921Y-89777414D01*
X116652642Y-89764325D01*
X116650662Y-89750977D01*
X116650000Y-89737500D01*
X116650000Y-89462500D01*
X116650662Y-89449023D01*
X116652642Y-89435675D01*
X116655921Y-89422586D01*
X116660467Y-89409881D01*
X116666236Y-89397683D01*
X116673173Y-89386109D01*
X116681211Y-89375271D01*
X116690273Y-89365273D01*
X116700271Y-89356211D01*
X116711109Y-89348173D01*
X116722683Y-89341236D01*
X116734881Y-89335467D01*
X116747586Y-89330921D01*
X116760675Y-89327642D01*
X116774023Y-89325662D01*
X116787500Y-89325000D01*
X118037500Y-89325000D01*
X118050977Y-89325662D01*
G37*
M02*
