%TF.GenerationSoftware,KiCad,Pcbnew,5.1.5+dfsg1-2build2*%
%TF.CreationDate,2023-06-17T11:27:21-05:00*%
%TF.ProjectId,2067-Z8S180,32303637-2d5a-4385-9331-38302e6b6963,rev?*%
%TF.SameCoordinates,Original*%
%TF.FileFunction,Soldermask,Top*%
%TF.FilePolarity,Negative*%
%FSLAX46Y46*%
G04 Gerber Fmt 4.6, Leading zero omitted, Abs format (unit mm)*
G04 Created by KiCad (PCBNEW 5.1.5+dfsg1-2build2) date 2023-06-17 11:27:21*
%MOMM*%
%LPD*%
G04 APERTURE LIST*
%ADD10C,0.100000*%
G04 APERTURE END LIST*
D10*
G36*
X94653512Y-114763927D02*
G01*
X94802812Y-114793624D01*
X94966784Y-114861544D01*
X95114354Y-114960147D01*
X95239853Y-115085646D01*
X95338456Y-115233216D01*
X95406376Y-115397188D01*
X95441000Y-115571259D01*
X95441000Y-115748741D01*
X95406376Y-115922812D01*
X95338456Y-116086784D01*
X95239853Y-116234354D01*
X95114354Y-116359853D01*
X94966784Y-116458456D01*
X94802812Y-116526376D01*
X94653512Y-116556073D01*
X94628742Y-116561000D01*
X94451258Y-116561000D01*
X94426488Y-116556073D01*
X94277188Y-116526376D01*
X94113216Y-116458456D01*
X93965646Y-116359853D01*
X93840147Y-116234354D01*
X93741544Y-116086784D01*
X93673624Y-115922812D01*
X93639000Y-115748741D01*
X93639000Y-115571259D01*
X93673624Y-115397188D01*
X93741544Y-115233216D01*
X93840147Y-115085646D01*
X93965646Y-114960147D01*
X94113216Y-114861544D01*
X94277188Y-114793624D01*
X94426488Y-114763927D01*
X94451258Y-114759000D01*
X94628742Y-114759000D01*
X94653512Y-114763927D01*
G37*
G36*
X92113512Y-114763927D02*
G01*
X92262812Y-114793624D01*
X92426784Y-114861544D01*
X92574354Y-114960147D01*
X92699853Y-115085646D01*
X92798456Y-115233216D01*
X92866376Y-115397188D01*
X92901000Y-115571259D01*
X92901000Y-115748741D01*
X92866376Y-115922812D01*
X92798456Y-116086784D01*
X92699853Y-116234354D01*
X92574354Y-116359853D01*
X92426784Y-116458456D01*
X92262812Y-116526376D01*
X92113512Y-116556073D01*
X92088742Y-116561000D01*
X91911258Y-116561000D01*
X91886488Y-116556073D01*
X91737188Y-116526376D01*
X91573216Y-116458456D01*
X91425646Y-116359853D01*
X91300147Y-116234354D01*
X91201544Y-116086784D01*
X91133624Y-115922812D01*
X91099000Y-115748741D01*
X91099000Y-115571259D01*
X91133624Y-115397188D01*
X91201544Y-115233216D01*
X91300147Y-115085646D01*
X91425646Y-114960147D01*
X91573216Y-114861544D01*
X91737188Y-114793624D01*
X91886488Y-114763927D01*
X91911258Y-114759000D01*
X92088742Y-114759000D01*
X92113512Y-114763927D01*
G37*
G36*
X94653512Y-112223927D02*
G01*
X94802812Y-112253624D01*
X94966784Y-112321544D01*
X95114354Y-112420147D01*
X95239853Y-112545646D01*
X95338456Y-112693216D01*
X95406376Y-112857188D01*
X95441000Y-113031259D01*
X95441000Y-113208741D01*
X95406376Y-113382812D01*
X95338456Y-113546784D01*
X95239853Y-113694354D01*
X95114354Y-113819853D01*
X94966784Y-113918456D01*
X94802812Y-113986376D01*
X94653512Y-114016073D01*
X94628742Y-114021000D01*
X94451258Y-114021000D01*
X94426488Y-114016073D01*
X94277188Y-113986376D01*
X94113216Y-113918456D01*
X93965646Y-113819853D01*
X93840147Y-113694354D01*
X93741544Y-113546784D01*
X93673624Y-113382812D01*
X93639000Y-113208741D01*
X93639000Y-113031259D01*
X93673624Y-112857188D01*
X93741544Y-112693216D01*
X93840147Y-112545646D01*
X93965646Y-112420147D01*
X94113216Y-112321544D01*
X94277188Y-112253624D01*
X94426488Y-112223927D01*
X94451258Y-112219000D01*
X94628742Y-112219000D01*
X94653512Y-112223927D01*
G37*
G36*
X92113512Y-112223927D02*
G01*
X92262812Y-112253624D01*
X92426784Y-112321544D01*
X92574354Y-112420147D01*
X92699853Y-112545646D01*
X92798456Y-112693216D01*
X92866376Y-112857188D01*
X92901000Y-113031259D01*
X92901000Y-113208741D01*
X92866376Y-113382812D01*
X92798456Y-113546784D01*
X92699853Y-113694354D01*
X92574354Y-113819853D01*
X92426784Y-113918456D01*
X92262812Y-113986376D01*
X92113512Y-114016073D01*
X92088742Y-114021000D01*
X91911258Y-114021000D01*
X91886488Y-114016073D01*
X91737188Y-113986376D01*
X91573216Y-113918456D01*
X91425646Y-113819853D01*
X91300147Y-113694354D01*
X91201544Y-113546784D01*
X91133624Y-113382812D01*
X91099000Y-113208741D01*
X91099000Y-113031259D01*
X91133624Y-112857188D01*
X91201544Y-112693216D01*
X91300147Y-112545646D01*
X91425646Y-112420147D01*
X91573216Y-112321544D01*
X91737188Y-112253624D01*
X91886488Y-112223927D01*
X91911258Y-112219000D01*
X92088742Y-112219000D01*
X92113512Y-112223927D01*
G37*
G36*
X92113512Y-109683927D02*
G01*
X92262812Y-109713624D01*
X92426784Y-109781544D01*
X92574354Y-109880147D01*
X92699853Y-110005646D01*
X92798456Y-110153216D01*
X92866376Y-110317188D01*
X92901000Y-110491259D01*
X92901000Y-110668741D01*
X92866376Y-110842812D01*
X92798456Y-111006784D01*
X92699853Y-111154354D01*
X92574354Y-111279853D01*
X92426784Y-111378456D01*
X92262812Y-111446376D01*
X92113512Y-111476073D01*
X92088742Y-111481000D01*
X91911258Y-111481000D01*
X91886488Y-111476073D01*
X91737188Y-111446376D01*
X91573216Y-111378456D01*
X91425646Y-111279853D01*
X91300147Y-111154354D01*
X91201544Y-111006784D01*
X91133624Y-110842812D01*
X91099000Y-110668741D01*
X91099000Y-110491259D01*
X91133624Y-110317188D01*
X91201544Y-110153216D01*
X91300147Y-110005646D01*
X91425646Y-109880147D01*
X91573216Y-109781544D01*
X91737188Y-109713624D01*
X91886488Y-109683927D01*
X91911258Y-109679000D01*
X92088742Y-109679000D01*
X92113512Y-109683927D01*
G37*
G36*
X94653512Y-109683927D02*
G01*
X94802812Y-109713624D01*
X94966784Y-109781544D01*
X95114354Y-109880147D01*
X95239853Y-110005646D01*
X95338456Y-110153216D01*
X95406376Y-110317188D01*
X95441000Y-110491259D01*
X95441000Y-110668741D01*
X95406376Y-110842812D01*
X95338456Y-111006784D01*
X95239853Y-111154354D01*
X95114354Y-111279853D01*
X94966784Y-111378456D01*
X94802812Y-111446376D01*
X94653512Y-111476073D01*
X94628742Y-111481000D01*
X94451258Y-111481000D01*
X94426488Y-111476073D01*
X94277188Y-111446376D01*
X94113216Y-111378456D01*
X93965646Y-111279853D01*
X93840147Y-111154354D01*
X93741544Y-111006784D01*
X93673624Y-110842812D01*
X93639000Y-110668741D01*
X93639000Y-110491259D01*
X93673624Y-110317188D01*
X93741544Y-110153216D01*
X93840147Y-110005646D01*
X93965646Y-109880147D01*
X94113216Y-109781544D01*
X94277188Y-109713624D01*
X94426488Y-109683927D01*
X94451258Y-109679000D01*
X94628742Y-109679000D01*
X94653512Y-109683927D01*
G37*
G36*
X94653512Y-107143927D02*
G01*
X94802812Y-107173624D01*
X94966784Y-107241544D01*
X95114354Y-107340147D01*
X95239853Y-107465646D01*
X95338456Y-107613216D01*
X95406376Y-107777188D01*
X95441000Y-107951259D01*
X95441000Y-108128741D01*
X95406376Y-108302812D01*
X95338456Y-108466784D01*
X95239853Y-108614354D01*
X95114354Y-108739853D01*
X94966784Y-108838456D01*
X94802812Y-108906376D01*
X94653512Y-108936073D01*
X94628742Y-108941000D01*
X94451258Y-108941000D01*
X94426488Y-108936073D01*
X94277188Y-108906376D01*
X94113216Y-108838456D01*
X93965646Y-108739853D01*
X93840147Y-108614354D01*
X93741544Y-108466784D01*
X93673624Y-108302812D01*
X93639000Y-108128741D01*
X93639000Y-107951259D01*
X93673624Y-107777188D01*
X93741544Y-107613216D01*
X93840147Y-107465646D01*
X93965646Y-107340147D01*
X94113216Y-107241544D01*
X94277188Y-107173624D01*
X94426488Y-107143927D01*
X94451258Y-107139000D01*
X94628742Y-107139000D01*
X94653512Y-107143927D01*
G37*
G36*
X92113512Y-107143927D02*
G01*
X92262812Y-107173624D01*
X92426784Y-107241544D01*
X92574354Y-107340147D01*
X92699853Y-107465646D01*
X92798456Y-107613216D01*
X92866376Y-107777188D01*
X92901000Y-107951259D01*
X92901000Y-108128741D01*
X92866376Y-108302812D01*
X92798456Y-108466784D01*
X92699853Y-108614354D01*
X92574354Y-108739853D01*
X92426784Y-108838456D01*
X92262812Y-108906376D01*
X92113512Y-108936073D01*
X92088742Y-108941000D01*
X91911258Y-108941000D01*
X91886488Y-108936073D01*
X91737188Y-108906376D01*
X91573216Y-108838456D01*
X91425646Y-108739853D01*
X91300147Y-108614354D01*
X91201544Y-108466784D01*
X91133624Y-108302812D01*
X91099000Y-108128741D01*
X91099000Y-107951259D01*
X91133624Y-107777188D01*
X91201544Y-107613216D01*
X91300147Y-107465646D01*
X91425646Y-107340147D01*
X91573216Y-107241544D01*
X91737188Y-107173624D01*
X91886488Y-107143927D01*
X91911258Y-107139000D01*
X92088742Y-107139000D01*
X92113512Y-107143927D01*
G37*
G36*
X118144987Y-89276524D02*
G01*
X118163730Y-89282210D01*
X118180997Y-89291439D01*
X118196136Y-89303864D01*
X118208561Y-89319003D01*
X118217790Y-89336270D01*
X118223476Y-89355013D01*
X118226000Y-89380640D01*
X118226000Y-89819360D01*
X118223476Y-89844987D01*
X118217790Y-89863730D01*
X118208561Y-89880997D01*
X118196135Y-89896138D01*
X118187317Y-89903375D01*
X118169990Y-89920702D01*
X118156377Y-89941076D01*
X118146999Y-89963715D01*
X118142219Y-89987748D01*
X118142219Y-90012252D01*
X118146999Y-90036285D01*
X118156377Y-90058924D01*
X118169991Y-90079299D01*
X118187317Y-90096625D01*
X118196135Y-90103862D01*
X118208561Y-90119003D01*
X118217790Y-90136270D01*
X118223476Y-90155013D01*
X118226000Y-90180640D01*
X118226000Y-90619360D01*
X118223476Y-90644987D01*
X118217790Y-90663730D01*
X118208561Y-90680997D01*
X118196135Y-90696138D01*
X118187317Y-90703375D01*
X118169990Y-90720702D01*
X118156377Y-90741076D01*
X118146999Y-90763715D01*
X118142219Y-90787748D01*
X118142219Y-90812252D01*
X118146999Y-90836285D01*
X118156377Y-90858924D01*
X118169991Y-90879299D01*
X118187317Y-90896625D01*
X118196135Y-90903862D01*
X118208561Y-90919003D01*
X118217790Y-90936270D01*
X118223476Y-90955013D01*
X118226000Y-90980640D01*
X118226000Y-91419360D01*
X118223476Y-91444987D01*
X118217790Y-91463730D01*
X118208561Y-91480997D01*
X118196135Y-91496138D01*
X118187317Y-91503375D01*
X118169990Y-91520702D01*
X118156377Y-91541076D01*
X118146999Y-91563715D01*
X118142219Y-91587748D01*
X118142219Y-91612252D01*
X118146999Y-91636285D01*
X118156377Y-91658924D01*
X118169991Y-91679299D01*
X118187317Y-91696625D01*
X118196135Y-91703862D01*
X118208561Y-91719003D01*
X118217790Y-91736270D01*
X118223476Y-91755013D01*
X118226000Y-91780640D01*
X118226000Y-92219360D01*
X118223476Y-92244987D01*
X118217790Y-92263730D01*
X118208561Y-92280997D01*
X118196135Y-92296138D01*
X118187317Y-92303375D01*
X118169990Y-92320702D01*
X118156377Y-92341076D01*
X118146999Y-92363715D01*
X118142219Y-92387748D01*
X118142219Y-92412252D01*
X118146999Y-92436285D01*
X118156377Y-92458924D01*
X118169991Y-92479299D01*
X118187317Y-92496625D01*
X118196135Y-92503862D01*
X118208561Y-92519003D01*
X118217790Y-92536270D01*
X118223476Y-92555013D01*
X118226000Y-92580640D01*
X118226000Y-93019360D01*
X118223476Y-93044987D01*
X118217790Y-93063730D01*
X118208561Y-93080997D01*
X118196135Y-93096138D01*
X118187317Y-93103375D01*
X118169990Y-93120702D01*
X118156377Y-93141076D01*
X118146999Y-93163715D01*
X118142219Y-93187748D01*
X118142219Y-93212252D01*
X118146999Y-93236285D01*
X118156377Y-93258924D01*
X118169991Y-93279299D01*
X118187317Y-93296625D01*
X118196135Y-93303862D01*
X118208561Y-93319003D01*
X118217790Y-93336270D01*
X118223476Y-93355013D01*
X118226000Y-93380640D01*
X118226000Y-93819360D01*
X118223476Y-93844987D01*
X118217790Y-93863730D01*
X118208561Y-93880997D01*
X118196135Y-93896138D01*
X118187317Y-93903375D01*
X118169990Y-93920702D01*
X118156377Y-93941076D01*
X118146999Y-93963715D01*
X118142219Y-93987748D01*
X118142219Y-94012252D01*
X118146999Y-94036285D01*
X118156377Y-94058924D01*
X118169991Y-94079299D01*
X118187317Y-94096625D01*
X118196135Y-94103862D01*
X118208561Y-94119003D01*
X118217790Y-94136270D01*
X118223476Y-94155013D01*
X118226000Y-94180640D01*
X118226000Y-94619360D01*
X118223476Y-94644987D01*
X118217790Y-94663730D01*
X118208561Y-94680997D01*
X118196135Y-94696138D01*
X118187317Y-94703375D01*
X118169990Y-94720702D01*
X118156377Y-94741076D01*
X118146999Y-94763715D01*
X118142219Y-94787748D01*
X118142219Y-94812252D01*
X118146999Y-94836285D01*
X118156377Y-94858924D01*
X118169991Y-94879299D01*
X118187317Y-94896625D01*
X118196135Y-94903862D01*
X118208561Y-94919003D01*
X118217790Y-94936270D01*
X118223476Y-94955013D01*
X118226000Y-94980640D01*
X118226000Y-95419360D01*
X118223476Y-95444987D01*
X118217790Y-95463730D01*
X118208561Y-95480997D01*
X118196135Y-95496138D01*
X118187317Y-95503375D01*
X118169990Y-95520702D01*
X118156377Y-95541076D01*
X118146999Y-95563715D01*
X118142219Y-95587748D01*
X118142219Y-95612252D01*
X118146999Y-95636285D01*
X118156377Y-95658924D01*
X118169991Y-95679299D01*
X118187317Y-95696625D01*
X118196135Y-95703862D01*
X118208561Y-95719003D01*
X118217790Y-95736270D01*
X118223476Y-95755013D01*
X118226000Y-95780640D01*
X118226000Y-96219360D01*
X118223476Y-96244987D01*
X118217790Y-96263730D01*
X118208561Y-96280997D01*
X118196135Y-96296138D01*
X118187317Y-96303375D01*
X118169990Y-96320702D01*
X118156377Y-96341076D01*
X118146999Y-96363715D01*
X118142219Y-96387748D01*
X118142219Y-96412252D01*
X118146999Y-96436285D01*
X118156377Y-96458924D01*
X118169991Y-96479299D01*
X118187317Y-96496625D01*
X118196135Y-96503862D01*
X118208561Y-96519003D01*
X118217790Y-96536270D01*
X118223476Y-96555013D01*
X118226000Y-96580640D01*
X118226000Y-97019360D01*
X118223476Y-97044987D01*
X118217790Y-97063730D01*
X118208561Y-97080997D01*
X118196135Y-97096138D01*
X118187317Y-97103375D01*
X118169990Y-97120702D01*
X118156377Y-97141076D01*
X118146999Y-97163715D01*
X118142219Y-97187748D01*
X118142219Y-97212252D01*
X118146999Y-97236285D01*
X118156377Y-97258924D01*
X118169991Y-97279299D01*
X118187317Y-97296625D01*
X118196135Y-97303862D01*
X118208561Y-97319003D01*
X118217790Y-97336270D01*
X118223476Y-97355013D01*
X118226000Y-97380640D01*
X118226000Y-97819360D01*
X118223476Y-97844987D01*
X118217790Y-97863730D01*
X118208561Y-97880997D01*
X118196135Y-97896138D01*
X118187317Y-97903375D01*
X118169990Y-97920702D01*
X118156377Y-97941076D01*
X118146999Y-97963715D01*
X118142219Y-97987748D01*
X118142219Y-98012252D01*
X118146999Y-98036285D01*
X118156377Y-98058924D01*
X118169991Y-98079299D01*
X118187317Y-98096625D01*
X118196135Y-98103862D01*
X118208561Y-98119003D01*
X118217790Y-98136270D01*
X118223476Y-98155013D01*
X118226000Y-98180640D01*
X118226000Y-98619360D01*
X118223476Y-98644987D01*
X118217790Y-98663730D01*
X118208561Y-98680997D01*
X118196135Y-98696138D01*
X118187317Y-98703375D01*
X118169990Y-98720702D01*
X118156377Y-98741076D01*
X118146999Y-98763715D01*
X118142219Y-98787748D01*
X118142219Y-98812252D01*
X118146999Y-98836285D01*
X118156377Y-98858924D01*
X118169991Y-98879299D01*
X118187317Y-98896625D01*
X118196135Y-98903862D01*
X118208561Y-98919003D01*
X118217790Y-98936270D01*
X118223476Y-98955013D01*
X118226000Y-98980640D01*
X118226000Y-99419360D01*
X118223476Y-99444987D01*
X118217790Y-99463730D01*
X118208561Y-99480997D01*
X118196135Y-99496138D01*
X118187317Y-99503375D01*
X118169990Y-99520702D01*
X118156377Y-99541076D01*
X118146999Y-99563715D01*
X118142219Y-99587748D01*
X118142219Y-99612252D01*
X118146999Y-99636285D01*
X118156377Y-99658924D01*
X118169991Y-99679299D01*
X118187317Y-99696625D01*
X118196135Y-99703862D01*
X118208561Y-99719003D01*
X118217790Y-99736270D01*
X118223476Y-99755013D01*
X118226000Y-99780640D01*
X118226000Y-100219360D01*
X118223476Y-100244987D01*
X118217790Y-100263730D01*
X118208561Y-100280997D01*
X118196135Y-100296138D01*
X118187317Y-100303375D01*
X118169990Y-100320702D01*
X118156377Y-100341076D01*
X118146999Y-100363715D01*
X118142219Y-100387748D01*
X118142219Y-100412252D01*
X118146999Y-100436285D01*
X118156377Y-100458924D01*
X118169991Y-100479299D01*
X118187317Y-100496625D01*
X118196135Y-100503862D01*
X118208561Y-100519003D01*
X118217790Y-100536270D01*
X118223476Y-100555013D01*
X118226000Y-100580640D01*
X118226000Y-101019360D01*
X118223476Y-101044987D01*
X118217790Y-101063730D01*
X118208561Y-101080997D01*
X118196135Y-101096138D01*
X118187317Y-101103375D01*
X118169990Y-101120702D01*
X118156377Y-101141076D01*
X118146999Y-101163715D01*
X118142219Y-101187748D01*
X118142219Y-101212252D01*
X118146999Y-101236285D01*
X118156377Y-101258924D01*
X118169991Y-101279299D01*
X118187317Y-101296625D01*
X118196135Y-101303862D01*
X118208561Y-101319003D01*
X118217790Y-101336270D01*
X118223476Y-101355013D01*
X118226000Y-101380640D01*
X118226000Y-101819360D01*
X118223476Y-101844987D01*
X118217790Y-101863730D01*
X118208561Y-101880997D01*
X118196135Y-101896138D01*
X118187317Y-101903375D01*
X118169990Y-101920702D01*
X118156377Y-101941076D01*
X118146999Y-101963715D01*
X118142219Y-101987748D01*
X118142219Y-102012252D01*
X118146999Y-102036285D01*
X118156377Y-102058924D01*
X118169991Y-102079299D01*
X118187317Y-102096625D01*
X118196135Y-102103862D01*
X118208561Y-102119003D01*
X118217790Y-102136270D01*
X118223476Y-102155013D01*
X118226000Y-102180640D01*
X118226000Y-102619360D01*
X118223476Y-102644987D01*
X118217790Y-102663730D01*
X118208561Y-102680997D01*
X118196135Y-102696138D01*
X118187317Y-102703375D01*
X118169990Y-102720702D01*
X118156377Y-102741076D01*
X118146999Y-102763715D01*
X118142219Y-102787748D01*
X118142219Y-102812252D01*
X118146999Y-102836285D01*
X118156377Y-102858924D01*
X118169991Y-102879299D01*
X118187317Y-102896625D01*
X118196135Y-102903862D01*
X118208561Y-102919003D01*
X118217790Y-102936270D01*
X118223476Y-102955013D01*
X118226000Y-102980640D01*
X118226000Y-103419360D01*
X118223476Y-103444987D01*
X118217790Y-103463730D01*
X118208561Y-103480997D01*
X118196135Y-103496138D01*
X118187317Y-103503375D01*
X118169990Y-103520702D01*
X118156377Y-103541076D01*
X118146999Y-103563715D01*
X118142219Y-103587748D01*
X118142219Y-103612252D01*
X118146999Y-103636285D01*
X118156377Y-103658924D01*
X118169991Y-103679299D01*
X118187317Y-103696625D01*
X118196135Y-103703862D01*
X118208561Y-103719003D01*
X118217790Y-103736270D01*
X118223476Y-103755013D01*
X118226000Y-103780640D01*
X118226000Y-104219360D01*
X118223476Y-104244987D01*
X118217790Y-104263730D01*
X118208561Y-104280997D01*
X118196135Y-104296138D01*
X118187317Y-104303375D01*
X118169990Y-104320702D01*
X118156377Y-104341076D01*
X118146999Y-104363715D01*
X118142219Y-104387748D01*
X118142219Y-104412252D01*
X118146999Y-104436285D01*
X118156377Y-104458924D01*
X118169991Y-104479299D01*
X118187317Y-104496625D01*
X118196135Y-104503862D01*
X118208561Y-104519003D01*
X118217790Y-104536270D01*
X118223476Y-104555013D01*
X118226000Y-104580640D01*
X118226000Y-105019360D01*
X118223476Y-105044987D01*
X118217790Y-105063730D01*
X118208561Y-105080997D01*
X118196135Y-105096138D01*
X118187317Y-105103375D01*
X118169990Y-105120702D01*
X118156377Y-105141076D01*
X118146999Y-105163715D01*
X118142219Y-105187748D01*
X118142219Y-105212252D01*
X118146999Y-105236285D01*
X118156377Y-105258924D01*
X118169991Y-105279299D01*
X118187317Y-105296625D01*
X118196135Y-105303862D01*
X118208561Y-105319003D01*
X118217790Y-105336270D01*
X118223476Y-105355013D01*
X118226000Y-105380640D01*
X118226000Y-105819360D01*
X118223476Y-105844987D01*
X118217790Y-105863730D01*
X118208561Y-105880997D01*
X118196135Y-105896138D01*
X118187317Y-105903375D01*
X118169990Y-105920702D01*
X118156377Y-105941076D01*
X118146999Y-105963715D01*
X118142219Y-105987748D01*
X118142219Y-106012252D01*
X118146999Y-106036285D01*
X118156377Y-106058924D01*
X118169991Y-106079299D01*
X118187317Y-106096625D01*
X118196135Y-106103862D01*
X118208561Y-106119003D01*
X118217790Y-106136270D01*
X118223476Y-106155013D01*
X118226000Y-106180640D01*
X118226000Y-106619360D01*
X118223476Y-106644987D01*
X118217790Y-106663730D01*
X118208561Y-106680997D01*
X118196136Y-106696136D01*
X118180997Y-106708561D01*
X118163730Y-106717790D01*
X118144987Y-106723476D01*
X118119360Y-106726000D01*
X116705640Y-106726000D01*
X116680013Y-106723476D01*
X116661270Y-106717790D01*
X116644003Y-106708561D01*
X116628864Y-106696136D01*
X116616439Y-106680997D01*
X116607210Y-106663730D01*
X116601524Y-106644987D01*
X116599000Y-106619360D01*
X116599000Y-106180640D01*
X116601524Y-106155013D01*
X116607210Y-106136270D01*
X116616439Y-106119003D01*
X116628865Y-106103862D01*
X116637683Y-106096625D01*
X116655010Y-106079298D01*
X116668623Y-106058924D01*
X116678001Y-106036285D01*
X116682781Y-106012252D01*
X116682781Y-105987748D01*
X116678001Y-105963715D01*
X116668623Y-105941076D01*
X116655009Y-105920701D01*
X116637683Y-105903375D01*
X116628865Y-105896138D01*
X116616439Y-105880997D01*
X116607210Y-105863730D01*
X116601524Y-105844987D01*
X116599000Y-105819360D01*
X116599000Y-105380640D01*
X116601524Y-105355013D01*
X116607210Y-105336270D01*
X116616439Y-105319003D01*
X116628865Y-105303862D01*
X116637683Y-105296625D01*
X116655010Y-105279298D01*
X116668623Y-105258924D01*
X116678001Y-105236285D01*
X116682781Y-105212252D01*
X116682781Y-105187748D01*
X116678001Y-105163715D01*
X116668623Y-105141076D01*
X116655009Y-105120701D01*
X116637683Y-105103375D01*
X116628865Y-105096138D01*
X116616439Y-105080997D01*
X116607210Y-105063730D01*
X116601524Y-105044987D01*
X116599000Y-105019360D01*
X116599000Y-104580640D01*
X116601524Y-104555013D01*
X116607210Y-104536270D01*
X116616439Y-104519003D01*
X116628865Y-104503862D01*
X116637683Y-104496625D01*
X116655010Y-104479298D01*
X116668623Y-104458924D01*
X116678001Y-104436285D01*
X116682781Y-104412252D01*
X116682781Y-104387748D01*
X116678001Y-104363715D01*
X116668623Y-104341076D01*
X116655009Y-104320701D01*
X116637683Y-104303375D01*
X116628865Y-104296138D01*
X116616439Y-104280997D01*
X116607210Y-104263730D01*
X116601524Y-104244987D01*
X116599000Y-104219360D01*
X116599000Y-103780640D01*
X116601524Y-103755013D01*
X116607210Y-103736270D01*
X116616439Y-103719003D01*
X116628865Y-103703862D01*
X116637683Y-103696625D01*
X116655010Y-103679298D01*
X116668623Y-103658924D01*
X116678001Y-103636285D01*
X116682781Y-103612252D01*
X116682781Y-103587748D01*
X116678001Y-103563715D01*
X116668623Y-103541076D01*
X116655009Y-103520701D01*
X116637683Y-103503375D01*
X116628865Y-103496138D01*
X116616439Y-103480997D01*
X116607210Y-103463730D01*
X116601524Y-103444987D01*
X116599000Y-103419360D01*
X116599000Y-102980640D01*
X116601524Y-102955013D01*
X116607210Y-102936270D01*
X116616439Y-102919003D01*
X116628865Y-102903862D01*
X116637683Y-102896625D01*
X116655010Y-102879298D01*
X116668623Y-102858924D01*
X116678001Y-102836285D01*
X116682781Y-102812252D01*
X116682781Y-102787748D01*
X116678001Y-102763715D01*
X116668623Y-102741076D01*
X116655009Y-102720701D01*
X116637683Y-102703375D01*
X116628865Y-102696138D01*
X116616439Y-102680997D01*
X116607210Y-102663730D01*
X116601524Y-102644987D01*
X116599000Y-102619360D01*
X116599000Y-102180640D01*
X116601524Y-102155013D01*
X116607210Y-102136270D01*
X116616439Y-102119003D01*
X116628865Y-102103862D01*
X116637683Y-102096625D01*
X116655010Y-102079298D01*
X116668623Y-102058924D01*
X116678001Y-102036285D01*
X116682781Y-102012252D01*
X116682781Y-101987748D01*
X116678001Y-101963715D01*
X116668623Y-101941076D01*
X116655009Y-101920701D01*
X116637683Y-101903375D01*
X116628865Y-101896138D01*
X116616439Y-101880997D01*
X116607210Y-101863730D01*
X116601524Y-101844987D01*
X116599000Y-101819360D01*
X116599000Y-101380640D01*
X116601524Y-101355013D01*
X116607210Y-101336270D01*
X116616439Y-101319003D01*
X116628865Y-101303862D01*
X116637683Y-101296625D01*
X116655010Y-101279298D01*
X116668623Y-101258924D01*
X116678001Y-101236285D01*
X116682781Y-101212252D01*
X116682781Y-101187748D01*
X116678001Y-101163715D01*
X116668623Y-101141076D01*
X116655009Y-101120701D01*
X116637683Y-101103375D01*
X116628865Y-101096138D01*
X116616439Y-101080997D01*
X116607210Y-101063730D01*
X116601524Y-101044987D01*
X116599000Y-101019360D01*
X116599000Y-100580640D01*
X116601524Y-100555013D01*
X116607210Y-100536270D01*
X116616439Y-100519003D01*
X116628865Y-100503862D01*
X116637683Y-100496625D01*
X116655010Y-100479298D01*
X116668623Y-100458924D01*
X116678001Y-100436285D01*
X116682781Y-100412252D01*
X116682781Y-100387748D01*
X116678001Y-100363715D01*
X116668623Y-100341076D01*
X116655009Y-100320701D01*
X116637683Y-100303375D01*
X116628865Y-100296138D01*
X116616439Y-100280997D01*
X116607210Y-100263730D01*
X116601524Y-100244987D01*
X116599000Y-100219360D01*
X116599000Y-99780640D01*
X116601524Y-99755013D01*
X116607210Y-99736270D01*
X116616439Y-99719003D01*
X116628865Y-99703862D01*
X116637683Y-99696625D01*
X116655010Y-99679298D01*
X116668623Y-99658924D01*
X116678001Y-99636285D01*
X116682781Y-99612252D01*
X116682781Y-99587748D01*
X116678001Y-99563715D01*
X116668623Y-99541076D01*
X116655009Y-99520701D01*
X116637683Y-99503375D01*
X116628865Y-99496138D01*
X116616439Y-99480997D01*
X116607210Y-99463730D01*
X116601524Y-99444987D01*
X116599000Y-99419360D01*
X116599000Y-98980640D01*
X116601524Y-98955013D01*
X116607210Y-98936270D01*
X116616439Y-98919003D01*
X116628865Y-98903862D01*
X116637683Y-98896625D01*
X116655010Y-98879298D01*
X116668623Y-98858924D01*
X116678001Y-98836285D01*
X116682781Y-98812252D01*
X116682781Y-98787748D01*
X116678001Y-98763715D01*
X116668623Y-98741076D01*
X116655009Y-98720701D01*
X116637683Y-98703375D01*
X116628865Y-98696138D01*
X116616439Y-98680997D01*
X116607210Y-98663730D01*
X116601524Y-98644987D01*
X116599000Y-98619360D01*
X116599000Y-98180640D01*
X116601524Y-98155013D01*
X116607210Y-98136270D01*
X116616439Y-98119003D01*
X116628865Y-98103862D01*
X116637683Y-98096625D01*
X116655010Y-98079298D01*
X116668623Y-98058924D01*
X116678001Y-98036285D01*
X116682781Y-98012252D01*
X116682781Y-97987748D01*
X116678001Y-97963715D01*
X116668623Y-97941076D01*
X116655009Y-97920701D01*
X116637683Y-97903375D01*
X116628865Y-97896138D01*
X116616439Y-97880997D01*
X116607210Y-97863730D01*
X116601524Y-97844987D01*
X116599000Y-97819360D01*
X116599000Y-97380640D01*
X116601524Y-97355013D01*
X116607210Y-97336270D01*
X116616439Y-97319003D01*
X116628865Y-97303862D01*
X116637683Y-97296625D01*
X116655010Y-97279298D01*
X116668623Y-97258924D01*
X116678001Y-97236285D01*
X116682781Y-97212252D01*
X116682781Y-97187748D01*
X116678001Y-97163715D01*
X116668623Y-97141076D01*
X116655009Y-97120701D01*
X116637683Y-97103375D01*
X116628865Y-97096138D01*
X116616439Y-97080997D01*
X116607210Y-97063730D01*
X116601524Y-97044987D01*
X116599000Y-97019360D01*
X116599000Y-96580640D01*
X116601524Y-96555013D01*
X116607210Y-96536270D01*
X116616439Y-96519003D01*
X116628865Y-96503862D01*
X116637683Y-96496625D01*
X116655010Y-96479298D01*
X116668623Y-96458924D01*
X116678001Y-96436285D01*
X116682781Y-96412252D01*
X116682781Y-96387748D01*
X116678001Y-96363715D01*
X116668623Y-96341076D01*
X116655009Y-96320701D01*
X116637683Y-96303375D01*
X116628865Y-96296138D01*
X116616439Y-96280997D01*
X116607210Y-96263730D01*
X116601524Y-96244987D01*
X116599000Y-96219360D01*
X116599000Y-95780640D01*
X116601524Y-95755013D01*
X116607210Y-95736270D01*
X116616439Y-95719003D01*
X116628865Y-95703862D01*
X116637683Y-95696625D01*
X116655010Y-95679298D01*
X116668623Y-95658924D01*
X116678001Y-95636285D01*
X116682781Y-95612252D01*
X116682781Y-95587748D01*
X116678001Y-95563715D01*
X116668623Y-95541076D01*
X116655009Y-95520701D01*
X116637683Y-95503375D01*
X116628865Y-95496138D01*
X116616439Y-95480997D01*
X116607210Y-95463730D01*
X116601524Y-95444987D01*
X116599000Y-95419360D01*
X116599000Y-94980640D01*
X116601524Y-94955013D01*
X116607210Y-94936270D01*
X116616439Y-94919003D01*
X116628865Y-94903862D01*
X116637683Y-94896625D01*
X116655010Y-94879298D01*
X116668623Y-94858924D01*
X116678001Y-94836285D01*
X116682781Y-94812252D01*
X116682781Y-94787748D01*
X116678001Y-94763715D01*
X116668623Y-94741076D01*
X116655009Y-94720701D01*
X116637683Y-94703375D01*
X116628865Y-94696138D01*
X116616439Y-94680997D01*
X116607210Y-94663730D01*
X116601524Y-94644987D01*
X116599000Y-94619360D01*
X116599000Y-94180640D01*
X116601524Y-94155013D01*
X116607210Y-94136270D01*
X116616439Y-94119003D01*
X116628865Y-94103862D01*
X116637683Y-94096625D01*
X116655010Y-94079298D01*
X116668623Y-94058924D01*
X116678001Y-94036285D01*
X116682781Y-94012252D01*
X116682781Y-93987748D01*
X116678001Y-93963715D01*
X116668623Y-93941076D01*
X116655009Y-93920701D01*
X116637683Y-93903375D01*
X116628865Y-93896138D01*
X116616439Y-93880997D01*
X116607210Y-93863730D01*
X116601524Y-93844987D01*
X116599000Y-93819360D01*
X116599000Y-93380640D01*
X116601524Y-93355013D01*
X116607210Y-93336270D01*
X116616439Y-93319003D01*
X116628865Y-93303862D01*
X116637683Y-93296625D01*
X116655010Y-93279298D01*
X116668623Y-93258924D01*
X116678001Y-93236285D01*
X116682781Y-93212252D01*
X116682781Y-93187748D01*
X116678001Y-93163715D01*
X116668623Y-93141076D01*
X116655009Y-93120701D01*
X116637683Y-93103375D01*
X116628865Y-93096138D01*
X116616439Y-93080997D01*
X116607210Y-93063730D01*
X116601524Y-93044987D01*
X116599000Y-93019360D01*
X116599000Y-92580640D01*
X116601524Y-92555013D01*
X116607210Y-92536270D01*
X116616439Y-92519003D01*
X116628865Y-92503862D01*
X116637683Y-92496625D01*
X116655010Y-92479298D01*
X116668623Y-92458924D01*
X116678001Y-92436285D01*
X116682781Y-92412252D01*
X116682781Y-92387748D01*
X116678001Y-92363715D01*
X116668623Y-92341076D01*
X116655009Y-92320701D01*
X116637683Y-92303375D01*
X116628865Y-92296138D01*
X116616439Y-92280997D01*
X116607210Y-92263730D01*
X116601524Y-92244987D01*
X116599000Y-92219360D01*
X116599000Y-91780640D01*
X116601524Y-91755013D01*
X116607210Y-91736270D01*
X116616439Y-91719003D01*
X116628865Y-91703862D01*
X116637683Y-91696625D01*
X116655010Y-91679298D01*
X116668623Y-91658924D01*
X116678001Y-91636285D01*
X116682781Y-91612252D01*
X116682781Y-91587748D01*
X116678001Y-91563715D01*
X116668623Y-91541076D01*
X116655009Y-91520701D01*
X116637683Y-91503375D01*
X116628865Y-91496138D01*
X116616439Y-91480997D01*
X116607210Y-91463730D01*
X116601524Y-91444987D01*
X116599000Y-91419360D01*
X116599000Y-90980640D01*
X116601524Y-90955013D01*
X116607210Y-90936270D01*
X116616439Y-90919003D01*
X116628865Y-90903862D01*
X116637683Y-90896625D01*
X116655010Y-90879298D01*
X116668623Y-90858924D01*
X116678001Y-90836285D01*
X116682781Y-90812252D01*
X116682781Y-90787748D01*
X116678001Y-90763715D01*
X116668623Y-90741076D01*
X116655009Y-90720701D01*
X116637683Y-90703375D01*
X116628865Y-90696138D01*
X116616439Y-90680997D01*
X116607210Y-90663730D01*
X116601524Y-90644987D01*
X116599000Y-90619360D01*
X116599000Y-90180640D01*
X116601524Y-90155013D01*
X116607210Y-90136270D01*
X116616439Y-90119003D01*
X116628865Y-90103862D01*
X116637683Y-90096625D01*
X116655010Y-90079298D01*
X116668623Y-90058924D01*
X116678001Y-90036285D01*
X116682781Y-90012252D01*
X116682781Y-89987748D01*
X116678001Y-89963715D01*
X116668623Y-89941076D01*
X116655009Y-89920701D01*
X116637683Y-89903375D01*
X116628865Y-89896138D01*
X116616439Y-89880997D01*
X116607210Y-89863730D01*
X116601524Y-89844987D01*
X116599000Y-89819360D01*
X116599000Y-89380640D01*
X116601524Y-89355013D01*
X116607210Y-89336270D01*
X116616439Y-89319003D01*
X116628864Y-89303864D01*
X116644003Y-89291439D01*
X116661270Y-89282210D01*
X116680013Y-89276524D01*
X116705640Y-89274000D01*
X118119360Y-89274000D01*
X118144987Y-89276524D01*
G37*
G36*
X129319987Y-89276524D02*
G01*
X129338730Y-89282210D01*
X129355997Y-89291439D01*
X129371136Y-89303864D01*
X129383561Y-89319003D01*
X129392790Y-89336270D01*
X129398476Y-89355013D01*
X129401000Y-89380640D01*
X129401000Y-89819360D01*
X129398476Y-89844987D01*
X129392790Y-89863730D01*
X129383561Y-89880997D01*
X129371135Y-89896138D01*
X129362317Y-89903375D01*
X129344990Y-89920702D01*
X129331377Y-89941076D01*
X129321999Y-89963715D01*
X129317219Y-89987748D01*
X129317219Y-90012252D01*
X129321999Y-90036285D01*
X129331377Y-90058924D01*
X129344991Y-90079299D01*
X129362317Y-90096625D01*
X129371135Y-90103862D01*
X129383561Y-90119003D01*
X129392790Y-90136270D01*
X129398476Y-90155013D01*
X129401000Y-90180640D01*
X129401000Y-90619360D01*
X129398476Y-90644987D01*
X129392790Y-90663730D01*
X129383561Y-90680997D01*
X129371135Y-90696138D01*
X129362317Y-90703375D01*
X129344990Y-90720702D01*
X129331377Y-90741076D01*
X129321999Y-90763715D01*
X129317219Y-90787748D01*
X129317219Y-90812252D01*
X129321999Y-90836285D01*
X129331377Y-90858924D01*
X129344991Y-90879299D01*
X129362317Y-90896625D01*
X129371135Y-90903862D01*
X129383561Y-90919003D01*
X129392790Y-90936270D01*
X129398476Y-90955013D01*
X129401000Y-90980640D01*
X129401000Y-91419360D01*
X129398476Y-91444987D01*
X129392790Y-91463730D01*
X129383561Y-91480997D01*
X129371135Y-91496138D01*
X129362317Y-91503375D01*
X129344990Y-91520702D01*
X129331377Y-91541076D01*
X129321999Y-91563715D01*
X129317219Y-91587748D01*
X129317219Y-91612252D01*
X129321999Y-91636285D01*
X129331377Y-91658924D01*
X129344991Y-91679299D01*
X129362317Y-91696625D01*
X129371135Y-91703862D01*
X129383561Y-91719003D01*
X129392790Y-91736270D01*
X129398476Y-91755013D01*
X129401000Y-91780640D01*
X129401000Y-92219360D01*
X129398476Y-92244987D01*
X129392790Y-92263730D01*
X129383561Y-92280997D01*
X129371135Y-92296138D01*
X129362317Y-92303375D01*
X129344990Y-92320702D01*
X129331377Y-92341076D01*
X129321999Y-92363715D01*
X129317219Y-92387748D01*
X129317219Y-92412252D01*
X129321999Y-92436285D01*
X129331377Y-92458924D01*
X129344991Y-92479299D01*
X129362317Y-92496625D01*
X129371135Y-92503862D01*
X129383561Y-92519003D01*
X129392790Y-92536270D01*
X129398476Y-92555013D01*
X129401000Y-92580640D01*
X129401000Y-93019360D01*
X129398476Y-93044987D01*
X129392790Y-93063730D01*
X129383561Y-93080997D01*
X129371135Y-93096138D01*
X129362317Y-93103375D01*
X129344990Y-93120702D01*
X129331377Y-93141076D01*
X129321999Y-93163715D01*
X129317219Y-93187748D01*
X129317219Y-93212252D01*
X129321999Y-93236285D01*
X129331377Y-93258924D01*
X129344991Y-93279299D01*
X129362317Y-93296625D01*
X129371135Y-93303862D01*
X129383561Y-93319003D01*
X129392790Y-93336270D01*
X129398476Y-93355013D01*
X129401000Y-93380640D01*
X129401000Y-93819360D01*
X129398476Y-93844987D01*
X129392790Y-93863730D01*
X129383561Y-93880997D01*
X129371135Y-93896138D01*
X129362317Y-93903375D01*
X129344990Y-93920702D01*
X129331377Y-93941076D01*
X129321999Y-93963715D01*
X129317219Y-93987748D01*
X129317219Y-94012252D01*
X129321999Y-94036285D01*
X129331377Y-94058924D01*
X129344991Y-94079299D01*
X129362317Y-94096625D01*
X129371135Y-94103862D01*
X129383561Y-94119003D01*
X129392790Y-94136270D01*
X129398476Y-94155013D01*
X129401000Y-94180640D01*
X129401000Y-94619360D01*
X129398476Y-94644987D01*
X129392790Y-94663730D01*
X129383561Y-94680997D01*
X129371135Y-94696138D01*
X129362317Y-94703375D01*
X129344990Y-94720702D01*
X129331377Y-94741076D01*
X129321999Y-94763715D01*
X129317219Y-94787748D01*
X129317219Y-94812252D01*
X129321999Y-94836285D01*
X129331377Y-94858924D01*
X129344991Y-94879299D01*
X129362317Y-94896625D01*
X129371135Y-94903862D01*
X129383561Y-94919003D01*
X129392790Y-94936270D01*
X129398476Y-94955013D01*
X129401000Y-94980640D01*
X129401000Y-95419360D01*
X129398476Y-95444987D01*
X129392790Y-95463730D01*
X129383561Y-95480997D01*
X129371135Y-95496138D01*
X129362317Y-95503375D01*
X129344990Y-95520702D01*
X129331377Y-95541076D01*
X129321999Y-95563715D01*
X129317219Y-95587748D01*
X129317219Y-95612252D01*
X129321999Y-95636285D01*
X129331377Y-95658924D01*
X129344991Y-95679299D01*
X129362317Y-95696625D01*
X129371135Y-95703862D01*
X129383561Y-95719003D01*
X129392790Y-95736270D01*
X129398476Y-95755013D01*
X129401000Y-95780640D01*
X129401000Y-96219360D01*
X129398476Y-96244987D01*
X129392790Y-96263730D01*
X129383561Y-96280997D01*
X129371135Y-96296138D01*
X129362317Y-96303375D01*
X129344990Y-96320702D01*
X129331377Y-96341076D01*
X129321999Y-96363715D01*
X129317219Y-96387748D01*
X129317219Y-96412252D01*
X129321999Y-96436285D01*
X129331377Y-96458924D01*
X129344991Y-96479299D01*
X129362317Y-96496625D01*
X129371135Y-96503862D01*
X129383561Y-96519003D01*
X129392790Y-96536270D01*
X129398476Y-96555013D01*
X129401000Y-96580640D01*
X129401000Y-97019360D01*
X129398476Y-97044987D01*
X129392790Y-97063730D01*
X129383561Y-97080997D01*
X129371135Y-97096138D01*
X129362317Y-97103375D01*
X129344990Y-97120702D01*
X129331377Y-97141076D01*
X129321999Y-97163715D01*
X129317219Y-97187748D01*
X129317219Y-97212252D01*
X129321999Y-97236285D01*
X129331377Y-97258924D01*
X129344991Y-97279299D01*
X129362317Y-97296625D01*
X129371135Y-97303862D01*
X129383561Y-97319003D01*
X129392790Y-97336270D01*
X129398476Y-97355013D01*
X129401000Y-97380640D01*
X129401000Y-97819360D01*
X129398476Y-97844987D01*
X129392790Y-97863730D01*
X129383561Y-97880997D01*
X129371135Y-97896138D01*
X129362317Y-97903375D01*
X129344990Y-97920702D01*
X129331377Y-97941076D01*
X129321999Y-97963715D01*
X129317219Y-97987748D01*
X129317219Y-98012252D01*
X129321999Y-98036285D01*
X129331377Y-98058924D01*
X129344991Y-98079299D01*
X129362317Y-98096625D01*
X129371135Y-98103862D01*
X129383561Y-98119003D01*
X129392790Y-98136270D01*
X129398476Y-98155013D01*
X129401000Y-98180640D01*
X129401000Y-98619360D01*
X129398476Y-98644987D01*
X129392790Y-98663730D01*
X129383561Y-98680997D01*
X129371135Y-98696138D01*
X129362317Y-98703375D01*
X129344990Y-98720702D01*
X129331377Y-98741076D01*
X129321999Y-98763715D01*
X129317219Y-98787748D01*
X129317219Y-98812252D01*
X129321999Y-98836285D01*
X129331377Y-98858924D01*
X129344991Y-98879299D01*
X129362317Y-98896625D01*
X129371135Y-98903862D01*
X129383561Y-98919003D01*
X129392790Y-98936270D01*
X129398476Y-98955013D01*
X129401000Y-98980640D01*
X129401000Y-99419360D01*
X129398476Y-99444987D01*
X129392790Y-99463730D01*
X129383561Y-99480997D01*
X129371135Y-99496138D01*
X129362317Y-99503375D01*
X129344990Y-99520702D01*
X129331377Y-99541076D01*
X129321999Y-99563715D01*
X129317219Y-99587748D01*
X129317219Y-99612252D01*
X129321999Y-99636285D01*
X129331377Y-99658924D01*
X129344991Y-99679299D01*
X129362317Y-99696625D01*
X129371135Y-99703862D01*
X129383561Y-99719003D01*
X129392790Y-99736270D01*
X129398476Y-99755013D01*
X129401000Y-99780640D01*
X129401000Y-100219360D01*
X129398476Y-100244987D01*
X129392790Y-100263730D01*
X129383561Y-100280997D01*
X129371135Y-100296138D01*
X129362317Y-100303375D01*
X129344990Y-100320702D01*
X129331377Y-100341076D01*
X129321999Y-100363715D01*
X129317219Y-100387748D01*
X129317219Y-100412252D01*
X129321999Y-100436285D01*
X129331377Y-100458924D01*
X129344991Y-100479299D01*
X129362317Y-100496625D01*
X129371135Y-100503862D01*
X129383561Y-100519003D01*
X129392790Y-100536270D01*
X129398476Y-100555013D01*
X129401000Y-100580640D01*
X129401000Y-101019360D01*
X129398476Y-101044987D01*
X129392790Y-101063730D01*
X129383561Y-101080997D01*
X129371135Y-101096138D01*
X129362317Y-101103375D01*
X129344990Y-101120702D01*
X129331377Y-101141076D01*
X129321999Y-101163715D01*
X129317219Y-101187748D01*
X129317219Y-101212252D01*
X129321999Y-101236285D01*
X129331377Y-101258924D01*
X129344991Y-101279299D01*
X129362317Y-101296625D01*
X129371135Y-101303862D01*
X129383561Y-101319003D01*
X129392790Y-101336270D01*
X129398476Y-101355013D01*
X129401000Y-101380640D01*
X129401000Y-101819360D01*
X129398476Y-101844987D01*
X129392790Y-101863730D01*
X129383561Y-101880997D01*
X129371135Y-101896138D01*
X129362317Y-101903375D01*
X129344990Y-101920702D01*
X129331377Y-101941076D01*
X129321999Y-101963715D01*
X129317219Y-101987748D01*
X129317219Y-102012252D01*
X129321999Y-102036285D01*
X129331377Y-102058924D01*
X129344991Y-102079299D01*
X129362317Y-102096625D01*
X129371135Y-102103862D01*
X129383561Y-102119003D01*
X129392790Y-102136270D01*
X129398476Y-102155013D01*
X129401000Y-102180640D01*
X129401000Y-102619360D01*
X129398476Y-102644987D01*
X129392790Y-102663730D01*
X129383561Y-102680997D01*
X129371135Y-102696138D01*
X129362317Y-102703375D01*
X129344990Y-102720702D01*
X129331377Y-102741076D01*
X129321999Y-102763715D01*
X129317219Y-102787748D01*
X129317219Y-102812252D01*
X129321999Y-102836285D01*
X129331377Y-102858924D01*
X129344991Y-102879299D01*
X129362317Y-102896625D01*
X129371135Y-102903862D01*
X129383561Y-102919003D01*
X129392790Y-102936270D01*
X129398476Y-102955013D01*
X129401000Y-102980640D01*
X129401000Y-103419360D01*
X129398476Y-103444987D01*
X129392790Y-103463730D01*
X129383561Y-103480997D01*
X129371135Y-103496138D01*
X129362317Y-103503375D01*
X129344990Y-103520702D01*
X129331377Y-103541076D01*
X129321999Y-103563715D01*
X129317219Y-103587748D01*
X129317219Y-103612252D01*
X129321999Y-103636285D01*
X129331377Y-103658924D01*
X129344991Y-103679299D01*
X129362317Y-103696625D01*
X129371135Y-103703862D01*
X129383561Y-103719003D01*
X129392790Y-103736270D01*
X129398476Y-103755013D01*
X129401000Y-103780640D01*
X129401000Y-104219360D01*
X129398476Y-104244987D01*
X129392790Y-104263730D01*
X129383561Y-104280997D01*
X129371135Y-104296138D01*
X129362317Y-104303375D01*
X129344990Y-104320702D01*
X129331377Y-104341076D01*
X129321999Y-104363715D01*
X129317219Y-104387748D01*
X129317219Y-104412252D01*
X129321999Y-104436285D01*
X129331377Y-104458924D01*
X129344991Y-104479299D01*
X129362317Y-104496625D01*
X129371135Y-104503862D01*
X129383561Y-104519003D01*
X129392790Y-104536270D01*
X129398476Y-104555013D01*
X129401000Y-104580640D01*
X129401000Y-105019360D01*
X129398476Y-105044987D01*
X129392790Y-105063730D01*
X129383561Y-105080997D01*
X129371135Y-105096138D01*
X129362317Y-105103375D01*
X129344990Y-105120702D01*
X129331377Y-105141076D01*
X129321999Y-105163715D01*
X129317219Y-105187748D01*
X129317219Y-105212252D01*
X129321999Y-105236285D01*
X129331377Y-105258924D01*
X129344991Y-105279299D01*
X129362317Y-105296625D01*
X129371135Y-105303862D01*
X129383561Y-105319003D01*
X129392790Y-105336270D01*
X129398476Y-105355013D01*
X129401000Y-105380640D01*
X129401000Y-105819360D01*
X129398476Y-105844987D01*
X129392790Y-105863730D01*
X129383561Y-105880997D01*
X129371135Y-105896138D01*
X129362317Y-105903375D01*
X129344990Y-105920702D01*
X129331377Y-105941076D01*
X129321999Y-105963715D01*
X129317219Y-105987748D01*
X129317219Y-106012252D01*
X129321999Y-106036285D01*
X129331377Y-106058924D01*
X129344991Y-106079299D01*
X129362317Y-106096625D01*
X129371135Y-106103862D01*
X129383561Y-106119003D01*
X129392790Y-106136270D01*
X129398476Y-106155013D01*
X129401000Y-106180640D01*
X129401000Y-106619360D01*
X129398476Y-106644987D01*
X129392790Y-106663730D01*
X129383561Y-106680997D01*
X129371136Y-106696136D01*
X129355997Y-106708561D01*
X129338730Y-106717790D01*
X129319987Y-106723476D01*
X129294360Y-106726000D01*
X127880640Y-106726000D01*
X127855013Y-106723476D01*
X127836270Y-106717790D01*
X127819003Y-106708561D01*
X127803864Y-106696136D01*
X127791439Y-106680997D01*
X127782210Y-106663730D01*
X127776524Y-106644987D01*
X127774000Y-106619360D01*
X127774000Y-106180640D01*
X127776524Y-106155013D01*
X127782210Y-106136270D01*
X127791439Y-106119003D01*
X127803865Y-106103862D01*
X127812683Y-106096625D01*
X127830010Y-106079298D01*
X127843623Y-106058924D01*
X127853001Y-106036285D01*
X127857781Y-106012252D01*
X127857781Y-105987748D01*
X127853001Y-105963715D01*
X127843623Y-105941076D01*
X127830009Y-105920701D01*
X127812683Y-105903375D01*
X127803865Y-105896138D01*
X127791439Y-105880997D01*
X127782210Y-105863730D01*
X127776524Y-105844987D01*
X127774000Y-105819360D01*
X127774000Y-105380640D01*
X127776524Y-105355013D01*
X127782210Y-105336270D01*
X127791439Y-105319003D01*
X127803865Y-105303862D01*
X127812683Y-105296625D01*
X127830010Y-105279298D01*
X127843623Y-105258924D01*
X127853001Y-105236285D01*
X127857781Y-105212252D01*
X127857781Y-105187748D01*
X127853001Y-105163715D01*
X127843623Y-105141076D01*
X127830009Y-105120701D01*
X127812683Y-105103375D01*
X127803865Y-105096138D01*
X127791439Y-105080997D01*
X127782210Y-105063730D01*
X127776524Y-105044987D01*
X127774000Y-105019360D01*
X127774000Y-104580640D01*
X127776524Y-104555013D01*
X127782210Y-104536270D01*
X127791439Y-104519003D01*
X127803865Y-104503862D01*
X127812683Y-104496625D01*
X127830010Y-104479298D01*
X127843623Y-104458924D01*
X127853001Y-104436285D01*
X127857781Y-104412252D01*
X127857781Y-104387748D01*
X127853001Y-104363715D01*
X127843623Y-104341076D01*
X127830009Y-104320701D01*
X127812683Y-104303375D01*
X127803865Y-104296138D01*
X127791439Y-104280997D01*
X127782210Y-104263730D01*
X127776524Y-104244987D01*
X127774000Y-104219360D01*
X127774000Y-103780640D01*
X127776524Y-103755013D01*
X127782210Y-103736270D01*
X127791439Y-103719003D01*
X127803865Y-103703862D01*
X127812683Y-103696625D01*
X127830010Y-103679298D01*
X127843623Y-103658924D01*
X127853001Y-103636285D01*
X127857781Y-103612252D01*
X127857781Y-103587748D01*
X127853001Y-103563715D01*
X127843623Y-103541076D01*
X127830009Y-103520701D01*
X127812683Y-103503375D01*
X127803865Y-103496138D01*
X127791439Y-103480997D01*
X127782210Y-103463730D01*
X127776524Y-103444987D01*
X127774000Y-103419360D01*
X127774000Y-102980640D01*
X127776524Y-102955013D01*
X127782210Y-102936270D01*
X127791439Y-102919003D01*
X127803865Y-102903862D01*
X127812683Y-102896625D01*
X127830010Y-102879298D01*
X127843623Y-102858924D01*
X127853001Y-102836285D01*
X127857781Y-102812252D01*
X127857781Y-102787748D01*
X127853001Y-102763715D01*
X127843623Y-102741076D01*
X127830009Y-102720701D01*
X127812683Y-102703375D01*
X127803865Y-102696138D01*
X127791439Y-102680997D01*
X127782210Y-102663730D01*
X127776524Y-102644987D01*
X127774000Y-102619360D01*
X127774000Y-102180640D01*
X127776524Y-102155013D01*
X127782210Y-102136270D01*
X127791439Y-102119003D01*
X127803865Y-102103862D01*
X127812683Y-102096625D01*
X127830010Y-102079298D01*
X127843623Y-102058924D01*
X127853001Y-102036285D01*
X127857781Y-102012252D01*
X127857781Y-101987748D01*
X127853001Y-101963715D01*
X127843623Y-101941076D01*
X127830009Y-101920701D01*
X127812683Y-101903375D01*
X127803865Y-101896138D01*
X127791439Y-101880997D01*
X127782210Y-101863730D01*
X127776524Y-101844987D01*
X127774000Y-101819360D01*
X127774000Y-101380640D01*
X127776524Y-101355013D01*
X127782210Y-101336270D01*
X127791439Y-101319003D01*
X127803865Y-101303862D01*
X127812683Y-101296625D01*
X127830010Y-101279298D01*
X127843623Y-101258924D01*
X127853001Y-101236285D01*
X127857781Y-101212252D01*
X127857781Y-101187748D01*
X127853001Y-101163715D01*
X127843623Y-101141076D01*
X127830009Y-101120701D01*
X127812683Y-101103375D01*
X127803865Y-101096138D01*
X127791439Y-101080997D01*
X127782210Y-101063730D01*
X127776524Y-101044987D01*
X127774000Y-101019360D01*
X127774000Y-100580640D01*
X127776524Y-100555013D01*
X127782210Y-100536270D01*
X127791439Y-100519003D01*
X127803865Y-100503862D01*
X127812683Y-100496625D01*
X127830010Y-100479298D01*
X127843623Y-100458924D01*
X127853001Y-100436285D01*
X127857781Y-100412252D01*
X127857781Y-100387748D01*
X127853001Y-100363715D01*
X127843623Y-100341076D01*
X127830009Y-100320701D01*
X127812683Y-100303375D01*
X127803865Y-100296138D01*
X127791439Y-100280997D01*
X127782210Y-100263730D01*
X127776524Y-100244987D01*
X127774000Y-100219360D01*
X127774000Y-99780640D01*
X127776524Y-99755013D01*
X127782210Y-99736270D01*
X127791439Y-99719003D01*
X127803865Y-99703862D01*
X127812683Y-99696625D01*
X127830010Y-99679298D01*
X127843623Y-99658924D01*
X127853001Y-99636285D01*
X127857781Y-99612252D01*
X127857781Y-99587748D01*
X127853001Y-99563715D01*
X127843623Y-99541076D01*
X127830009Y-99520701D01*
X127812683Y-99503375D01*
X127803865Y-99496138D01*
X127791439Y-99480997D01*
X127782210Y-99463730D01*
X127776524Y-99444987D01*
X127774000Y-99419360D01*
X127774000Y-98980640D01*
X127776524Y-98955013D01*
X127782210Y-98936270D01*
X127791439Y-98919003D01*
X127803865Y-98903862D01*
X127812683Y-98896625D01*
X127830010Y-98879298D01*
X127843623Y-98858924D01*
X127853001Y-98836285D01*
X127857781Y-98812252D01*
X127857781Y-98787748D01*
X127853001Y-98763715D01*
X127843623Y-98741076D01*
X127830009Y-98720701D01*
X127812683Y-98703375D01*
X127803865Y-98696138D01*
X127791439Y-98680997D01*
X127782210Y-98663730D01*
X127776524Y-98644987D01*
X127774000Y-98619360D01*
X127774000Y-98180640D01*
X127776524Y-98155013D01*
X127782210Y-98136270D01*
X127791439Y-98119003D01*
X127803865Y-98103862D01*
X127812683Y-98096625D01*
X127830010Y-98079298D01*
X127843623Y-98058924D01*
X127853001Y-98036285D01*
X127857781Y-98012252D01*
X127857781Y-97987748D01*
X127853001Y-97963715D01*
X127843623Y-97941076D01*
X127830009Y-97920701D01*
X127812683Y-97903375D01*
X127803865Y-97896138D01*
X127791439Y-97880997D01*
X127782210Y-97863730D01*
X127776524Y-97844987D01*
X127774000Y-97819360D01*
X127774000Y-97380640D01*
X127776524Y-97355013D01*
X127782210Y-97336270D01*
X127791439Y-97319003D01*
X127803865Y-97303862D01*
X127812683Y-97296625D01*
X127830010Y-97279298D01*
X127843623Y-97258924D01*
X127853001Y-97236285D01*
X127857781Y-97212252D01*
X127857781Y-97187748D01*
X127853001Y-97163715D01*
X127843623Y-97141076D01*
X127830009Y-97120701D01*
X127812683Y-97103375D01*
X127803865Y-97096138D01*
X127791439Y-97080997D01*
X127782210Y-97063730D01*
X127776524Y-97044987D01*
X127774000Y-97019360D01*
X127774000Y-96580640D01*
X127776524Y-96555013D01*
X127782210Y-96536270D01*
X127791439Y-96519003D01*
X127803865Y-96503862D01*
X127812683Y-96496625D01*
X127830010Y-96479298D01*
X127843623Y-96458924D01*
X127853001Y-96436285D01*
X127857781Y-96412252D01*
X127857781Y-96387748D01*
X127853001Y-96363715D01*
X127843623Y-96341076D01*
X127830009Y-96320701D01*
X127812683Y-96303375D01*
X127803865Y-96296138D01*
X127791439Y-96280997D01*
X127782210Y-96263730D01*
X127776524Y-96244987D01*
X127774000Y-96219360D01*
X127774000Y-95780640D01*
X127776524Y-95755013D01*
X127782210Y-95736270D01*
X127791439Y-95719003D01*
X127803865Y-95703862D01*
X127812683Y-95696625D01*
X127830010Y-95679298D01*
X127843623Y-95658924D01*
X127853001Y-95636285D01*
X127857781Y-95612252D01*
X127857781Y-95587748D01*
X127853001Y-95563715D01*
X127843623Y-95541076D01*
X127830009Y-95520701D01*
X127812683Y-95503375D01*
X127803865Y-95496138D01*
X127791439Y-95480997D01*
X127782210Y-95463730D01*
X127776524Y-95444987D01*
X127774000Y-95419360D01*
X127774000Y-94980640D01*
X127776524Y-94955013D01*
X127782210Y-94936270D01*
X127791439Y-94919003D01*
X127803865Y-94903862D01*
X127812683Y-94896625D01*
X127830010Y-94879298D01*
X127843623Y-94858924D01*
X127853001Y-94836285D01*
X127857781Y-94812252D01*
X127857781Y-94787748D01*
X127853001Y-94763715D01*
X127843623Y-94741076D01*
X127830009Y-94720701D01*
X127812683Y-94703375D01*
X127803865Y-94696138D01*
X127791439Y-94680997D01*
X127782210Y-94663730D01*
X127776524Y-94644987D01*
X127774000Y-94619360D01*
X127774000Y-94180640D01*
X127776524Y-94155013D01*
X127782210Y-94136270D01*
X127791439Y-94119003D01*
X127803865Y-94103862D01*
X127812683Y-94096625D01*
X127830010Y-94079298D01*
X127843623Y-94058924D01*
X127853001Y-94036285D01*
X127857781Y-94012252D01*
X127857781Y-93987748D01*
X127853001Y-93963715D01*
X127843623Y-93941076D01*
X127830009Y-93920701D01*
X127812683Y-93903375D01*
X127803865Y-93896138D01*
X127791439Y-93880997D01*
X127782210Y-93863730D01*
X127776524Y-93844987D01*
X127774000Y-93819360D01*
X127774000Y-93380640D01*
X127776524Y-93355013D01*
X127782210Y-93336270D01*
X127791439Y-93319003D01*
X127803865Y-93303862D01*
X127812683Y-93296625D01*
X127830010Y-93279298D01*
X127843623Y-93258924D01*
X127853001Y-93236285D01*
X127857781Y-93212252D01*
X127857781Y-93187748D01*
X127853001Y-93163715D01*
X127843623Y-93141076D01*
X127830009Y-93120701D01*
X127812683Y-93103375D01*
X127803865Y-93096138D01*
X127791439Y-93080997D01*
X127782210Y-93063730D01*
X127776524Y-93044987D01*
X127774000Y-93019360D01*
X127774000Y-92580640D01*
X127776524Y-92555013D01*
X127782210Y-92536270D01*
X127791439Y-92519003D01*
X127803865Y-92503862D01*
X127812683Y-92496625D01*
X127830010Y-92479298D01*
X127843623Y-92458924D01*
X127853001Y-92436285D01*
X127857781Y-92412252D01*
X127857781Y-92387748D01*
X127853001Y-92363715D01*
X127843623Y-92341076D01*
X127830009Y-92320701D01*
X127812683Y-92303375D01*
X127803865Y-92296138D01*
X127791439Y-92280997D01*
X127782210Y-92263730D01*
X127776524Y-92244987D01*
X127774000Y-92219360D01*
X127774000Y-91780640D01*
X127776524Y-91755013D01*
X127782210Y-91736270D01*
X127791439Y-91719003D01*
X127803865Y-91703862D01*
X127812683Y-91696625D01*
X127830010Y-91679298D01*
X127843623Y-91658924D01*
X127853001Y-91636285D01*
X127857781Y-91612252D01*
X127857781Y-91587748D01*
X127853001Y-91563715D01*
X127843623Y-91541076D01*
X127830009Y-91520701D01*
X127812683Y-91503375D01*
X127803865Y-91496138D01*
X127791439Y-91480997D01*
X127782210Y-91463730D01*
X127776524Y-91444987D01*
X127774000Y-91419360D01*
X127774000Y-90980640D01*
X127776524Y-90955013D01*
X127782210Y-90936270D01*
X127791439Y-90919003D01*
X127803865Y-90903862D01*
X127812683Y-90896625D01*
X127830010Y-90879298D01*
X127843623Y-90858924D01*
X127853001Y-90836285D01*
X127857781Y-90812252D01*
X127857781Y-90787748D01*
X127853001Y-90763715D01*
X127843623Y-90741076D01*
X127830009Y-90720701D01*
X127812683Y-90703375D01*
X127803865Y-90696138D01*
X127791439Y-90680997D01*
X127782210Y-90663730D01*
X127776524Y-90644987D01*
X127774000Y-90619360D01*
X127774000Y-90180640D01*
X127776524Y-90155013D01*
X127782210Y-90136270D01*
X127791439Y-90119003D01*
X127803865Y-90103862D01*
X127812683Y-90096625D01*
X127830010Y-90079298D01*
X127843623Y-90058924D01*
X127853001Y-90036285D01*
X127857781Y-90012252D01*
X127857781Y-89987748D01*
X127853001Y-89963715D01*
X127843623Y-89941076D01*
X127830009Y-89920701D01*
X127812683Y-89903375D01*
X127803865Y-89896138D01*
X127791439Y-89880997D01*
X127782210Y-89863730D01*
X127776524Y-89844987D01*
X127774000Y-89819360D01*
X127774000Y-89380640D01*
X127776524Y-89355013D01*
X127782210Y-89336270D01*
X127791439Y-89319003D01*
X127803864Y-89303864D01*
X127819003Y-89291439D01*
X127836270Y-89282210D01*
X127855013Y-89276524D01*
X127880640Y-89274000D01*
X129294360Y-89274000D01*
X129319987Y-89276524D01*
G37*
G36*
X94653512Y-104603927D02*
G01*
X94802812Y-104633624D01*
X94966784Y-104701544D01*
X95114354Y-104800147D01*
X95239853Y-104925646D01*
X95338456Y-105073216D01*
X95406376Y-105237188D01*
X95441000Y-105411259D01*
X95441000Y-105588741D01*
X95406376Y-105762812D01*
X95338456Y-105926784D01*
X95239853Y-106074354D01*
X95114354Y-106199853D01*
X94966784Y-106298456D01*
X94802812Y-106366376D01*
X94653512Y-106396073D01*
X94628742Y-106401000D01*
X94451258Y-106401000D01*
X94426488Y-106396073D01*
X94277188Y-106366376D01*
X94113216Y-106298456D01*
X93965646Y-106199853D01*
X93840147Y-106074354D01*
X93741544Y-105926784D01*
X93673624Y-105762812D01*
X93639000Y-105588741D01*
X93639000Y-105411259D01*
X93673624Y-105237188D01*
X93741544Y-105073216D01*
X93840147Y-104925646D01*
X93965646Y-104800147D01*
X94113216Y-104701544D01*
X94277188Y-104633624D01*
X94426488Y-104603927D01*
X94451258Y-104599000D01*
X94628742Y-104599000D01*
X94653512Y-104603927D01*
G37*
G36*
X92113512Y-104603927D02*
G01*
X92262812Y-104633624D01*
X92426784Y-104701544D01*
X92574354Y-104800147D01*
X92699853Y-104925646D01*
X92798456Y-105073216D01*
X92866376Y-105237188D01*
X92901000Y-105411259D01*
X92901000Y-105588741D01*
X92866376Y-105762812D01*
X92798456Y-105926784D01*
X92699853Y-106074354D01*
X92574354Y-106199853D01*
X92426784Y-106298456D01*
X92262812Y-106366376D01*
X92113512Y-106396073D01*
X92088742Y-106401000D01*
X91911258Y-106401000D01*
X91886488Y-106396073D01*
X91737188Y-106366376D01*
X91573216Y-106298456D01*
X91425646Y-106199853D01*
X91300147Y-106074354D01*
X91201544Y-105926784D01*
X91133624Y-105762812D01*
X91099000Y-105588741D01*
X91099000Y-105411259D01*
X91133624Y-105237188D01*
X91201544Y-105073216D01*
X91300147Y-104925646D01*
X91425646Y-104800147D01*
X91573216Y-104701544D01*
X91737188Y-104633624D01*
X91886488Y-104603927D01*
X91911258Y-104599000D01*
X92088742Y-104599000D01*
X92113512Y-104603927D01*
G37*
G36*
X92113512Y-102063927D02*
G01*
X92262812Y-102093624D01*
X92426784Y-102161544D01*
X92574354Y-102260147D01*
X92699853Y-102385646D01*
X92798456Y-102533216D01*
X92866376Y-102697188D01*
X92884389Y-102787748D01*
X92898547Y-102858924D01*
X92901000Y-102871259D01*
X92901000Y-103048741D01*
X92866376Y-103222812D01*
X92798456Y-103386784D01*
X92699853Y-103534354D01*
X92574354Y-103659853D01*
X92426784Y-103758456D01*
X92262812Y-103826376D01*
X92113512Y-103856073D01*
X92088742Y-103861000D01*
X91911258Y-103861000D01*
X91886488Y-103856073D01*
X91737188Y-103826376D01*
X91573216Y-103758456D01*
X91425646Y-103659853D01*
X91300147Y-103534354D01*
X91201544Y-103386784D01*
X91133624Y-103222812D01*
X91099000Y-103048741D01*
X91099000Y-102871259D01*
X91101454Y-102858924D01*
X91115611Y-102787748D01*
X91133624Y-102697188D01*
X91201544Y-102533216D01*
X91300147Y-102385646D01*
X91425646Y-102260147D01*
X91573216Y-102161544D01*
X91737188Y-102093624D01*
X91886488Y-102063927D01*
X91911258Y-102059000D01*
X92088742Y-102059000D01*
X92113512Y-102063927D01*
G37*
G36*
X94653512Y-102063927D02*
G01*
X94802812Y-102093624D01*
X94966784Y-102161544D01*
X95114354Y-102260147D01*
X95239853Y-102385646D01*
X95338456Y-102533216D01*
X95406376Y-102697188D01*
X95424389Y-102787748D01*
X95438547Y-102858924D01*
X95441000Y-102871259D01*
X95441000Y-103048741D01*
X95406376Y-103222812D01*
X95338456Y-103386784D01*
X95239853Y-103534354D01*
X95114354Y-103659853D01*
X94966784Y-103758456D01*
X94802812Y-103826376D01*
X94653512Y-103856073D01*
X94628742Y-103861000D01*
X94451258Y-103861000D01*
X94426488Y-103856073D01*
X94277188Y-103826376D01*
X94113216Y-103758456D01*
X93965646Y-103659853D01*
X93840147Y-103534354D01*
X93741544Y-103386784D01*
X93673624Y-103222812D01*
X93639000Y-103048741D01*
X93639000Y-102871259D01*
X93641454Y-102858924D01*
X93655611Y-102787748D01*
X93673624Y-102697188D01*
X93741544Y-102533216D01*
X93840147Y-102385646D01*
X93965646Y-102260147D01*
X94113216Y-102161544D01*
X94277188Y-102093624D01*
X94426488Y-102063927D01*
X94451258Y-102059000D01*
X94628742Y-102059000D01*
X94653512Y-102063927D01*
G37*
G36*
X94637293Y-99520701D02*
G01*
X94802812Y-99553624D01*
X94966784Y-99621544D01*
X95114354Y-99720147D01*
X95239853Y-99845646D01*
X95338456Y-99993216D01*
X95406376Y-100157188D01*
X95441000Y-100331259D01*
X95441000Y-100508741D01*
X95406376Y-100682812D01*
X95338456Y-100846784D01*
X95239853Y-100994354D01*
X95114354Y-101119853D01*
X94966784Y-101218456D01*
X94802812Y-101286376D01*
X94653512Y-101316073D01*
X94628742Y-101321000D01*
X94451258Y-101321000D01*
X94426488Y-101316073D01*
X94277188Y-101286376D01*
X94113216Y-101218456D01*
X93965646Y-101119853D01*
X93840147Y-100994354D01*
X93741544Y-100846784D01*
X93673624Y-100682812D01*
X93639000Y-100508741D01*
X93639000Y-100331259D01*
X93673624Y-100157188D01*
X93741544Y-99993216D01*
X93840147Y-99845646D01*
X93965646Y-99720147D01*
X94113216Y-99621544D01*
X94277188Y-99553624D01*
X94442707Y-99520701D01*
X94451258Y-99519000D01*
X94628742Y-99519000D01*
X94637293Y-99520701D01*
G37*
G36*
X92097293Y-99520701D02*
G01*
X92262812Y-99553624D01*
X92426784Y-99621544D01*
X92574354Y-99720147D01*
X92699853Y-99845646D01*
X92798456Y-99993216D01*
X92866376Y-100157188D01*
X92901000Y-100331259D01*
X92901000Y-100508741D01*
X92866376Y-100682812D01*
X92798456Y-100846784D01*
X92699853Y-100994354D01*
X92574354Y-101119853D01*
X92426784Y-101218456D01*
X92262812Y-101286376D01*
X92113512Y-101316073D01*
X92088742Y-101321000D01*
X91911258Y-101321000D01*
X91886488Y-101316073D01*
X91737188Y-101286376D01*
X91573216Y-101218456D01*
X91425646Y-101119853D01*
X91300147Y-100994354D01*
X91201544Y-100846784D01*
X91133624Y-100682812D01*
X91099000Y-100508741D01*
X91099000Y-100331259D01*
X91133624Y-100157188D01*
X91201544Y-99993216D01*
X91300147Y-99845646D01*
X91425646Y-99720147D01*
X91573216Y-99621544D01*
X91737188Y-99553624D01*
X91902707Y-99520701D01*
X91911258Y-99519000D01*
X92088742Y-99519000D01*
X92097293Y-99520701D01*
G37*
G36*
X135868674Y-97578465D02*
G01*
X135906367Y-97589899D01*
X135941103Y-97608466D01*
X135971548Y-97633452D01*
X135996534Y-97663897D01*
X136015101Y-97698633D01*
X136026535Y-97736326D01*
X136031000Y-97781661D01*
X136031000Y-98618339D01*
X136026535Y-98663674D01*
X136015101Y-98701367D01*
X135996534Y-98736103D01*
X135971548Y-98766548D01*
X135941103Y-98791534D01*
X135906367Y-98810101D01*
X135868674Y-98821535D01*
X135823339Y-98826000D01*
X134736661Y-98826000D01*
X134691326Y-98821535D01*
X134653633Y-98810101D01*
X134618897Y-98791534D01*
X134588452Y-98766548D01*
X134563466Y-98736103D01*
X134544899Y-98701367D01*
X134533465Y-98663674D01*
X134529000Y-98618339D01*
X134529000Y-97781661D01*
X134533465Y-97736326D01*
X134544899Y-97698633D01*
X134563466Y-97663897D01*
X134588452Y-97633452D01*
X134618897Y-97608466D01*
X134653633Y-97589899D01*
X134691326Y-97578465D01*
X134736661Y-97574000D01*
X135823339Y-97574000D01*
X135868674Y-97578465D01*
G37*
G36*
X133898674Y-97568465D02*
G01*
X133936367Y-97579899D01*
X133971103Y-97598466D01*
X134001548Y-97623452D01*
X134026534Y-97653897D01*
X134045101Y-97688633D01*
X134056535Y-97726326D01*
X134061000Y-97771661D01*
X134061000Y-98608339D01*
X134056535Y-98653674D01*
X134045101Y-98691367D01*
X134026534Y-98726103D01*
X134001548Y-98756548D01*
X133971103Y-98781534D01*
X133936367Y-98800101D01*
X133898674Y-98811535D01*
X133853339Y-98816000D01*
X132766661Y-98816000D01*
X132721326Y-98811535D01*
X132683633Y-98800101D01*
X132648897Y-98781534D01*
X132618452Y-98756548D01*
X132593466Y-98726103D01*
X132574899Y-98691367D01*
X132563465Y-98653674D01*
X132559000Y-98608339D01*
X132559000Y-97771661D01*
X132563465Y-97726326D01*
X132574899Y-97688633D01*
X132593466Y-97653897D01*
X132618452Y-97623452D01*
X132648897Y-97598466D01*
X132683633Y-97579899D01*
X132721326Y-97568465D01*
X132766661Y-97564000D01*
X133853339Y-97564000D01*
X133898674Y-97568465D01*
G37*
G36*
X92113512Y-96983927D02*
G01*
X92262812Y-97013624D01*
X92426784Y-97081544D01*
X92574354Y-97180147D01*
X92699853Y-97305646D01*
X92798456Y-97453216D01*
X92866376Y-97617188D01*
X92901000Y-97791259D01*
X92901000Y-97968741D01*
X92866376Y-98142812D01*
X92798456Y-98306784D01*
X92699853Y-98454354D01*
X92574354Y-98579853D01*
X92426784Y-98678456D01*
X92262812Y-98746376D01*
X92113512Y-98776073D01*
X92088742Y-98781000D01*
X91911258Y-98781000D01*
X91886488Y-98776073D01*
X91737188Y-98746376D01*
X91573216Y-98678456D01*
X91425646Y-98579853D01*
X91300147Y-98454354D01*
X91201544Y-98306784D01*
X91133624Y-98142812D01*
X91099000Y-97968741D01*
X91099000Y-97791259D01*
X91133624Y-97617188D01*
X91201544Y-97453216D01*
X91300147Y-97305646D01*
X91425646Y-97180147D01*
X91573216Y-97081544D01*
X91737188Y-97013624D01*
X91886488Y-96983927D01*
X91911258Y-96979000D01*
X92088742Y-96979000D01*
X92113512Y-96983927D01*
G37*
G36*
X94653512Y-96983927D02*
G01*
X94802812Y-97013624D01*
X94966784Y-97081544D01*
X95114354Y-97180147D01*
X95239853Y-97305646D01*
X95338456Y-97453216D01*
X95406376Y-97617188D01*
X95441000Y-97791259D01*
X95441000Y-97968741D01*
X95406376Y-98142812D01*
X95338456Y-98306784D01*
X95239853Y-98454354D01*
X95114354Y-98579853D01*
X94966784Y-98678456D01*
X94802812Y-98746376D01*
X94653512Y-98776073D01*
X94628742Y-98781000D01*
X94451258Y-98781000D01*
X94426488Y-98776073D01*
X94277188Y-98746376D01*
X94113216Y-98678456D01*
X93965646Y-98579853D01*
X93840147Y-98454354D01*
X93741544Y-98306784D01*
X93673624Y-98142812D01*
X93639000Y-97968741D01*
X93639000Y-97791259D01*
X93673624Y-97617188D01*
X93741544Y-97453216D01*
X93840147Y-97305646D01*
X93965646Y-97180147D01*
X94113216Y-97081544D01*
X94277188Y-97013624D01*
X94426488Y-96983927D01*
X94451258Y-96979000D01*
X94628742Y-96979000D01*
X94653512Y-96983927D01*
G37*
G36*
X135868674Y-95528465D02*
G01*
X135906367Y-95539899D01*
X135941103Y-95558466D01*
X135971548Y-95583452D01*
X135996534Y-95613897D01*
X136015101Y-95648633D01*
X136026535Y-95686326D01*
X136031000Y-95731661D01*
X136031000Y-96568339D01*
X136026535Y-96613674D01*
X136015101Y-96651367D01*
X135996534Y-96686103D01*
X135971548Y-96716548D01*
X135941103Y-96741534D01*
X135906367Y-96760101D01*
X135868674Y-96771535D01*
X135823339Y-96776000D01*
X134736661Y-96776000D01*
X134691326Y-96771535D01*
X134653633Y-96760101D01*
X134618897Y-96741534D01*
X134588452Y-96716548D01*
X134563466Y-96686103D01*
X134544899Y-96651367D01*
X134533465Y-96613674D01*
X134529000Y-96568339D01*
X134529000Y-95731661D01*
X134533465Y-95686326D01*
X134544899Y-95648633D01*
X134563466Y-95613897D01*
X134588452Y-95583452D01*
X134618897Y-95558466D01*
X134653633Y-95539899D01*
X134691326Y-95528465D01*
X134736661Y-95524000D01*
X135823339Y-95524000D01*
X135868674Y-95528465D01*
G37*
G36*
X133898674Y-95518465D02*
G01*
X133936367Y-95529899D01*
X133971103Y-95548466D01*
X134001548Y-95573452D01*
X134026534Y-95603897D01*
X134045101Y-95638633D01*
X134056535Y-95676326D01*
X134061000Y-95721661D01*
X134061000Y-96558339D01*
X134056535Y-96603674D01*
X134045101Y-96641367D01*
X134026534Y-96676103D01*
X134001548Y-96706548D01*
X133971103Y-96731534D01*
X133936367Y-96750101D01*
X133898674Y-96761535D01*
X133853339Y-96766000D01*
X132766661Y-96766000D01*
X132721326Y-96761535D01*
X132683633Y-96750101D01*
X132648897Y-96731534D01*
X132618452Y-96706548D01*
X132593466Y-96676103D01*
X132574899Y-96641367D01*
X132563465Y-96603674D01*
X132559000Y-96558339D01*
X132559000Y-95721661D01*
X132563465Y-95676326D01*
X132574899Y-95638633D01*
X132593466Y-95603897D01*
X132618452Y-95573452D01*
X132648897Y-95548466D01*
X132683633Y-95529899D01*
X132721326Y-95518465D01*
X132766661Y-95514000D01*
X133853339Y-95514000D01*
X133898674Y-95518465D01*
G37*
G36*
X94653512Y-94443927D02*
G01*
X94802812Y-94473624D01*
X94966784Y-94541544D01*
X95114354Y-94640147D01*
X95239853Y-94765646D01*
X95338456Y-94913216D01*
X95406376Y-95077188D01*
X95441000Y-95251259D01*
X95441000Y-95428741D01*
X95406376Y-95602812D01*
X95338456Y-95766784D01*
X95239853Y-95914354D01*
X95114354Y-96039853D01*
X94966784Y-96138456D01*
X94802812Y-96206376D01*
X94653512Y-96236073D01*
X94628742Y-96241000D01*
X94451258Y-96241000D01*
X94426488Y-96236073D01*
X94277188Y-96206376D01*
X94113216Y-96138456D01*
X93965646Y-96039853D01*
X93840147Y-95914354D01*
X93741544Y-95766784D01*
X93673624Y-95602812D01*
X93639000Y-95428741D01*
X93639000Y-95251259D01*
X93673624Y-95077188D01*
X93741544Y-94913216D01*
X93840147Y-94765646D01*
X93965646Y-94640147D01*
X94113216Y-94541544D01*
X94277188Y-94473624D01*
X94426488Y-94443927D01*
X94451258Y-94439000D01*
X94628742Y-94439000D01*
X94653512Y-94443927D01*
G37*
G36*
X92113512Y-94443927D02*
G01*
X92262812Y-94473624D01*
X92426784Y-94541544D01*
X92574354Y-94640147D01*
X92699853Y-94765646D01*
X92798456Y-94913216D01*
X92866376Y-95077188D01*
X92901000Y-95251259D01*
X92901000Y-95428741D01*
X92866376Y-95602812D01*
X92798456Y-95766784D01*
X92699853Y-95914354D01*
X92574354Y-96039853D01*
X92426784Y-96138456D01*
X92262812Y-96206376D01*
X92113512Y-96236073D01*
X92088742Y-96241000D01*
X91911258Y-96241000D01*
X91886488Y-96236073D01*
X91737188Y-96206376D01*
X91573216Y-96138456D01*
X91425646Y-96039853D01*
X91300147Y-95914354D01*
X91201544Y-95766784D01*
X91133624Y-95602812D01*
X91099000Y-95428741D01*
X91099000Y-95251259D01*
X91133624Y-95077188D01*
X91201544Y-94913216D01*
X91300147Y-94765646D01*
X91425646Y-94640147D01*
X91573216Y-94541544D01*
X91737188Y-94473624D01*
X91886488Y-94443927D01*
X91911258Y-94439000D01*
X92088742Y-94439000D01*
X92113512Y-94443927D01*
G37*
G36*
X92113512Y-91903927D02*
G01*
X92262812Y-91933624D01*
X92426784Y-92001544D01*
X92574354Y-92100147D01*
X92699853Y-92225646D01*
X92798456Y-92373216D01*
X92866376Y-92537188D01*
X92901000Y-92711259D01*
X92901000Y-92888741D01*
X92866376Y-93062812D01*
X92798456Y-93226784D01*
X92699853Y-93374354D01*
X92574354Y-93499853D01*
X92426784Y-93598456D01*
X92262812Y-93666376D01*
X92113512Y-93696073D01*
X92088742Y-93701000D01*
X91911258Y-93701000D01*
X91886488Y-93696073D01*
X91737188Y-93666376D01*
X91573216Y-93598456D01*
X91425646Y-93499853D01*
X91300147Y-93374354D01*
X91201544Y-93226784D01*
X91133624Y-93062812D01*
X91099000Y-92888741D01*
X91099000Y-92711259D01*
X91133624Y-92537188D01*
X91201544Y-92373216D01*
X91300147Y-92225646D01*
X91425646Y-92100147D01*
X91573216Y-92001544D01*
X91737188Y-91933624D01*
X91886488Y-91903927D01*
X91911258Y-91899000D01*
X92088742Y-91899000D01*
X92113512Y-91903927D01*
G37*
G36*
X94653512Y-91903927D02*
G01*
X94802812Y-91933624D01*
X94966784Y-92001544D01*
X95114354Y-92100147D01*
X95239853Y-92225646D01*
X95338456Y-92373216D01*
X95406376Y-92537188D01*
X95441000Y-92711259D01*
X95441000Y-92888741D01*
X95406376Y-93062812D01*
X95338456Y-93226784D01*
X95239853Y-93374354D01*
X95114354Y-93499853D01*
X94966784Y-93598456D01*
X94802812Y-93666376D01*
X94653512Y-93696073D01*
X94628742Y-93701000D01*
X94451258Y-93701000D01*
X94426488Y-93696073D01*
X94277188Y-93666376D01*
X94113216Y-93598456D01*
X93965646Y-93499853D01*
X93840147Y-93374354D01*
X93741544Y-93226784D01*
X93673624Y-93062812D01*
X93639000Y-92888741D01*
X93639000Y-92711259D01*
X93673624Y-92537188D01*
X93741544Y-92373216D01*
X93840147Y-92225646D01*
X93965646Y-92100147D01*
X94113216Y-92001544D01*
X94277188Y-91933624D01*
X94426488Y-91903927D01*
X94451258Y-91899000D01*
X94628742Y-91899000D01*
X94653512Y-91903927D01*
G37*
G36*
X92113512Y-89363927D02*
G01*
X92262812Y-89393624D01*
X92426784Y-89461544D01*
X92574354Y-89560147D01*
X92699853Y-89685646D01*
X92798456Y-89833216D01*
X92866376Y-89997188D01*
X92901000Y-90171259D01*
X92901000Y-90348741D01*
X92866376Y-90522812D01*
X92798456Y-90686784D01*
X92699853Y-90834354D01*
X92574354Y-90959853D01*
X92426784Y-91058456D01*
X92262812Y-91126376D01*
X92113512Y-91156073D01*
X92088742Y-91161000D01*
X91911258Y-91161000D01*
X91886488Y-91156073D01*
X91737188Y-91126376D01*
X91573216Y-91058456D01*
X91425646Y-90959853D01*
X91300147Y-90834354D01*
X91201544Y-90686784D01*
X91133624Y-90522812D01*
X91099000Y-90348741D01*
X91099000Y-90171259D01*
X91133624Y-89997188D01*
X91201544Y-89833216D01*
X91300147Y-89685646D01*
X91425646Y-89560147D01*
X91573216Y-89461544D01*
X91737188Y-89393624D01*
X91886488Y-89363927D01*
X91911258Y-89359000D01*
X92088742Y-89359000D01*
X92113512Y-89363927D01*
G37*
G36*
X94653512Y-89363927D02*
G01*
X94802812Y-89393624D01*
X94966784Y-89461544D01*
X95114354Y-89560147D01*
X95239853Y-89685646D01*
X95338456Y-89833216D01*
X95406376Y-89997188D01*
X95441000Y-90171259D01*
X95441000Y-90348741D01*
X95406376Y-90522812D01*
X95338456Y-90686784D01*
X95239853Y-90834354D01*
X95114354Y-90959853D01*
X94966784Y-91058456D01*
X94802812Y-91126376D01*
X94653512Y-91156073D01*
X94628742Y-91161000D01*
X94451258Y-91161000D01*
X94426488Y-91156073D01*
X94277188Y-91126376D01*
X94113216Y-91058456D01*
X93965646Y-90959853D01*
X93840147Y-90834354D01*
X93741544Y-90686784D01*
X93673624Y-90522812D01*
X93639000Y-90348741D01*
X93639000Y-90171259D01*
X93673624Y-89997188D01*
X93741544Y-89833216D01*
X93840147Y-89685646D01*
X93965646Y-89560147D01*
X94113216Y-89461544D01*
X94277188Y-89393624D01*
X94426488Y-89363927D01*
X94451258Y-89359000D01*
X94628742Y-89359000D01*
X94653512Y-89363927D01*
G37*
G36*
X94653512Y-86823927D02*
G01*
X94802812Y-86853624D01*
X94966784Y-86921544D01*
X95114354Y-87020147D01*
X95239853Y-87145646D01*
X95338456Y-87293216D01*
X95406376Y-87457188D01*
X95441000Y-87631259D01*
X95441000Y-87808741D01*
X95406376Y-87982812D01*
X95338456Y-88146784D01*
X95239853Y-88294354D01*
X95114354Y-88419853D01*
X94966784Y-88518456D01*
X94802812Y-88586376D01*
X94653512Y-88616073D01*
X94628742Y-88621000D01*
X94451258Y-88621000D01*
X94426488Y-88616073D01*
X94277188Y-88586376D01*
X94113216Y-88518456D01*
X93965646Y-88419853D01*
X93840147Y-88294354D01*
X93741544Y-88146784D01*
X93673624Y-87982812D01*
X93639000Y-87808741D01*
X93639000Y-87631259D01*
X93673624Y-87457188D01*
X93741544Y-87293216D01*
X93840147Y-87145646D01*
X93965646Y-87020147D01*
X94113216Y-86921544D01*
X94277188Y-86853624D01*
X94426488Y-86823927D01*
X94451258Y-86819000D01*
X94628742Y-86819000D01*
X94653512Y-86823927D01*
G37*
G36*
X92113512Y-86823927D02*
G01*
X92262812Y-86853624D01*
X92426784Y-86921544D01*
X92574354Y-87020147D01*
X92699853Y-87145646D01*
X92798456Y-87293216D01*
X92866376Y-87457188D01*
X92901000Y-87631259D01*
X92901000Y-87808741D01*
X92866376Y-87982812D01*
X92798456Y-88146784D01*
X92699853Y-88294354D01*
X92574354Y-88419853D01*
X92426784Y-88518456D01*
X92262812Y-88586376D01*
X92113512Y-88616073D01*
X92088742Y-88621000D01*
X91911258Y-88621000D01*
X91886488Y-88616073D01*
X91737188Y-88586376D01*
X91573216Y-88518456D01*
X91425646Y-88419853D01*
X91300147Y-88294354D01*
X91201544Y-88146784D01*
X91133624Y-87982812D01*
X91099000Y-87808741D01*
X91099000Y-87631259D01*
X91133624Y-87457188D01*
X91201544Y-87293216D01*
X91300147Y-87145646D01*
X91425646Y-87020147D01*
X91573216Y-86921544D01*
X91737188Y-86853624D01*
X91886488Y-86823927D01*
X91911258Y-86819000D01*
X92088742Y-86819000D01*
X92113512Y-86823927D01*
G37*
G36*
X94653512Y-84283927D02*
G01*
X94802812Y-84313624D01*
X94966784Y-84381544D01*
X95114354Y-84480147D01*
X95239853Y-84605646D01*
X95338456Y-84753216D01*
X95406376Y-84917188D01*
X95441000Y-85091259D01*
X95441000Y-85268741D01*
X95406376Y-85442812D01*
X95338456Y-85606784D01*
X95239853Y-85754354D01*
X95114354Y-85879853D01*
X94966784Y-85978456D01*
X94802812Y-86046376D01*
X94653512Y-86076073D01*
X94628742Y-86081000D01*
X94451258Y-86081000D01*
X94426488Y-86076073D01*
X94277188Y-86046376D01*
X94113216Y-85978456D01*
X93965646Y-85879853D01*
X93840147Y-85754354D01*
X93741544Y-85606784D01*
X93673624Y-85442812D01*
X93639000Y-85268741D01*
X93639000Y-85091259D01*
X93673624Y-84917188D01*
X93741544Y-84753216D01*
X93840147Y-84605646D01*
X93965646Y-84480147D01*
X94113216Y-84381544D01*
X94277188Y-84313624D01*
X94426488Y-84283927D01*
X94451258Y-84279000D01*
X94628742Y-84279000D01*
X94653512Y-84283927D01*
G37*
G36*
X92113512Y-84283927D02*
G01*
X92262812Y-84313624D01*
X92426784Y-84381544D01*
X92574354Y-84480147D01*
X92699853Y-84605646D01*
X92798456Y-84753216D01*
X92866376Y-84917188D01*
X92901000Y-85091259D01*
X92901000Y-85268741D01*
X92866376Y-85442812D01*
X92798456Y-85606784D01*
X92699853Y-85754354D01*
X92574354Y-85879853D01*
X92426784Y-85978456D01*
X92262812Y-86046376D01*
X92113512Y-86076073D01*
X92088742Y-86081000D01*
X91911258Y-86081000D01*
X91886488Y-86076073D01*
X91737188Y-86046376D01*
X91573216Y-85978456D01*
X91425646Y-85879853D01*
X91300147Y-85754354D01*
X91201544Y-85606784D01*
X91133624Y-85442812D01*
X91099000Y-85268741D01*
X91099000Y-85091259D01*
X91133624Y-84917188D01*
X91201544Y-84753216D01*
X91300147Y-84605646D01*
X91425646Y-84480147D01*
X91573216Y-84381544D01*
X91737188Y-84313624D01*
X91886488Y-84283927D01*
X91911258Y-84279000D01*
X92088742Y-84279000D01*
X92113512Y-84283927D01*
G37*
G36*
X94653512Y-81743927D02*
G01*
X94802812Y-81773624D01*
X94966784Y-81841544D01*
X95114354Y-81940147D01*
X95239853Y-82065646D01*
X95338456Y-82213216D01*
X95406376Y-82377188D01*
X95441000Y-82551259D01*
X95441000Y-82728741D01*
X95406376Y-82902812D01*
X95338456Y-83066784D01*
X95239853Y-83214354D01*
X95114354Y-83339853D01*
X94966784Y-83438456D01*
X94802812Y-83506376D01*
X94653512Y-83536073D01*
X94628742Y-83541000D01*
X94451258Y-83541000D01*
X94426488Y-83536073D01*
X94277188Y-83506376D01*
X94113216Y-83438456D01*
X93965646Y-83339853D01*
X93840147Y-83214354D01*
X93741544Y-83066784D01*
X93673624Y-82902812D01*
X93639000Y-82728741D01*
X93639000Y-82551259D01*
X93673624Y-82377188D01*
X93741544Y-82213216D01*
X93840147Y-82065646D01*
X93965646Y-81940147D01*
X94113216Y-81841544D01*
X94277188Y-81773624D01*
X94426488Y-81743927D01*
X94451258Y-81739000D01*
X94628742Y-81739000D01*
X94653512Y-81743927D01*
G37*
G36*
X92113512Y-81743927D02*
G01*
X92262812Y-81773624D01*
X92426784Y-81841544D01*
X92574354Y-81940147D01*
X92699853Y-82065646D01*
X92798456Y-82213216D01*
X92866376Y-82377188D01*
X92901000Y-82551259D01*
X92901000Y-82728741D01*
X92866376Y-82902812D01*
X92798456Y-83066784D01*
X92699853Y-83214354D01*
X92574354Y-83339853D01*
X92426784Y-83438456D01*
X92262812Y-83506376D01*
X92113512Y-83536073D01*
X92088742Y-83541000D01*
X91911258Y-83541000D01*
X91886488Y-83536073D01*
X91737188Y-83506376D01*
X91573216Y-83438456D01*
X91425646Y-83339853D01*
X91300147Y-83214354D01*
X91201544Y-83066784D01*
X91133624Y-82902812D01*
X91099000Y-82728741D01*
X91099000Y-82551259D01*
X91133624Y-82377188D01*
X91201544Y-82213216D01*
X91300147Y-82065646D01*
X91425646Y-81940147D01*
X91573216Y-81841544D01*
X91737188Y-81773624D01*
X91886488Y-81743927D01*
X91911258Y-81739000D01*
X92088742Y-81739000D01*
X92113512Y-81743927D01*
G37*
G36*
X94653512Y-79203927D02*
G01*
X94802812Y-79233624D01*
X94966784Y-79301544D01*
X95114354Y-79400147D01*
X95239853Y-79525646D01*
X95338456Y-79673216D01*
X95406376Y-79837188D01*
X95441000Y-80011259D01*
X95441000Y-80188741D01*
X95406376Y-80362812D01*
X95338456Y-80526784D01*
X95239853Y-80674354D01*
X95114354Y-80799853D01*
X94966784Y-80898456D01*
X94802812Y-80966376D01*
X94653512Y-80996073D01*
X94628742Y-81001000D01*
X94451258Y-81001000D01*
X94426488Y-80996073D01*
X94277188Y-80966376D01*
X94113216Y-80898456D01*
X93965646Y-80799853D01*
X93840147Y-80674354D01*
X93741544Y-80526784D01*
X93673624Y-80362812D01*
X93639000Y-80188741D01*
X93639000Y-80011259D01*
X93673624Y-79837188D01*
X93741544Y-79673216D01*
X93840147Y-79525646D01*
X93965646Y-79400147D01*
X94113216Y-79301544D01*
X94277188Y-79233624D01*
X94426488Y-79203927D01*
X94451258Y-79199000D01*
X94628742Y-79199000D01*
X94653512Y-79203927D01*
G37*
G36*
X92113512Y-79203927D02*
G01*
X92262812Y-79233624D01*
X92426784Y-79301544D01*
X92574354Y-79400147D01*
X92699853Y-79525646D01*
X92798456Y-79673216D01*
X92866376Y-79837188D01*
X92901000Y-80011259D01*
X92901000Y-80188741D01*
X92866376Y-80362812D01*
X92798456Y-80526784D01*
X92699853Y-80674354D01*
X92574354Y-80799853D01*
X92426784Y-80898456D01*
X92262812Y-80966376D01*
X92113512Y-80996073D01*
X92088742Y-81001000D01*
X91911258Y-81001000D01*
X91886488Y-80996073D01*
X91737188Y-80966376D01*
X91573216Y-80898456D01*
X91425646Y-80799853D01*
X91300147Y-80674354D01*
X91201544Y-80526784D01*
X91133624Y-80362812D01*
X91099000Y-80188741D01*
X91099000Y-80011259D01*
X91133624Y-79837188D01*
X91201544Y-79673216D01*
X91300147Y-79525646D01*
X91425646Y-79400147D01*
X91573216Y-79301544D01*
X91737188Y-79233624D01*
X91886488Y-79203927D01*
X91911258Y-79199000D01*
X92088742Y-79199000D01*
X92113512Y-79203927D01*
G37*
G36*
X130501000Y-80851000D02*
G01*
X111499000Y-80851000D01*
X111499000Y-79449000D01*
X130501000Y-79449000D01*
X130501000Y-80851000D01*
G37*
G36*
X94653512Y-76663927D02*
G01*
X94802812Y-76693624D01*
X94966784Y-76761544D01*
X95114354Y-76860147D01*
X95239853Y-76985646D01*
X95338456Y-77133216D01*
X95406376Y-77297188D01*
X95441000Y-77471259D01*
X95441000Y-77648741D01*
X95406376Y-77822812D01*
X95338456Y-77986784D01*
X95239853Y-78134354D01*
X95114354Y-78259853D01*
X94966784Y-78358456D01*
X94802812Y-78426376D01*
X94653512Y-78456073D01*
X94628742Y-78461000D01*
X94451258Y-78461000D01*
X94426488Y-78456073D01*
X94277188Y-78426376D01*
X94113216Y-78358456D01*
X93965646Y-78259853D01*
X93840147Y-78134354D01*
X93741544Y-77986784D01*
X93673624Y-77822812D01*
X93639000Y-77648741D01*
X93639000Y-77471259D01*
X93673624Y-77297188D01*
X93741544Y-77133216D01*
X93840147Y-76985646D01*
X93965646Y-76860147D01*
X94113216Y-76761544D01*
X94277188Y-76693624D01*
X94426488Y-76663927D01*
X94451258Y-76659000D01*
X94628742Y-76659000D01*
X94653512Y-76663927D01*
G37*
G36*
X92113512Y-76663927D02*
G01*
X92262812Y-76693624D01*
X92426784Y-76761544D01*
X92574354Y-76860147D01*
X92699853Y-76985646D01*
X92798456Y-77133216D01*
X92866376Y-77297188D01*
X92901000Y-77471259D01*
X92901000Y-77648741D01*
X92866376Y-77822812D01*
X92798456Y-77986784D01*
X92699853Y-78134354D01*
X92574354Y-78259853D01*
X92426784Y-78358456D01*
X92262812Y-78426376D01*
X92113512Y-78456073D01*
X92088742Y-78461000D01*
X91911258Y-78461000D01*
X91886488Y-78456073D01*
X91737188Y-78426376D01*
X91573216Y-78358456D01*
X91425646Y-78259853D01*
X91300147Y-78134354D01*
X91201544Y-77986784D01*
X91133624Y-77822812D01*
X91099000Y-77648741D01*
X91099000Y-77471259D01*
X91133624Y-77297188D01*
X91201544Y-77133216D01*
X91300147Y-76985646D01*
X91425646Y-76860147D01*
X91573216Y-76761544D01*
X91737188Y-76693624D01*
X91886488Y-76663927D01*
X91911258Y-76659000D01*
X92088742Y-76659000D01*
X92113512Y-76663927D01*
G37*
G36*
X132851000Y-78301000D02*
G01*
X131449000Y-78301000D01*
X131449000Y-65699000D01*
X132851000Y-65699000D01*
X132851000Y-78301000D01*
G37*
G36*
X110551000Y-78301000D02*
G01*
X109149000Y-78301000D01*
X109149000Y-65699000D01*
X110551000Y-65699000D01*
X110551000Y-78301000D01*
G37*
G36*
X94653512Y-74123927D02*
G01*
X94802812Y-74153624D01*
X94966784Y-74221544D01*
X95114354Y-74320147D01*
X95239853Y-74445646D01*
X95338456Y-74593216D01*
X95406376Y-74757188D01*
X95441000Y-74931259D01*
X95441000Y-75108741D01*
X95406376Y-75282812D01*
X95338456Y-75446784D01*
X95239853Y-75594354D01*
X95114354Y-75719853D01*
X94966784Y-75818456D01*
X94802812Y-75886376D01*
X94653512Y-75916073D01*
X94628742Y-75921000D01*
X94451258Y-75921000D01*
X94426488Y-75916073D01*
X94277188Y-75886376D01*
X94113216Y-75818456D01*
X93965646Y-75719853D01*
X93840147Y-75594354D01*
X93741544Y-75446784D01*
X93673624Y-75282812D01*
X93639000Y-75108741D01*
X93639000Y-74931259D01*
X93673624Y-74757188D01*
X93741544Y-74593216D01*
X93840147Y-74445646D01*
X93965646Y-74320147D01*
X94113216Y-74221544D01*
X94277188Y-74153624D01*
X94426488Y-74123927D01*
X94451258Y-74119000D01*
X94628742Y-74119000D01*
X94653512Y-74123927D01*
G37*
G36*
X92113512Y-74123927D02*
G01*
X92262812Y-74153624D01*
X92426784Y-74221544D01*
X92574354Y-74320147D01*
X92699853Y-74445646D01*
X92798456Y-74593216D01*
X92866376Y-74757188D01*
X92901000Y-74931259D01*
X92901000Y-75108741D01*
X92866376Y-75282812D01*
X92798456Y-75446784D01*
X92699853Y-75594354D01*
X92574354Y-75719853D01*
X92426784Y-75818456D01*
X92262812Y-75886376D01*
X92113512Y-75916073D01*
X92088742Y-75921000D01*
X91911258Y-75921000D01*
X91886488Y-75916073D01*
X91737188Y-75886376D01*
X91573216Y-75818456D01*
X91425646Y-75719853D01*
X91300147Y-75594354D01*
X91201544Y-75446784D01*
X91133624Y-75282812D01*
X91099000Y-75108741D01*
X91099000Y-74931259D01*
X91133624Y-74757188D01*
X91201544Y-74593216D01*
X91300147Y-74445646D01*
X91425646Y-74320147D01*
X91573216Y-74221544D01*
X91737188Y-74153624D01*
X91886488Y-74123927D01*
X91911258Y-74119000D01*
X92088742Y-74119000D01*
X92113512Y-74123927D01*
G37*
G36*
X92113512Y-71583927D02*
G01*
X92262812Y-71613624D01*
X92426784Y-71681544D01*
X92574354Y-71780147D01*
X92699853Y-71905646D01*
X92798456Y-72053216D01*
X92866376Y-72217188D01*
X92896073Y-72366488D01*
X92901000Y-72391258D01*
X92901000Y-72568742D01*
X92896073Y-72593512D01*
X92866376Y-72742812D01*
X92798456Y-72906784D01*
X92699853Y-73054354D01*
X92574354Y-73179853D01*
X92426784Y-73278456D01*
X92262812Y-73346376D01*
X92113512Y-73376073D01*
X92088742Y-73381000D01*
X91911258Y-73381000D01*
X91886488Y-73376073D01*
X91737188Y-73346376D01*
X91573216Y-73278456D01*
X91425646Y-73179853D01*
X91300147Y-73054354D01*
X91201544Y-72906784D01*
X91133624Y-72742812D01*
X91103927Y-72593512D01*
X91099000Y-72568742D01*
X91099000Y-72391258D01*
X91103927Y-72366488D01*
X91133624Y-72217188D01*
X91201544Y-72053216D01*
X91300147Y-71905646D01*
X91425646Y-71780147D01*
X91573216Y-71681544D01*
X91737188Y-71613624D01*
X91886488Y-71583927D01*
X91911258Y-71579000D01*
X92088742Y-71579000D01*
X92113512Y-71583927D01*
G37*
G36*
X94653512Y-71583927D02*
G01*
X94802812Y-71613624D01*
X94966784Y-71681544D01*
X95114354Y-71780147D01*
X95239853Y-71905646D01*
X95338456Y-72053216D01*
X95406376Y-72217188D01*
X95436073Y-72366488D01*
X95441000Y-72391258D01*
X95441000Y-72568742D01*
X95436073Y-72593512D01*
X95406376Y-72742812D01*
X95338456Y-72906784D01*
X95239853Y-73054354D01*
X95114354Y-73179853D01*
X94966784Y-73278456D01*
X94802812Y-73346376D01*
X94653512Y-73376073D01*
X94628742Y-73381000D01*
X94451258Y-73381000D01*
X94426488Y-73376073D01*
X94277188Y-73346376D01*
X94113216Y-73278456D01*
X93965646Y-73179853D01*
X93840147Y-73054354D01*
X93741544Y-72906784D01*
X93673624Y-72742812D01*
X93643927Y-72593512D01*
X93639000Y-72568742D01*
X93639000Y-72391258D01*
X93643927Y-72366488D01*
X93673624Y-72217188D01*
X93741544Y-72053216D01*
X93840147Y-71905646D01*
X93965646Y-71780147D01*
X94113216Y-71681544D01*
X94277188Y-71613624D01*
X94426488Y-71583927D01*
X94451258Y-71579000D01*
X94628742Y-71579000D01*
X94653512Y-71583927D01*
G37*
G36*
X135358674Y-71448465D02*
G01*
X135396367Y-71459899D01*
X135431103Y-71478466D01*
X135461548Y-71503452D01*
X135486534Y-71533897D01*
X135505101Y-71568633D01*
X135516535Y-71606326D01*
X135521000Y-71651661D01*
X135521000Y-72488339D01*
X135516535Y-72533674D01*
X135505101Y-72571367D01*
X135486534Y-72606103D01*
X135461548Y-72636548D01*
X135431103Y-72661534D01*
X135396367Y-72680101D01*
X135358674Y-72691535D01*
X135313339Y-72696000D01*
X134226661Y-72696000D01*
X134181326Y-72691535D01*
X134143633Y-72680101D01*
X134108897Y-72661534D01*
X134078452Y-72636548D01*
X134053466Y-72606103D01*
X134034899Y-72571367D01*
X134023465Y-72533674D01*
X134019000Y-72488339D01*
X134019000Y-71651661D01*
X134023465Y-71606326D01*
X134034899Y-71568633D01*
X134053466Y-71533897D01*
X134078452Y-71503452D01*
X134108897Y-71478466D01*
X134143633Y-71459899D01*
X134181326Y-71448465D01*
X134226661Y-71444000D01*
X135313339Y-71444000D01*
X135358674Y-71448465D01*
G37*
G36*
X137288674Y-71438465D02*
G01*
X137326367Y-71449899D01*
X137361103Y-71468466D01*
X137391548Y-71493452D01*
X137416534Y-71523897D01*
X137435101Y-71558633D01*
X137446535Y-71596326D01*
X137451000Y-71641661D01*
X137451000Y-72478339D01*
X137446535Y-72523674D01*
X137435101Y-72561367D01*
X137416534Y-72596103D01*
X137391548Y-72626548D01*
X137361103Y-72651534D01*
X137326367Y-72670101D01*
X137288674Y-72681535D01*
X137243339Y-72686000D01*
X136156661Y-72686000D01*
X136111326Y-72681535D01*
X136073633Y-72670101D01*
X136038897Y-72651534D01*
X136008452Y-72626548D01*
X135983466Y-72596103D01*
X135964899Y-72561367D01*
X135953465Y-72523674D01*
X135949000Y-72478339D01*
X135949000Y-71641661D01*
X135953465Y-71596326D01*
X135964899Y-71558633D01*
X135983466Y-71523897D01*
X136008452Y-71493452D01*
X136038897Y-71468466D01*
X136073633Y-71449899D01*
X136111326Y-71438465D01*
X136156661Y-71434000D01*
X137243339Y-71434000D01*
X137288674Y-71438465D01*
G37*
G36*
X92113512Y-69043927D02*
G01*
X92262812Y-69073624D01*
X92426784Y-69141544D01*
X92574354Y-69240147D01*
X92699853Y-69365646D01*
X92798456Y-69513216D01*
X92866376Y-69677188D01*
X92901000Y-69851259D01*
X92901000Y-70028741D01*
X92866376Y-70202812D01*
X92798456Y-70366784D01*
X92699853Y-70514354D01*
X92574354Y-70639853D01*
X92426784Y-70738456D01*
X92262812Y-70806376D01*
X92113512Y-70836073D01*
X92088742Y-70841000D01*
X91911258Y-70841000D01*
X91886488Y-70836073D01*
X91737188Y-70806376D01*
X91573216Y-70738456D01*
X91425646Y-70639853D01*
X91300147Y-70514354D01*
X91201544Y-70366784D01*
X91133624Y-70202812D01*
X91099000Y-70028741D01*
X91099000Y-69851259D01*
X91133624Y-69677188D01*
X91201544Y-69513216D01*
X91300147Y-69365646D01*
X91425646Y-69240147D01*
X91573216Y-69141544D01*
X91737188Y-69073624D01*
X91886488Y-69043927D01*
X91911258Y-69039000D01*
X92088742Y-69039000D01*
X92113512Y-69043927D01*
G37*
G36*
X94653512Y-69043927D02*
G01*
X94802812Y-69073624D01*
X94966784Y-69141544D01*
X95114354Y-69240147D01*
X95239853Y-69365646D01*
X95338456Y-69513216D01*
X95406376Y-69677188D01*
X95441000Y-69851259D01*
X95441000Y-70028741D01*
X95406376Y-70202812D01*
X95338456Y-70366784D01*
X95239853Y-70514354D01*
X95114354Y-70639853D01*
X94966784Y-70738456D01*
X94802812Y-70806376D01*
X94653512Y-70836073D01*
X94628742Y-70841000D01*
X94451258Y-70841000D01*
X94426488Y-70836073D01*
X94277188Y-70806376D01*
X94113216Y-70738456D01*
X93965646Y-70639853D01*
X93840147Y-70514354D01*
X93741544Y-70366784D01*
X93673624Y-70202812D01*
X93639000Y-70028741D01*
X93639000Y-69851259D01*
X93673624Y-69677188D01*
X93741544Y-69513216D01*
X93840147Y-69365646D01*
X93965646Y-69240147D01*
X94113216Y-69141544D01*
X94277188Y-69073624D01*
X94426488Y-69043927D01*
X94451258Y-69039000D01*
X94628742Y-69039000D01*
X94653512Y-69043927D01*
G37*
G36*
X135358674Y-69398465D02*
G01*
X135396367Y-69409899D01*
X135431103Y-69428466D01*
X135461548Y-69453452D01*
X135486534Y-69483897D01*
X135505101Y-69518633D01*
X135516535Y-69556326D01*
X135521000Y-69601661D01*
X135521000Y-70438339D01*
X135516535Y-70483674D01*
X135505101Y-70521367D01*
X135486534Y-70556103D01*
X135461548Y-70586548D01*
X135431103Y-70611534D01*
X135396367Y-70630101D01*
X135358674Y-70641535D01*
X135313339Y-70646000D01*
X134226661Y-70646000D01*
X134181326Y-70641535D01*
X134143633Y-70630101D01*
X134108897Y-70611534D01*
X134078452Y-70586548D01*
X134053466Y-70556103D01*
X134034899Y-70521367D01*
X134023465Y-70483674D01*
X134019000Y-70438339D01*
X134019000Y-69601661D01*
X134023465Y-69556326D01*
X134034899Y-69518633D01*
X134053466Y-69483897D01*
X134078452Y-69453452D01*
X134108897Y-69428466D01*
X134143633Y-69409899D01*
X134181326Y-69398465D01*
X134226661Y-69394000D01*
X135313339Y-69394000D01*
X135358674Y-69398465D01*
G37*
G36*
X137288674Y-69388465D02*
G01*
X137326367Y-69399899D01*
X137361103Y-69418466D01*
X137391548Y-69443452D01*
X137416534Y-69473897D01*
X137435101Y-69508633D01*
X137446535Y-69546326D01*
X137451000Y-69591661D01*
X137451000Y-70428339D01*
X137446535Y-70473674D01*
X137435101Y-70511367D01*
X137416534Y-70546103D01*
X137391548Y-70576548D01*
X137361103Y-70601534D01*
X137326367Y-70620101D01*
X137288674Y-70631535D01*
X137243339Y-70636000D01*
X136156661Y-70636000D01*
X136111326Y-70631535D01*
X136073633Y-70620101D01*
X136038897Y-70601534D01*
X136008452Y-70576548D01*
X135983466Y-70546103D01*
X135964899Y-70511367D01*
X135953465Y-70473674D01*
X135949000Y-70428339D01*
X135949000Y-69591661D01*
X135953465Y-69546326D01*
X135964899Y-69508633D01*
X135983466Y-69473897D01*
X136008452Y-69443452D01*
X136038897Y-69418466D01*
X136073633Y-69399899D01*
X136111326Y-69388465D01*
X136156661Y-69384000D01*
X137243339Y-69384000D01*
X137288674Y-69388465D01*
G37*
G36*
X94653512Y-66503927D02*
G01*
X94802812Y-66533624D01*
X94966784Y-66601544D01*
X95114354Y-66700147D01*
X95239853Y-66825646D01*
X95338456Y-66973216D01*
X95406376Y-67137188D01*
X95441000Y-67311259D01*
X95441000Y-67488741D01*
X95406376Y-67662812D01*
X95338456Y-67826784D01*
X95239853Y-67974354D01*
X95114354Y-68099853D01*
X94966784Y-68198456D01*
X94802812Y-68266376D01*
X94653512Y-68296073D01*
X94628742Y-68301000D01*
X94451258Y-68301000D01*
X94426488Y-68296073D01*
X94277188Y-68266376D01*
X94113216Y-68198456D01*
X93965646Y-68099853D01*
X93840147Y-67974354D01*
X93741544Y-67826784D01*
X93673624Y-67662812D01*
X93639000Y-67488741D01*
X93639000Y-67311259D01*
X93673624Y-67137188D01*
X93741544Y-66973216D01*
X93840147Y-66825646D01*
X93965646Y-66700147D01*
X94113216Y-66601544D01*
X94277188Y-66533624D01*
X94426488Y-66503927D01*
X94451258Y-66499000D01*
X94628742Y-66499000D01*
X94653512Y-66503927D01*
G37*
G36*
X92113512Y-66503927D02*
G01*
X92262812Y-66533624D01*
X92426784Y-66601544D01*
X92574354Y-66700147D01*
X92699853Y-66825646D01*
X92798456Y-66973216D01*
X92866376Y-67137188D01*
X92901000Y-67311259D01*
X92901000Y-67488741D01*
X92866376Y-67662812D01*
X92798456Y-67826784D01*
X92699853Y-67974354D01*
X92574354Y-68099853D01*
X92426784Y-68198456D01*
X92262812Y-68266376D01*
X92113512Y-68296073D01*
X92088742Y-68301000D01*
X91911258Y-68301000D01*
X91886488Y-68296073D01*
X91737188Y-68266376D01*
X91573216Y-68198456D01*
X91425646Y-68099853D01*
X91300147Y-67974354D01*
X91201544Y-67826784D01*
X91133624Y-67662812D01*
X91099000Y-67488741D01*
X91099000Y-67311259D01*
X91133624Y-67137188D01*
X91201544Y-66973216D01*
X91300147Y-66825646D01*
X91425646Y-66700147D01*
X91573216Y-66601544D01*
X91737188Y-66533624D01*
X91886488Y-66503927D01*
X91911258Y-66499000D01*
X92088742Y-66499000D01*
X92113512Y-66503927D01*
G37*
G36*
X92113512Y-63963927D02*
G01*
X92262812Y-63993624D01*
X92426784Y-64061544D01*
X92574354Y-64160147D01*
X92699853Y-64285646D01*
X92798456Y-64433216D01*
X92866376Y-64597188D01*
X92901000Y-64771259D01*
X92901000Y-64948741D01*
X92866376Y-65122812D01*
X92798456Y-65286784D01*
X92699853Y-65434354D01*
X92574354Y-65559853D01*
X92426784Y-65658456D01*
X92262812Y-65726376D01*
X92113512Y-65756073D01*
X92088742Y-65761000D01*
X91911258Y-65761000D01*
X91886488Y-65756073D01*
X91737188Y-65726376D01*
X91573216Y-65658456D01*
X91425646Y-65559853D01*
X91300147Y-65434354D01*
X91201544Y-65286784D01*
X91133624Y-65122812D01*
X91099000Y-64948741D01*
X91099000Y-64771259D01*
X91133624Y-64597188D01*
X91201544Y-64433216D01*
X91300147Y-64285646D01*
X91425646Y-64160147D01*
X91573216Y-64061544D01*
X91737188Y-63993624D01*
X91886488Y-63963927D01*
X91911258Y-63959000D01*
X92088742Y-63959000D01*
X92113512Y-63963927D01*
G37*
G36*
X94653512Y-63963927D02*
G01*
X94802812Y-63993624D01*
X94966784Y-64061544D01*
X95114354Y-64160147D01*
X95239853Y-64285646D01*
X95338456Y-64433216D01*
X95406376Y-64597188D01*
X95441000Y-64771259D01*
X95441000Y-64948741D01*
X95406376Y-65122812D01*
X95338456Y-65286784D01*
X95239853Y-65434354D01*
X95114354Y-65559853D01*
X94966784Y-65658456D01*
X94802812Y-65726376D01*
X94653512Y-65756073D01*
X94628742Y-65761000D01*
X94451258Y-65761000D01*
X94426488Y-65756073D01*
X94277188Y-65726376D01*
X94113216Y-65658456D01*
X93965646Y-65559853D01*
X93840147Y-65434354D01*
X93741544Y-65286784D01*
X93673624Y-65122812D01*
X93639000Y-64948741D01*
X93639000Y-64771259D01*
X93673624Y-64597188D01*
X93741544Y-64433216D01*
X93840147Y-64285646D01*
X93965646Y-64160147D01*
X94113216Y-64061544D01*
X94277188Y-63993624D01*
X94426488Y-63963927D01*
X94451258Y-63959000D01*
X94628742Y-63959000D01*
X94653512Y-63963927D01*
G37*
G36*
X130501000Y-64551000D02*
G01*
X111499000Y-64551000D01*
X111499000Y-63149000D01*
X130501000Y-63149000D01*
X130501000Y-64551000D01*
G37*
G36*
X92113512Y-61423927D02*
G01*
X92262812Y-61453624D01*
X92426784Y-61521544D01*
X92574354Y-61620147D01*
X92699853Y-61745646D01*
X92798456Y-61893216D01*
X92866376Y-62057188D01*
X92901000Y-62231259D01*
X92901000Y-62408741D01*
X92866376Y-62582812D01*
X92798456Y-62746784D01*
X92699853Y-62894354D01*
X92574354Y-63019853D01*
X92426784Y-63118456D01*
X92262812Y-63186376D01*
X92113512Y-63216073D01*
X92088742Y-63221000D01*
X91911258Y-63221000D01*
X91886488Y-63216073D01*
X91737188Y-63186376D01*
X91573216Y-63118456D01*
X91425646Y-63019853D01*
X91300147Y-62894354D01*
X91201544Y-62746784D01*
X91133624Y-62582812D01*
X91099000Y-62408741D01*
X91099000Y-62231259D01*
X91133624Y-62057188D01*
X91201544Y-61893216D01*
X91300147Y-61745646D01*
X91425646Y-61620147D01*
X91573216Y-61521544D01*
X91737188Y-61453624D01*
X91886488Y-61423927D01*
X91911258Y-61419000D01*
X92088742Y-61419000D01*
X92113512Y-61423927D01*
G37*
G36*
X94653512Y-61423927D02*
G01*
X94802812Y-61453624D01*
X94966784Y-61521544D01*
X95114354Y-61620147D01*
X95239853Y-61745646D01*
X95338456Y-61893216D01*
X95406376Y-62057188D01*
X95441000Y-62231259D01*
X95441000Y-62408741D01*
X95406376Y-62582812D01*
X95338456Y-62746784D01*
X95239853Y-62894354D01*
X95114354Y-63019853D01*
X94966784Y-63118456D01*
X94802812Y-63186376D01*
X94653512Y-63216073D01*
X94628742Y-63221000D01*
X94451258Y-63221000D01*
X94426488Y-63216073D01*
X94277188Y-63186376D01*
X94113216Y-63118456D01*
X93965646Y-63019853D01*
X93840147Y-62894354D01*
X93741544Y-62746784D01*
X93673624Y-62582812D01*
X93639000Y-62408741D01*
X93639000Y-62231259D01*
X93673624Y-62057188D01*
X93741544Y-61893216D01*
X93840147Y-61745646D01*
X93965646Y-61620147D01*
X94113216Y-61521544D01*
X94277188Y-61453624D01*
X94426488Y-61423927D01*
X94451258Y-61419000D01*
X94628742Y-61419000D01*
X94653512Y-61423927D01*
G37*
G36*
X92113512Y-58883927D02*
G01*
X92262812Y-58913624D01*
X92426784Y-58981544D01*
X92574354Y-59080147D01*
X92699853Y-59205646D01*
X92798456Y-59353216D01*
X92866376Y-59517188D01*
X92901000Y-59691259D01*
X92901000Y-59868741D01*
X92866376Y-60042812D01*
X92798456Y-60206784D01*
X92699853Y-60354354D01*
X92574354Y-60479853D01*
X92426784Y-60578456D01*
X92262812Y-60646376D01*
X92113512Y-60676073D01*
X92088742Y-60681000D01*
X91911258Y-60681000D01*
X91886488Y-60676073D01*
X91737188Y-60646376D01*
X91573216Y-60578456D01*
X91425646Y-60479853D01*
X91300147Y-60354354D01*
X91201544Y-60206784D01*
X91133624Y-60042812D01*
X91099000Y-59868741D01*
X91099000Y-59691259D01*
X91133624Y-59517188D01*
X91201544Y-59353216D01*
X91300147Y-59205646D01*
X91425646Y-59080147D01*
X91573216Y-58981544D01*
X91737188Y-58913624D01*
X91886488Y-58883927D01*
X91911258Y-58879000D01*
X92088742Y-58879000D01*
X92113512Y-58883927D01*
G37*
G36*
X94653512Y-58883927D02*
G01*
X94802812Y-58913624D01*
X94966784Y-58981544D01*
X95114354Y-59080147D01*
X95239853Y-59205646D01*
X95338456Y-59353216D01*
X95406376Y-59517188D01*
X95441000Y-59691259D01*
X95441000Y-59868741D01*
X95406376Y-60042812D01*
X95338456Y-60206784D01*
X95239853Y-60354354D01*
X95114354Y-60479853D01*
X94966784Y-60578456D01*
X94802812Y-60646376D01*
X94653512Y-60676073D01*
X94628742Y-60681000D01*
X94451258Y-60681000D01*
X94426488Y-60676073D01*
X94277188Y-60646376D01*
X94113216Y-60578456D01*
X93965646Y-60479853D01*
X93840147Y-60354354D01*
X93741544Y-60206784D01*
X93673624Y-60042812D01*
X93639000Y-59868741D01*
X93639000Y-59691259D01*
X93673624Y-59517188D01*
X93741544Y-59353216D01*
X93840147Y-59205646D01*
X93965646Y-59080147D01*
X94113216Y-58981544D01*
X94277188Y-58913624D01*
X94426488Y-58883927D01*
X94451258Y-58879000D01*
X94628742Y-58879000D01*
X94653512Y-58883927D01*
G37*
G36*
X94653512Y-56343927D02*
G01*
X94802812Y-56373624D01*
X94966784Y-56441544D01*
X95114354Y-56540147D01*
X95239853Y-56665646D01*
X95338456Y-56813216D01*
X95406376Y-56977188D01*
X95441000Y-57151259D01*
X95441000Y-57328741D01*
X95406376Y-57502812D01*
X95338456Y-57666784D01*
X95239853Y-57814354D01*
X95114354Y-57939853D01*
X94966784Y-58038456D01*
X94802812Y-58106376D01*
X94653512Y-58136073D01*
X94628742Y-58141000D01*
X94451258Y-58141000D01*
X94426488Y-58136073D01*
X94277188Y-58106376D01*
X94113216Y-58038456D01*
X93965646Y-57939853D01*
X93840147Y-57814354D01*
X93741544Y-57666784D01*
X93673624Y-57502812D01*
X93639000Y-57328741D01*
X93639000Y-57151259D01*
X93673624Y-56977188D01*
X93741544Y-56813216D01*
X93840147Y-56665646D01*
X93965646Y-56540147D01*
X94113216Y-56441544D01*
X94277188Y-56373624D01*
X94426488Y-56343927D01*
X94451258Y-56339000D01*
X94628742Y-56339000D01*
X94653512Y-56343927D01*
G37*
G36*
X92113512Y-56343927D02*
G01*
X92262812Y-56373624D01*
X92426784Y-56441544D01*
X92574354Y-56540147D01*
X92699853Y-56665646D01*
X92798456Y-56813216D01*
X92866376Y-56977188D01*
X92901000Y-57151259D01*
X92901000Y-57328741D01*
X92866376Y-57502812D01*
X92798456Y-57666784D01*
X92699853Y-57814354D01*
X92574354Y-57939853D01*
X92426784Y-58038456D01*
X92262812Y-58106376D01*
X92113512Y-58136073D01*
X92088742Y-58141000D01*
X91911258Y-58141000D01*
X91886488Y-58136073D01*
X91737188Y-58106376D01*
X91573216Y-58038456D01*
X91425646Y-57939853D01*
X91300147Y-57814354D01*
X91201544Y-57666784D01*
X91133624Y-57502812D01*
X91099000Y-57328741D01*
X91099000Y-57151259D01*
X91133624Y-56977188D01*
X91201544Y-56813216D01*
X91300147Y-56665646D01*
X91425646Y-56540147D01*
X91573216Y-56441544D01*
X91737188Y-56373624D01*
X91886488Y-56343927D01*
X91911258Y-56339000D01*
X92088742Y-56339000D01*
X92113512Y-56343927D01*
G37*
G36*
X94653512Y-53803927D02*
G01*
X94802812Y-53833624D01*
X94966784Y-53901544D01*
X95114354Y-54000147D01*
X95239853Y-54125646D01*
X95338456Y-54273216D01*
X95406376Y-54437188D01*
X95441000Y-54611259D01*
X95441000Y-54788741D01*
X95406376Y-54962812D01*
X95338456Y-55126784D01*
X95239853Y-55274354D01*
X95114354Y-55399853D01*
X94966784Y-55498456D01*
X94802812Y-55566376D01*
X94653512Y-55596073D01*
X94628742Y-55601000D01*
X94451258Y-55601000D01*
X94426488Y-55596073D01*
X94277188Y-55566376D01*
X94113216Y-55498456D01*
X93965646Y-55399853D01*
X93840147Y-55274354D01*
X93741544Y-55126784D01*
X93673624Y-54962812D01*
X93639000Y-54788741D01*
X93639000Y-54611259D01*
X93673624Y-54437188D01*
X93741544Y-54273216D01*
X93840147Y-54125646D01*
X93965646Y-54000147D01*
X94113216Y-53901544D01*
X94277188Y-53833624D01*
X94426488Y-53803927D01*
X94451258Y-53799000D01*
X94628742Y-53799000D01*
X94653512Y-53803927D01*
G37*
G36*
X92113512Y-53803927D02*
G01*
X92262812Y-53833624D01*
X92426784Y-53901544D01*
X92574354Y-54000147D01*
X92699853Y-54125646D01*
X92798456Y-54273216D01*
X92866376Y-54437188D01*
X92901000Y-54611259D01*
X92901000Y-54788741D01*
X92866376Y-54962812D01*
X92798456Y-55126784D01*
X92699853Y-55274354D01*
X92574354Y-55399853D01*
X92426784Y-55498456D01*
X92262812Y-55566376D01*
X92113512Y-55596073D01*
X92088742Y-55601000D01*
X91911258Y-55601000D01*
X91886488Y-55596073D01*
X91737188Y-55566376D01*
X91573216Y-55498456D01*
X91425646Y-55399853D01*
X91300147Y-55274354D01*
X91201544Y-55126784D01*
X91133624Y-54962812D01*
X91099000Y-54788741D01*
X91099000Y-54611259D01*
X91133624Y-54437188D01*
X91201544Y-54273216D01*
X91300147Y-54125646D01*
X91425646Y-54000147D01*
X91573216Y-53901544D01*
X91737188Y-53833624D01*
X91886488Y-53803927D01*
X91911258Y-53799000D01*
X92088742Y-53799000D01*
X92113512Y-53803927D01*
G37*
G36*
X94653512Y-51263927D02*
G01*
X94802812Y-51293624D01*
X94966784Y-51361544D01*
X95114354Y-51460147D01*
X95239853Y-51585646D01*
X95338456Y-51733216D01*
X95406376Y-51897188D01*
X95441000Y-52071259D01*
X95441000Y-52248741D01*
X95406376Y-52422812D01*
X95338456Y-52586784D01*
X95239853Y-52734354D01*
X95114354Y-52859853D01*
X94966784Y-52958456D01*
X94802812Y-53026376D01*
X94653512Y-53056073D01*
X94628742Y-53061000D01*
X94451258Y-53061000D01*
X94426488Y-53056073D01*
X94277188Y-53026376D01*
X94113216Y-52958456D01*
X93965646Y-52859853D01*
X93840147Y-52734354D01*
X93741544Y-52586784D01*
X93673624Y-52422812D01*
X93639000Y-52248741D01*
X93639000Y-52071259D01*
X93673624Y-51897188D01*
X93741544Y-51733216D01*
X93840147Y-51585646D01*
X93965646Y-51460147D01*
X94113216Y-51361544D01*
X94277188Y-51293624D01*
X94426488Y-51263927D01*
X94451258Y-51259000D01*
X94628742Y-51259000D01*
X94653512Y-51263927D01*
G37*
G36*
X92113512Y-51263927D02*
G01*
X92262812Y-51293624D01*
X92426784Y-51361544D01*
X92574354Y-51460147D01*
X92699853Y-51585646D01*
X92798456Y-51733216D01*
X92866376Y-51897188D01*
X92901000Y-52071259D01*
X92901000Y-52248741D01*
X92866376Y-52422812D01*
X92798456Y-52586784D01*
X92699853Y-52734354D01*
X92574354Y-52859853D01*
X92426784Y-52958456D01*
X92262812Y-53026376D01*
X92113512Y-53056073D01*
X92088742Y-53061000D01*
X91911258Y-53061000D01*
X91886488Y-53056073D01*
X91737188Y-53026376D01*
X91573216Y-52958456D01*
X91425646Y-52859853D01*
X91300147Y-52734354D01*
X91201544Y-52586784D01*
X91133624Y-52422812D01*
X91099000Y-52248741D01*
X91099000Y-52071259D01*
X91133624Y-51897188D01*
X91201544Y-51733216D01*
X91300147Y-51585646D01*
X91425646Y-51460147D01*
X91573216Y-51361544D01*
X91737188Y-51293624D01*
X91886488Y-51263927D01*
X91911258Y-51259000D01*
X92088742Y-51259000D01*
X92113512Y-51263927D01*
G37*
G36*
X94653512Y-48723927D02*
G01*
X94802812Y-48753624D01*
X94966784Y-48821544D01*
X95114354Y-48920147D01*
X95239853Y-49045646D01*
X95338456Y-49193216D01*
X95406376Y-49357188D01*
X95441000Y-49531259D01*
X95441000Y-49708741D01*
X95406376Y-49882812D01*
X95338456Y-50046784D01*
X95239853Y-50194354D01*
X95114354Y-50319853D01*
X94966784Y-50418456D01*
X94802812Y-50486376D01*
X94653512Y-50516073D01*
X94628742Y-50521000D01*
X94451258Y-50521000D01*
X94426488Y-50516073D01*
X94277188Y-50486376D01*
X94113216Y-50418456D01*
X93965646Y-50319853D01*
X93840147Y-50194354D01*
X93741544Y-50046784D01*
X93673624Y-49882812D01*
X93639000Y-49708741D01*
X93639000Y-49531259D01*
X93673624Y-49357188D01*
X93741544Y-49193216D01*
X93840147Y-49045646D01*
X93965646Y-48920147D01*
X94113216Y-48821544D01*
X94277188Y-48753624D01*
X94426488Y-48723927D01*
X94451258Y-48719000D01*
X94628742Y-48719000D01*
X94653512Y-48723927D01*
G37*
G36*
X92113512Y-48723927D02*
G01*
X92262812Y-48753624D01*
X92426784Y-48821544D01*
X92574354Y-48920147D01*
X92699853Y-49045646D01*
X92798456Y-49193216D01*
X92866376Y-49357188D01*
X92901000Y-49531259D01*
X92901000Y-49708741D01*
X92866376Y-49882812D01*
X92798456Y-50046784D01*
X92699853Y-50194354D01*
X92574354Y-50319853D01*
X92426784Y-50418456D01*
X92262812Y-50486376D01*
X92113512Y-50516073D01*
X92088742Y-50521000D01*
X91911258Y-50521000D01*
X91886488Y-50516073D01*
X91737188Y-50486376D01*
X91573216Y-50418456D01*
X91425646Y-50319853D01*
X91300147Y-50194354D01*
X91201544Y-50046784D01*
X91133624Y-49882812D01*
X91099000Y-49708741D01*
X91099000Y-49531259D01*
X91133624Y-49357188D01*
X91201544Y-49193216D01*
X91300147Y-49045646D01*
X91425646Y-48920147D01*
X91573216Y-48821544D01*
X91737188Y-48753624D01*
X91886488Y-48723927D01*
X91911258Y-48719000D01*
X92088742Y-48719000D01*
X92113512Y-48723927D01*
G37*
G36*
X124973512Y-48477927D02*
G01*
X125122812Y-48507624D01*
X125286784Y-48575544D01*
X125434354Y-48674147D01*
X125559853Y-48799646D01*
X125658456Y-48947216D01*
X125726376Y-49111188D01*
X125761000Y-49285259D01*
X125761000Y-49462741D01*
X125726376Y-49636812D01*
X125658456Y-49800784D01*
X125559853Y-49948354D01*
X125434354Y-50073853D01*
X125286784Y-50172456D01*
X125122812Y-50240376D01*
X124973512Y-50270073D01*
X124948742Y-50275000D01*
X124771258Y-50275000D01*
X124746488Y-50270073D01*
X124597188Y-50240376D01*
X124433216Y-50172456D01*
X124285646Y-50073853D01*
X124160147Y-49948354D01*
X124061544Y-49800784D01*
X123993624Y-49636812D01*
X123959000Y-49462741D01*
X123959000Y-49285259D01*
X123993624Y-49111188D01*
X124061544Y-48947216D01*
X124160147Y-48799646D01*
X124285646Y-48674147D01*
X124433216Y-48575544D01*
X124597188Y-48507624D01*
X124746488Y-48477927D01*
X124771258Y-48473000D01*
X124948742Y-48473000D01*
X124973512Y-48477927D01*
G37*
G36*
X122433512Y-48477927D02*
G01*
X122582812Y-48507624D01*
X122746784Y-48575544D01*
X122894354Y-48674147D01*
X123019853Y-48799646D01*
X123118456Y-48947216D01*
X123186376Y-49111188D01*
X123221000Y-49285259D01*
X123221000Y-49462741D01*
X123186376Y-49636812D01*
X123118456Y-49800784D01*
X123019853Y-49948354D01*
X122894354Y-50073853D01*
X122746784Y-50172456D01*
X122582812Y-50240376D01*
X122433512Y-50270073D01*
X122408742Y-50275000D01*
X122231258Y-50275000D01*
X122206488Y-50270073D01*
X122057188Y-50240376D01*
X121893216Y-50172456D01*
X121745646Y-50073853D01*
X121620147Y-49948354D01*
X121521544Y-49800784D01*
X121453624Y-49636812D01*
X121419000Y-49462741D01*
X121419000Y-49285259D01*
X121453624Y-49111188D01*
X121521544Y-48947216D01*
X121620147Y-48799646D01*
X121745646Y-48674147D01*
X121893216Y-48575544D01*
X122057188Y-48507624D01*
X122206488Y-48477927D01*
X122231258Y-48473000D01*
X122408742Y-48473000D01*
X122433512Y-48477927D01*
G37*
G36*
X119893512Y-48477927D02*
G01*
X120042812Y-48507624D01*
X120206784Y-48575544D01*
X120354354Y-48674147D01*
X120479853Y-48799646D01*
X120578456Y-48947216D01*
X120646376Y-49111188D01*
X120681000Y-49285259D01*
X120681000Y-49462741D01*
X120646376Y-49636812D01*
X120578456Y-49800784D01*
X120479853Y-49948354D01*
X120354354Y-50073853D01*
X120206784Y-50172456D01*
X120042812Y-50240376D01*
X119893512Y-50270073D01*
X119868742Y-50275000D01*
X119691258Y-50275000D01*
X119666488Y-50270073D01*
X119517188Y-50240376D01*
X119353216Y-50172456D01*
X119205646Y-50073853D01*
X119080147Y-49948354D01*
X118981544Y-49800784D01*
X118913624Y-49636812D01*
X118879000Y-49462741D01*
X118879000Y-49285259D01*
X118913624Y-49111188D01*
X118981544Y-48947216D01*
X119080147Y-48799646D01*
X119205646Y-48674147D01*
X119353216Y-48575544D01*
X119517188Y-48507624D01*
X119666488Y-48477927D01*
X119691258Y-48473000D01*
X119868742Y-48473000D01*
X119893512Y-48477927D01*
G37*
G36*
X117353512Y-48477927D02*
G01*
X117502812Y-48507624D01*
X117666784Y-48575544D01*
X117814354Y-48674147D01*
X117939853Y-48799646D01*
X118038456Y-48947216D01*
X118106376Y-49111188D01*
X118141000Y-49285259D01*
X118141000Y-49462741D01*
X118106376Y-49636812D01*
X118038456Y-49800784D01*
X117939853Y-49948354D01*
X117814354Y-50073853D01*
X117666784Y-50172456D01*
X117502812Y-50240376D01*
X117353512Y-50270073D01*
X117328742Y-50275000D01*
X117151258Y-50275000D01*
X117126488Y-50270073D01*
X116977188Y-50240376D01*
X116813216Y-50172456D01*
X116665646Y-50073853D01*
X116540147Y-49948354D01*
X116441544Y-49800784D01*
X116373624Y-49636812D01*
X116339000Y-49462741D01*
X116339000Y-49285259D01*
X116373624Y-49111188D01*
X116441544Y-48947216D01*
X116540147Y-48799646D01*
X116665646Y-48674147D01*
X116813216Y-48575544D01*
X116977188Y-48507624D01*
X117126488Y-48477927D01*
X117151258Y-48473000D01*
X117328742Y-48473000D01*
X117353512Y-48477927D01*
G37*
G36*
X115601000Y-50275000D02*
G01*
X113799000Y-50275000D01*
X113799000Y-48473000D01*
X115601000Y-48473000D01*
X115601000Y-50275000D01*
G37*
G36*
X127513512Y-48477927D02*
G01*
X127662812Y-48507624D01*
X127826784Y-48575544D01*
X127974354Y-48674147D01*
X128099853Y-48799646D01*
X128198456Y-48947216D01*
X128266376Y-49111188D01*
X128301000Y-49285259D01*
X128301000Y-49462741D01*
X128266376Y-49636812D01*
X128198456Y-49800784D01*
X128099853Y-49948354D01*
X127974354Y-50073853D01*
X127826784Y-50172456D01*
X127662812Y-50240376D01*
X127513512Y-50270073D01*
X127488742Y-50275000D01*
X127311258Y-50275000D01*
X127286488Y-50270073D01*
X127137188Y-50240376D01*
X126973216Y-50172456D01*
X126825646Y-50073853D01*
X126700147Y-49948354D01*
X126601544Y-49800784D01*
X126533624Y-49636812D01*
X126499000Y-49462741D01*
X126499000Y-49285259D01*
X126533624Y-49111188D01*
X126601544Y-48947216D01*
X126700147Y-48799646D01*
X126825646Y-48674147D01*
X126973216Y-48575544D01*
X127137188Y-48507624D01*
X127286488Y-48477927D01*
X127311258Y-48473000D01*
X127488742Y-48473000D01*
X127513512Y-48477927D01*
G37*
G36*
X132593512Y-48477927D02*
G01*
X132742812Y-48507624D01*
X132906784Y-48575544D01*
X133054354Y-48674147D01*
X133179853Y-48799646D01*
X133278456Y-48947216D01*
X133346376Y-49111188D01*
X133381000Y-49285259D01*
X133381000Y-49462741D01*
X133346376Y-49636812D01*
X133278456Y-49800784D01*
X133179853Y-49948354D01*
X133054354Y-50073853D01*
X132906784Y-50172456D01*
X132742812Y-50240376D01*
X132593512Y-50270073D01*
X132568742Y-50275000D01*
X132391258Y-50275000D01*
X132366488Y-50270073D01*
X132217188Y-50240376D01*
X132053216Y-50172456D01*
X131905646Y-50073853D01*
X131780147Y-49948354D01*
X131681544Y-49800784D01*
X131613624Y-49636812D01*
X131579000Y-49462741D01*
X131579000Y-49285259D01*
X131613624Y-49111188D01*
X131681544Y-48947216D01*
X131780147Y-48799646D01*
X131905646Y-48674147D01*
X132053216Y-48575544D01*
X132217188Y-48507624D01*
X132366488Y-48477927D01*
X132391258Y-48473000D01*
X132568742Y-48473000D01*
X132593512Y-48477927D01*
G37*
G36*
X137673512Y-48477927D02*
G01*
X137822812Y-48507624D01*
X137986784Y-48575544D01*
X138134354Y-48674147D01*
X138259853Y-48799646D01*
X138358456Y-48947216D01*
X138426376Y-49111188D01*
X138461000Y-49285259D01*
X138461000Y-49462741D01*
X138426376Y-49636812D01*
X138358456Y-49800784D01*
X138259853Y-49948354D01*
X138134354Y-50073853D01*
X137986784Y-50172456D01*
X137822812Y-50240376D01*
X137673512Y-50270073D01*
X137648742Y-50275000D01*
X137471258Y-50275000D01*
X137446488Y-50270073D01*
X137297188Y-50240376D01*
X137133216Y-50172456D01*
X136985646Y-50073853D01*
X136860147Y-49948354D01*
X136761544Y-49800784D01*
X136693624Y-49636812D01*
X136659000Y-49462741D01*
X136659000Y-49285259D01*
X136693624Y-49111188D01*
X136761544Y-48947216D01*
X136860147Y-48799646D01*
X136985646Y-48674147D01*
X137133216Y-48575544D01*
X137297188Y-48507624D01*
X137446488Y-48477927D01*
X137471258Y-48473000D01*
X137648742Y-48473000D01*
X137673512Y-48477927D01*
G37*
G36*
X142753512Y-48477927D02*
G01*
X142902812Y-48507624D01*
X143066784Y-48575544D01*
X143214354Y-48674147D01*
X143339853Y-48799646D01*
X143438456Y-48947216D01*
X143506376Y-49111188D01*
X143541000Y-49285259D01*
X143541000Y-49462741D01*
X143506376Y-49636812D01*
X143438456Y-49800784D01*
X143339853Y-49948354D01*
X143214354Y-50073853D01*
X143066784Y-50172456D01*
X142902812Y-50240376D01*
X142753512Y-50270073D01*
X142728742Y-50275000D01*
X142551258Y-50275000D01*
X142526488Y-50270073D01*
X142377188Y-50240376D01*
X142213216Y-50172456D01*
X142065646Y-50073853D01*
X141940147Y-49948354D01*
X141841544Y-49800784D01*
X141773624Y-49636812D01*
X141739000Y-49462741D01*
X141739000Y-49285259D01*
X141773624Y-49111188D01*
X141841544Y-48947216D01*
X141940147Y-48799646D01*
X142065646Y-48674147D01*
X142213216Y-48575544D01*
X142377188Y-48507624D01*
X142526488Y-48477927D01*
X142551258Y-48473000D01*
X142728742Y-48473000D01*
X142753512Y-48477927D01*
G37*
G36*
X135133512Y-48477927D02*
G01*
X135282812Y-48507624D01*
X135446784Y-48575544D01*
X135594354Y-48674147D01*
X135719853Y-48799646D01*
X135818456Y-48947216D01*
X135886376Y-49111188D01*
X135921000Y-49285259D01*
X135921000Y-49462741D01*
X135886376Y-49636812D01*
X135818456Y-49800784D01*
X135719853Y-49948354D01*
X135594354Y-50073853D01*
X135446784Y-50172456D01*
X135282812Y-50240376D01*
X135133512Y-50270073D01*
X135108742Y-50275000D01*
X134931258Y-50275000D01*
X134906488Y-50270073D01*
X134757188Y-50240376D01*
X134593216Y-50172456D01*
X134445646Y-50073853D01*
X134320147Y-49948354D01*
X134221544Y-49800784D01*
X134153624Y-49636812D01*
X134119000Y-49462741D01*
X134119000Y-49285259D01*
X134153624Y-49111188D01*
X134221544Y-48947216D01*
X134320147Y-48799646D01*
X134445646Y-48674147D01*
X134593216Y-48575544D01*
X134757188Y-48507624D01*
X134906488Y-48477927D01*
X134931258Y-48473000D01*
X135108742Y-48473000D01*
X135133512Y-48477927D01*
G37*
G36*
X140213512Y-48477927D02*
G01*
X140362812Y-48507624D01*
X140526784Y-48575544D01*
X140674354Y-48674147D01*
X140799853Y-48799646D01*
X140898456Y-48947216D01*
X140966376Y-49111188D01*
X141001000Y-49285259D01*
X141001000Y-49462741D01*
X140966376Y-49636812D01*
X140898456Y-49800784D01*
X140799853Y-49948354D01*
X140674354Y-50073853D01*
X140526784Y-50172456D01*
X140362812Y-50240376D01*
X140213512Y-50270073D01*
X140188742Y-50275000D01*
X140011258Y-50275000D01*
X139986488Y-50270073D01*
X139837188Y-50240376D01*
X139673216Y-50172456D01*
X139525646Y-50073853D01*
X139400147Y-49948354D01*
X139301544Y-49800784D01*
X139233624Y-49636812D01*
X139199000Y-49462741D01*
X139199000Y-49285259D01*
X139233624Y-49111188D01*
X139301544Y-48947216D01*
X139400147Y-48799646D01*
X139525646Y-48674147D01*
X139673216Y-48575544D01*
X139837188Y-48507624D01*
X139986488Y-48477927D01*
X140011258Y-48473000D01*
X140188742Y-48473000D01*
X140213512Y-48477927D01*
G37*
G36*
X130053512Y-48477927D02*
G01*
X130202812Y-48507624D01*
X130366784Y-48575544D01*
X130514354Y-48674147D01*
X130639853Y-48799646D01*
X130738456Y-48947216D01*
X130806376Y-49111188D01*
X130841000Y-49285259D01*
X130841000Y-49462741D01*
X130806376Y-49636812D01*
X130738456Y-49800784D01*
X130639853Y-49948354D01*
X130514354Y-50073853D01*
X130366784Y-50172456D01*
X130202812Y-50240376D01*
X130053512Y-50270073D01*
X130028742Y-50275000D01*
X129851258Y-50275000D01*
X129826488Y-50270073D01*
X129677188Y-50240376D01*
X129513216Y-50172456D01*
X129365646Y-50073853D01*
X129240147Y-49948354D01*
X129141544Y-49800784D01*
X129073624Y-49636812D01*
X129039000Y-49462741D01*
X129039000Y-49285259D01*
X129073624Y-49111188D01*
X129141544Y-48947216D01*
X129240147Y-48799646D01*
X129365646Y-48674147D01*
X129513216Y-48575544D01*
X129677188Y-48507624D01*
X129826488Y-48477927D01*
X129851258Y-48473000D01*
X130028742Y-48473000D01*
X130053512Y-48477927D01*
G37*
G36*
X94653512Y-46183927D02*
G01*
X94802812Y-46213624D01*
X94966784Y-46281544D01*
X95114354Y-46380147D01*
X95239853Y-46505646D01*
X95338456Y-46653216D01*
X95406376Y-46817188D01*
X95441000Y-46991259D01*
X95441000Y-47168741D01*
X95406376Y-47342812D01*
X95338456Y-47506784D01*
X95239853Y-47654354D01*
X95114354Y-47779853D01*
X94966784Y-47878456D01*
X94802812Y-47946376D01*
X94653512Y-47976073D01*
X94628742Y-47981000D01*
X94451258Y-47981000D01*
X94426488Y-47976073D01*
X94277188Y-47946376D01*
X94113216Y-47878456D01*
X93965646Y-47779853D01*
X93840147Y-47654354D01*
X93741544Y-47506784D01*
X93673624Y-47342812D01*
X93639000Y-47168741D01*
X93639000Y-46991259D01*
X93673624Y-46817188D01*
X93741544Y-46653216D01*
X93840147Y-46505646D01*
X93965646Y-46380147D01*
X94113216Y-46281544D01*
X94277188Y-46213624D01*
X94426488Y-46183927D01*
X94451258Y-46179000D01*
X94628742Y-46179000D01*
X94653512Y-46183927D01*
G37*
G36*
X92113512Y-46183927D02*
G01*
X92262812Y-46213624D01*
X92426784Y-46281544D01*
X92574354Y-46380147D01*
X92699853Y-46505646D01*
X92798456Y-46653216D01*
X92866376Y-46817188D01*
X92901000Y-46991259D01*
X92901000Y-47168741D01*
X92866376Y-47342812D01*
X92798456Y-47506784D01*
X92699853Y-47654354D01*
X92574354Y-47779853D01*
X92426784Y-47878456D01*
X92262812Y-47946376D01*
X92113512Y-47976073D01*
X92088742Y-47981000D01*
X91911258Y-47981000D01*
X91886488Y-47976073D01*
X91737188Y-47946376D01*
X91573216Y-47878456D01*
X91425646Y-47779853D01*
X91300147Y-47654354D01*
X91201544Y-47506784D01*
X91133624Y-47342812D01*
X91099000Y-47168741D01*
X91099000Y-46991259D01*
X91133624Y-46817188D01*
X91201544Y-46653216D01*
X91300147Y-46505646D01*
X91425646Y-46380147D01*
X91573216Y-46281544D01*
X91737188Y-46213624D01*
X91886488Y-46183927D01*
X91911258Y-46179000D01*
X92088742Y-46179000D01*
X92113512Y-46183927D01*
G37*
G36*
X132593512Y-45937927D02*
G01*
X132742812Y-45967624D01*
X132906784Y-46035544D01*
X133054354Y-46134147D01*
X133179853Y-46259646D01*
X133278456Y-46407216D01*
X133346376Y-46571188D01*
X133381000Y-46745259D01*
X133381000Y-46922741D01*
X133346376Y-47096812D01*
X133278456Y-47260784D01*
X133179853Y-47408354D01*
X133054354Y-47533853D01*
X132906784Y-47632456D01*
X132742812Y-47700376D01*
X132593512Y-47730073D01*
X132568742Y-47735000D01*
X132391258Y-47735000D01*
X132366488Y-47730073D01*
X132217188Y-47700376D01*
X132053216Y-47632456D01*
X131905646Y-47533853D01*
X131780147Y-47408354D01*
X131681544Y-47260784D01*
X131613624Y-47096812D01*
X131579000Y-46922741D01*
X131579000Y-46745259D01*
X131613624Y-46571188D01*
X131681544Y-46407216D01*
X131780147Y-46259646D01*
X131905646Y-46134147D01*
X132053216Y-46035544D01*
X132217188Y-45967624D01*
X132366488Y-45937927D01*
X132391258Y-45933000D01*
X132568742Y-45933000D01*
X132593512Y-45937927D01*
G37*
G36*
X142753512Y-45937927D02*
G01*
X142902812Y-45967624D01*
X143066784Y-46035544D01*
X143214354Y-46134147D01*
X143339853Y-46259646D01*
X143438456Y-46407216D01*
X143506376Y-46571188D01*
X143541000Y-46745259D01*
X143541000Y-46922741D01*
X143506376Y-47096812D01*
X143438456Y-47260784D01*
X143339853Y-47408354D01*
X143214354Y-47533853D01*
X143066784Y-47632456D01*
X142902812Y-47700376D01*
X142753512Y-47730073D01*
X142728742Y-47735000D01*
X142551258Y-47735000D01*
X142526488Y-47730073D01*
X142377188Y-47700376D01*
X142213216Y-47632456D01*
X142065646Y-47533853D01*
X141940147Y-47408354D01*
X141841544Y-47260784D01*
X141773624Y-47096812D01*
X141739000Y-46922741D01*
X141739000Y-46745259D01*
X141773624Y-46571188D01*
X141841544Y-46407216D01*
X141940147Y-46259646D01*
X142065646Y-46134147D01*
X142213216Y-46035544D01*
X142377188Y-45967624D01*
X142526488Y-45937927D01*
X142551258Y-45933000D01*
X142728742Y-45933000D01*
X142753512Y-45937927D01*
G37*
G36*
X117353512Y-45937927D02*
G01*
X117502812Y-45967624D01*
X117666784Y-46035544D01*
X117814354Y-46134147D01*
X117939853Y-46259646D01*
X118038456Y-46407216D01*
X118106376Y-46571188D01*
X118141000Y-46745259D01*
X118141000Y-46922741D01*
X118106376Y-47096812D01*
X118038456Y-47260784D01*
X117939853Y-47408354D01*
X117814354Y-47533853D01*
X117666784Y-47632456D01*
X117502812Y-47700376D01*
X117353512Y-47730073D01*
X117328742Y-47735000D01*
X117151258Y-47735000D01*
X117126488Y-47730073D01*
X116977188Y-47700376D01*
X116813216Y-47632456D01*
X116665646Y-47533853D01*
X116540147Y-47408354D01*
X116441544Y-47260784D01*
X116373624Y-47096812D01*
X116339000Y-46922741D01*
X116339000Y-46745259D01*
X116373624Y-46571188D01*
X116441544Y-46407216D01*
X116540147Y-46259646D01*
X116665646Y-46134147D01*
X116813216Y-46035544D01*
X116977188Y-45967624D01*
X117126488Y-45937927D01*
X117151258Y-45933000D01*
X117328742Y-45933000D01*
X117353512Y-45937927D01*
G37*
G36*
X140213512Y-45937927D02*
G01*
X140362812Y-45967624D01*
X140526784Y-46035544D01*
X140674354Y-46134147D01*
X140799853Y-46259646D01*
X140898456Y-46407216D01*
X140966376Y-46571188D01*
X141001000Y-46745259D01*
X141001000Y-46922741D01*
X140966376Y-47096812D01*
X140898456Y-47260784D01*
X140799853Y-47408354D01*
X140674354Y-47533853D01*
X140526784Y-47632456D01*
X140362812Y-47700376D01*
X140213512Y-47730073D01*
X140188742Y-47735000D01*
X140011258Y-47735000D01*
X139986488Y-47730073D01*
X139837188Y-47700376D01*
X139673216Y-47632456D01*
X139525646Y-47533853D01*
X139400147Y-47408354D01*
X139301544Y-47260784D01*
X139233624Y-47096812D01*
X139199000Y-46922741D01*
X139199000Y-46745259D01*
X139233624Y-46571188D01*
X139301544Y-46407216D01*
X139400147Y-46259646D01*
X139525646Y-46134147D01*
X139673216Y-46035544D01*
X139837188Y-45967624D01*
X139986488Y-45937927D01*
X140011258Y-45933000D01*
X140188742Y-45933000D01*
X140213512Y-45937927D01*
G37*
G36*
X137673512Y-45937927D02*
G01*
X137822812Y-45967624D01*
X137986784Y-46035544D01*
X138134354Y-46134147D01*
X138259853Y-46259646D01*
X138358456Y-46407216D01*
X138426376Y-46571188D01*
X138461000Y-46745259D01*
X138461000Y-46922741D01*
X138426376Y-47096812D01*
X138358456Y-47260784D01*
X138259853Y-47408354D01*
X138134354Y-47533853D01*
X137986784Y-47632456D01*
X137822812Y-47700376D01*
X137673512Y-47730073D01*
X137648742Y-47735000D01*
X137471258Y-47735000D01*
X137446488Y-47730073D01*
X137297188Y-47700376D01*
X137133216Y-47632456D01*
X136985646Y-47533853D01*
X136860147Y-47408354D01*
X136761544Y-47260784D01*
X136693624Y-47096812D01*
X136659000Y-46922741D01*
X136659000Y-46745259D01*
X136693624Y-46571188D01*
X136761544Y-46407216D01*
X136860147Y-46259646D01*
X136985646Y-46134147D01*
X137133216Y-46035544D01*
X137297188Y-45967624D01*
X137446488Y-45937927D01*
X137471258Y-45933000D01*
X137648742Y-45933000D01*
X137673512Y-45937927D01*
G37*
G36*
X119893512Y-45937927D02*
G01*
X120042812Y-45967624D01*
X120206784Y-46035544D01*
X120354354Y-46134147D01*
X120479853Y-46259646D01*
X120578456Y-46407216D01*
X120646376Y-46571188D01*
X120681000Y-46745259D01*
X120681000Y-46922741D01*
X120646376Y-47096812D01*
X120578456Y-47260784D01*
X120479853Y-47408354D01*
X120354354Y-47533853D01*
X120206784Y-47632456D01*
X120042812Y-47700376D01*
X119893512Y-47730073D01*
X119868742Y-47735000D01*
X119691258Y-47735000D01*
X119666488Y-47730073D01*
X119517188Y-47700376D01*
X119353216Y-47632456D01*
X119205646Y-47533853D01*
X119080147Y-47408354D01*
X118981544Y-47260784D01*
X118913624Y-47096812D01*
X118879000Y-46922741D01*
X118879000Y-46745259D01*
X118913624Y-46571188D01*
X118981544Y-46407216D01*
X119080147Y-46259646D01*
X119205646Y-46134147D01*
X119353216Y-46035544D01*
X119517188Y-45967624D01*
X119666488Y-45937927D01*
X119691258Y-45933000D01*
X119868742Y-45933000D01*
X119893512Y-45937927D01*
G37*
G36*
X135133512Y-45937927D02*
G01*
X135282812Y-45967624D01*
X135446784Y-46035544D01*
X135594354Y-46134147D01*
X135719853Y-46259646D01*
X135818456Y-46407216D01*
X135886376Y-46571188D01*
X135921000Y-46745259D01*
X135921000Y-46922741D01*
X135886376Y-47096812D01*
X135818456Y-47260784D01*
X135719853Y-47408354D01*
X135594354Y-47533853D01*
X135446784Y-47632456D01*
X135282812Y-47700376D01*
X135133512Y-47730073D01*
X135108742Y-47735000D01*
X134931258Y-47735000D01*
X134906488Y-47730073D01*
X134757188Y-47700376D01*
X134593216Y-47632456D01*
X134445646Y-47533853D01*
X134320147Y-47408354D01*
X134221544Y-47260784D01*
X134153624Y-47096812D01*
X134119000Y-46922741D01*
X134119000Y-46745259D01*
X134153624Y-46571188D01*
X134221544Y-46407216D01*
X134320147Y-46259646D01*
X134445646Y-46134147D01*
X134593216Y-46035544D01*
X134757188Y-45967624D01*
X134906488Y-45937927D01*
X134931258Y-45933000D01*
X135108742Y-45933000D01*
X135133512Y-45937927D01*
G37*
G36*
X122433512Y-45937927D02*
G01*
X122582812Y-45967624D01*
X122746784Y-46035544D01*
X122894354Y-46134147D01*
X123019853Y-46259646D01*
X123118456Y-46407216D01*
X123186376Y-46571188D01*
X123221000Y-46745259D01*
X123221000Y-46922741D01*
X123186376Y-47096812D01*
X123118456Y-47260784D01*
X123019853Y-47408354D01*
X122894354Y-47533853D01*
X122746784Y-47632456D01*
X122582812Y-47700376D01*
X122433512Y-47730073D01*
X122408742Y-47735000D01*
X122231258Y-47735000D01*
X122206488Y-47730073D01*
X122057188Y-47700376D01*
X121893216Y-47632456D01*
X121745646Y-47533853D01*
X121620147Y-47408354D01*
X121521544Y-47260784D01*
X121453624Y-47096812D01*
X121419000Y-46922741D01*
X121419000Y-46745259D01*
X121453624Y-46571188D01*
X121521544Y-46407216D01*
X121620147Y-46259646D01*
X121745646Y-46134147D01*
X121893216Y-46035544D01*
X122057188Y-45967624D01*
X122206488Y-45937927D01*
X122231258Y-45933000D01*
X122408742Y-45933000D01*
X122433512Y-45937927D01*
G37*
G36*
X130053512Y-45937927D02*
G01*
X130202812Y-45967624D01*
X130366784Y-46035544D01*
X130514354Y-46134147D01*
X130639853Y-46259646D01*
X130738456Y-46407216D01*
X130806376Y-46571188D01*
X130841000Y-46745259D01*
X130841000Y-46922741D01*
X130806376Y-47096812D01*
X130738456Y-47260784D01*
X130639853Y-47408354D01*
X130514354Y-47533853D01*
X130366784Y-47632456D01*
X130202812Y-47700376D01*
X130053512Y-47730073D01*
X130028742Y-47735000D01*
X129851258Y-47735000D01*
X129826488Y-47730073D01*
X129677188Y-47700376D01*
X129513216Y-47632456D01*
X129365646Y-47533853D01*
X129240147Y-47408354D01*
X129141544Y-47260784D01*
X129073624Y-47096812D01*
X129039000Y-46922741D01*
X129039000Y-46745259D01*
X129073624Y-46571188D01*
X129141544Y-46407216D01*
X129240147Y-46259646D01*
X129365646Y-46134147D01*
X129513216Y-46035544D01*
X129677188Y-45967624D01*
X129826488Y-45937927D01*
X129851258Y-45933000D01*
X130028742Y-45933000D01*
X130053512Y-45937927D01*
G37*
G36*
X127513512Y-45937927D02*
G01*
X127662812Y-45967624D01*
X127826784Y-46035544D01*
X127974354Y-46134147D01*
X128099853Y-46259646D01*
X128198456Y-46407216D01*
X128266376Y-46571188D01*
X128301000Y-46745259D01*
X128301000Y-46922741D01*
X128266376Y-47096812D01*
X128198456Y-47260784D01*
X128099853Y-47408354D01*
X127974354Y-47533853D01*
X127826784Y-47632456D01*
X127662812Y-47700376D01*
X127513512Y-47730073D01*
X127488742Y-47735000D01*
X127311258Y-47735000D01*
X127286488Y-47730073D01*
X127137188Y-47700376D01*
X126973216Y-47632456D01*
X126825646Y-47533853D01*
X126700147Y-47408354D01*
X126601544Y-47260784D01*
X126533624Y-47096812D01*
X126499000Y-46922741D01*
X126499000Y-46745259D01*
X126533624Y-46571188D01*
X126601544Y-46407216D01*
X126700147Y-46259646D01*
X126825646Y-46134147D01*
X126973216Y-46035544D01*
X127137188Y-45967624D01*
X127286488Y-45937927D01*
X127311258Y-45933000D01*
X127488742Y-45933000D01*
X127513512Y-45937927D01*
G37*
G36*
X114813512Y-45937927D02*
G01*
X114962812Y-45967624D01*
X115126784Y-46035544D01*
X115274354Y-46134147D01*
X115399853Y-46259646D01*
X115498456Y-46407216D01*
X115566376Y-46571188D01*
X115601000Y-46745259D01*
X115601000Y-46922741D01*
X115566376Y-47096812D01*
X115498456Y-47260784D01*
X115399853Y-47408354D01*
X115274354Y-47533853D01*
X115126784Y-47632456D01*
X114962812Y-47700376D01*
X114813512Y-47730073D01*
X114788742Y-47735000D01*
X114611258Y-47735000D01*
X114586488Y-47730073D01*
X114437188Y-47700376D01*
X114273216Y-47632456D01*
X114125646Y-47533853D01*
X114000147Y-47408354D01*
X113901544Y-47260784D01*
X113833624Y-47096812D01*
X113799000Y-46922741D01*
X113799000Y-46745259D01*
X113833624Y-46571188D01*
X113901544Y-46407216D01*
X114000147Y-46259646D01*
X114125646Y-46134147D01*
X114273216Y-46035544D01*
X114437188Y-45967624D01*
X114586488Y-45937927D01*
X114611258Y-45933000D01*
X114788742Y-45933000D01*
X114813512Y-45937927D01*
G37*
G36*
X124973512Y-45937927D02*
G01*
X125122812Y-45967624D01*
X125286784Y-46035544D01*
X125434354Y-46134147D01*
X125559853Y-46259646D01*
X125658456Y-46407216D01*
X125726376Y-46571188D01*
X125761000Y-46745259D01*
X125761000Y-46922741D01*
X125726376Y-47096812D01*
X125658456Y-47260784D01*
X125559853Y-47408354D01*
X125434354Y-47533853D01*
X125286784Y-47632456D01*
X125122812Y-47700376D01*
X124973512Y-47730073D01*
X124948742Y-47735000D01*
X124771258Y-47735000D01*
X124746488Y-47730073D01*
X124597188Y-47700376D01*
X124433216Y-47632456D01*
X124285646Y-47533853D01*
X124160147Y-47408354D01*
X124061544Y-47260784D01*
X123993624Y-47096812D01*
X123959000Y-46922741D01*
X123959000Y-46745259D01*
X123993624Y-46571188D01*
X124061544Y-46407216D01*
X124160147Y-46259646D01*
X124285646Y-46134147D01*
X124433216Y-46035544D01*
X124597188Y-45967624D01*
X124746488Y-45937927D01*
X124771258Y-45933000D01*
X124948742Y-45933000D01*
X124973512Y-45937927D01*
G37*
G36*
X94653512Y-43643927D02*
G01*
X94802812Y-43673624D01*
X94966784Y-43741544D01*
X95114354Y-43840147D01*
X95239853Y-43965646D01*
X95338456Y-44113216D01*
X95406376Y-44277188D01*
X95441000Y-44451259D01*
X95441000Y-44628741D01*
X95406376Y-44802812D01*
X95338456Y-44966784D01*
X95239853Y-45114354D01*
X95114354Y-45239853D01*
X94966784Y-45338456D01*
X94802812Y-45406376D01*
X94653512Y-45436073D01*
X94628742Y-45441000D01*
X94451258Y-45441000D01*
X94426488Y-45436073D01*
X94277188Y-45406376D01*
X94113216Y-45338456D01*
X93965646Y-45239853D01*
X93840147Y-45114354D01*
X93741544Y-44966784D01*
X93673624Y-44802812D01*
X93639000Y-44628741D01*
X93639000Y-44451259D01*
X93673624Y-44277188D01*
X93741544Y-44113216D01*
X93840147Y-43965646D01*
X93965646Y-43840147D01*
X94113216Y-43741544D01*
X94277188Y-43673624D01*
X94426488Y-43643927D01*
X94451258Y-43639000D01*
X94628742Y-43639000D01*
X94653512Y-43643927D01*
G37*
G36*
X92113512Y-43643927D02*
G01*
X92262812Y-43673624D01*
X92426784Y-43741544D01*
X92574354Y-43840147D01*
X92699853Y-43965646D01*
X92798456Y-44113216D01*
X92866376Y-44277188D01*
X92901000Y-44451259D01*
X92901000Y-44628741D01*
X92866376Y-44802812D01*
X92798456Y-44966784D01*
X92699853Y-45114354D01*
X92574354Y-45239853D01*
X92426784Y-45338456D01*
X92262812Y-45406376D01*
X92113512Y-45436073D01*
X92088742Y-45441000D01*
X91911258Y-45441000D01*
X91886488Y-45436073D01*
X91737188Y-45406376D01*
X91573216Y-45338456D01*
X91425646Y-45239853D01*
X91300147Y-45114354D01*
X91201544Y-44966784D01*
X91133624Y-44802812D01*
X91099000Y-44628741D01*
X91099000Y-44451259D01*
X91133624Y-44277188D01*
X91201544Y-44113216D01*
X91300147Y-43965646D01*
X91425646Y-43840147D01*
X91573216Y-43741544D01*
X91737188Y-43673624D01*
X91886488Y-43643927D01*
X91911258Y-43639000D01*
X92088742Y-43639000D01*
X92113512Y-43643927D01*
G37*
G36*
X94653512Y-41103927D02*
G01*
X94802812Y-41133624D01*
X94966784Y-41201544D01*
X95114354Y-41300147D01*
X95239853Y-41425646D01*
X95338456Y-41573216D01*
X95406376Y-41737188D01*
X95441000Y-41911259D01*
X95441000Y-42088741D01*
X95406376Y-42262812D01*
X95338456Y-42426784D01*
X95239853Y-42574354D01*
X95114354Y-42699853D01*
X94966784Y-42798456D01*
X94802812Y-42866376D01*
X94653512Y-42896073D01*
X94628742Y-42901000D01*
X94451258Y-42901000D01*
X94426488Y-42896073D01*
X94277188Y-42866376D01*
X94113216Y-42798456D01*
X93965646Y-42699853D01*
X93840147Y-42574354D01*
X93741544Y-42426784D01*
X93673624Y-42262812D01*
X93639000Y-42088741D01*
X93639000Y-41911259D01*
X93673624Y-41737188D01*
X93741544Y-41573216D01*
X93840147Y-41425646D01*
X93965646Y-41300147D01*
X94113216Y-41201544D01*
X94277188Y-41133624D01*
X94426488Y-41103927D01*
X94451258Y-41099000D01*
X94628742Y-41099000D01*
X94653512Y-41103927D01*
G37*
G36*
X92901000Y-42901000D02*
G01*
X91099000Y-42901000D01*
X91099000Y-41099000D01*
X92901000Y-41099000D01*
X92901000Y-42901000D01*
G37*
M02*
