%FSLAX45Y45*%
G04 Gerber Fmt 4.5, Leading zero omitted, Abs format (unit mm)*
G04 Created by KiCad (PCBNEW 5.1.5+dfsg1-2build2) date 2024-02-20 09:09:01*
%MOMM*%
%LPD*%
G04 APERTURE LIST*
%TA.AperFunction,Profile*%
%ADD10C,0.050000*%
%TD*%
%ADD11C,0.200000*%
%ADD12C,0.300000*%
G04 APERTURE END LIST*
D10*
X8600000Y-11800000D02*
G75*
G02X8500000Y-11700000I0J100000D01*
G01*
X15500000Y-11700000D02*
G75*
G02X15400000Y-11800000I-100000J0D01*
G01*
X15400000Y-4000000D02*
G75*
G02X15500000Y-4100000I0J-100000D01*
G01*
X8500000Y-4100000D02*
G75*
G02X8600000Y-4000000I100000J0D01*
G01*
X8500000Y-11700000D02*
X8500000Y-4100000D01*
X15400000Y-11800000D02*
X8600000Y-11800000D01*
X15500000Y-4100000D02*
X15500000Y-11700000D01*
X8600000Y-4000000D02*
X15400000Y-4000000D01*
D11*
X9065500Y-4557000D02*
X9095500Y-4587000D01*
X9095500Y-4557000D02*
X9065500Y-4587000D01*
X9065500Y-4811000D02*
X9095500Y-4841000D01*
X9095500Y-4811000D02*
X9065500Y-4841000D01*
X9065500Y-5065000D02*
X9095500Y-5095000D01*
X9095500Y-5065000D02*
X9065500Y-5095000D01*
X9065500Y-5319000D02*
X9095500Y-5349000D01*
X9095500Y-5319000D02*
X9065500Y-5349000D01*
X9065500Y-5573000D02*
X9095500Y-5603000D01*
X9095500Y-5573000D02*
X9065500Y-5603000D01*
X9065500Y-5827000D02*
X9095500Y-5857000D01*
X9095500Y-5827000D02*
X9065500Y-5857000D01*
X9065500Y-6081000D02*
X9095500Y-6111000D01*
X9095500Y-6081000D02*
X9065500Y-6111000D01*
X9065500Y-6335000D02*
X9095500Y-6365000D01*
X9095500Y-6335000D02*
X9065500Y-6365000D01*
X9065500Y-6589000D02*
X9095500Y-6619000D01*
X9095500Y-6589000D02*
X9065500Y-6619000D01*
X9065500Y-6843000D02*
X9095500Y-6873000D01*
X9095500Y-6843000D02*
X9065500Y-6873000D01*
X9065500Y-7097000D02*
X9095500Y-7127000D01*
X9095500Y-7097000D02*
X9065500Y-7127000D01*
X9065500Y-7351000D02*
X9095500Y-7381000D01*
X9095500Y-7351000D02*
X9065500Y-7381000D01*
X9065500Y-7605000D02*
X9095500Y-7635000D01*
X9095500Y-7605000D02*
X9065500Y-7635000D01*
X9065500Y-7859000D02*
X9095500Y-7889000D01*
X9095500Y-7859000D02*
X9065500Y-7889000D01*
X9065500Y-8113000D02*
X9095500Y-8143000D01*
X9095500Y-8113000D02*
X9065500Y-8143000D01*
X9065500Y-8367000D02*
X9095500Y-8397000D01*
X9095500Y-8367000D02*
X9065500Y-8397000D01*
X9065500Y-8621000D02*
X9095500Y-8651000D01*
X9095500Y-8621000D02*
X9065500Y-8651000D01*
X9065500Y-8875000D02*
X9095500Y-8905000D01*
X9095500Y-8875000D02*
X9065500Y-8905000D01*
X9065500Y-9129000D02*
X9095500Y-9159000D01*
X9095500Y-9129000D02*
X9065500Y-9159000D01*
X9065500Y-9383000D02*
X9095500Y-9413000D01*
X9095500Y-9383000D02*
X9065500Y-9413000D01*
X9065500Y-9637000D02*
X9095500Y-9667000D01*
X9095500Y-9637000D02*
X9065500Y-9667000D01*
X9065500Y-9891000D02*
X9095500Y-9921000D01*
X9095500Y-9891000D02*
X9065500Y-9921000D01*
X9065500Y-10145000D02*
X9095500Y-10175000D01*
X9095500Y-10145000D02*
X9065500Y-10175000D01*
X9065500Y-10399000D02*
X9095500Y-10429000D01*
X9095500Y-10399000D02*
X9065500Y-10429000D01*
X9065500Y-10653000D02*
X9095500Y-10683000D01*
X9095500Y-10653000D02*
X9065500Y-10683000D01*
X9065500Y-10907000D02*
X9095500Y-10937000D01*
X9095500Y-10907000D02*
X9065500Y-10937000D01*
X9065500Y-11161000D02*
X9095500Y-11191000D01*
X9095500Y-11161000D02*
X9065500Y-11191000D01*
X9615000Y-9897000D02*
X9645000Y-9927000D01*
X9645000Y-9897000D02*
X9615000Y-9927000D01*
X9622000Y-7357000D02*
X9652000Y-7387000D01*
X9652000Y-7357000D02*
X9622000Y-7387000D01*
X9623000Y-5197000D02*
X9653000Y-5227000D01*
X9653000Y-5197000D02*
X9623000Y-5227000D01*
X9624000Y-5739000D02*
X9654000Y-5769000D01*
X9654000Y-5739000D02*
X9624000Y-5769000D01*
X9637000Y-7629000D02*
X9667000Y-7659000D01*
X9667000Y-7629000D02*
X9637000Y-7659000D01*
X9638000Y-7896000D02*
X9668000Y-7926000D01*
X9668000Y-7896000D02*
X9638000Y-7926000D01*
X9638000Y-10433000D02*
X9668000Y-10463000D01*
X9668000Y-10433000D02*
X9638000Y-10463000D01*
X9641000Y-9335000D02*
X9671000Y-9365000D01*
X9671000Y-9335000D02*
X9641000Y-9365000D01*
X9645000Y-9583000D02*
X9675000Y-9613000D01*
X9675000Y-9583000D02*
X9645000Y-9613000D01*
X9647000Y-8390000D02*
X9677000Y-8420000D01*
X9677000Y-8390000D02*
X9647000Y-8420000D01*
X9647000Y-11152000D02*
X9677000Y-11182000D01*
X9677000Y-11152000D02*
X9647000Y-11182000D01*
X9651000Y-8136000D02*
X9681000Y-8166000D01*
X9681000Y-8136000D02*
X9651000Y-8166000D01*
X9675000Y-4795000D02*
X9705000Y-4825000D01*
X9705000Y-4795000D02*
X9675000Y-4825000D01*
X9677000Y-9073000D02*
X9707000Y-9103000D01*
X9707000Y-9073000D02*
X9677000Y-9103000D01*
X9691000Y-9736000D02*
X9721000Y-9766000D01*
X9721000Y-9736000D02*
X9691000Y-9766000D01*
X9781000Y-10833000D02*
X9811000Y-10863000D01*
X9811000Y-10833000D02*
X9781000Y-10863000D01*
X9834000Y-10547000D02*
X9864000Y-10577000D01*
X9864000Y-10547000D02*
X9834000Y-10577000D01*
X9857000Y-6522000D02*
X9887000Y-6552000D01*
X9887000Y-6522000D02*
X9857000Y-6552000D01*
X9891000Y-8638000D02*
X9921000Y-8668000D01*
X9921000Y-8638000D02*
X9891000Y-8668000D01*
X9891000Y-11669000D02*
X9921000Y-11699000D01*
X9921000Y-11669000D02*
X9891000Y-11699000D01*
X10272000Y-11669000D02*
X10302000Y-11699000D01*
X10302000Y-11669000D02*
X10272000Y-11699000D01*
X10375000Y-6046000D02*
X10405000Y-6076000D01*
X10405000Y-6046000D02*
X10375000Y-6076000D01*
X10653000Y-4176000D02*
X10683000Y-4206000D01*
X10683000Y-4176000D02*
X10653000Y-4206000D01*
X10653000Y-11669000D02*
X10683000Y-11699000D01*
X10683000Y-11669000D02*
X10653000Y-11699000D01*
X10685000Y-6763000D02*
X10715000Y-6793000D01*
X10715000Y-6763000D02*
X10685000Y-6793000D01*
X10696746Y-6668171D02*
X10726746Y-6698171D01*
X10726746Y-6668171D02*
X10696746Y-6698171D01*
X10698000Y-6586000D02*
X10728000Y-6616000D01*
X10728000Y-6586000D02*
X10698000Y-6616000D01*
X10743000Y-7227000D02*
X10773000Y-7257000D01*
X10773000Y-7227000D02*
X10743000Y-7257000D01*
X10744000Y-7316000D02*
X10774000Y-7346000D01*
X10774000Y-7316000D02*
X10744000Y-7346000D01*
X10745000Y-7141000D02*
X10775000Y-7171000D01*
X10775000Y-7141000D02*
X10745000Y-7171000D01*
X10985000Y-7894000D02*
X11015000Y-7924000D01*
X11015000Y-7894000D02*
X10985000Y-7924000D01*
X11034000Y-4176000D02*
X11064000Y-4206000D01*
X11064000Y-4176000D02*
X11034000Y-4206000D01*
X11034000Y-11669000D02*
X11064000Y-11699000D01*
X11064000Y-11669000D02*
X11034000Y-11699000D01*
X11083000Y-7226000D02*
X11113000Y-7256000D01*
X11113000Y-7226000D02*
X11083000Y-7256000D01*
X11089000Y-7144000D02*
X11119000Y-7174000D01*
X11119000Y-7144000D02*
X11089000Y-7174000D01*
X11105000Y-7701000D02*
X11135000Y-7731000D01*
X11135000Y-7701000D02*
X11105000Y-7731000D01*
X11113000Y-6793000D02*
X11143000Y-6823000D01*
X11143000Y-6793000D02*
X11113000Y-6823000D01*
X11118000Y-7015000D02*
X11148000Y-7045000D01*
X11148000Y-7015000D02*
X11118000Y-7045000D01*
X11131000Y-7310000D02*
X11161000Y-7340000D01*
X11161000Y-7310000D02*
X11131000Y-7340000D01*
X11159000Y-6531000D02*
X11189000Y-6561000D01*
X11189000Y-6531000D02*
X11159000Y-6561000D01*
X11167000Y-5926000D02*
X11197000Y-5956000D01*
X11197000Y-5926000D02*
X11167000Y-5956000D01*
X11288000Y-6144500D02*
X11318000Y-6174500D01*
X11318000Y-6144500D02*
X11288000Y-6174500D01*
X11311000Y-7825000D02*
X11341000Y-7855000D01*
X11341000Y-7825000D02*
X11311000Y-7855000D01*
X11382000Y-5670000D02*
X11412000Y-5700000D01*
X11412000Y-5670000D02*
X11382000Y-5700000D01*
X11390000Y-5460000D02*
X11420000Y-5490000D01*
X11420000Y-5460000D02*
X11390000Y-5490000D01*
X11404000Y-7605501D02*
X11434000Y-7635501D01*
X11434000Y-7605501D02*
X11404000Y-7635501D01*
X11405000Y-5822000D02*
X11435000Y-5852000D01*
X11435000Y-5822000D02*
X11405000Y-5852000D01*
X11406000Y-5225000D02*
X11436000Y-5255000D01*
X11436000Y-5225000D02*
X11406000Y-5255000D01*
X11415000Y-4176000D02*
X11445000Y-4206000D01*
X11445000Y-4176000D02*
X11415000Y-4206000D01*
X11415000Y-11669000D02*
X11445000Y-11699000D01*
X11445000Y-11669000D02*
X11415000Y-11699000D01*
X11479000Y-7558501D02*
X11509000Y-7588501D01*
X11509000Y-7558501D02*
X11479000Y-7588501D01*
X11484000Y-6514000D02*
X11514000Y-6544000D01*
X11514000Y-6514000D02*
X11484000Y-6544000D01*
X11487000Y-5325000D02*
X11517000Y-5355000D01*
X11517000Y-5325000D02*
X11487000Y-5355000D01*
X11548000Y-10531000D02*
X11578000Y-10561000D01*
X11578000Y-10531000D02*
X11548000Y-10561000D01*
X11564000Y-7481000D02*
X11594000Y-7511000D01*
X11594000Y-7481000D02*
X11564000Y-7511000D01*
X11565000Y-5126000D02*
X11595000Y-5156000D01*
X11595000Y-5126000D02*
X11565000Y-5156000D01*
X11603000Y-9743000D02*
X11633000Y-9773000D01*
X11633000Y-9743000D02*
X11603000Y-9773000D01*
X11604000Y-9824000D02*
X11634000Y-9854000D01*
X11634000Y-9824000D02*
X11604000Y-9854000D01*
X11654000Y-7405000D02*
X11684000Y-7435000D01*
X11684000Y-7405000D02*
X11654000Y-7435000D01*
X11687000Y-5596000D02*
X11717000Y-5626000D01*
X11717000Y-5596000D02*
X11687000Y-5626000D01*
X11730000Y-7836000D02*
X11760000Y-7866000D01*
X11760000Y-7836000D02*
X11730000Y-7866000D01*
X11796000Y-4176000D02*
X11826000Y-4206000D01*
X11826000Y-4176000D02*
X11796000Y-4206000D01*
X11796000Y-11669000D02*
X11826000Y-11699000D01*
X11826000Y-11669000D02*
X11796000Y-11699000D01*
X11818000Y-6517000D02*
X11848000Y-6547000D01*
X11848000Y-6517000D02*
X11818000Y-6547000D01*
X11847000Y-9744000D02*
X11877000Y-9774000D01*
X11877000Y-9744000D02*
X11847000Y-9774000D01*
X11849000Y-9824000D02*
X11879000Y-9854000D01*
X11879000Y-9824000D02*
X11849000Y-9854000D01*
X11868000Y-5130400D02*
X11898000Y-5160400D01*
X11898000Y-5130400D02*
X11868000Y-5160400D01*
X11881000Y-7842000D02*
X11911000Y-7872000D01*
X11911000Y-7842000D02*
X11881000Y-7872000D01*
X11896000Y-10513000D02*
X11926000Y-10543000D01*
X11926000Y-10513000D02*
X11896000Y-10543000D01*
X12022000Y-7877000D02*
X12052000Y-7907000D01*
X12052000Y-7877000D02*
X12022000Y-7907000D01*
X12050000Y-6144500D02*
X12080000Y-6174500D01*
X12080000Y-6144500D02*
X12050000Y-6174500D01*
X12085000Y-6989000D02*
X12115000Y-7019000D01*
X12115000Y-6989000D02*
X12085000Y-7019000D01*
X12086000Y-8349000D02*
X12116000Y-8379000D01*
X12116000Y-8349000D02*
X12086000Y-8379000D01*
X12106000Y-5134400D02*
X12136000Y-5164400D01*
X12136000Y-5134400D02*
X12106000Y-5164400D01*
X12151000Y-6906000D02*
X12181000Y-6936000D01*
X12181000Y-6906000D02*
X12151000Y-6936000D01*
X12151000Y-8404000D02*
X12181000Y-8434000D01*
X12181000Y-8404000D02*
X12151000Y-8434000D01*
X12157000Y-6523000D02*
X12187000Y-6553000D01*
X12187000Y-6523000D02*
X12157000Y-6553000D01*
X12177000Y-4176000D02*
X12207000Y-4206000D01*
X12207000Y-4176000D02*
X12177000Y-4206000D01*
X12177000Y-11669000D02*
X12207000Y-11699000D01*
X12207000Y-11669000D02*
X12177000Y-11699000D01*
X12213000Y-6828000D02*
X12243000Y-6858000D01*
X12243000Y-6828000D02*
X12213000Y-6858000D01*
X12214000Y-6144500D02*
X12244000Y-6174500D01*
X12244000Y-6144500D02*
X12214000Y-6174500D01*
X12215000Y-8455000D02*
X12245000Y-8485000D01*
X12245000Y-8455000D02*
X12215000Y-8485000D01*
X12282000Y-6761000D02*
X12312000Y-6791000D01*
X12312000Y-6761000D02*
X12282000Y-6791000D01*
X12284000Y-8507000D02*
X12314000Y-8537000D01*
X12314000Y-8507000D02*
X12284000Y-8537000D01*
X12375000Y-7843000D02*
X12405000Y-7873000D01*
X12405000Y-7843000D02*
X12375000Y-7873000D01*
X12497000Y-6526000D02*
X12527000Y-6556000D01*
X12527000Y-6526000D02*
X12497000Y-6556000D01*
X12545000Y-7841000D02*
X12575000Y-7871000D01*
X12575000Y-7841000D02*
X12545000Y-7871000D01*
X12558000Y-4176000D02*
X12588000Y-4206000D01*
X12588000Y-4176000D02*
X12558000Y-4206000D01*
X12558000Y-11669000D02*
X12588000Y-11699000D01*
X12588000Y-11669000D02*
X12558000Y-11699000D01*
X12665000Y-5175400D02*
X12695000Y-5205400D01*
X12695000Y-5175400D02*
X12665000Y-5205400D01*
X12680000Y-10611000D02*
X12710000Y-10641000D01*
X12710000Y-10611000D02*
X12680000Y-10641000D01*
X12707000Y-9743000D02*
X12737000Y-9773000D01*
X12737000Y-9743000D02*
X12707000Y-9773000D01*
X12708000Y-9825000D02*
X12738000Y-9855000D01*
X12738000Y-9825000D02*
X12708000Y-9855000D01*
X12724000Y-7844000D02*
X12754000Y-7874000D01*
X12754000Y-7844000D02*
X12724000Y-7874000D01*
X12725000Y-10383000D02*
X12755000Y-10413000D01*
X12755000Y-10383000D02*
X12725000Y-10413000D01*
X12727000Y-10303000D02*
X12757000Y-10333000D01*
X12757000Y-10303000D02*
X12727000Y-10333000D01*
X12728314Y-10222891D02*
X12758314Y-10252891D01*
X12758314Y-10222891D02*
X12728314Y-10252891D01*
X12764000Y-6017500D02*
X12794000Y-6047500D01*
X12794000Y-6017500D02*
X12764000Y-6047500D01*
X12764000Y-6117000D02*
X12794000Y-6147000D01*
X12794000Y-6117000D02*
X12764000Y-6147000D01*
X12799000Y-8812000D02*
X12829000Y-8842000D01*
X12829000Y-8812000D02*
X12799000Y-8842000D01*
X12872000Y-6534000D02*
X12902000Y-6564000D01*
X12902000Y-6534000D02*
X12872000Y-6564000D01*
X12900000Y-7846000D02*
X12930000Y-7876000D01*
X12930000Y-7846000D02*
X12900000Y-7876000D01*
X12918000Y-5170400D02*
X12948000Y-5200400D01*
X12948000Y-5170400D02*
X12918000Y-5200400D01*
X12939000Y-4176000D02*
X12969000Y-4206000D01*
X12969000Y-4176000D02*
X12939000Y-4206000D01*
X12939000Y-11669000D02*
X12969000Y-11699000D01*
X12969000Y-11669000D02*
X12939000Y-11699000D01*
X12954000Y-10465000D02*
X12984000Y-10495000D01*
X12984000Y-10465000D02*
X12954000Y-10495000D01*
X12957000Y-10145000D02*
X12987000Y-10175000D01*
X12987000Y-10145000D02*
X12957000Y-10175000D01*
X12958000Y-9985000D02*
X12988000Y-10015000D01*
X12988000Y-9985000D02*
X12958000Y-10015000D01*
X12958000Y-10065000D02*
X12988000Y-10095000D01*
X12988000Y-10065000D02*
X12958000Y-10095000D01*
X12960000Y-9905000D02*
X12990000Y-9935000D01*
X12990000Y-9905000D02*
X12960000Y-9935000D01*
X12962975Y-9584031D02*
X12992975Y-9614031D01*
X12992975Y-9584031D02*
X12962975Y-9614031D01*
X12962988Y-9184051D02*
X12992988Y-9214051D01*
X12992988Y-9184051D02*
X12962988Y-9214051D01*
X12963852Y-9743999D02*
X12993852Y-9773999D01*
X12993852Y-9743999D02*
X12963852Y-9773999D01*
X12963988Y-9264046D02*
X12993988Y-9294046D01*
X12993988Y-9264046D02*
X12963988Y-9294046D01*
X12964000Y-9424036D02*
X12994000Y-9454036D01*
X12994000Y-9424036D02*
X12964000Y-9454036D01*
X12964000Y-9824000D02*
X12994000Y-9854000D01*
X12994000Y-9824000D02*
X12964000Y-9854000D01*
X12964012Y-9504037D02*
X12994012Y-9534037D01*
X12994012Y-9504037D02*
X12964012Y-9534037D01*
X12965012Y-9344041D02*
X12995012Y-9374041D01*
X12995012Y-9344041D02*
X12965012Y-9374041D01*
X12965014Y-9664006D02*
X12995014Y-9694006D01*
X12995014Y-9664006D02*
X12965014Y-9694006D01*
X12981000Y-7132000D02*
X13011000Y-7162000D01*
X13011000Y-7132000D02*
X12981000Y-7162000D01*
X12986000Y-7551000D02*
X13016000Y-7581000D01*
X13016000Y-7551000D02*
X12986000Y-7581000D01*
X12991000Y-6663000D02*
X13021000Y-6693000D01*
X13021000Y-6663000D02*
X12991000Y-6693000D01*
X13005000Y-6497000D02*
X13035000Y-6527000D01*
X13035000Y-6497000D02*
X13005000Y-6527000D01*
X13015000Y-7330000D02*
X13045000Y-7360000D01*
X13045000Y-7330000D02*
X13015000Y-7360000D01*
X13021000Y-10639000D02*
X13051000Y-10669000D01*
X13051000Y-10639000D02*
X13021000Y-10669000D01*
X13041000Y-7770000D02*
X13071000Y-7800000D01*
X13071000Y-7770000D02*
X13041000Y-7800000D01*
X13046000Y-7463000D02*
X13076000Y-7493000D01*
X13076000Y-7463000D02*
X13046000Y-7493000D01*
X13050000Y-10328000D02*
X13080000Y-10358000D01*
X13080000Y-10328000D02*
X13050000Y-10358000D01*
X13054000Y-8869000D02*
X13084000Y-8899000D01*
X13084000Y-8869000D02*
X13054000Y-8899000D01*
X13062000Y-7625000D02*
X13092000Y-7655000D01*
X13092000Y-7625000D02*
X13062000Y-7655000D01*
X13077000Y-7144000D02*
X13107000Y-7174000D01*
X13107000Y-7144000D02*
X13077000Y-7174000D01*
X13078665Y-7228530D02*
X13108665Y-7258530D01*
X13108665Y-7228530D02*
X13078665Y-7258530D01*
X13088240Y-7063327D02*
X13118240Y-7093327D01*
X13118240Y-7063327D02*
X13088240Y-7093327D01*
X13117000Y-8099000D02*
X13147000Y-8129000D01*
X13147000Y-8099000D02*
X13117000Y-8129000D01*
X13130000Y-6400000D02*
X13160000Y-6430000D01*
X13160000Y-6400000D02*
X13130000Y-6430000D01*
X13168000Y-5169400D02*
X13198000Y-5199400D01*
X13198000Y-5169400D02*
X13168000Y-5199400D01*
X13190000Y-9599000D02*
X13220000Y-9629000D01*
X13220000Y-9599000D02*
X13190000Y-9629000D01*
X13320000Y-4176000D02*
X13350000Y-4206000D01*
X13350000Y-4176000D02*
X13320000Y-4206000D01*
X13320000Y-11669000D02*
X13350000Y-11699000D01*
X13350000Y-11669000D02*
X13320000Y-11699000D01*
X13321000Y-9475000D02*
X13351000Y-9505000D01*
X13351000Y-9475000D02*
X13321000Y-9505000D01*
X13415000Y-7067000D02*
X13445000Y-7097000D01*
X13445000Y-7067000D02*
X13415000Y-7097000D01*
X13417000Y-7224000D02*
X13447000Y-7254000D01*
X13447000Y-7224000D02*
X13417000Y-7254000D01*
X13421000Y-5193400D02*
X13451000Y-5223400D01*
X13451000Y-5193400D02*
X13421000Y-5223400D01*
X13435933Y-7705229D02*
X13465933Y-7735229D01*
X13465933Y-7705229D02*
X13435933Y-7735229D01*
X13437000Y-6583000D02*
X13467000Y-6613000D01*
X13467000Y-6583000D02*
X13437000Y-6613000D01*
X13439000Y-6665000D02*
X13469000Y-6695000D01*
X13469000Y-6665000D02*
X13439000Y-6695000D01*
X13441000Y-7541000D02*
X13471000Y-7571000D01*
X13471000Y-7541000D02*
X13441000Y-7571000D01*
X13442000Y-7785000D02*
X13472000Y-7815000D01*
X13472000Y-7785000D02*
X13442000Y-7815000D01*
X13443000Y-7879000D02*
X13473000Y-7909000D01*
X13473000Y-7879000D02*
X13443000Y-7909000D01*
X13516000Y-9477000D02*
X13546000Y-9507000D01*
X13546000Y-9477000D02*
X13516000Y-9507000D01*
X13528000Y-6871000D02*
X13558000Y-6901000D01*
X13558000Y-6871000D02*
X13528000Y-6901000D01*
X13573000Y-10249000D02*
X13603000Y-10279000D01*
X13603000Y-10249000D02*
X13573000Y-10279000D01*
X13600000Y-7463000D02*
X13630000Y-7493000D01*
X13630000Y-7463000D02*
X13600000Y-7493000D01*
X13618000Y-5159400D02*
X13648000Y-5189400D01*
X13648000Y-5159400D02*
X13618000Y-5189400D01*
X13644000Y-9591000D02*
X13674000Y-9621000D01*
X13674000Y-9591000D02*
X13644000Y-9621000D01*
X13667000Y-7539000D02*
X13697000Y-7569000D01*
X13697000Y-7539000D02*
X13667000Y-7569000D01*
X13701000Y-4176000D02*
X13731000Y-4206000D01*
X13731000Y-4176000D02*
X13701000Y-4206000D01*
X13701000Y-11669000D02*
X13731000Y-11699000D01*
X13731000Y-11669000D02*
X13701000Y-11699000D01*
X13713000Y-6865000D02*
X13743000Y-6895000D01*
X13743000Y-6865000D02*
X13713000Y-6895000D01*
X13730000Y-7624000D02*
X13760000Y-7654000D01*
X13760000Y-7624000D02*
X13730000Y-7654000D01*
X13804000Y-6257000D02*
X13834000Y-6287000D01*
X13834000Y-6257000D02*
X13804000Y-6287000D01*
X13872000Y-8963000D02*
X13902000Y-8993000D01*
X13902000Y-8963000D02*
X13872000Y-8993000D01*
X13916000Y-6498000D02*
X13946000Y-6528000D01*
X13946000Y-6498000D02*
X13916000Y-6528000D01*
X13990000Y-6583000D02*
X14020000Y-6613000D01*
X14020000Y-6583000D02*
X13990000Y-6613000D01*
X14070000Y-6667000D02*
X14100000Y-6697000D01*
X14100000Y-6667000D02*
X14070000Y-6697000D01*
X14082000Y-4176000D02*
X14112000Y-4206000D01*
X14112000Y-4176000D02*
X14082000Y-4206000D01*
X14082000Y-11669000D02*
X14112000Y-11699000D01*
X14112000Y-11669000D02*
X14082000Y-11699000D01*
X14142000Y-7715000D02*
X14172000Y-7745000D01*
X14172000Y-7715000D02*
X14142000Y-7745000D01*
X14227000Y-7786000D02*
X14257000Y-7816000D01*
X14257000Y-7786000D02*
X14227000Y-7816000D01*
X14268000Y-7143000D02*
X14298000Y-7173000D01*
X14298000Y-7143000D02*
X14268000Y-7173000D01*
X14463000Y-4176000D02*
X14493000Y-4206000D01*
X14493000Y-4176000D02*
X14463000Y-4206000D01*
X14463000Y-11669000D02*
X14493000Y-11699000D01*
X14493000Y-11669000D02*
X14463000Y-11699000D01*
X14717000Y-4938000D02*
X14747000Y-4968000D01*
X14747000Y-4938000D02*
X14717000Y-4968000D01*
X14717000Y-5319000D02*
X14747000Y-5349000D01*
X14747000Y-5319000D02*
X14717000Y-5349000D01*
X14717000Y-5700000D02*
X14747000Y-5730000D01*
X14747000Y-5700000D02*
X14717000Y-5730000D01*
X14717000Y-6081000D02*
X14747000Y-6111000D01*
X14747000Y-6081000D02*
X14717000Y-6111000D01*
X14717000Y-6462000D02*
X14747000Y-6492000D01*
X14747000Y-6462000D02*
X14717000Y-6492000D01*
X14717000Y-6843000D02*
X14747000Y-6873000D01*
X14747000Y-6843000D02*
X14717000Y-6873000D01*
X14717000Y-7224000D02*
X14747000Y-7254000D01*
X14747000Y-7224000D02*
X14717000Y-7254000D01*
X14717000Y-7605000D02*
X14747000Y-7635000D01*
X14747000Y-7605000D02*
X14717000Y-7635000D01*
X14717000Y-7986000D02*
X14747000Y-8016000D01*
X14747000Y-7986000D02*
X14717000Y-8016000D01*
X14717000Y-8367000D02*
X14747000Y-8397000D01*
X14747000Y-8367000D02*
X14717000Y-8397000D01*
X14717000Y-8748000D02*
X14747000Y-8778000D01*
X14747000Y-8748000D02*
X14717000Y-8778000D01*
X14717000Y-9129000D02*
X14747000Y-9159000D01*
X14747000Y-9129000D02*
X14717000Y-9159000D01*
X14717000Y-9510000D02*
X14747000Y-9540000D01*
X14747000Y-9510000D02*
X14717000Y-9540000D01*
X14717000Y-9891000D02*
X14747000Y-9921000D01*
X14747000Y-9891000D02*
X14717000Y-9921000D01*
X14717000Y-10272000D02*
X14747000Y-10302000D01*
X14747000Y-10272000D02*
X14717000Y-10302000D01*
X14717000Y-10653000D02*
X14747000Y-10683000D01*
X14747000Y-10653000D02*
X14717000Y-10683000D01*
X13603400Y-7358000D02*
G75*
G03X13603400Y-7358000I-25400J0D01*
G01*
X13708400Y-9821000D02*
G75*
G03X13708400Y-9821000I-25400J0D01*
G01*
X13761400Y-7358000D02*
G75*
G03X13761400Y-7358000I-25400J0D01*
G01*
X9200000Y-4150000D02*
X9200000Y-4250000D01*
X9150000Y-4200000D02*
X9250000Y-4200000D01*
X9200000Y-4404000D02*
X9200000Y-4504000D01*
X9150000Y-4454000D02*
X9250000Y-4454000D01*
X9200000Y-4658000D02*
X9200000Y-4758000D01*
X9150000Y-4708000D02*
X9250000Y-4708000D01*
X9200000Y-4912000D02*
X9200000Y-5012000D01*
X9150000Y-4962000D02*
X9250000Y-4962000D01*
X9200000Y-5166000D02*
X9200000Y-5266000D01*
X9150000Y-5216000D02*
X9250000Y-5216000D01*
X9200000Y-5420000D02*
X9200000Y-5520000D01*
X9150000Y-5470000D02*
X9250000Y-5470000D01*
X9200000Y-5674000D02*
X9200000Y-5774000D01*
X9150000Y-5724000D02*
X9250000Y-5724000D01*
X9200000Y-5928000D02*
X9200000Y-6028000D01*
X9150000Y-5978000D02*
X9250000Y-5978000D01*
X9200000Y-6182000D02*
X9200000Y-6282000D01*
X9150000Y-6232000D02*
X9250000Y-6232000D01*
X9200000Y-6436000D02*
X9200000Y-6536000D01*
X9150000Y-6486000D02*
X9250000Y-6486000D01*
X9200000Y-6690000D02*
X9200000Y-6790000D01*
X9150000Y-6740000D02*
X9250000Y-6740000D01*
X9200000Y-6944000D02*
X9200000Y-7044000D01*
X9150000Y-6994000D02*
X9250000Y-6994000D01*
X9200000Y-7198000D02*
X9200000Y-7298000D01*
X9150000Y-7248000D02*
X9250000Y-7248000D01*
X9200000Y-7452000D02*
X9200000Y-7552000D01*
X9150000Y-7502000D02*
X9250000Y-7502000D01*
X9200000Y-7706000D02*
X9200000Y-7806000D01*
X9150000Y-7756000D02*
X9250000Y-7756000D01*
X9200000Y-7960000D02*
X9200000Y-8060000D01*
X9150000Y-8010000D02*
X9250000Y-8010000D01*
X9200000Y-8214000D02*
X9200000Y-8314000D01*
X9150000Y-8264000D02*
X9250000Y-8264000D01*
X9200000Y-8468000D02*
X9200000Y-8568000D01*
X9150000Y-8518000D02*
X9250000Y-8518000D01*
X9200000Y-8722000D02*
X9200000Y-8822000D01*
X9150000Y-8772000D02*
X9250000Y-8772000D01*
X9200000Y-8976000D02*
X9200000Y-9076000D01*
X9150000Y-9026000D02*
X9250000Y-9026000D01*
X9200000Y-9230000D02*
X9200000Y-9330000D01*
X9150000Y-9280000D02*
X9250000Y-9280000D01*
X9200000Y-9484000D02*
X9200000Y-9584000D01*
X9150000Y-9534000D02*
X9250000Y-9534000D01*
X9200000Y-9738000D02*
X9200000Y-9838000D01*
X9150000Y-9788000D02*
X9250000Y-9788000D01*
X9200000Y-9992000D02*
X9200000Y-10092000D01*
X9150000Y-10042000D02*
X9250000Y-10042000D01*
X9200000Y-10246000D02*
X9200000Y-10346000D01*
X9150000Y-10296000D02*
X9250000Y-10296000D01*
X9200000Y-10500000D02*
X9200000Y-10600000D01*
X9150000Y-10550000D02*
X9250000Y-10550000D01*
X9200000Y-10754000D02*
X9200000Y-10854000D01*
X9150000Y-10804000D02*
X9250000Y-10804000D01*
X9200000Y-11008000D02*
X9200000Y-11108000D01*
X9150000Y-11058000D02*
X9250000Y-11058000D01*
X9200000Y-11262000D02*
X9200000Y-11362000D01*
X9150000Y-11312000D02*
X9250000Y-11312000D01*
X9200000Y-11516000D02*
X9200000Y-11616000D01*
X9150000Y-11566000D02*
X9250000Y-11566000D01*
X9454000Y-4150000D02*
X9454000Y-4250000D01*
X9404000Y-4200000D02*
X9504000Y-4200000D01*
X9454000Y-4404000D02*
X9454000Y-4504000D01*
X9404000Y-4454000D02*
X9504000Y-4454000D01*
X9454000Y-4658000D02*
X9454000Y-4758000D01*
X9404000Y-4708000D02*
X9504000Y-4708000D01*
X9454000Y-4912000D02*
X9454000Y-5012000D01*
X9404000Y-4962000D02*
X9504000Y-4962000D01*
X9454000Y-5166000D02*
X9454000Y-5266000D01*
X9404000Y-5216000D02*
X9504000Y-5216000D01*
X9454000Y-5420000D02*
X9454000Y-5520000D01*
X9404000Y-5470000D02*
X9504000Y-5470000D01*
X9454000Y-5674000D02*
X9454000Y-5774000D01*
X9404000Y-5724000D02*
X9504000Y-5724000D01*
X9454000Y-5928000D02*
X9454000Y-6028000D01*
X9404000Y-5978000D02*
X9504000Y-5978000D01*
X9454000Y-6182000D02*
X9454000Y-6282000D01*
X9404000Y-6232000D02*
X9504000Y-6232000D01*
X9454000Y-6436000D02*
X9454000Y-6536000D01*
X9404000Y-6486000D02*
X9504000Y-6486000D01*
X9454000Y-6690000D02*
X9454000Y-6790000D01*
X9404000Y-6740000D02*
X9504000Y-6740000D01*
X9454000Y-6944000D02*
X9454000Y-7044000D01*
X9404000Y-6994000D02*
X9504000Y-6994000D01*
X9454000Y-7198000D02*
X9454000Y-7298000D01*
X9404000Y-7248000D02*
X9504000Y-7248000D01*
X9454000Y-7452000D02*
X9454000Y-7552000D01*
X9404000Y-7502000D02*
X9504000Y-7502000D01*
X9454000Y-7706000D02*
X9454000Y-7806000D01*
X9404000Y-7756000D02*
X9504000Y-7756000D01*
X9454000Y-7960000D02*
X9454000Y-8060000D01*
X9404000Y-8010000D02*
X9504000Y-8010000D01*
X9454000Y-8214000D02*
X9454000Y-8314000D01*
X9404000Y-8264000D02*
X9504000Y-8264000D01*
X9454000Y-8468000D02*
X9454000Y-8568000D01*
X9404000Y-8518000D02*
X9504000Y-8518000D01*
X9454000Y-8722000D02*
X9454000Y-8822000D01*
X9404000Y-8772000D02*
X9504000Y-8772000D01*
X9454000Y-8976000D02*
X9454000Y-9076000D01*
X9404000Y-9026000D02*
X9504000Y-9026000D01*
X9454000Y-9230000D02*
X9454000Y-9330000D01*
X9404000Y-9280000D02*
X9504000Y-9280000D01*
X9454000Y-9484000D02*
X9454000Y-9584000D01*
X9404000Y-9534000D02*
X9504000Y-9534000D01*
X9454000Y-9738000D02*
X9454000Y-9838000D01*
X9404000Y-9788000D02*
X9504000Y-9788000D01*
X9454000Y-9992000D02*
X9454000Y-10092000D01*
X9404000Y-10042000D02*
X9504000Y-10042000D01*
X9454000Y-10246000D02*
X9454000Y-10346000D01*
X9404000Y-10296000D02*
X9504000Y-10296000D01*
X9454000Y-10500000D02*
X9454000Y-10600000D01*
X9404000Y-10550000D02*
X9504000Y-10550000D01*
X9454000Y-10754000D02*
X9454000Y-10854000D01*
X9404000Y-10804000D02*
X9504000Y-10804000D01*
X9454000Y-11008000D02*
X9454000Y-11108000D01*
X9404000Y-11058000D02*
X9504000Y-11058000D01*
X9454000Y-11262000D02*
X9454000Y-11362000D01*
X9404000Y-11312000D02*
X9504000Y-11312000D01*
X9454000Y-11516000D02*
X9454000Y-11616000D01*
X9404000Y-11566000D02*
X9504000Y-11566000D01*
X11470000Y-4633400D02*
X11470000Y-4733400D01*
X11420000Y-4683400D02*
X11520000Y-4683400D01*
X11470000Y-4887400D02*
X11470000Y-4987400D01*
X11420000Y-4937400D02*
X11520000Y-4937400D01*
X11724000Y-4633400D02*
X11724000Y-4733400D01*
X11674000Y-4683400D02*
X11774000Y-4683400D01*
X11724000Y-4887400D02*
X11724000Y-4987400D01*
X11674000Y-4937400D02*
X11774000Y-4937400D01*
X11978000Y-4633400D02*
X11978000Y-4733400D01*
X11928000Y-4683400D02*
X12028000Y-4683400D01*
X11978000Y-4887400D02*
X11978000Y-4987400D01*
X11928000Y-4937400D02*
X12028000Y-4937400D01*
X12232000Y-4633400D02*
X12232000Y-4733400D01*
X12182000Y-4683400D02*
X12282000Y-4683400D01*
X12232000Y-4887400D02*
X12232000Y-4987400D01*
X12182000Y-4937400D02*
X12282000Y-4937400D01*
X12486000Y-4633400D02*
X12486000Y-4733400D01*
X12436000Y-4683400D02*
X12536000Y-4683400D01*
X12486000Y-4887400D02*
X12486000Y-4987400D01*
X12436000Y-4937400D02*
X12536000Y-4937400D01*
X12740000Y-4633400D02*
X12740000Y-4733400D01*
X12690000Y-4683400D02*
X12790000Y-4683400D01*
X12740000Y-4887400D02*
X12740000Y-4987400D01*
X12690000Y-4937400D02*
X12790000Y-4937400D01*
X12994000Y-4633400D02*
X12994000Y-4733400D01*
X12944000Y-4683400D02*
X13044000Y-4683400D01*
X12994000Y-4887400D02*
X12994000Y-4987400D01*
X12944000Y-4937400D02*
X13044000Y-4937400D01*
X13248000Y-4633400D02*
X13248000Y-4733400D01*
X13198000Y-4683400D02*
X13298000Y-4683400D01*
X13248000Y-4887400D02*
X13248000Y-4987400D01*
X13198000Y-4937400D02*
X13298000Y-4937400D01*
X13502000Y-4633400D02*
X13502000Y-4733400D01*
X13452000Y-4683400D02*
X13552000Y-4683400D01*
X13502000Y-4887400D02*
X13502000Y-4987400D01*
X13452000Y-4937400D02*
X13552000Y-4937400D01*
X13756000Y-4633400D02*
X13756000Y-4733400D01*
X13706000Y-4683400D02*
X13806000Y-4683400D01*
X13756000Y-4887400D02*
X13756000Y-4987400D01*
X13706000Y-4937400D02*
X13806000Y-4937400D01*
X14010000Y-4633400D02*
X14010000Y-4733400D01*
X13960000Y-4683400D02*
X14060000Y-4683400D01*
X14010000Y-4887400D02*
X14010000Y-4987400D01*
X13960000Y-4937400D02*
X14060000Y-4937400D01*
X14264000Y-4633400D02*
X14264000Y-4733400D01*
X14214000Y-4683400D02*
X14314000Y-4683400D01*
X14264000Y-4887400D02*
X14264000Y-4987400D01*
X14214000Y-4937400D02*
X14314000Y-4937400D01*
D12*
X8783928Y-12268214D02*
X8783928Y-11968214D01*
X8855357Y-11968214D01*
X8898214Y-11982500D01*
X8926786Y-12011071D01*
X8941071Y-12039643D01*
X8955357Y-12096786D01*
X8955357Y-12139643D01*
X8941071Y-12196786D01*
X8926786Y-12225357D01*
X8898214Y-12253929D01*
X8855357Y-12268214D01*
X8783928Y-12268214D01*
X9083928Y-12268214D02*
X9083928Y-12068214D01*
X9083928Y-12125357D02*
X9098214Y-12096786D01*
X9112500Y-12082500D01*
X9141071Y-12068214D01*
X9169643Y-12068214D01*
X9269643Y-12268214D02*
X9269643Y-12068214D01*
X9269643Y-11968214D02*
X9255357Y-11982500D01*
X9269643Y-11996786D01*
X9283928Y-11982500D01*
X9269643Y-11968214D01*
X9269643Y-11996786D01*
X9455357Y-12268214D02*
X9426786Y-12253929D01*
X9412500Y-12225357D01*
X9412500Y-11968214D01*
X9612500Y-12268214D02*
X9583928Y-12253929D01*
X9569643Y-12225357D01*
X9569643Y-11968214D01*
X9955357Y-12268214D02*
X9955357Y-11968214D01*
X10055357Y-12182500D01*
X10155357Y-11968214D01*
X10155357Y-12268214D01*
X10426786Y-12268214D02*
X10426786Y-12111071D01*
X10412500Y-12082500D01*
X10383928Y-12068214D01*
X10326786Y-12068214D01*
X10298214Y-12082500D01*
X10426786Y-12253929D02*
X10398214Y-12268214D01*
X10326786Y-12268214D01*
X10298214Y-12253929D01*
X10283928Y-12225357D01*
X10283928Y-12196786D01*
X10298214Y-12168214D01*
X10326786Y-12153929D01*
X10398214Y-12153929D01*
X10426786Y-12139643D01*
X10569643Y-12068214D02*
X10569643Y-12368214D01*
X10569643Y-12082500D02*
X10598214Y-12068214D01*
X10655357Y-12068214D01*
X10683928Y-12082500D01*
X10698214Y-12096786D01*
X10712500Y-12125357D01*
X10712500Y-12211071D01*
X10698214Y-12239643D01*
X10683928Y-12253929D01*
X10655357Y-12268214D01*
X10598214Y-12268214D01*
X10569643Y-12253929D01*
X10841071Y-12239643D02*
X10855357Y-12253929D01*
X10841071Y-12268214D01*
X10826786Y-12253929D01*
X10841071Y-12239643D01*
X10841071Y-12268214D01*
X10841071Y-12082500D02*
X10855357Y-12096786D01*
X10841071Y-12111071D01*
X10826786Y-12096786D01*
X10841071Y-12082500D01*
X10841071Y-12111071D01*
X8467500Y-12747500D02*
X8497500Y-12777500D01*
X8497500Y-12747500D02*
X8467500Y-12777500D01*
X8841071Y-12598214D02*
X8869643Y-12598214D01*
X8898214Y-12612500D01*
X8912500Y-12626786D01*
X8926786Y-12655357D01*
X8941071Y-12712500D01*
X8941071Y-12783929D01*
X8926786Y-12841071D01*
X8912500Y-12869643D01*
X8898214Y-12883929D01*
X8869643Y-12898214D01*
X8841071Y-12898214D01*
X8812500Y-12883929D01*
X8798214Y-12869643D01*
X8783928Y-12841071D01*
X8769643Y-12783929D01*
X8769643Y-12712500D01*
X8783928Y-12655357D01*
X8798214Y-12626786D01*
X8812500Y-12612500D01*
X8841071Y-12598214D01*
X9069643Y-12869643D02*
X9083928Y-12883929D01*
X9069643Y-12898214D01*
X9055357Y-12883929D01*
X9069643Y-12869643D01*
X9069643Y-12898214D01*
X9183928Y-12598214D02*
X9369643Y-12598214D01*
X9269643Y-12712500D01*
X9312500Y-12712500D01*
X9341071Y-12726786D01*
X9355357Y-12741071D01*
X9369643Y-12769643D01*
X9369643Y-12841071D01*
X9355357Y-12869643D01*
X9341071Y-12883929D01*
X9312500Y-12898214D01*
X9226786Y-12898214D01*
X9198214Y-12883929D01*
X9183928Y-12869643D01*
X9555357Y-12598214D02*
X9583928Y-12598214D01*
X9612500Y-12612500D01*
X9626786Y-12626786D01*
X9641071Y-12655357D01*
X9655357Y-12712500D01*
X9655357Y-12783929D01*
X9641071Y-12841071D01*
X9626786Y-12869643D01*
X9612500Y-12883929D01*
X9583928Y-12898214D01*
X9555357Y-12898214D01*
X9526786Y-12883929D01*
X9512500Y-12869643D01*
X9498214Y-12841071D01*
X9483928Y-12783929D01*
X9483928Y-12712500D01*
X9498214Y-12655357D01*
X9512500Y-12626786D01*
X9526786Y-12612500D01*
X9555357Y-12598214D01*
X9783928Y-12898214D02*
X9783928Y-12698214D01*
X9783928Y-12726786D02*
X9798214Y-12712500D01*
X9826786Y-12698214D01*
X9869643Y-12698214D01*
X9898214Y-12712500D01*
X9912500Y-12741071D01*
X9912500Y-12898214D01*
X9912500Y-12741071D02*
X9926786Y-12712500D01*
X9955357Y-12698214D01*
X9998214Y-12698214D01*
X10026786Y-12712500D01*
X10041071Y-12741071D01*
X10041071Y-12898214D01*
X10183928Y-12898214D02*
X10183928Y-12698214D01*
X10183928Y-12726786D02*
X10198214Y-12712500D01*
X10226786Y-12698214D01*
X10269643Y-12698214D01*
X10298214Y-12712500D01*
X10312500Y-12741071D01*
X10312500Y-12898214D01*
X10312500Y-12741071D02*
X10326786Y-12712500D01*
X10355357Y-12698214D01*
X10398214Y-12698214D01*
X10426786Y-12712500D01*
X10441071Y-12741071D01*
X10441071Y-12898214D01*
X11026786Y-12583929D02*
X10769643Y-12969643D01*
X11412500Y-12598214D02*
X11441071Y-12598214D01*
X11469643Y-12612500D01*
X11483928Y-12626786D01*
X11498214Y-12655357D01*
X11512500Y-12712500D01*
X11512500Y-12783929D01*
X11498214Y-12841071D01*
X11483928Y-12869643D01*
X11469643Y-12883929D01*
X11441071Y-12898214D01*
X11412500Y-12898214D01*
X11383928Y-12883929D01*
X11369643Y-12869643D01*
X11355357Y-12841071D01*
X11341071Y-12783929D01*
X11341071Y-12712500D01*
X11355357Y-12655357D01*
X11369643Y-12626786D01*
X11383928Y-12612500D01*
X11412500Y-12598214D01*
X11641071Y-12869643D02*
X11655357Y-12883929D01*
X11641071Y-12898214D01*
X11626786Y-12883929D01*
X11641071Y-12869643D01*
X11641071Y-12898214D01*
X11841071Y-12598214D02*
X11869643Y-12598214D01*
X11898214Y-12612500D01*
X11912500Y-12626786D01*
X11926786Y-12655357D01*
X11941071Y-12712500D01*
X11941071Y-12783929D01*
X11926786Y-12841071D01*
X11912500Y-12869643D01*
X11898214Y-12883929D01*
X11869643Y-12898214D01*
X11841071Y-12898214D01*
X11812500Y-12883929D01*
X11798214Y-12869643D01*
X11783928Y-12841071D01*
X11769643Y-12783929D01*
X11769643Y-12712500D01*
X11783928Y-12655357D01*
X11798214Y-12626786D01*
X11812500Y-12612500D01*
X11841071Y-12598214D01*
X12226786Y-12898214D02*
X12055357Y-12898214D01*
X12141071Y-12898214D02*
X12141071Y-12598214D01*
X12112500Y-12641071D01*
X12083928Y-12669643D01*
X12055357Y-12683929D01*
X12341071Y-12626786D02*
X12355357Y-12612500D01*
X12383928Y-12598214D01*
X12455357Y-12598214D01*
X12483928Y-12612500D01*
X12498214Y-12626786D01*
X12512500Y-12655357D01*
X12512500Y-12683929D01*
X12498214Y-12726786D01*
X12326786Y-12898214D01*
X12512500Y-12898214D01*
X12626786Y-12598214D02*
X12626786Y-12655357D01*
X12741071Y-12598214D02*
X12741071Y-12655357D01*
X13183928Y-13012500D02*
X13169643Y-12998214D01*
X13141071Y-12955357D01*
X13126786Y-12926786D01*
X13112500Y-12883929D01*
X13098214Y-12812500D01*
X13098214Y-12755357D01*
X13112500Y-12683929D01*
X13126786Y-12641071D01*
X13141071Y-12612500D01*
X13169643Y-12569643D01*
X13183928Y-12555357D01*
X13283928Y-12626786D02*
X13298214Y-12612500D01*
X13326786Y-12598214D01*
X13398214Y-12598214D01*
X13426786Y-12612500D01*
X13441071Y-12626786D01*
X13455357Y-12655357D01*
X13455357Y-12683929D01*
X13441071Y-12726786D01*
X13269643Y-12898214D01*
X13455357Y-12898214D01*
X13741071Y-12898214D02*
X13569643Y-12898214D01*
X13655357Y-12898214D02*
X13655357Y-12598214D01*
X13626786Y-12641071D01*
X13598214Y-12669643D01*
X13569643Y-12683929D01*
X14012500Y-12598214D02*
X13869643Y-12598214D01*
X13855357Y-12741071D01*
X13869643Y-12726786D01*
X13898214Y-12712500D01*
X13969643Y-12712500D01*
X13998214Y-12726786D01*
X14012500Y-12741071D01*
X14026786Y-12769643D01*
X14026786Y-12841071D01*
X14012500Y-12869643D01*
X13998214Y-12883929D01*
X13969643Y-12898214D01*
X13898214Y-12898214D01*
X13869643Y-12883929D01*
X13855357Y-12869643D01*
X14383928Y-12898214D02*
X14383928Y-12598214D01*
X14512500Y-12898214D02*
X14512500Y-12741071D01*
X14498214Y-12712500D01*
X14469643Y-12698214D01*
X14426786Y-12698214D01*
X14398214Y-12712500D01*
X14383928Y-12726786D01*
X14698214Y-12898214D02*
X14669643Y-12883929D01*
X14655357Y-12869643D01*
X14641071Y-12841071D01*
X14641071Y-12755357D01*
X14655357Y-12726786D01*
X14669643Y-12712500D01*
X14698214Y-12698214D01*
X14741071Y-12698214D01*
X14769643Y-12712500D01*
X14783928Y-12726786D01*
X14798214Y-12755357D01*
X14798214Y-12841071D01*
X14783928Y-12869643D01*
X14769643Y-12883929D01*
X14741071Y-12898214D01*
X14698214Y-12898214D01*
X14969643Y-12898214D02*
X14941071Y-12883929D01*
X14926786Y-12855357D01*
X14926786Y-12598214D01*
X15198214Y-12883929D02*
X15169643Y-12898214D01*
X15112500Y-12898214D01*
X15083928Y-12883929D01*
X15069643Y-12855357D01*
X15069643Y-12741071D01*
X15083928Y-12712500D01*
X15112500Y-12698214D01*
X15169643Y-12698214D01*
X15198214Y-12712500D01*
X15212500Y-12741071D01*
X15212500Y-12769643D01*
X15069643Y-12798214D01*
X15326786Y-12883929D02*
X15355357Y-12898214D01*
X15412500Y-12898214D01*
X15441071Y-12883929D01*
X15455357Y-12855357D01*
X15455357Y-12841071D01*
X15441071Y-12812500D01*
X15412500Y-12798214D01*
X15369643Y-12798214D01*
X15341071Y-12783929D01*
X15326786Y-12755357D01*
X15326786Y-12741071D01*
X15341071Y-12712500D01*
X15369643Y-12698214D01*
X15412500Y-12698214D01*
X15441071Y-12712500D01*
X15555357Y-13012500D02*
X15569643Y-12998214D01*
X15598214Y-12955357D01*
X15612500Y-12926786D01*
X15626786Y-12883929D01*
X15641071Y-12812500D01*
X15641071Y-12755357D01*
X15626786Y-12683929D01*
X15612500Y-12641071D01*
X15598214Y-12612500D01*
X15569643Y-12569643D01*
X15555357Y-12555357D01*
X8497500Y-13158500D02*
G75*
G03X8497500Y-13158500I-25400J0D01*
G01*
X8841071Y-12994214D02*
X8869643Y-12994214D01*
X8898214Y-13008500D01*
X8912500Y-13022786D01*
X8926786Y-13051357D01*
X8941071Y-13108500D01*
X8941071Y-13179929D01*
X8926786Y-13237071D01*
X8912500Y-13265643D01*
X8898214Y-13279929D01*
X8869643Y-13294214D01*
X8841071Y-13294214D01*
X8812500Y-13279929D01*
X8798214Y-13265643D01*
X8783928Y-13237071D01*
X8769643Y-13179929D01*
X8769643Y-13108500D01*
X8783928Y-13051357D01*
X8798214Y-13022786D01*
X8812500Y-13008500D01*
X8841071Y-12994214D01*
X9069643Y-13265643D02*
X9083928Y-13279929D01*
X9069643Y-13294214D01*
X9055357Y-13279929D01*
X9069643Y-13265643D01*
X9069643Y-13294214D01*
X9355357Y-12994214D02*
X9212500Y-12994214D01*
X9198214Y-13137071D01*
X9212500Y-13122786D01*
X9241071Y-13108500D01*
X9312500Y-13108500D01*
X9341071Y-13122786D01*
X9355357Y-13137071D01*
X9369643Y-13165643D01*
X9369643Y-13237071D01*
X9355357Y-13265643D01*
X9341071Y-13279929D01*
X9312500Y-13294214D01*
X9241071Y-13294214D01*
X9212500Y-13279929D01*
X9198214Y-13265643D01*
X9655357Y-13294214D02*
X9483928Y-13294214D01*
X9569643Y-13294214D02*
X9569643Y-12994214D01*
X9541071Y-13037071D01*
X9512500Y-13065643D01*
X9483928Y-13079929D01*
X9783928Y-13294214D02*
X9783928Y-13094214D01*
X9783928Y-13122786D02*
X9798214Y-13108500D01*
X9826786Y-13094214D01*
X9869643Y-13094214D01*
X9898214Y-13108500D01*
X9912500Y-13137071D01*
X9912500Y-13294214D01*
X9912500Y-13137071D02*
X9926786Y-13108500D01*
X9955357Y-13094214D01*
X9998214Y-13094214D01*
X10026786Y-13108500D01*
X10041071Y-13137071D01*
X10041071Y-13294214D01*
X10183928Y-13294214D02*
X10183928Y-13094214D01*
X10183928Y-13122786D02*
X10198214Y-13108500D01*
X10226786Y-13094214D01*
X10269643Y-13094214D01*
X10298214Y-13108500D01*
X10312500Y-13137071D01*
X10312500Y-13294214D01*
X10312500Y-13137071D02*
X10326786Y-13108500D01*
X10355357Y-13094214D01*
X10398214Y-13094214D01*
X10426786Y-13108500D01*
X10441071Y-13137071D01*
X10441071Y-13294214D01*
X11026786Y-12979929D02*
X10769643Y-13365643D01*
X11412500Y-12994214D02*
X11441071Y-12994214D01*
X11469643Y-13008500D01*
X11483928Y-13022786D01*
X11498214Y-13051357D01*
X11512500Y-13108500D01*
X11512500Y-13179929D01*
X11498214Y-13237071D01*
X11483928Y-13265643D01*
X11469643Y-13279929D01*
X11441071Y-13294214D01*
X11412500Y-13294214D01*
X11383928Y-13279929D01*
X11369643Y-13265643D01*
X11355357Y-13237071D01*
X11341071Y-13179929D01*
X11341071Y-13108500D01*
X11355357Y-13051357D01*
X11369643Y-13022786D01*
X11383928Y-13008500D01*
X11412500Y-12994214D01*
X11641071Y-13265643D02*
X11655357Y-13279929D01*
X11641071Y-13294214D01*
X11626786Y-13279929D01*
X11641071Y-13265643D01*
X11641071Y-13294214D01*
X11841071Y-12994214D02*
X11869643Y-12994214D01*
X11898214Y-13008500D01*
X11912500Y-13022786D01*
X11926786Y-13051357D01*
X11941071Y-13108500D01*
X11941071Y-13179929D01*
X11926786Y-13237071D01*
X11912500Y-13265643D01*
X11898214Y-13279929D01*
X11869643Y-13294214D01*
X11841071Y-13294214D01*
X11812500Y-13279929D01*
X11798214Y-13265643D01*
X11783928Y-13237071D01*
X11769643Y-13179929D01*
X11769643Y-13108500D01*
X11783928Y-13051357D01*
X11798214Y-13022786D01*
X11812500Y-13008500D01*
X11841071Y-12994214D01*
X12055357Y-13022786D02*
X12069643Y-13008500D01*
X12098214Y-12994214D01*
X12169643Y-12994214D01*
X12198214Y-13008500D01*
X12212500Y-13022786D01*
X12226786Y-13051357D01*
X12226786Y-13079929D01*
X12212500Y-13122786D01*
X12041071Y-13294214D01*
X12226786Y-13294214D01*
X12412500Y-12994214D02*
X12441071Y-12994214D01*
X12469643Y-13008500D01*
X12483928Y-13022786D01*
X12498214Y-13051357D01*
X12512500Y-13108500D01*
X12512500Y-13179929D01*
X12498214Y-13237071D01*
X12483928Y-13265643D01*
X12469643Y-13279929D01*
X12441071Y-13294214D01*
X12412500Y-13294214D01*
X12383928Y-13279929D01*
X12369643Y-13265643D01*
X12355357Y-13237071D01*
X12341071Y-13179929D01*
X12341071Y-13108500D01*
X12355357Y-13051357D01*
X12369643Y-13022786D01*
X12383928Y-13008500D01*
X12412500Y-12994214D01*
X12626786Y-12994214D02*
X12626786Y-13051357D01*
X12741071Y-12994214D02*
X12741071Y-13051357D01*
X13183928Y-13408500D02*
X13169643Y-13394214D01*
X13141071Y-13351357D01*
X13126786Y-13322786D01*
X13112500Y-13279929D01*
X13098214Y-13208500D01*
X13098214Y-13151357D01*
X13112500Y-13079929D01*
X13126786Y-13037071D01*
X13141071Y-13008500D01*
X13169643Y-12965643D01*
X13183928Y-12951357D01*
X13269643Y-12994214D02*
X13455357Y-12994214D01*
X13355357Y-13108500D01*
X13398214Y-13108500D01*
X13426786Y-13122786D01*
X13441071Y-13137071D01*
X13455357Y-13165643D01*
X13455357Y-13237071D01*
X13441071Y-13265643D01*
X13426786Y-13279929D01*
X13398214Y-13294214D01*
X13312500Y-13294214D01*
X13283928Y-13279929D01*
X13269643Y-13265643D01*
X13812500Y-13294214D02*
X13812500Y-12994214D01*
X13941071Y-13294214D02*
X13941071Y-13137071D01*
X13926786Y-13108500D01*
X13898214Y-13094214D01*
X13855357Y-13094214D01*
X13826786Y-13108500D01*
X13812500Y-13122786D01*
X14126786Y-13294214D02*
X14098214Y-13279929D01*
X14083928Y-13265643D01*
X14069643Y-13237071D01*
X14069643Y-13151357D01*
X14083928Y-13122786D01*
X14098214Y-13108500D01*
X14126786Y-13094214D01*
X14169643Y-13094214D01*
X14198214Y-13108500D01*
X14212500Y-13122786D01*
X14226786Y-13151357D01*
X14226786Y-13237071D01*
X14212500Y-13265643D01*
X14198214Y-13279929D01*
X14169643Y-13294214D01*
X14126786Y-13294214D01*
X14398214Y-13294214D02*
X14369643Y-13279929D01*
X14355357Y-13251357D01*
X14355357Y-12994214D01*
X14626786Y-13279929D02*
X14598214Y-13294214D01*
X14541071Y-13294214D01*
X14512500Y-13279929D01*
X14498214Y-13251357D01*
X14498214Y-13137071D01*
X14512500Y-13108500D01*
X14541071Y-13094214D01*
X14598214Y-13094214D01*
X14626786Y-13108500D01*
X14641071Y-13137071D01*
X14641071Y-13165643D01*
X14498214Y-13194214D01*
X14755357Y-13279929D02*
X14783928Y-13294214D01*
X14841071Y-13294214D01*
X14869643Y-13279929D01*
X14883928Y-13251357D01*
X14883928Y-13237071D01*
X14869643Y-13208500D01*
X14841071Y-13194214D01*
X14798214Y-13194214D01*
X14769643Y-13179929D01*
X14755357Y-13151357D01*
X14755357Y-13137071D01*
X14769643Y-13108500D01*
X14798214Y-13094214D01*
X14841071Y-13094214D01*
X14869643Y-13108500D01*
X14983928Y-13408500D02*
X14998214Y-13394214D01*
X15026786Y-13351357D01*
X15041071Y-13322786D01*
X15055357Y-13279929D01*
X15069643Y-13208500D01*
X15069643Y-13151357D01*
X15055357Y-13079929D01*
X15041071Y-13037071D01*
X15026786Y-13008500D01*
X14998214Y-12965643D01*
X14983928Y-12951357D01*
X8447500Y-13504500D02*
X8447500Y-13604500D01*
X8397500Y-13554500D02*
X8497500Y-13554500D01*
X8941071Y-13690214D02*
X8769643Y-13690214D01*
X8855357Y-13690214D02*
X8855357Y-13390214D01*
X8826786Y-13433071D01*
X8798214Y-13461643D01*
X8769643Y-13475929D01*
X9069643Y-13661643D02*
X9083928Y-13675929D01*
X9069643Y-13690214D01*
X9055357Y-13675929D01*
X9069643Y-13661643D01*
X9069643Y-13690214D01*
X9269643Y-13390214D02*
X9298214Y-13390214D01*
X9326786Y-13404500D01*
X9341071Y-13418786D01*
X9355357Y-13447357D01*
X9369643Y-13504500D01*
X9369643Y-13575929D01*
X9355357Y-13633071D01*
X9341071Y-13661643D01*
X9326786Y-13675929D01*
X9298214Y-13690214D01*
X9269643Y-13690214D01*
X9241071Y-13675929D01*
X9226786Y-13661643D01*
X9212500Y-13633071D01*
X9198214Y-13575929D01*
X9198214Y-13504500D01*
X9212500Y-13447357D01*
X9226786Y-13418786D01*
X9241071Y-13404500D01*
X9269643Y-13390214D01*
X9555357Y-13390214D02*
X9583928Y-13390214D01*
X9612500Y-13404500D01*
X9626786Y-13418786D01*
X9641071Y-13447357D01*
X9655357Y-13504500D01*
X9655357Y-13575929D01*
X9641071Y-13633071D01*
X9626786Y-13661643D01*
X9612500Y-13675929D01*
X9583928Y-13690214D01*
X9555357Y-13690214D01*
X9526786Y-13675929D01*
X9512500Y-13661643D01*
X9498214Y-13633071D01*
X9483928Y-13575929D01*
X9483928Y-13504500D01*
X9498214Y-13447357D01*
X9512500Y-13418786D01*
X9526786Y-13404500D01*
X9555357Y-13390214D01*
X9783928Y-13690214D02*
X9783928Y-13490214D01*
X9783928Y-13518786D02*
X9798214Y-13504500D01*
X9826786Y-13490214D01*
X9869643Y-13490214D01*
X9898214Y-13504500D01*
X9912500Y-13533071D01*
X9912500Y-13690214D01*
X9912500Y-13533071D02*
X9926786Y-13504500D01*
X9955357Y-13490214D01*
X9998214Y-13490214D01*
X10026786Y-13504500D01*
X10041071Y-13533071D01*
X10041071Y-13690214D01*
X10183928Y-13690214D02*
X10183928Y-13490214D01*
X10183928Y-13518786D02*
X10198214Y-13504500D01*
X10226786Y-13490214D01*
X10269643Y-13490214D01*
X10298214Y-13504500D01*
X10312500Y-13533071D01*
X10312500Y-13690214D01*
X10312500Y-13533071D02*
X10326786Y-13504500D01*
X10355357Y-13490214D01*
X10398214Y-13490214D01*
X10426786Y-13504500D01*
X10441071Y-13533071D01*
X10441071Y-13690214D01*
X11026786Y-13375929D02*
X10769643Y-13761643D01*
X11412500Y-13390214D02*
X11441071Y-13390214D01*
X11469643Y-13404500D01*
X11483928Y-13418786D01*
X11498214Y-13447357D01*
X11512500Y-13504500D01*
X11512500Y-13575929D01*
X11498214Y-13633071D01*
X11483928Y-13661643D01*
X11469643Y-13675929D01*
X11441071Y-13690214D01*
X11412500Y-13690214D01*
X11383928Y-13675929D01*
X11369643Y-13661643D01*
X11355357Y-13633071D01*
X11341071Y-13575929D01*
X11341071Y-13504500D01*
X11355357Y-13447357D01*
X11369643Y-13418786D01*
X11383928Y-13404500D01*
X11412500Y-13390214D01*
X11641071Y-13661643D02*
X11655357Y-13675929D01*
X11641071Y-13690214D01*
X11626786Y-13675929D01*
X11641071Y-13661643D01*
X11641071Y-13690214D01*
X11841071Y-13390214D02*
X11869643Y-13390214D01*
X11898214Y-13404500D01*
X11912500Y-13418786D01*
X11926786Y-13447357D01*
X11941071Y-13504500D01*
X11941071Y-13575929D01*
X11926786Y-13633071D01*
X11912500Y-13661643D01*
X11898214Y-13675929D01*
X11869643Y-13690214D01*
X11841071Y-13690214D01*
X11812500Y-13675929D01*
X11798214Y-13661643D01*
X11783928Y-13633071D01*
X11769643Y-13575929D01*
X11769643Y-13504500D01*
X11783928Y-13447357D01*
X11798214Y-13418786D01*
X11812500Y-13404500D01*
X11841071Y-13390214D01*
X12041071Y-13390214D02*
X12226786Y-13390214D01*
X12126786Y-13504500D01*
X12169643Y-13504500D01*
X12198214Y-13518786D01*
X12212500Y-13533071D01*
X12226786Y-13561643D01*
X12226786Y-13633071D01*
X12212500Y-13661643D01*
X12198214Y-13675929D01*
X12169643Y-13690214D01*
X12083928Y-13690214D01*
X12055357Y-13675929D01*
X12041071Y-13661643D01*
X12369643Y-13690214D02*
X12426786Y-13690214D01*
X12455357Y-13675929D01*
X12469643Y-13661643D01*
X12498214Y-13618786D01*
X12512500Y-13561643D01*
X12512500Y-13447357D01*
X12498214Y-13418786D01*
X12483928Y-13404500D01*
X12455357Y-13390214D01*
X12398214Y-13390214D01*
X12369643Y-13404500D01*
X12355357Y-13418786D01*
X12341071Y-13447357D01*
X12341071Y-13518786D01*
X12355357Y-13547357D01*
X12369643Y-13561643D01*
X12398214Y-13575929D01*
X12455357Y-13575929D01*
X12483928Y-13561643D01*
X12498214Y-13547357D01*
X12512500Y-13518786D01*
X12626786Y-13390214D02*
X12626786Y-13447357D01*
X12741071Y-13390214D02*
X12741071Y-13447357D01*
X13183928Y-13804500D02*
X13169643Y-13790214D01*
X13141071Y-13747357D01*
X13126786Y-13718786D01*
X13112500Y-13675929D01*
X13098214Y-13604500D01*
X13098214Y-13547357D01*
X13112500Y-13475929D01*
X13126786Y-13433071D01*
X13141071Y-13404500D01*
X13169643Y-13361643D01*
X13183928Y-13347357D01*
X13341071Y-13518786D02*
X13312500Y-13504500D01*
X13298214Y-13490214D01*
X13283928Y-13461643D01*
X13283928Y-13447357D01*
X13298214Y-13418786D01*
X13312500Y-13404500D01*
X13341071Y-13390214D01*
X13398214Y-13390214D01*
X13426786Y-13404500D01*
X13441071Y-13418786D01*
X13455357Y-13447357D01*
X13455357Y-13461643D01*
X13441071Y-13490214D01*
X13426786Y-13504500D01*
X13398214Y-13518786D01*
X13341071Y-13518786D01*
X13312500Y-13533071D01*
X13298214Y-13547357D01*
X13283928Y-13575929D01*
X13283928Y-13633071D01*
X13298214Y-13661643D01*
X13312500Y-13675929D01*
X13341071Y-13690214D01*
X13398214Y-13690214D01*
X13426786Y-13675929D01*
X13441071Y-13661643D01*
X13455357Y-13633071D01*
X13455357Y-13575929D01*
X13441071Y-13547357D01*
X13426786Y-13533071D01*
X13398214Y-13518786D01*
X13712500Y-13490214D02*
X13712500Y-13690214D01*
X13641071Y-13375929D02*
X13569643Y-13590214D01*
X13755357Y-13590214D01*
X14098214Y-13690214D02*
X14098214Y-13390214D01*
X14226786Y-13690214D02*
X14226786Y-13533071D01*
X14212500Y-13504500D01*
X14183928Y-13490214D01*
X14141071Y-13490214D01*
X14112500Y-13504500D01*
X14098214Y-13518786D01*
X14412500Y-13690214D02*
X14383928Y-13675929D01*
X14369643Y-13661643D01*
X14355357Y-13633071D01*
X14355357Y-13547357D01*
X14369643Y-13518786D01*
X14383928Y-13504500D01*
X14412500Y-13490214D01*
X14455357Y-13490214D01*
X14483928Y-13504500D01*
X14498214Y-13518786D01*
X14512500Y-13547357D01*
X14512500Y-13633071D01*
X14498214Y-13661643D01*
X14483928Y-13675929D01*
X14455357Y-13690214D01*
X14412500Y-13690214D01*
X14683928Y-13690214D02*
X14655357Y-13675929D01*
X14641071Y-13647357D01*
X14641071Y-13390214D01*
X14912500Y-13675929D02*
X14883928Y-13690214D01*
X14826786Y-13690214D01*
X14798214Y-13675929D01*
X14783928Y-13647357D01*
X14783928Y-13533071D01*
X14798214Y-13504500D01*
X14826786Y-13490214D01*
X14883928Y-13490214D01*
X14912500Y-13504500D01*
X14926786Y-13533071D01*
X14926786Y-13561643D01*
X14783928Y-13590214D01*
X15041071Y-13675929D02*
X15069643Y-13690214D01*
X15126786Y-13690214D01*
X15155357Y-13675929D01*
X15169643Y-13647357D01*
X15169643Y-13633071D01*
X15155357Y-13604500D01*
X15126786Y-13590214D01*
X15083928Y-13590214D01*
X15055357Y-13575929D01*
X15041071Y-13547357D01*
X15041071Y-13533071D01*
X15055357Y-13504500D01*
X15083928Y-13490214D01*
X15126786Y-13490214D01*
X15155357Y-13504500D01*
X15269643Y-13804500D02*
X15283928Y-13790214D01*
X15312500Y-13747357D01*
X15326786Y-13718786D01*
X15341071Y-13675929D01*
X15355357Y-13604500D01*
X15355357Y-13547357D01*
X15341071Y-13475929D01*
X15326786Y-13433071D01*
X15312500Y-13404500D01*
X15283928Y-13361643D01*
X15269643Y-13347357D01*
M02*
