%FSLAX45Y45*%
G04 Gerber Fmt 4.5, Leading zero omitted, Abs format (unit mm)*
G04 Created by KiCad (PCBNEW 5.1.5+dfsg1-2build2) date 2023-06-17 11:27:24*
%MOMM*%
%LPD*%
G04 APERTURE LIST*
%TA.AperFunction,Profile*%
%ADD10C,0.050000*%
%TD*%
%ADD11C,0.200000*%
%ADD12C,0.300000*%
G04 APERTURE END LIST*
D10*
X9100000Y-11800000D02*
G75*
G02X9000000Y-11700000I0J100000D01*
G01*
X14900000Y-11700000D02*
G75*
G02X14800000Y-11800000I-100000J0D01*
G01*
X14800000Y-4000000D02*
G75*
G02X14900000Y-4100000I0J-100000D01*
G01*
X9000000Y-4100000D02*
G75*
G02X9100000Y-4000000I100000J0D01*
G01*
X9000000Y-11700000D02*
X9000000Y-4100000D01*
X14800000Y-11800000D02*
X9100000Y-11800000D01*
X14900000Y-4100000D02*
X14900000Y-11700000D01*
X9100000Y-4000000D02*
X14800000Y-4000000D01*
D11*
D12*
X9283928Y-12268214D02*
X9283928Y-11968214D01*
X9355357Y-11968214D01*
X9398214Y-11982500D01*
X9426786Y-12011071D01*
X9441071Y-12039643D01*
X9455357Y-12096786D01*
X9455357Y-12139643D01*
X9441071Y-12196786D01*
X9426786Y-12225357D01*
X9398214Y-12253929D01*
X9355357Y-12268214D01*
X9283928Y-12268214D01*
X9583928Y-12268214D02*
X9583928Y-12068214D01*
X9583928Y-12125357D02*
X9598214Y-12096786D01*
X9612500Y-12082500D01*
X9641071Y-12068214D01*
X9669643Y-12068214D01*
X9769643Y-12268214D02*
X9769643Y-12068214D01*
X9769643Y-11968214D02*
X9755357Y-11982500D01*
X9769643Y-11996786D01*
X9783928Y-11982500D01*
X9769643Y-11968214D01*
X9769643Y-11996786D01*
X9955357Y-12268214D02*
X9926786Y-12253929D01*
X9912500Y-12225357D01*
X9912500Y-11968214D01*
X10112500Y-12268214D02*
X10083928Y-12253929D01*
X10069643Y-12225357D01*
X10069643Y-11968214D01*
X10455357Y-12268214D02*
X10455357Y-11968214D01*
X10555357Y-12182500D01*
X10655357Y-11968214D01*
X10655357Y-12268214D01*
X10926786Y-12268214D02*
X10926786Y-12111071D01*
X10912500Y-12082500D01*
X10883928Y-12068214D01*
X10826786Y-12068214D01*
X10798214Y-12082500D01*
X10926786Y-12253929D02*
X10898214Y-12268214D01*
X10826786Y-12268214D01*
X10798214Y-12253929D01*
X10783928Y-12225357D01*
X10783928Y-12196786D01*
X10798214Y-12168214D01*
X10826786Y-12153929D01*
X10898214Y-12153929D01*
X10926786Y-12139643D01*
X11069643Y-12068214D02*
X11069643Y-12368214D01*
X11069643Y-12082500D02*
X11098214Y-12068214D01*
X11155357Y-12068214D01*
X11183928Y-12082500D01*
X11198214Y-12096786D01*
X11212500Y-12125357D01*
X11212500Y-12211071D01*
X11198214Y-12239643D01*
X11183928Y-12253929D01*
X11155357Y-12268214D01*
X11098214Y-12268214D01*
X11069643Y-12253929D01*
X11341071Y-12239643D02*
X11355357Y-12253929D01*
X11341071Y-12268214D01*
X11326786Y-12253929D01*
X11341071Y-12239643D01*
X11341071Y-12268214D01*
X11341071Y-12082500D02*
X11355357Y-12096786D01*
X11341071Y-12111071D01*
X11326786Y-12096786D01*
X11341071Y-12082500D01*
X11341071Y-12111071D01*
M02*
