%FSLAX45Y45*%
G04 Gerber Fmt 4.5, Leading zero omitted, Abs format (unit mm)*
G04 Created by KiCad (PCBNEW 5.1.5+dfsg1-2build2) date 2023-12-12 18:10:12*
%MOMM*%
%LPD*%
G04 APERTURE LIST*
%TA.AperFunction,Profile*%
%ADD10C,0.050000*%
%TD*%
%ADD11C,0.200000*%
%ADD12C,0.300000*%
G04 APERTURE END LIST*
D10*
X8600000Y-11800000D02*
G75*
G02X8500000Y-11700000I0J100000D01*
G01*
X15500000Y-11700000D02*
G75*
G02X15400000Y-11800000I-100000J0D01*
G01*
X15400000Y-4000000D02*
G75*
G02X15500000Y-4100000I0J-100000D01*
G01*
X8500000Y-4100000D02*
G75*
G02X8600000Y-4000000I100000J0D01*
G01*
X8500000Y-11700000D02*
X8500000Y-4100000D01*
X15400000Y-11800000D02*
X8600000Y-11800000D01*
X15500000Y-4100000D02*
X15500000Y-11700000D01*
X8600000Y-4000000D02*
X15400000Y-4000000D01*
D11*
X14865000Y-4365000D02*
X15135000Y-4635000D01*
X15135000Y-4365000D02*
X14865000Y-4635000D01*
X10265000Y-4365000D02*
X10535000Y-4635000D01*
X10535000Y-4365000D02*
X10265000Y-4635000D01*
X14865000Y-11165000D02*
X15135000Y-11435000D01*
X15135000Y-11165000D02*
X14865000Y-11435000D01*
X10265000Y-11165000D02*
X10535000Y-11435000D01*
X10535000Y-11165000D02*
X10265000Y-11435000D01*
D12*
X8783928Y-12268214D02*
X8783928Y-11968214D01*
X8855357Y-11968214D01*
X8898214Y-11982500D01*
X8926786Y-12011071D01*
X8941071Y-12039643D01*
X8955357Y-12096786D01*
X8955357Y-12139643D01*
X8941071Y-12196786D01*
X8926786Y-12225357D01*
X8898214Y-12253929D01*
X8855357Y-12268214D01*
X8783928Y-12268214D01*
X9083928Y-12268214D02*
X9083928Y-12068214D01*
X9083928Y-12125357D02*
X9098214Y-12096786D01*
X9112500Y-12082500D01*
X9141071Y-12068214D01*
X9169643Y-12068214D01*
X9269643Y-12268214D02*
X9269643Y-12068214D01*
X9269643Y-11968214D02*
X9255357Y-11982500D01*
X9269643Y-11996786D01*
X9283928Y-11982500D01*
X9269643Y-11968214D01*
X9269643Y-11996786D01*
X9455357Y-12268214D02*
X9426786Y-12253929D01*
X9412500Y-12225357D01*
X9412500Y-11968214D01*
X9612500Y-12268214D02*
X9583928Y-12253929D01*
X9569643Y-12225357D01*
X9569643Y-11968214D01*
X9955357Y-12268214D02*
X9955357Y-11968214D01*
X10055357Y-12182500D01*
X10155357Y-11968214D01*
X10155357Y-12268214D01*
X10426786Y-12268214D02*
X10426786Y-12111071D01*
X10412500Y-12082500D01*
X10383928Y-12068214D01*
X10326786Y-12068214D01*
X10298214Y-12082500D01*
X10426786Y-12253929D02*
X10398214Y-12268214D01*
X10326786Y-12268214D01*
X10298214Y-12253929D01*
X10283928Y-12225357D01*
X10283928Y-12196786D01*
X10298214Y-12168214D01*
X10326786Y-12153929D01*
X10398214Y-12153929D01*
X10426786Y-12139643D01*
X10569643Y-12068214D02*
X10569643Y-12368214D01*
X10569643Y-12082500D02*
X10598214Y-12068214D01*
X10655357Y-12068214D01*
X10683928Y-12082500D01*
X10698214Y-12096786D01*
X10712500Y-12125357D01*
X10712500Y-12211071D01*
X10698214Y-12239643D01*
X10683928Y-12253929D01*
X10655357Y-12268214D01*
X10598214Y-12268214D01*
X10569643Y-12253929D01*
X10841071Y-12239643D02*
X10855357Y-12253929D01*
X10841071Y-12268214D01*
X10826786Y-12253929D01*
X10841071Y-12239643D01*
X10841071Y-12268214D01*
X10841071Y-12082500D02*
X10855357Y-12096786D01*
X10841071Y-12111071D01*
X10826786Y-12096786D01*
X10841071Y-12082500D01*
X10841071Y-12111071D01*
X8227500Y-12627500D02*
X8497500Y-12897500D01*
X8497500Y-12627500D02*
X8227500Y-12897500D01*
X8769643Y-12626786D02*
X8783928Y-12612500D01*
X8812500Y-12598214D01*
X8883928Y-12598214D01*
X8912500Y-12612500D01*
X8926786Y-12626786D01*
X8941071Y-12655357D01*
X8941071Y-12683929D01*
X8926786Y-12726786D01*
X8755357Y-12898214D01*
X8941071Y-12898214D01*
X9069643Y-12869643D02*
X9083928Y-12883929D01*
X9069643Y-12898214D01*
X9055357Y-12883929D01*
X9069643Y-12869643D01*
X9069643Y-12898214D01*
X9183928Y-12598214D02*
X9383928Y-12598214D01*
X9255357Y-12898214D01*
X9555357Y-12598214D02*
X9583928Y-12598214D01*
X9612500Y-12612500D01*
X9626786Y-12626786D01*
X9641071Y-12655357D01*
X9655357Y-12712500D01*
X9655357Y-12783929D01*
X9641071Y-12841071D01*
X9626786Y-12869643D01*
X9612500Y-12883929D01*
X9583928Y-12898214D01*
X9555357Y-12898214D01*
X9526786Y-12883929D01*
X9512500Y-12869643D01*
X9498214Y-12841071D01*
X9483928Y-12783929D01*
X9483928Y-12712500D01*
X9498214Y-12655357D01*
X9512500Y-12626786D01*
X9526786Y-12612500D01*
X9555357Y-12598214D01*
X9783928Y-12898214D02*
X9783928Y-12698214D01*
X9783928Y-12726786D02*
X9798214Y-12712500D01*
X9826786Y-12698214D01*
X9869643Y-12698214D01*
X9898214Y-12712500D01*
X9912500Y-12741071D01*
X9912500Y-12898214D01*
X9912500Y-12741071D02*
X9926786Y-12712500D01*
X9955357Y-12698214D01*
X9998214Y-12698214D01*
X10026786Y-12712500D01*
X10041071Y-12741071D01*
X10041071Y-12898214D01*
X10183928Y-12898214D02*
X10183928Y-12698214D01*
X10183928Y-12726786D02*
X10198214Y-12712500D01*
X10226786Y-12698214D01*
X10269643Y-12698214D01*
X10298214Y-12712500D01*
X10312500Y-12741071D01*
X10312500Y-12898214D01*
X10312500Y-12741071D02*
X10326786Y-12712500D01*
X10355357Y-12698214D01*
X10398214Y-12698214D01*
X10426786Y-12712500D01*
X10441071Y-12741071D01*
X10441071Y-12898214D01*
X11026786Y-12583929D02*
X10769643Y-12969643D01*
X11412500Y-12598214D02*
X11441071Y-12598214D01*
X11469643Y-12612500D01*
X11483928Y-12626786D01*
X11498214Y-12655357D01*
X11512500Y-12712500D01*
X11512500Y-12783929D01*
X11498214Y-12841071D01*
X11483928Y-12869643D01*
X11469643Y-12883929D01*
X11441071Y-12898214D01*
X11412500Y-12898214D01*
X11383928Y-12883929D01*
X11369643Y-12869643D01*
X11355357Y-12841071D01*
X11341071Y-12783929D01*
X11341071Y-12712500D01*
X11355357Y-12655357D01*
X11369643Y-12626786D01*
X11383928Y-12612500D01*
X11412500Y-12598214D01*
X11641071Y-12869643D02*
X11655357Y-12883929D01*
X11641071Y-12898214D01*
X11626786Y-12883929D01*
X11641071Y-12869643D01*
X11641071Y-12898214D01*
X11941071Y-12898214D02*
X11769643Y-12898214D01*
X11855357Y-12898214D02*
X11855357Y-12598214D01*
X11826786Y-12641071D01*
X11798214Y-12669643D01*
X11769643Y-12683929D01*
X12126786Y-12598214D02*
X12155357Y-12598214D01*
X12183928Y-12612500D01*
X12198214Y-12626786D01*
X12212500Y-12655357D01*
X12226786Y-12712500D01*
X12226786Y-12783929D01*
X12212500Y-12841071D01*
X12198214Y-12869643D01*
X12183928Y-12883929D01*
X12155357Y-12898214D01*
X12126786Y-12898214D01*
X12098214Y-12883929D01*
X12083928Y-12869643D01*
X12069643Y-12841071D01*
X12055357Y-12783929D01*
X12055357Y-12712500D01*
X12069643Y-12655357D01*
X12083928Y-12626786D01*
X12098214Y-12612500D01*
X12126786Y-12598214D01*
X12483928Y-12598214D02*
X12426786Y-12598214D01*
X12398214Y-12612500D01*
X12383928Y-12626786D01*
X12355357Y-12669643D01*
X12341071Y-12726786D01*
X12341071Y-12841071D01*
X12355357Y-12869643D01*
X12369643Y-12883929D01*
X12398214Y-12898214D01*
X12455357Y-12898214D01*
X12483928Y-12883929D01*
X12498214Y-12869643D01*
X12512500Y-12841071D01*
X12512500Y-12769643D01*
X12498214Y-12741071D01*
X12483928Y-12726786D01*
X12455357Y-12712500D01*
X12398214Y-12712500D01*
X12369643Y-12726786D01*
X12355357Y-12741071D01*
X12341071Y-12769643D01*
X12626786Y-12598214D02*
X12626786Y-12655357D01*
X12741071Y-12598214D02*
X12741071Y-12655357D01*
X13183928Y-13012500D02*
X13169643Y-12998214D01*
X13141071Y-12955357D01*
X13126786Y-12926786D01*
X13112500Y-12883929D01*
X13098214Y-12812500D01*
X13098214Y-12755357D01*
X13112500Y-12683929D01*
X13126786Y-12641071D01*
X13141071Y-12612500D01*
X13169643Y-12569643D01*
X13183928Y-12555357D01*
X13426786Y-12698214D02*
X13426786Y-12898214D01*
X13355357Y-12583929D02*
X13283928Y-12798214D01*
X13469643Y-12798214D01*
X13812500Y-12898214D02*
X13812500Y-12598214D01*
X13941071Y-12898214D02*
X13941071Y-12741071D01*
X13926786Y-12712500D01*
X13898214Y-12698214D01*
X13855357Y-12698214D01*
X13826786Y-12712500D01*
X13812500Y-12726786D01*
X14126786Y-12898214D02*
X14098214Y-12883929D01*
X14083928Y-12869643D01*
X14069643Y-12841071D01*
X14069643Y-12755357D01*
X14083928Y-12726786D01*
X14098214Y-12712500D01*
X14126786Y-12698214D01*
X14169643Y-12698214D01*
X14198214Y-12712500D01*
X14212500Y-12726786D01*
X14226786Y-12755357D01*
X14226786Y-12841071D01*
X14212500Y-12869643D01*
X14198214Y-12883929D01*
X14169643Y-12898214D01*
X14126786Y-12898214D01*
X14398214Y-12898214D02*
X14369643Y-12883929D01*
X14355357Y-12855357D01*
X14355357Y-12598214D01*
X14626786Y-12883929D02*
X14598214Y-12898214D01*
X14541071Y-12898214D01*
X14512500Y-12883929D01*
X14498214Y-12855357D01*
X14498214Y-12741071D01*
X14512500Y-12712500D01*
X14541071Y-12698214D01*
X14598214Y-12698214D01*
X14626786Y-12712500D01*
X14641071Y-12741071D01*
X14641071Y-12769643D01*
X14498214Y-12798214D01*
X14755357Y-12883929D02*
X14783928Y-12898214D01*
X14841071Y-12898214D01*
X14869643Y-12883929D01*
X14883928Y-12855357D01*
X14883928Y-12841071D01*
X14869643Y-12812500D01*
X14841071Y-12798214D01*
X14798214Y-12798214D01*
X14769643Y-12783929D01*
X14755357Y-12755357D01*
X14755357Y-12741071D01*
X14769643Y-12712500D01*
X14798214Y-12698214D01*
X14841071Y-12698214D01*
X14869643Y-12712500D01*
X14983928Y-13012500D02*
X14998214Y-12998214D01*
X15026786Y-12955357D01*
X15041071Y-12926786D01*
X15055357Y-12883929D01*
X15069643Y-12812500D01*
X15069643Y-12755357D01*
X15055357Y-12683929D01*
X15041071Y-12641071D01*
X15026786Y-12612500D01*
X14998214Y-12569643D01*
X14983928Y-12555357D01*
X15526786Y-13012500D02*
X15512500Y-12998214D01*
X15483928Y-12955357D01*
X15469643Y-12926786D01*
X15455357Y-12883929D01*
X15441071Y-12812500D01*
X15441071Y-12755357D01*
X15455357Y-12683929D01*
X15469643Y-12641071D01*
X15483928Y-12612500D01*
X15512500Y-12569643D01*
X15526786Y-12555357D01*
X15641071Y-12698214D02*
X15641071Y-12898214D01*
X15641071Y-12726786D02*
X15655357Y-12712500D01*
X15683928Y-12698214D01*
X15726786Y-12698214D01*
X15755357Y-12712500D01*
X15769643Y-12741071D01*
X15769643Y-12898214D01*
X15955357Y-12898214D02*
X15926786Y-12883929D01*
X15912500Y-12869643D01*
X15898214Y-12841071D01*
X15898214Y-12755357D01*
X15912500Y-12726786D01*
X15926786Y-12712500D01*
X15955357Y-12698214D01*
X15998214Y-12698214D01*
X16026786Y-12712500D01*
X16041071Y-12726786D01*
X16055357Y-12755357D01*
X16055357Y-12841071D01*
X16041071Y-12869643D01*
X16026786Y-12883929D01*
X15998214Y-12898214D01*
X15955357Y-12898214D01*
X16141071Y-12698214D02*
X16255357Y-12698214D01*
X16183928Y-12598214D02*
X16183928Y-12855357D01*
X16198214Y-12883929D01*
X16226786Y-12898214D01*
X16255357Y-12898214D01*
X16583928Y-12698214D02*
X16583928Y-12998214D01*
X16583928Y-12712500D02*
X16612500Y-12698214D01*
X16669643Y-12698214D01*
X16698214Y-12712500D01*
X16712500Y-12726786D01*
X16726786Y-12755357D01*
X16726786Y-12841071D01*
X16712500Y-12869643D01*
X16698214Y-12883929D01*
X16669643Y-12898214D01*
X16612500Y-12898214D01*
X16583928Y-12883929D01*
X16898214Y-12898214D02*
X16869643Y-12883929D01*
X16855357Y-12855357D01*
X16855357Y-12598214D01*
X17141071Y-12898214D02*
X17141071Y-12741071D01*
X17126786Y-12712500D01*
X17098214Y-12698214D01*
X17041071Y-12698214D01*
X17012500Y-12712500D01*
X17141071Y-12883929D02*
X17112500Y-12898214D01*
X17041071Y-12898214D01*
X17012500Y-12883929D01*
X16998214Y-12855357D01*
X16998214Y-12826786D01*
X17012500Y-12798214D01*
X17041071Y-12783929D01*
X17112500Y-12783929D01*
X17141071Y-12769643D01*
X17241071Y-12698214D02*
X17355357Y-12698214D01*
X17283928Y-12598214D02*
X17283928Y-12855357D01*
X17298214Y-12883929D01*
X17326786Y-12898214D01*
X17355357Y-12898214D01*
X17569643Y-12883929D02*
X17541071Y-12898214D01*
X17483928Y-12898214D01*
X17455357Y-12883929D01*
X17441071Y-12855357D01*
X17441071Y-12741071D01*
X17455357Y-12712500D01*
X17483928Y-12698214D01*
X17541071Y-12698214D01*
X17569643Y-12712500D01*
X17583928Y-12741071D01*
X17583928Y-12769643D01*
X17441071Y-12798214D01*
X17841071Y-12898214D02*
X17841071Y-12598214D01*
X17841071Y-12883929D02*
X17812500Y-12898214D01*
X17755357Y-12898214D01*
X17726786Y-12883929D01*
X17712500Y-12869643D01*
X17698214Y-12841071D01*
X17698214Y-12755357D01*
X17712500Y-12726786D01*
X17726786Y-12712500D01*
X17755357Y-12698214D01*
X17812500Y-12698214D01*
X17841071Y-12712500D01*
X17955357Y-13012500D02*
X17969643Y-12998214D01*
X17998214Y-12955357D01*
X18012500Y-12926786D01*
X18026786Y-12883929D01*
X18041071Y-12812500D01*
X18041071Y-12755357D01*
X18026786Y-12683929D01*
X18012500Y-12641071D01*
X17998214Y-12612500D01*
X17969643Y-12569643D01*
X17955357Y-12555357D01*
M02*
